<?xml version="1.0" encoding="UTF-8"?>
<svg id="Layer_1" data-name="Layer 1" xmlns="http://www.w3.org/2000/svg" viewBox="0 0 1127.41 1015.36">
  <defs>
    <style>
      .cls-1 {
        fill: #d9d9d9;
      }

      .cls-2 {
        fill: #07314c;
      }

      .cls-3 {
        fill: #e56179;
      }

      .cls-4 {
        isolation: isolate;
      }

      .cls-5 {
        fill: #a6a6a6;
      }

      .cls-6 {
        fill: #56b685;
      }

      .cls-7 {
        fill: #f5f6f8;
      }

      .cls-8 {
        fill: none;
        stroke: #d9d9d9;
        stroke-linejoin: round;
        stroke-width: 2px;
      }

      .cls-9 {
        fill: #f2f2f2;
      }

      .cls-10 {
        fill: #6aa9d2;
      }
    </style>
  </defs>
  <rect class="cls-7" x="-14.1" y="-14.56" width="1155.61" height="1039.75"/>
  <g>
    <path d="M35.87,77.64v-24.1h8.63c6.87,0,11.9,4.45,11.9,12.07s-5.06,12.03-11.93,12.03h-8.6ZM44.3,73.28c3.94,0,7.24-2.45,7.24-7.68s-3.26-7.72-7.21-7.72h-3.77v15.4h3.74Z"/>
    <path d="M75.44,72.84c-.85,2.89-3.5,5.3-7.62,5.3-4.59,0-8.63-3.3-8.63-8.94,0-5.34,3.94-8.81,8.23-8.81,5.17,0,8.26,3.3,8.26,8.67,0,.65-.07,1.33-.07,1.39h-11.97c.1,2.21,1.97,3.81,4.22,3.81,2.11,0,3.26-1.05,3.81-2.55l3.77,1.12ZM71.23,67.37c-.07-1.67-1.16-3.3-3.74-3.3-2.35,0-3.64,1.77-3.74,3.3h7.48Z"/>
    <path d="M89.52,65.4c-.51-.1-.95-.14-1.36-.14-2.31,0-4.32,1.12-4.32,4.73v7.65h-4.52v-16.73h4.39v2.48c1.02-2.21,3.33-2.62,4.76-2.62.37,0,.71.03,1.05.07v4.56Z"/>
    <path d="M109.07,53.53c4.69,0,7.34,2.75,7.34,6.49,0,2.48-1.5,4.49-3.5,5.17,2.35.58,4.25,2.72,4.25,5.71,0,3.91-2.92,6.73-7.45,6.73h-9.31v-24.1h8.67ZM108.35,63.49c2.14,0,3.43-1.19,3.43-3.03s-1.19-2.99-3.47-2.99h-3.3v6.02h3.33ZM108.83,73.73c2.28,0,3.64-1.19,3.64-3.13s-1.22-3.23-3.57-3.23h-3.88v6.36h3.81Z"/>
    <path d="M136.23,72.84c-.85,2.89-3.5,5.3-7.62,5.3-4.59,0-8.63-3.3-8.63-8.94,0-5.34,3.94-8.81,8.23-8.81,5.17,0,8.26,3.3,8.26,8.67,0,.65-.07,1.33-.07,1.39h-11.97c.1,2.21,1.97,3.81,4.22,3.81,2.11,0,3.26-1.05,3.81-2.55l3.77,1.12ZM132.02,67.37c-.07-1.67-1.16-3.3-3.74-3.3-2.35,0-3.64,1.77-3.74,3.3h7.48Z"/>
    <path d="M142.86,72.13c.1,1.33,1.09,2.55,3.06,2.55,1.5,0,2.21-.78,2.21-1.67,0-.75-.51-1.36-1.8-1.63l-2.21-.51c-3.23-.71-4.69-2.65-4.69-5,0-2.99,2.65-5.47,6.26-5.47,4.76,0,6.36,3.03,6.56,4.83l-3.77.85c-.13-.99-.85-2.24-2.75-2.24-1.19,0-2.14.71-2.14,1.67,0,.82.61,1.33,1.53,1.5l2.38.51c3.3.68,4.96,2.69,4.96,5.13,0,2.72-2.11,5.51-6.49,5.51-5.03,0-6.76-3.26-6.97-5.17l3.88-.85Z"/>
    <path d="M162.01,60.91h3.37v4.01h-3.37v7c0,1.46.68,1.94,1.97,1.94.54,0,1.16-.07,1.39-.14v3.74c-.41.17-1.22.41-2.55.41-3.26,0-5.3-1.94-5.3-5.17v-7.79h-3.03v-4.01h.85c1.77,0,2.58-1.16,2.58-2.65v-2.35h4.08v5Z"/>
    <path d="M173.02,68.02l4.11-.61c.95-.14,1.26-.61,1.26-1.19,0-1.19-.92-2.18-2.82-2.18s-3.06,1.26-3.2,2.72l-4.01-.85c.27-2.62,2.69-5.51,7.17-5.51,5.3,0,7.28,2.99,7.28,6.36v8.23c0,.88.1,2.07.2,2.65h-4.15c-.1-.44-.17-1.36-.17-2.01-.85,1.33-2.45,2.48-4.93,2.48-3.57,0-5.75-2.41-5.75-5.03,0-2.99,2.21-4.66,5-5.07ZM178.39,70.87v-.75l-3.77.58c-1.16.17-2.07.82-2.07,2.11,0,.99.71,1.94,2.18,1.94,1.9,0,3.67-.92,3.67-3.88Z"/>
    <path d="M191.82,77.64h-4.52v-16.73h4.39v2.07c1.02-1.73,3.03-2.52,4.83-2.52,4.15,0,6.05,2.96,6.05,6.63v10.54h-4.52v-9.76c0-1.87-.92-3.33-3.09-3.33-1.97,0-3.13,1.53-3.13,3.47v9.62Z"/>
    <path d="M223.2,74.61c0,1.12.07,2.35.14,3.03h-4.32c-.07-.34-.17-1.16-.17-1.94-.75,1.33-2.45,2.35-4.69,2.35-4.76,0-8.16-3.74-8.16-8.81s3.3-8.74,8.02-8.74c2.89,0,4.25,1.19,4.73,2.07v-9.55h4.45v21.59ZM214.7,74c2.31,0,4.11-1.77,4.11-4.79s-1.8-4.66-4.11-4.66-4.15,1.7-4.15,4.69,1.77,4.76,4.15,4.76Z"/>
    <path d="M239.9,68.02l4.11-.61c.95-.14,1.26-.61,1.26-1.19,0-1.19-.92-2.18-2.82-2.18s-3.06,1.26-3.2,2.72l-4.01-.85c.27-2.62,2.69-5.51,7.17-5.51,5.3,0,7.28,2.99,7.28,6.36v8.23c0,.88.1,2.07.2,2.65h-4.15c-.1-.44-.17-1.36-.17-2.01-.85,1.33-2.45,2.48-4.93,2.48-3.57,0-5.75-2.41-5.75-5.03,0-2.99,2.21-4.66,5-5.07ZM245.27,70.87v-.75l-3.77.58c-1.16.17-2.07.82-2.07,2.11,0,.99.71,1.94,2.18,1.94,1.9,0,3.67-.92,3.67-3.88Z"/>
    <path d="M258.7,77.64h-4.52v-16.73h4.38v2.07c1.02-1.73,3.03-2.52,4.83-2.52,4.15,0,6.05,2.96,6.05,6.63v10.54h-4.52v-9.76c0-1.87-.92-3.33-3.09-3.33-1.97,0-3.13,1.53-3.13,3.47v9.62Z"/>
    <path d="M289.16,72.84c-.85,2.89-3.5,5.3-7.62,5.3-4.59,0-8.63-3.3-8.63-8.94,0-5.34,3.94-8.81,8.23-8.81,5.17,0,8.26,3.3,8.26,8.67,0,.65-.07,1.33-.07,1.39h-11.97c.1,2.21,1.97,3.81,4.22,3.81,2.11,0,3.26-1.05,3.81-2.55l3.77,1.12ZM284.95,67.37c-.07-1.67-1.16-3.3-3.74-3.3-2.35,0-3.64,1.77-3.74,3.3h7.48Z"/>
    <path d="M303.24,65.4c-.51-.1-.95-.14-1.36-.14-2.31,0-4.32,1.12-4.32,4.73v7.65h-4.52v-16.73h4.39v2.48c1.02-2.21,3.33-2.62,4.76-2.62.37,0,.71.03,1.05.07v4.56Z"/>
    <path d="M315.75,67.95l6.83,9.69h-5.54l-4.42-6.39-1.87,1.97v4.42h-4.52v-24.61h4.52v14.11l5.78-6.22h5.92l-6.7,7.04Z"/>
    <path d="M328.57,68.02l4.11-.61c.95-.14,1.26-.61,1.26-1.19,0-1.19-.92-2.18-2.82-2.18s-3.06,1.26-3.2,2.72l-4.01-.85c.27-2.62,2.69-5.51,7.17-5.51,5.3,0,7.28,2.99,7.28,6.36v8.23c0,.88.1,2.07.21,2.65h-4.15c-.1-.44-.17-1.36-.17-2.01-.85,1.33-2.45,2.48-4.93,2.48-3.57,0-5.75-2.41-5.75-5.03,0-2.99,2.21-4.66,5-5.07ZM333.94,70.87v-.75l-3.77.58c-1.16.17-2.07.82-2.07,2.11,0,.99.71,1.94,2.18,1.94,1.9,0,3.67-.92,3.67-3.88Z"/>
    <path d="M347.37,77.64h-4.52v-16.73h4.38v2.07c1.02-1.73,3.03-2.52,4.83-2.52,4.15,0,6.05,2.96,6.05,6.63v10.54h-4.52v-9.76c0-1.87-.92-3.33-3.09-3.33-1.97,0-3.13,1.53-3.13,3.47v9.62Z"/>
    <path d="M367.09,77.64h-4.52v-16.73h4.39v2.07c1.02-1.73,3.03-2.52,4.83-2.52,4.15,0,6.05,2.96,6.05,6.63v10.54h-4.52v-9.76c0-1.87-.92-3.33-3.09-3.33-1.97,0-3.13,1.53-3.13,3.47v9.62Z"/>
    <path d="M388.17,60.91h3.37v4.01h-3.37v7c0,1.46.68,1.94,1.97,1.94.54,0,1.16-.07,1.39-.14v3.74c-.41.17-1.22.41-2.55.41-3.26,0-5.3-1.94-5.3-5.17v-7.79h-3.03v-4.01h.85c1.77,0,2.58-1.16,2.58-2.65v-2.35h4.08v5Z"/>
    <path d="M410.27,72.84c-.85,2.89-3.5,5.3-7.62,5.3-4.59,0-8.64-3.3-8.64-8.94,0-5.34,3.94-8.81,8.23-8.81,5.17,0,8.26,3.3,8.26,8.67,0,.65-.07,1.33-.07,1.39h-11.97c.1,2.21,1.97,3.81,4.21,3.81,2.11,0,3.26-1.05,3.81-2.55l3.77,1.12ZM406.05,67.37c-.07-1.67-1.16-3.3-3.74-3.3-2.35,0-3.64,1.77-3.74,3.3h7.48Z"/>
    <path d="M424.34,65.4c-.51-.1-.95-.14-1.36-.14-2.31,0-4.32,1.12-4.32,4.73v7.65h-4.52v-16.73h4.38v2.48c1.02-2.21,3.33-2.62,4.76-2.62.38,0,.71.03,1.05.07v4.56Z"/>
    <path d="M435.23,77.64v-24.1h15.23v4.45h-10.54v5.95h9.38v4.32h-9.35v9.38h-4.72Z"/>
    <path d="M454.06,77.64v-24.61h4.52v24.61h-4.52Z"/>
    <path d="M474.02,75.83c-.92,1.56-2.86,2.24-4.62,2.24-4.04,0-6.36-2.96-6.36-6.6v-10.57h4.52v9.66c0,1.87.95,3.37,3.06,3.37s3.16-1.36,3.16-3.3v-9.72h4.52v13.7c0,1.29.1,2.45.17,3.03h-4.32c-.07-.34-.14-1.12-.14-1.8ZM467.18,53.87c1.33,0,2.41,1.09,2.41,2.41s-1.09,2.38-2.41,2.38-2.38-1.05-2.38-2.38,1.05-2.41,2.38-2.41ZM474.32,53.87c1.33,0,2.41,1.09,2.41,2.41s-1.09,2.38-2.41,2.38-2.38-1.05-2.38-2.38,1.02-2.41,2.38-2.41Z"/>
    <path d="M486.43,69.27c0,3.03,1.97,4.73,4.28,4.73s3.47-1.53,3.84-2.82l3.98,1.33c-.75,2.79-3.37,5.64-7.82,5.64-4.93,0-8.81-3.74-8.81-8.87s3.81-8.87,8.67-8.87c4.56,0,7.14,2.82,7.85,5.64l-4.05,1.36c-.41-1.39-1.46-2.82-3.71-2.82s-4.25,1.67-4.25,4.69Z"/>
    <path d="M506.35,77.64h-4.52v-24.61h4.52v9.28c1.09-1.29,2.92-1.84,4.52-1.84,4.25,0,6.22,2.96,6.22,6.63v10.54h-4.52v-9.76c0-1.87-.92-3.33-3.09-3.33-1.9,0-3.03,1.43-3.13,3.26v9.83Z"/>
    <path d="M527.43,60.91h3.37v4.01h-3.37v7c0,1.46.68,1.94,1.97,1.94.54,0,1.16-.07,1.39-.14v3.74c-.41.17-1.22.41-2.55.41-3.26,0-5.3-1.94-5.3-5.17v-7.79h-3.03v-4.01h.85c1.77,0,2.58-1.16,2.58-2.65v-2.35h4.08v5Z"/>
    <path d="M534.43,77.64v-24.61h4.52v24.61h-4.52Z"/>
    <path d="M545.83,52.61c1.56,0,2.79,1.26,2.79,2.82s-1.22,2.75-2.79,2.75-2.79-1.26-2.79-2.75,1.26-2.82,2.79-2.82ZM543.58,77.64v-16.73h4.52v16.73h-4.52Z"/>
    <path d="M557.25,77.64h-4.52v-16.73h4.38v2.07c1.02-1.73,3.03-2.52,4.83-2.52,4.15,0,6.05,2.96,6.05,6.63v10.54h-4.52v-9.76c0-1.87-.92-3.33-3.09-3.33-1.97,0-3.13,1.53-3.13,3.47v9.62Z"/>
    <path d="M575.54,77.47c.31,1.84,1.77,3.16,3.91,3.16,2.86,0,4.45-1.43,4.45-4.66v-1.22c-.68,1.09-2.24,2.14-4.66,2.14-4.46,0-7.79-3.43-7.79-8.12,0-4.42,3.2-8.16,7.79-8.16,2.65,0,4.18,1.16,4.76,2.28v-1.97h4.35v14.92c0,4.59-2.48,8.77-8.77,8.77-4.59,0-7.65-2.86-8.12-6.05l4.08-1.09ZM583.97,68.76c0-2.58-1.77-4.22-3.94-4.22s-4.01,1.63-4.01,4.22,1.67,4.25,4.01,4.25,3.94-1.67,3.94-4.25Z"/>
    <path d="M608.25,72.84c-.85,2.89-3.5,5.3-7.62,5.3-4.59,0-8.63-3.3-8.63-8.94,0-5.34,3.94-8.81,8.23-8.81,5.17,0,8.26,3.3,8.26,8.67,0,.65-.07,1.33-.07,1.39h-11.97c.1,2.21,1.97,3.81,4.21,3.81,2.11,0,3.26-1.05,3.81-2.55l3.77,1.12ZM604.03,67.37c-.07-1.67-1.15-3.3-3.74-3.3-2.35,0-3.64,1.77-3.74,3.3h7.48Z"/>
    <path d="M634.09,60.91l3.6,10.78,3.09-10.78h4.49l-5.24,16.73h-4.52l-3.91-11.42-3.84,11.42h-4.59l-5.34-16.73h4.76l3.09,10.74,3.64-10.74h4.76Z"/>
    <path d="M651.94,68.02l4.11-.61c.95-.14,1.26-.61,1.26-1.19,0-1.19-.92-2.18-2.82-2.18s-3.06,1.26-3.2,2.72l-4.01-.85c.27-2.62,2.69-5.51,7.17-5.51,5.3,0,7.28,2.99,7.28,6.36v8.23c0,.88.1,2.07.2,2.65h-4.15c-.1-.44-.17-1.36-.17-2.01-.85,1.33-2.45,2.48-4.93,2.48-3.57,0-5.75-2.41-5.75-5.03,0-2.99,2.21-4.66,5-5.07ZM651.02,53.87c1.33,0,2.41,1.09,2.41,2.41s-1.09,2.38-2.41,2.38-2.38-1.05-2.38-2.38,1.05-2.41,2.38-2.41ZM657.31,70.87v-.75l-3.77.58c-1.16.17-2.07.82-2.07,2.11,0,.99.71,1.94,2.18,1.94,1.9,0,3.67-.92,3.67-3.88ZM658.16,53.87c1.33,0,2.41,1.09,2.41,2.41s-1.09,2.38-2.41,2.38-2.38-1.05-2.38-2.38,1.02-2.41,2.38-2.41Z"/>
    <path d="M669.72,69.27c0,3.03,1.97,4.73,4.28,4.73s3.47-1.53,3.84-2.82l3.98,1.33c-.75,2.79-3.37,5.64-7.82,5.64-4.93,0-8.8-3.74-8.8-8.87s3.81-8.87,8.67-8.87c4.55,0,7.14,2.82,7.85,5.64l-4.05,1.36c-.41-1.39-1.46-2.82-3.71-2.82s-4.25,1.67-4.25,4.69Z"/>
    <path d="M689.64,77.64h-4.52v-24.61h4.52v9.28c1.09-1.29,2.92-1.84,4.52-1.84,4.25,0,6.22,2.96,6.22,6.63v10.54h-4.52v-9.76c0-1.87-.92-3.33-3.09-3.33-1.9,0-3.03,1.43-3.13,3.26v9.83Z"/>
    <path d="M707.59,72.13c.1,1.33,1.09,2.55,3.06,2.55,1.5,0,2.21-.78,2.21-1.67,0-.75-.51-1.36-1.8-1.63l-2.21-.51c-3.23-.71-4.69-2.65-4.69-5,0-2.99,2.65-5.47,6.26-5.47,4.76,0,6.36,3.03,6.56,4.83l-3.77.85c-.13-.99-.85-2.24-2.75-2.24-1.19,0-2.14.71-2.14,1.67,0,.82.61,1.33,1.53,1.5l2.38.51c3.3.68,4.96,2.69,4.96,5.13,0,2.72-2.11,5.51-6.49,5.51-5.03,0-6.77-3.26-6.97-5.17l3.88-.85Z"/>
    <path d="M726.74,60.91h3.37v4.01h-3.37v7c0,1.46.68,1.94,1.97,1.94.54,0,1.16-.07,1.39-.14v3.74c-.41.17-1.22.41-2.55.41-3.26,0-5.3-1.94-5.3-5.17v-7.79h-3.03v-4.01h.85c1.77,0,2.58-1.16,2.58-2.65v-2.35h4.08v5Z"/>
    <path d="M741.8,77.64v-16.73h4.32v2.04c.92-1.63,3.06-2.52,4.9-2.52,2.28,0,4.11.99,4.96,2.79,1.33-2.04,3.09-2.79,5.3-2.79,3.09,0,6.05,1.87,6.05,6.36v10.84h-4.38v-9.93c0-1.8-.88-3.16-2.96-3.16-1.94,0-3.09,1.5-3.09,3.3v9.79h-4.49v-9.93c0-1.8-.92-3.16-2.96-3.16s-3.13,1.46-3.13,3.3v9.79h-4.52Z"/>
    <path d="M788.31,69.27c0,5.13-3.77,8.87-8.77,8.87s-8.77-3.74-8.77-8.87,3.77-8.87,8.77-8.87,8.77,3.71,8.77,8.87ZM783.79,69.27c0-3.16-2.04-4.76-4.25-4.76s-4.25,1.6-4.25,4.76,2.04,4.76,4.25,4.76,4.25-1.6,4.25-4.76Z"/>
    <path d="M808.1,74.61c0,1.12.07,2.35.14,3.03h-4.32c-.07-.34-.17-1.16-.17-1.94-.75,1.33-2.45,2.35-4.69,2.35-4.76,0-8.16-3.74-8.16-8.81s3.3-8.74,8.02-8.74c2.89,0,4.25,1.19,4.72,2.07v-9.55h4.45v21.59ZM799.6,74c2.31,0,4.11-1.77,4.11-4.79s-1.8-4.66-4.11-4.66-4.15,1.7-4.15,4.69,1.77,4.76,4.15,4.76Z"/>
    <path d="M827.99,72.84c-.85,2.89-3.5,5.3-7.62,5.3-4.59,0-8.63-3.3-8.63-8.94,0-5.34,3.94-8.81,8.23-8.81,5.17,0,8.26,3.3,8.26,8.67,0,.65-.07,1.33-.07,1.39h-11.97c.1,2.21,1.97,3.81,4.21,3.81,2.11,0,3.26-1.05,3.81-2.55l3.77,1.12ZM823.77,67.37c-.07-1.67-1.15-3.3-3.74-3.3-2.35,0-3.64,1.77-3.74,3.3h7.48Z"/>
    <path d="M842.06,65.4c-.51-.1-.95-.14-1.36-.14-2.31,0-4.32,1.12-4.32,4.73v7.65h-4.52v-16.73h4.38v2.48c1.02-2.21,3.33-2.62,4.76-2.62.38,0,.71.03,1.05.07v4.56Z"/>
    <path d="M849.07,68.02l4.11-.61c.95-.14,1.26-.61,1.26-1.19,0-1.19-.92-2.18-2.82-2.18s-3.06,1.26-3.2,2.72l-4.01-.85c.27-2.62,2.69-5.51,7.17-5.51,5.3,0,7.28,2.99,7.28,6.36v8.23c0,.88.1,2.07.2,2.65h-4.15c-.1-.44-.17-1.36-.17-2.01-.85,1.33-2.45,2.48-4.93,2.48-3.57,0-5.75-2.41-5.75-5.03,0-2.99,2.21-4.66,5-5.07ZM854.44,70.87v-.75l-3.77.58c-1.16.17-2.07.82-2.07,2.11,0,.99.71,1.94,2.18,1.94,1.9,0,3.67-.92,3.67-3.88Z"/>
    <path d="M869.09,60.91h3.37v4.01h-3.37v7c0,1.46.68,1.94,1.97,1.94.54,0,1.16-.07,1.39-.14v3.74c-.41.17-1.22.41-2.55.41-3.26,0-5.3-1.94-5.3-5.17v-7.79h-3.03v-4.01h.85c1.77,0,2.58-1.16,2.58-2.65v-2.35h4.08v5Z"/>
  </g>
  <g>
    <path d="M43.89,119.48c4.59,0,7.28,2.69,7.28,6.49,0,2.58-1.5,4.49-3.64,5.24,2.72.68,4.39,3.13,4.39,5.85,0,3.81-2.99,6.53-7.41,6.53h-8.12v-24.1h7.51ZM43.89,130.19c2.65,0,4.42-1.7,4.42-4.08,0-2.52-1.77-4.11-4.79-4.11h-4.28v8.19h4.66ZM44.16,141.07c2.92,0,4.9-1.63,4.9-4.18s-1.73-4.25-4.66-4.25h-5.17v8.43h4.93Z"/>
    <path d="M70.54,138.96c-.92,2.82-3.47,5.1-7.24,5.1-4.35,0-8.06-3.2-8.06-8.67,0-5.13,3.6-8.57,7.72-8.57,4.93,0,7.68,3.43,7.68,8.4,0,.34-.03.71-.07.95h-12.54v.14c0,3.09,2.35,5.3,5.27,5.3,2.75,0,4.25-1.56,4.89-3.5l2.35.85ZM67.83,133.87c-.07-2.58-1.73-4.62-4.83-4.62-2.82,0-4.72,2.21-4.89,4.62h9.72Z"/>
    <path d="M75.88,138.46c.24,1.87,1.63,3.3,4.08,3.3,1.94,0,3.16-1.09,3.16-2.48,0-1.22-.99-2.04-2.48-2.38l-2.65-.61c-2.48-.58-4.04-2.18-4.04-4.52,0-2.72,2.58-4.93,5.68-4.93,4.22,0,5.68,2.69,6.05,4.35l-2.41.88c-.2-1.12-1.05-2.92-3.64-2.92-1.7,0-3.03,1.09-3.03,2.45,0,1.16.71,1.87,2.14,2.21l2.65.61c2.86.65,4.42,2.31,4.42,4.73s-2.01,4.93-5.88,4.93c-4.28,0-6.22-2.72-6.49-4.76l2.45-.85Z"/>
    <path d="M93.94,127.3h3.84v2.45h-3.84v9.01c0,1.7.75,2.55,2.48,2.55.48,0,1.09-.1,1.36-.17v2.31c-.31.1-1.09.31-2.14.31-2.69,0-4.42-1.67-4.42-4.62v-9.38h-3.26v-2.45h1.05c1.67,0,2.38-.95,2.38-2.48v-2.69h2.55v5.17Z"/>
    <path d="M105.23,134.41l4.38-.65c1.19-.17,1.46-.68,1.46-1.39,0-1.84-1.22-3.23-3.77-3.23-2.38,0-3.81,1.43-4.05,3.5l-2.58-.61c.34-3.09,3.06-5.2,6.56-5.2,4.62,0,6.56,2.65,6.56,5.81v8.23c0,1.36.1,2.21.2,2.72h-2.65c-.07-.37-.2-1.19-.2-2.45-.71,1.33-2.48,2.92-5.41,2.92-3.37,0-5.37-2.31-5.37-4.79,0-2.86,2-4.45,4.86-4.86ZM111.07,136.72v-1.09l-5.3.78c-1.56.24-2.69,1.12-2.69,2.72,0,1.33,1.12,2.62,2.99,2.62,2.82,0,5-1.56,5-5.03Z"/>
    <path d="M121.65,143.59h-2.72v-16.28h2.65v2.45c1.05-1.9,2.96-2.92,5.1-2.92,3.91,0,5.81,2.79,5.81,6.32v10.44h-2.72v-10.03c0-2.38-1.09-4.28-4.05-4.28-2.62,0-4.08,2.18-4.08,4.73v9.59Z"/>
    <path d="M149.39,140.8c-.75,1.6-2.52,3.26-5.34,3.26-4.69,0-7.55-3.81-7.55-8.64s2.99-8.6,7.55-8.6c3.13,0,4.73,1.73,5.27,3.09v-10.91h2.72v21.52c0,1.63.1,2.72.17,3.06h-2.65c-.07-.37-.17-1.29-.17-2.35v-.44ZM149.39,135.43c0-3.6-2.01-6.15-5.1-6.15s-5.06,2.55-5.06,6.15,2.01,6.19,5.06,6.19,5.1-2.58,5.1-6.19Z"/>
    <path d="M172.65,143.59h-2.75l-6.56-16.28h3.06l4.9,13.12,4.93-13.12h2.92l-6.49,16.28Z"/>
    <path d="M197.26,135.43c0,5.03-3.47,8.64-8.16,8.64s-8.16-3.6-8.16-8.64,3.47-8.6,8.16-8.6,8.16,3.6,8.16,8.6ZM183.66,135.43c0,3.98,2.52,6.19,5.44,6.19s5.44-2.21,5.44-6.19-2.52-6.15-5.44-6.15-5.44,2.21-5.44,6.15Z"/>
    <path d="M204.16,143.59h-2.72v-16.28h2.65v2.45c1.05-1.9,2.96-2.92,5.1-2.92,3.91,0,5.81,2.79,5.81,6.32v10.44h-2.72v-10.03c0-2.38-1.09-4.28-4.05-4.28-2.62,0-4.08,2.18-4.08,4.73v9.59Z"/>
    <path d="M232.32,133.59v10h-2.86v-24.1h8.4c4.45,0,7.41,3.06,7.41,7.07s-2.96,7.04-7.41,7.04h-5.54ZM237.42,131.04c3.09,0,5-1.8,5-4.45s-1.9-4.56-5-4.56h-5.1v9.01h5.1Z"/>
    <path d="M262.03,138.96c-.92,2.82-3.47,5.1-7.24,5.1-4.35,0-8.06-3.2-8.06-8.67,0-5.13,3.6-8.57,7.72-8.57,4.93,0,7.68,3.43,7.68,8.4,0,.34-.03.71-.07.95h-12.54v.14c0,3.09,2.35,5.3,5.27,5.3,2.75,0,4.25-1.56,4.9-3.5l2.35.85ZM259.31,133.87c-.07-2.58-1.73-4.62-4.83-4.62-2.82,0-4.73,2.21-4.9,4.62h9.72Z"/>
    <path d="M274.98,130.09c-.44-.14-.95-.17-1.43-.17-2.72,0-4.59,1.56-4.59,5.24v8.43h-2.72v-16.28h2.65v2.92c1.05-2.38,3.13-3.16,4.93-3.16.44,0,.92.07,1.16.14v2.89Z"/>
    <path d="M279.34,138.46c.24,1.87,1.63,3.3,4.08,3.3,1.94,0,3.16-1.09,3.16-2.48,0-1.22-.99-2.04-2.48-2.38l-2.65-.61c-2.48-.58-4.04-2.18-4.04-4.52,0-2.72,2.58-4.93,5.68-4.93,4.22,0,5.68,2.69,6.05,4.35l-2.41.88c-.2-1.12-1.05-2.92-3.64-2.92-1.7,0-3.03,1.09-3.03,2.45,0,1.16.71,1.87,2.14,2.21l2.65.61c2.86.65,4.42,2.31,4.42,4.73s-2.01,4.93-5.88,4.93c-4.28,0-6.22-2.72-6.49-4.76l2.45-.85Z"/>
    <path d="M308.64,135.43c0,5.03-3.47,8.64-8.16,8.64s-8.16-3.6-8.16-8.64,3.47-8.6,8.16-8.6,8.16,3.6,8.16,8.6ZM295.04,135.43c0,3.98,2.52,6.19,5.44,6.19s5.44-2.21,5.44-6.19-2.52-6.15-5.44-6.15-5.44,2.21-5.44,6.15Z"/>
    <path d="M315.55,143.59h-2.72v-16.28h2.65v2.45c1.05-1.9,2.96-2.92,5.1-2.92,3.91,0,5.81,2.79,5.81,6.32v10.44h-2.72v-10.03c0-2.38-1.09-4.28-4.04-4.28-2.62,0-4.08,2.18-4.08,4.73v9.59Z"/>
    <path d="M345.67,138.96c-.92,2.82-3.47,5.1-7.24,5.1-4.35,0-8.06-3.2-8.06-8.67,0-5.13,3.6-8.57,7.72-8.57,4.93,0,7.68,3.43,7.68,8.4,0,.34-.03.71-.07.95h-12.54v.14c0,3.09,2.35,5.3,5.27,5.3,2.75,0,4.25-1.56,4.9-3.5l2.35.85ZM342.95,133.87c-.07-2.58-1.73-4.62-4.83-4.62-2.82,0-4.73,2.21-4.9,4.62h9.72Z"/>
    <path d="M352.61,143.59h-2.72v-16.28h2.65v2.45c1.05-1.9,2.96-2.92,5.1-2.92,3.91,0,5.81,2.79,5.81,6.32v10.44h-2.72v-10.03c0-2.38-1.09-4.28-4.05-4.28-2.62,0-4.08,2.18-4.08,4.73v9.59Z"/>
    <path d="M378.58,118.84c1.12,0,2.04.92,2.04,2.04s-.92,2.04-2.04,2.04-2.04-.92-2.04-2.04.92-2.04,2.04-2.04ZM377.22,143.59v-16.28h2.72v16.28h-2.72Z"/>
    <path d="M387.9,129.62c.92-1.7,2.89-2.79,5-2.79,2.24,0,4.18,1.19,5,3.33,1.16-2.31,3.2-3.33,5.51-3.33,2.96,0,5.61,2.04,5.61,6.12v10.64h-2.72v-10.33c0-2.24-1.19-3.98-3.74-3.98-2.41,0-4.05,1.97-4.05,4.42v9.89h-2.72v-10.33c0-2.24-1.19-3.98-3.77-3.98-2.45,0-4.05,1.9-4.05,4.45v9.86h-2.72v-16.28h2.65v2.31Z"/>
    <path d="M436.65,136.55h-11.05l-2.69,7.04h-3.09l9.66-24.1h3.33l9.69,24.1h-3.09l-2.75-7.04ZM426.62,133.93h9.01l-4.52-11.52-4.49,11.52Z"/>
    <path d="M446.72,138.46c.24,1.87,1.63,3.3,4.08,3.3,1.94,0,3.16-1.09,3.16-2.48,0-1.22-.99-2.04-2.48-2.38l-2.65-.61c-2.48-.58-4.05-2.18-4.05-4.52,0-2.72,2.58-4.93,5.68-4.93,4.22,0,5.68,2.69,6.05,4.35l-2.41.88c-.21-1.12-1.05-2.92-3.64-2.92-1.7,0-3.03,1.09-3.03,2.45,0,1.16.71,1.87,2.14,2.21l2.65.61c2.86.65,4.42,2.31,4.42,4.73s-2.01,4.93-5.88,4.93c-4.28,0-6.22-2.72-6.49-4.76l2.45-.85Z"/>
    <path d="M461.41,150.05l3.94-8.4-7-14.35h3.13l5.37,11.52,5.06-11.52h2.96l-10.44,22.74h-3.03Z"/>
    <path d="M478.07,143.59v-24.58h2.72v24.58h-2.72Z"/>
    <path d="M486.09,143.59v-24.58h2.72v10.95c.75-1.53,2.65-3.13,5.58-3.13,4.83,0,7.41,3.84,7.41,8.6s-2.75,8.64-7.48,8.64c-2.72,0-4.62-1.39-5.57-3.16v2.69h-2.65ZM499.08,135.43c0-3.6-2.01-6.15-5.17-6.15s-5.17,2.55-5.17,6.15,2.04,6.19,5.17,6.19,5.17-2.58,5.17-6.19Z"/>
    <path d="M520.19,138.96c-.92,2.82-3.47,5.1-7.24,5.1-4.35,0-8.06-3.2-8.06-8.67,0-5.13,3.6-8.57,7.72-8.57,4.93,0,7.68,3.43,7.68,8.4,0,.34-.03.71-.07.95h-12.54v.14c0,3.09,2.35,5.3,5.27,5.3,2.75,0,4.25-1.56,4.89-3.5l2.35.85ZM517.47,133.87c-.07-2.58-1.73-4.62-4.83-4.62-2.82,0-4.72,2.21-4.89,4.62h9.72Z"/>
    <path d="M533.14,130.09c-.44-.14-.95-.17-1.43-.17-2.72,0-4.59,1.56-4.59,5.24v8.43h-2.72v-16.28h2.65v2.92c1.05-2.38,3.13-3.16,4.93-3.16.44,0,.92.07,1.16.14v2.89Z"/>
    <path d="M550.18,138.96c-.92,2.82-3.47,5.1-7.24,5.1-4.35,0-8.06-3.2-8.06-8.67,0-5.13,3.6-8.57,7.72-8.57,4.93,0,7.68,3.43,7.68,8.4,0,.34-.03.71-.07.95h-12.54v.14c0,3.09,2.35,5.3,5.27,5.3,2.75,0,4.25-1.56,4.9-3.5l2.35.85ZM547.46,133.87c-.07-2.58-1.73-4.62-4.83-4.62-2.82,0-4.73,2.21-4.9,4.62h9.72Z"/>
    <path d="M555.75,118.84c1.12,0,2.04.92,2.04,2.04s-.92,2.04-2.04,2.04-2.04-.92-2.04-2.04.92-2.04,2.04-2.04ZM554.39,143.59v-16.28h2.72v16.28h-2.72Z"/>
    <path d="M564.02,135.43c0,3.91,2.48,6.19,5.37,6.19,3.09,0,4.38-2.18,4.86-3.67l2.38,1.05c-.78,2.41-3.06,5.07-7.24,5.07-4.69,0-8.09-3.67-8.09-8.64s3.47-8.6,8.06-8.6c4.18,0,6.46,2.55,7.14,5.13l-2.45,1.05c-.44-1.73-1.77-3.74-4.69-3.74s-5.34,2.21-5.34,6.15Z"/>
    <path d="M583.23,143.59h-2.72v-24.58h2.72v10.47c1.05-1.7,2.92-2.65,5.03-2.65,3.91,0,5.81,2.79,5.81,6.32v10.44h-2.72v-10.03c0-2.38-1.09-4.28-4.04-4.28-2.58,0-4.08,2.07-4.08,4.59v9.72Z"/>
    <path d="M610.56,143.59h-2.72v-16.28h2.65v2.45c1.05-1.9,2.96-2.92,5.1-2.92,3.91,0,5.81,2.79,5.81,6.32v10.44h-2.72v-10.03c0-2.38-1.09-4.28-4.05-4.28-2.62,0-4.08,2.18-4.08,4.73v9.59Z"/>
    <path d="M630.21,134.41l4.39-.65c1.19-.17,1.46-.68,1.46-1.39,0-1.84-1.22-3.23-3.77-3.23-2.38,0-3.81,1.43-4.04,3.5l-2.58-.61c.34-3.09,3.06-5.2,6.56-5.2,4.62,0,6.56,2.65,6.56,5.81v8.23c0,1.36.1,2.21.2,2.72h-2.65c-.07-.37-.2-1.19-.2-2.45-.71,1.33-2.48,2.92-5.41,2.92-3.37,0-5.37-2.31-5.37-4.79,0-2.86,2.01-4.45,4.86-4.86ZM636.06,136.72v-1.09l-5.3.78c-1.56.24-2.69,1.12-2.69,2.72,0,1.33,1.12,2.62,2.99,2.62,2.82,0,5-1.56,5-5.03Z"/>
    <path d="M645.51,135.43c0,3.91,2.48,6.19,5.37,6.19,3.09,0,4.39-2.18,4.86-3.67l2.38,1.05c-.78,2.41-3.06,5.07-7.24,5.07-4.69,0-8.09-3.67-8.09-8.64s3.47-8.6,8.06-8.6c4.18,0,6.46,2.55,7.14,5.13l-2.45,1.05c-.44-1.73-1.77-3.74-4.69-3.74s-5.34,2.21-5.34,6.15Z"/>
    <path d="M664.72,143.59h-2.72v-24.58h2.72v10.47c1.05-1.7,2.92-2.65,5.03-2.65,3.91,0,5.81,2.79,5.81,6.32v10.44h-2.72v-10.03c0-2.38-1.09-4.28-4.05-4.28-2.58,0-4.08,2.07-4.08,4.59v9.72Z"/>
    <path d="M703.21,136.55h-11.05l-2.69,7.04h-3.09l9.66-24.1h3.33l9.69,24.1h-3.09l-2.75-7.04ZM693.18,133.93h9.01l-4.52-11.52-4.49,11.52Z"/>
    <path d="M717.83,144.06c-3.95,0-6.12-2.92-6.12-6.53v-10.23h2.72v9.79c0,2.38,1.12,4.52,4.01,4.52,2.69,0,4.15-1.9,4.15-4.49v-9.82h2.72v13.22c0,1.26.1,2.41.2,3.06h-2.62c-.1-.37-.17-1.26-.17-2.07v-.14c-.78,1.67-2.75,2.69-4.89,2.69Z"/>
    <path d="M734.56,129.75v13.84h-2.72v-13.84h-3.2v-2.45h3.2v-3.03c0-3.57,2.24-5.44,5.13-5.44.99,0,1.63.2,1.87.34v2.35c-.24-.1-.68-.24-1.46-.24-1.33,0-2.82.71-2.82,3.06v2.96h4.21v2.45h-4.21Z"/>
    <path d="M755.87,138.96c-.92,2.82-3.47,5.1-7.24,5.1-4.35,0-8.06-3.2-8.06-8.67,0-5.13,3.6-8.57,7.72-8.57,4.93,0,7.68,3.43,7.68,8.4,0,.34-.04.71-.07.95h-12.54v.14c0,3.09,2.35,5.3,5.27,5.3,2.75,0,4.25-1.56,4.89-3.5l2.35.85ZM753.16,133.87c-.07-2.58-1.73-4.62-4.83-4.62-2.82,0-4.72,2.21-4.89,4.62h9.72Z"/>
    <path d="M762.81,143.59h-2.72v-16.28h2.65v2.45c1.05-1.9,2.96-2.92,5.1-2.92,3.91,0,5.81,2.79,5.81,6.32v10.44h-2.72v-10.03c0-2.38-1.09-4.28-4.05-4.28-2.62,0-4.08,2.18-4.08,4.73v9.59Z"/>
    <path d="M782.53,127.3h3.84v2.45h-3.84v9.01c0,1.7.75,2.55,2.48,2.55.47,0,1.09-.1,1.36-.17v2.31c-.31.1-1.09.31-2.14.31-2.69,0-4.42-1.67-4.42-4.62v-9.38h-3.26v-2.45h1.05c1.67,0,2.38-.95,2.38-2.48v-2.69h2.55v5.17Z"/>
    <path d="M792.83,143.59h-2.72v-24.58h2.72v10.47c1.05-1.7,2.92-2.65,5.03-2.65,3.91,0,5.81,2.79,5.81,6.32v10.44h-2.72v-10.03c0-2.38-1.09-4.28-4.05-4.28-2.58,0-4.08,2.07-4.08,4.59v9.72Z"/>
    <path d="M812.49,134.41l4.39-.65c1.19-.17,1.46-.68,1.46-1.39,0-1.84-1.22-3.23-3.77-3.23-2.38,0-3.81,1.43-4.04,3.5l-2.58-.61c.34-3.09,3.06-5.2,6.56-5.2,4.62,0,6.56,2.65,6.56,5.81v8.23c0,1.36.1,2.21.2,2.72h-2.65c-.07-.37-.2-1.19-.2-2.45-.71,1.33-2.48,2.92-5.41,2.92-3.37,0-5.37-2.31-5.37-4.79,0-2.86,2.01-4.45,4.86-4.86ZM818.33,136.72v-1.09l-5.3.78c-1.56.24-2.69,1.12-2.69,2.72,0,1.33,1.12,2.62,2.99,2.62,2.82,0,5-1.56,5-5.03Z"/>
    <path d="M826.19,143.59v-24.58h2.72v24.58h-2.72Z"/>
    <path d="M838.16,127.3h3.84v2.45h-3.84v9.01c0,1.7.75,2.55,2.48,2.55.47,0,1.09-.1,1.36-.17v2.31c-.31.1-1.09.31-2.14.31-2.69,0-4.42-1.67-4.42-4.62v-9.38h-3.26v-2.45h1.05c1.67,0,2.38-.95,2.38-2.48v-2.69h2.55v5.17Z"/>
    <path d="M846.86,138.46c.24,1.87,1.63,3.3,4.08,3.3,1.94,0,3.16-1.09,3.16-2.48,0-1.22-.99-2.04-2.48-2.38l-2.65-.61c-2.48-.58-4.05-2.18-4.05-4.52,0-2.72,2.58-4.93,5.68-4.93,4.21,0,5.68,2.69,6.05,4.35l-2.41.88c-.2-1.12-1.05-2.92-3.64-2.92-1.7,0-3.03,1.09-3.03,2.45,0,1.16.71,1.87,2.14,2.21l2.65.61c2.86.65,4.42,2.31,4.42,4.73s-2.01,4.93-5.88,4.93c-4.29,0-6.22-2.72-6.49-4.76l2.45-.85Z"/>
    <path d="M862.09,138.46c.24,1.87,1.63,3.3,4.08,3.3,1.94,0,3.16-1.09,3.16-2.48,0-1.22-.98-2.04-2.48-2.38l-2.65-.61c-2.48-.58-4.04-2.18-4.04-4.52,0-2.72,2.58-4.93,5.68-4.93,4.21,0,5.68,2.69,6.05,4.35l-2.41.88c-.2-1.12-1.05-2.92-3.64-2.92-1.7,0-3.03,1.09-3.03,2.45,0,1.16.71,1.87,2.14,2.21l2.65.61c2.86.65,4.42,2.31,4.42,4.73s-2.01,4.93-5.88,4.93c-4.28,0-6.22-2.72-6.49-4.76l2.45-.85Z"/>
    <path d="M880.15,127.3h3.84v2.45h-3.84v9.01c0,1.7.75,2.55,2.48,2.55.48,0,1.09-.1,1.36-.17v2.31c-.3.1-1.09.31-2.14.31-2.69,0-4.42-1.67-4.42-4.62v-9.38h-3.26v-2.45h1.05c1.67,0,2.38-.95,2.38-2.48v-2.69h2.55v5.17Z"/>
    <path d="M891.43,134.41l4.38-.65c1.19-.17,1.46-.68,1.46-1.39,0-1.84-1.22-3.23-3.78-3.23-2.38,0-3.81,1.43-4.04,3.5l-2.58-.61c.34-3.09,3.06-5.2,6.56-5.2,4.62,0,6.56,2.65,6.56,5.81v8.23c0,1.36.1,2.21.21,2.72h-2.65c-.07-.37-.21-1.19-.21-2.45-.71,1.33-2.48,2.92-5.4,2.92-3.37,0-5.37-2.31-5.37-4.79,0-2.86,2.01-4.45,4.86-4.86ZM897.28,136.72v-1.09l-5.3.78c-1.56.24-2.69,1.12-2.69,2.72,0,1.33,1.12,2.62,2.99,2.62,2.82,0,5-1.56,5-5.03Z"/>
    <path d="M908.94,127.3h3.84v2.45h-3.84v9.01c0,1.7.75,2.55,2.48,2.55.48,0,1.09-.1,1.36-.17v2.31c-.3.1-1.09.31-2.14.31-2.69,0-4.42-1.67-4.42-4.62v-9.38h-3.26v-2.45h1.05c1.67,0,2.38-.95,2.38-2.48v-2.69h2.55v5.17Z"/>
    <path d="M922.44,144.06c-3.95,0-6.12-2.92-6.12-6.53v-10.23h2.72v9.79c0,2.38,1.12,4.52,4.01,4.52,2.69,0,4.15-1.9,4.15-4.49v-9.82h2.72v13.22c0,1.26.1,2.41.2,3.06h-2.62c-.1-.37-.17-1.26-.17-2.07v-.14c-.78,1.67-2.75,2.69-4.89,2.69Z"/>
    <path d="M936.34,138.46c.24,1.87,1.63,3.3,4.08,3.3,1.94,0,3.16-1.09,3.16-2.48,0-1.22-.99-2.04-2.48-2.38l-2.65-.61c-2.48-.58-4.05-2.18-4.05-4.52,0-2.72,2.58-4.93,5.68-4.93,4.21,0,5.68,2.69,6.05,4.35l-2.41.88c-.2-1.12-1.05-2.92-3.64-2.92-1.7,0-3.03,1.09-3.03,2.45,0,1.16.71,1.87,2.14,2.21l2.65.61c2.86.65,4.42,2.31,4.42,4.73s-2.01,4.93-5.88,4.93c-4.29,0-6.22-2.72-6.49-4.76l2.45-.85Z"/>
  </g>
  <line class="cls-8" x1="36.38" y1="100.28" x2="1025.12" y2="100.28"/>
  <g>
    <path d="M39.76,951.9c3.86,0,7.3,2.82,7.3,7.4,0,2-.66,3.66-1.74,4.9l1.7,1.88-1.82,1.56-1.74-1.92c-1.1.62-2.38.96-3.7.96-3.84,0-7.28-2.82-7.28-7.38s3.44-7.4,7.28-7.4ZM39.76,964c.62,0,1.26-.12,1.82-.36l-2.22-2.44,1.84-1.58,2.22,2.48c.48-.72.78-1.66.78-2.82,0-3.2-2.24-4.72-4.44-4.72s-4.42,1.52-4.42,4.72,2.24,4.72,4.42,4.72Z"/>
    <path d="M55.59,965.32c-.54.92-1.68,1.32-2.72,1.32-2.38,0-3.74-1.74-3.74-3.88v-6.22h2.66v5.68c0,1.1.56,1.98,1.8,1.98s1.86-.8,1.86-1.94v-5.72h2.66v8.06c0,.76.06,1.44.1,1.78h-2.54c-.04-.2-.08-.66-.08-1.06Z"/>
    <path d="M69.82,963.56c-.5,1.7-2.06,3.12-4.48,3.12-2.7,0-5.08-1.94-5.08-5.26,0-3.14,2.32-5.18,4.84-5.18,3.04,0,4.86,1.94,4.86,5.1,0,.38-.04.78-.04.82h-7.04c.06,1.3,1.16,2.24,2.48,2.24,1.24,0,1.92-.62,2.24-1.5l2.22.66ZM67.34,960.34c-.04-.98-.68-1.94-2.2-1.94-1.38,0-2.14,1.04-2.2,1.94h4.4Z"/>
    <path d="M72.09,966.38v-14.48h2.66v14.48h-2.66Z"/>
    <path d="M77.47,966.38v-14.48h2.66v14.48h-2.66Z"/>
    <path d="M91.84,963.56c-.5,1.7-2.06,3.12-4.48,3.12-2.7,0-5.08-1.94-5.08-5.26,0-3.14,2.32-5.18,4.84-5.18,3.04,0,4.86,1.94,4.86,5.1,0,.38-.04.78-.04.82h-7.04c.06,1.3,1.16,2.24,2.48,2.24,1.24,0,1.92-.62,2.24-1.5l2.22.66ZM89.35,960.34c-.04-.98-.68-1.94-2.2-1.94-1.38,0-2.14,1.04-2.2,1.94h4.4Z"/>
    <path d="M95.71,956.4c1,0,1.8.8,1.8,1.8s-.8,1.78-1.8,1.78-1.8-.8-1.8-1.78.8-1.8,1.8-1.8ZM95.73,962.94c1,0,1.8.8,1.8,1.8s-.8,1.78-1.8,1.78-1.8-.8-1.8-1.78.8-1.8,1.8-1.8Z"/>
    <path d="M112.63,955.96c-.22-1.2-1.16-2.52-3.2-2.54-1.64,0-2.94,1.08-2.94,2.52,0,1.14.74,1.96,2.04,2.24l2.08.46c2.28.5,3.64,1.92,3.64,3.92,0,2.18-1.86,4.1-4.82,4.1-3.28,0-4.94-2.14-5.2-4.22l1.58-.5c.16,1.68,1.38,3.2,3.62,3.2,2.04,0,3.14-1.08,3.14-2.44,0-1.16-.8-2.06-2.3-2.4l-2.08-.46c-1.96-.44-3.38-1.72-3.38-3.8,0-2.22,2.04-4.12,4.6-4.12,3.06,0,4.36,1.86,4.72,3.5l-1.5.54Z"/>
    <path d="M118.85,956.8h2.26v1.44h-2.26v5.3c0,1,.44,1.5,1.46,1.5.28,0,.64-.06.8-.1v1.36c-.18.06-.64.18-1.26.18-1.58,0-2.6-.98-2.6-2.72v-5.52h-1.92v-1.44h.62c.98,0,1.4-.56,1.4-1.46v-1.58h1.5v3.04Z"/>
    <path d="M125.49,960.98l2.58-.38c.7-.1.86-.4.86-.82,0-1.08-.72-1.9-2.22-1.9-1.4,0-2.24.84-2.38,2.06l-1.52-.36c.2-1.82,1.8-3.06,3.86-3.06,2.72,0,3.86,1.56,3.86,3.42v4.84c0,.8.06,1.3.12,1.6h-1.56c-.04-.22-.12-.7-.12-1.44-.42.78-1.46,1.72-3.18,1.72-1.98,0-3.16-1.36-3.16-2.82,0-1.68,1.18-2.62,2.86-2.86ZM128.93,962.34v-.64l-3.12.46c-.92.14-1.58.66-1.58,1.6,0,.78.66,1.54,1.76,1.54,1.66,0,2.94-.92,2.94-2.96Z"/>
    <path d="M135.73,960.98l2.58-.38c.7-.1.86-.4.86-.82,0-1.08-.72-1.9-2.22-1.9-1.4,0-2.24.84-2.38,2.06l-1.52-.36c.2-1.82,1.8-3.06,3.86-3.06,2.72,0,3.86,1.56,3.86,3.42v4.84c0,.8.06,1.3.12,1.6h-1.56c-.04-.22-.12-.7-.12-1.44-.42.78-1.46,1.72-3.18,1.72-1.98,0-3.16-1.36-3.16-2.82,0-1.68,1.18-2.62,2.86-2.86ZM139.17,962.34v-.64l-3.12.46c-.92.14-1.58.66-1.58,1.6,0,.78.66,1.54,1.76,1.54,1.66,0,2.94-.92,2.94-2.96Z"/>
    <path d="M146.03,956.8h2.26v1.44h-2.26v5.3c0,1,.44,1.5,1.46,1.5.28,0,.64-.06.8-.1v1.36c-.18.06-.64.18-1.26.18-1.58,0-2.6-.98-2.6-2.72v-5.52h-1.92v-1.44h.62c.98,0,1.4-.56,1.4-1.46v-1.58h1.5v3.04Z"/>
    <path d="M151.15,963.36c.14,1.1.96,1.94,2.4,1.94,1.14,0,1.86-.64,1.86-1.46,0-.72-.58-1.2-1.46-1.4l-1.56-.36c-1.46-.34-2.38-1.28-2.38-2.66,0-1.6,1.52-2.9,3.34-2.9,2.48,0,3.34,1.58,3.56,2.56l-1.42.52c-.12-.66-.62-1.72-2.14-1.72-1,0-1.78.64-1.78,1.44,0,.68.42,1.1,1.26,1.3l1.56.36c1.68.38,2.6,1.36,2.6,2.78s-1.18,2.9-3.46,2.9c-2.52,0-3.66-1.6-3.82-2.8l1.44-.5Z"/>
    <path d="M160.11,963.36c.14,1.1.96,1.94,2.4,1.94,1.14,0,1.86-.64,1.86-1.46,0-.72-.58-1.2-1.46-1.4l-1.56-.36c-1.46-.34-2.38-1.28-2.38-2.66,0-1.6,1.52-2.9,3.34-2.9,2.48,0,3.34,1.58,3.56,2.56l-1.42.52c-.12-.66-.62-1.72-2.14-1.72-1,0-1.78.64-1.78,1.44,0,.68.42,1.1,1.26,1.3l1.56.36c1.68.38,2.6,1.36,2.6,2.78s-1.18,2.9-3.46,2.9c-2.52,0-3.66-1.6-3.82-2.8l1.44-.5Z"/>
    <path d="M176.75,963.66c-.54,1.66-2.04,3-4.26,3-2.56,0-4.74-1.88-4.74-5.1,0-3.02,2.12-5.04,4.54-5.04,2.9,0,4.52,2.02,4.52,4.94,0,.2-.02.42-.04.56h-7.38v.08c0,1.82,1.38,3.12,3.1,3.12,1.62,0,2.5-.92,2.88-2.06l1.38.5ZM175.15,960.66c-.04-1.52-1.02-2.72-2.84-2.72-1.66,0-2.78,1.3-2.88,2.72h5.72Z"/>
    <path d="M183.43,960.86l4.18,5.52h-2.02l-3.28-4.42-1.48,1.52v2.9h-1.6v-14.46h1.6v9.44l4.48-4.56h2.2l-4.08,4.06Z"/>
    <path d="M194.61,958.44c-.26-.08-.56-.1-.84-.1-1.6,0-2.7.92-2.7,3.08v4.96h-1.6v-9.58h1.56v1.72c.62-1.4,1.84-1.86,2.9-1.86.26,0,.54.04.68.08v1.7Z"/>
    <path d="M204.63,963.66c-.54,1.66-2.04,3-4.26,3-2.56,0-4.74-1.88-4.74-5.1,0-3.02,2.12-5.04,4.54-5.04,2.9,0,4.52,2.02,4.52,4.94,0,.2-.02.42-.04.56h-7.38v.08c0,1.82,1.38,3.12,3.1,3.12,1.62,0,2.5-.92,2.88-2.06l1.38.5ZM203.03,960.66c-.04-1.52-1.02-2.72-2.84-2.72-1.66,0-2.78,1.3-2.88,2.72h5.72Z"/>
    <path d="M209.33,956.8h2.26v1.44h-2.26v5.3c0,1,.44,1.5,1.46,1.5.28,0,.64-.06.8-.1v1.36c-.18.06-.64.18-1.26.18-1.58,0-2.6-.98-2.6-2.72v-5.52h-1.92v-1.44h.62c.98,0,1.4-.56,1.4-1.46v-1.58h1.5v3.04Z"/>
    <path d="M215.97,960.98l2.58-.38c.7-.1.86-.4.86-.82,0-1.08-.72-1.9-2.22-1.9-1.4,0-2.24.84-2.38,2.06l-1.52-.36c.2-1.82,1.8-3.06,3.86-3.06,2.72,0,3.86,1.56,3.86,3.42v4.84c0,.8.06,1.3.12,1.6h-1.56c-.04-.22-.12-.7-.12-1.44-.42.78-1.46,1.72-3.18,1.72-1.98,0-3.16-1.36-3.16-2.82,0-1.68,1.18-2.62,2.86-2.86ZM219.41,962.34v-.64l-3.12.46c-.92.14-1.58.66-1.58,1.6,0,.78.66,1.54,1.76,1.54,1.66,0,2.94-.92,2.94-2.96Z"/>
    <path d="M229.17,958.44c-.26-.08-.56-.1-.84-.1-1.6,0-2.7.92-2.7,3.08v4.96h-1.6v-9.58h1.56v1.72c.62-1.4,1.84-1.86,2.9-1.86.26,0,.54.04.68.08v1.7Z"/>
    <path d="M231.87,951.82c.66,0,1.2.54,1.2,1.2s-.54,1.2-1.2,1.2-1.2-.54-1.2-1.2.54-1.2,1.2-1.2ZM231.07,966.38v-9.58h1.6v9.58h-1.6Z"/>
    <path d="M237.97,960.98l2.58-.38c.7-.1.86-.4.86-.82,0-1.08-.72-1.9-2.22-1.9-1.4,0-2.24.84-2.38,2.06l-1.52-.36c.2-1.82,1.8-3.06,3.86-3.06,2.72,0,3.86,1.56,3.86,3.42v4.84c0,.8.06,1.3.12,1.6h-1.56c-.04-.22-.12-.7-.12-1.44-.42.78-1.46,1.72-3.18,1.72-1.98,0-3.16-1.36-3.16-2.82,0-1.68,1.18-2.62,2.86-2.86ZM241.41,962.34v-.64l-3.12.46c-.92.14-1.58.66-1.58,1.6,0,.78.66,1.54,1.76,1.54,1.66,0,2.94-.92,2.94-2.96Z"/>
    <path d="M248.27,956.8h2.26v1.44h-2.26v5.3c0,1,.44,1.5,1.46,1.5.28,0,.64-.06.8-.1v1.36c-.18.06-.64.18-1.26.18-1.58,0-2.6-.98-2.6-2.72v-5.52h-1.92v-1.44h.62c.98,0,1.4-.56,1.4-1.46v-1.58h1.5v3.04Z"/>
    <path d="M259.85,958.24v8.14h-1.6v-8.14h-1.88v-1.44h1.88v-1.78c0-2.1,1.32-3.2,3.02-3.2.58,0,.96.12,1.1.2v1.38c-.14-.06-.4-.14-.86-.14-.78,0-1.66.42-1.66,1.8v1.74h2.48v1.44h-2.48Z"/>
    <path d="M267.77,966.66c-2.32,0-3.6-1.72-3.6-3.84v-6.02h1.6v5.76c0,1.4.66,2.66,2.36,2.66,1.58,0,2.44-1.12,2.44-2.64v-5.78h1.6v7.78c0,.74.06,1.42.12,1.8h-1.54c-.06-.22-.1-.74-.1-1.22v-.08c-.46.98-1.62,1.58-2.88,1.58ZM266.33,953.02c.58,0,1.04.46,1.04,1.04s-.46,1.04-1.04,1.04-1.04-.46-1.04-1.04.46-1.04,1.04-1.04ZM269.97,953.02c.58,0,1.04.46,1.04,1.04s-.46,1.04-1.04,1.04-1.04-.46-1.04-1.04.46-1.04,1.04-1.04Z"/>
    <path d="M280.43,958.44c-.26-.08-.56-.1-.84-.1-1.6,0-2.7.92-2.7,3.08v4.96h-1.6v-9.58h1.56v1.72c.62-1.4,1.84-1.86,2.9-1.86.26,0,.54.04.68.08v1.7Z"/>
    <path d="M300.85,966.38v-11.54l-5.14,11.54h-1.54l-5.1-11.54v11.54h-1.68v-14.18h2.3l5.26,11.94,5.3-11.94h2.28v14.18h-1.68Z"/>
    <path d="M306.85,951.82c.66,0,1.2.54,1.2,1.2s-.54,1.2-1.2,1.2-1.2-.54-1.2-1.2.54-1.2,1.2-1.2ZM306.05,966.38v-9.58h1.6v9.58h-1.6Z"/>
    <path d="M311.65,966.54c.16,1.4,1.22,2.48,2.78,2.48,2.24,0,3.06-1.32,3.06-3.3v-1.54c-.44.92-1.48,1.78-3.04,1.78-2.54,0-4.32-2.02-4.32-4.7s1.76-4.74,4.36-4.74c1.5,0,2.54.7,3.02,1.64v-1.36h1.58v8.86c0,2.36-1.08,4.8-4.66,4.8-2.36,0-4.08-1.52-4.32-3.54l1.54-.38ZM314.65,957.96c-1.74,0-2.92,1.3-2.92,3.28s1.18,3.28,2.92,3.28,2.92-1.3,2.92-3.28-1.18-3.28-2.92-3.28Z"/>
    <path d="M327.35,958.44c-.26-.08-.56-.1-.84-.1-1.6,0-2.7.92-2.7,3.08v4.96h-1.6v-9.58h1.56v1.72c.62-1.4,1.84-1.86,2.9-1.86.26,0,.54.04.68.08v1.7Z"/>
    <path d="M331.43,960.98l2.58-.38c.7-.1.86-.4.86-.82,0-1.08-.72-1.9-2.22-1.9-1.4,0-2.24.84-2.38,2.06l-1.52-.36c.2-1.82,1.8-3.06,3.86-3.06,2.72,0,3.86,1.56,3.86,3.42v4.84c0,.8.06,1.3.12,1.6h-1.56c-.04-.22-.12-.7-.12-1.44-.42.78-1.46,1.72-3.18,1.72-1.98,0-3.16-1.36-3.16-2.82,0-1.68,1.18-2.62,2.86-2.86ZM334.87,962.34v-.64l-3.12.46c-.92.14-1.58.66-1.58,1.6,0,.78.66,1.54,1.76,1.54,1.66,0,2.94-.92,2.94-2.96Z"/>
    <path d="M341.73,956.8h2.26v1.44h-2.26v5.3c0,1,.44,1.5,1.46,1.5.28,0,.64-.06.8-.1v1.36c-.18.06-.64.18-1.26.18-1.58,0-2.6-.98-2.6-2.72v-5.52h-1.92v-1.44h.62c.98,0,1.4-.56,1.4-1.46v-1.58h1.5v3.04Z"/>
    <path d="M346.99,951.82c.66,0,1.2.54,1.2,1.2s-.54,1.2-1.2,1.2-1.2-.54-1.2-1.2.54-1.2,1.2-1.2ZM346.19,966.38v-9.58h1.6v9.58h-1.6Z"/>
    <path d="M359.85,961.58c0,2.96-2.04,5.08-4.8,5.08s-4.8-2.12-4.8-5.08,2.04-5.06,4.8-5.06,4.8,2.12,4.8,5.06ZM351.85,961.58c0,2.34,1.48,3.64,3.2,3.64s3.2-1.3,3.2-3.64-1.48-3.62-3.2-3.62-3.2,1.3-3.2,3.62Z"/>
    <path d="M363.91,966.38h-1.6v-9.58h1.56v1.44c.62-1.12,1.74-1.72,3-1.72,2.3,0,3.42,1.64,3.42,3.72v6.14h-1.6v-5.9c0-1.4-.64-2.52-2.38-2.52-1.54,0-2.4,1.28-2.4,2.78v5.64Z"/>
    <path d="M385.99,955.96c-.22-1.2-1.16-2.52-3.2-2.54-1.64,0-2.94,1.08-2.94,2.52,0,1.14.74,1.96,2.04,2.24l2.08.46c2.28.5,3.64,1.92,3.64,3.92,0,2.18-1.86,4.1-4.82,4.1-3.28,0-4.94-2.14-5.2-4.22l1.58-.5c.16,1.68,1.38,3.2,3.62,3.2,2.04,0,3.14-1.08,3.14-2.44,0-1.16-.8-2.06-2.3-2.4l-2.08-.46c-1.96-.44-3.38-1.72-3.38-3.8,0-2.22,2.04-4.12,4.6-4.12,3.06,0,4.36,1.86,4.72,3.5l-1.5.54Z"/>
    <path d="M390.57,966.38v-14.18h8.5v1.54h-6.82v4.78h6.2v1.54h-6.2v4.78h6.82v1.54h-8.5Z"/>
    <path d="M415.59,966.38v-11.54l-5.14,11.54h-1.54l-5.1-11.54v11.54h-1.68v-14.18h2.3l5.26,11.94,5.3-11.94h2.28v14.18h-1.68Z"/>
    <path d="M421.53,964c.76,0,1.44.6,1.44,1.74,0,2.38-1.52,3.5-2.74,3.72v-.94c.98-.22,1.6-1.22,1.6-2.16-.06.04-.22.1-.42.1-.66,0-1.18-.46-1.18-1.22,0-.68.54-1.24,1.3-1.24Z"/>
    <path d="M431.47,963.36c.14,1.1.96,1.94,2.4,1.94,1.14,0,1.86-.64,1.86-1.46,0-.72-.58-1.2-1.46-1.4l-1.56-.36c-1.46-.34-2.38-1.28-2.38-2.66,0-1.6,1.52-2.9,3.34-2.9,2.48,0,3.34,1.58,3.56,2.56l-1.42.52c-.12-.66-.62-1.72-2.14-1.72-1,0-1.78.64-1.78,1.44,0,.68.42,1.1,1.26,1.3l1.56.36c1.68.38,2.6,1.36,2.6,2.78s-1.18,2.9-3.46,2.9c-2.52,0-3.66-1.6-3.82-2.8l1.44-.5Z"/>
    <path d="M441.33,958.16c.54-1,1.7-1.64,2.94-1.64,1.32,0,2.46.7,2.94,1.96.68-1.36,1.88-1.96,3.24-1.96,1.74,0,3.3,1.2,3.3,3.6v6.26h-1.6v-6.08c0-1.32-.7-2.34-2.2-2.34-1.42,0-2.38,1.16-2.38,2.6v5.82h-1.6v-6.08c0-1.32-.7-2.34-2.22-2.34-1.44,0-2.38,1.12-2.38,2.62v5.8h-1.6v-9.58h1.56v1.36Z"/>
    <path d="M456.09,966.38v-1.4l5.58-6.74h-5.52v-1.44h7.5v1.4l-5.58,6.74h5.68v1.44h-7.66Z"/>
    <path d="M467.79,966.38h-1.6v-14.46h1.6v6.16c.62-1,1.72-1.56,2.96-1.56,2.3,0,3.42,1.64,3.42,3.72v6.14h-1.6v-5.9c0-1.4-.64-2.52-2.38-2.52-1.52,0-2.4,1.22-2.4,2.7v5.72Z"/>
    <path d="M484.45,960.98l2.58-.38c.7-.1.86-.4.86-.82,0-1.08-.72-1.9-2.22-1.9-1.4,0-2.24.84-2.38,2.06l-1.52-.36c.2-1.82,1.8-3.06,3.86-3.06,2.72,0,3.86,1.56,3.86,3.42v4.84c0,.8.06,1.3.12,1.6h-1.56c-.04-.22-.12-.7-.12-1.44-.42.78-1.46,1.72-3.18,1.72-1.98,0-3.16-1.36-3.16-2.82,0-1.68,1.18-2.62,2.86-2.86ZM487.89,962.34v-.64l-3.12.46c-.92.14-1.58.66-1.58,1.6,0,.78.66,1.54,1.76,1.54,1.66,0,2.94-.92,2.94-2.96Z"/>
    <path d="M493.39,966.54c.16,1.4,1.22,2.48,2.78,2.48,2.24,0,3.06-1.32,3.06-3.3v-1.54c-.44.92-1.48,1.78-3.04,1.78-2.54,0-4.32-2.02-4.32-4.7s1.76-4.74,4.36-4.74c1.5,0,2.54.7,3.02,1.64v-1.36h1.58v8.86c0,2.36-1.08,4.8-4.66,4.8-2.36,0-4.08-1.52-4.32-3.54l1.54-.38ZM496.39,957.96c-1.74,0-2.92,1.3-2.92,3.28s1.18,3.28,2.92,3.28,2.92-1.3,2.92-3.28-1.18-3.28-2.92-3.28Z"/>
    <path d="M504.81,964c.68,0,1.24.54,1.24,1.24s-.56,1.24-1.24,1.24-1.24-.54-1.24-1.24.56-1.24,1.24-1.24Z"/>
  </g>
  <g>
    <path class="cls-1" d="M1034.58,619.16H208.64v-3.2h825.95v3.2ZM1034.58,571.72H208.64v-3.2h825.95v3.2ZM1034.58,524.28H208.64v-3.2h825.95v3.2ZM1034.58,477.77H208.64v-3.2h825.95v3.2ZM1034.58,430.34H208.64v-3.2h825.95v3.2ZM1034.58,382.9H208.64v-3.2h825.95v3.2ZM1034.58,335.46H208.64v-3.2h825.95v3.2ZM1034.58,288.02H208.64v-3.2h825.95v3.2ZM1034.58,240.58H208.64v-3.2h825.95v3.2ZM1034.58,193.15H208.64v-3.2h825.95v3.2Z"/>
    <g>
      <path class="cls-6" d="M210.5,621.28h41.86v43.7h-41.86v-43.7ZM256.08,621.28h41.86v43.7h-41.86v-43.7ZM302.59,614.77h41.86v50.21h-41.86v-50.21ZM348.16,613.84h41.86v51.14h-41.86v-51.14ZM393.74,611.05h41.86v53.93h-41.86v-53.93ZM440.25,610.12h41.86v54.86h-41.86v-54.86ZM485.83,599.88h41.86v65.09h-41.86v-65.09ZM531.4,589.65h41.86v75.33h-41.86v-75.33ZM577.91,579.42h41.86v85.56h-41.86v-85.56ZM623.49,567.33h41.86v97.65h-41.86v-97.65ZM669.07,557.1h41.86v107.88h-41.86v-107.88ZM715.57,546.87h41.86v118.11h-41.86v-118.11ZM761.15,538.49h41.86v126.48h-41.86v-126.48ZM806.73,529.19h41.86v135.79h-41.86v-135.79ZM853.24,522.68h41.86v142.3h-41.86v-142.3ZM898.81,513.38h41.86v151.6h-41.86v-151.6ZM944.39,496.64h41.85v168.34h-41.85v-168.34ZM990.9,487.34h41.86v177.64h-41.86v-177.64Z"/>
      <path class="cls-9" d="M1032.76,665.51h-41.86c-.29,0-.53-.24-.53-.53v-177.64c0-.29.24-.53.53-.53h41.86c.29,0,.53.24.53.53v177.64c0,.29-.24.53-.53.53ZM991.43,664.44h40.8v-176.58h-40.8v176.58ZM986.25,665.51h-41.85c-.29,0-.53-.24-.53-.53v-168.34c0-.29.24-.53.53-.53h41.85c.29,0,.53.24.53.53v168.34c0,.29-.24.53-.53.53ZM944.92,664.44h40.79v-167.27h-40.79v167.27ZM940.67,665.51h-41.86c-.29,0-.53-.24-.53-.53v-151.6c0-.29.24-.53.53-.53h41.86c.29,0,.53.24.53.53v151.6c0,.29-.24.53-.53.53ZM899.35,664.44h40.79v-150.53h-40.79v150.53ZM895.09,665.51h-41.86c-.29,0-.53-.24-.53-.53v-142.3c0-.29.24-.53.53-.53h41.86c.29,0,.53.24.53.53v142.3c0,.29-.24.53-.53.53ZM853.77,664.44h40.79v-141.23h-40.79v141.23ZM848.59,665.51h-41.86c-.29,0-.53-.24-.53-.53v-135.78c0-.29.24-.53.53-.53h41.86c.29,0,.53.24.53.53v135.78c0,.29-.24.53-.53.53ZM807.26,664.44h40.79v-134.72h-40.79v134.72ZM803.01,665.51h-41.86c-.29,0-.53-.24-.53-.53v-126.48c0-.29.24-.53.53-.53h41.86c.29,0,.53.24.53.53v126.48c0,.29-.24.53-.53.53ZM761.69,664.44h40.79v-125.42h-40.79v125.42ZM757.43,665.51h-41.86c-.29,0-.53-.24-.53-.53v-118.11c0-.29.24-.53.53-.53h41.86c.29,0,.53.24.53.53v118.11c0,.29-.24.53-.53.53ZM716.11,664.44h40.79v-117.05h-40.79v117.05ZM710.92,665.51h-41.86c-.29,0-.53-.24-.53-.53v-107.88c0-.29.24-.53.53-.53h41.86c.29,0,.53.24.53.53v107.88c0,.29-.24.53-.53.53ZM669.6,664.44h40.79v-106.81h-40.79v106.81ZM665.35,665.51h-41.86c-.29,0-.53-.24-.53-.53v-97.65c0-.29.24-.53.53-.53h41.86c.29,0,.53.24.53.53v97.65c0,.29-.24.53-.53.53ZM624.02,664.44h40.79v-96.58h-40.79v96.58ZM619.77,665.51h-41.86c-.29,0-.53-.24-.53-.53v-85.56c0-.29.24-.53.53-.53h41.86c.29,0,.53.24.53.53v85.56c0,.29-.24.53-.53.53ZM578.44,664.44h40.79v-84.49h-40.79v84.49ZM573.26,665.51h-41.86c-.29,0-.53-.24-.53-.53v-75.33c0-.29.24-.53.53-.53h41.86c.29,0,.53.24.53.53v75.33c0,.29-.24.53-.53.53ZM531.94,664.44h40.79v-74.26h-40.79v74.26ZM527.68,665.51h-41.86c-.29,0-.53-.24-.53-.53v-65.09c0-.29.24-.53.53-.53h41.86c.29,0,.53.24.53.53v65.09c0,.29-.24.53-.53.53ZM486.36,664.44h40.79v-64.03h-40.79v64.03ZM482.11,665.51h-41.86c-.29,0-.53-.24-.53-.53v-54.86c0-.29.24-.53.53-.53h41.86c.29,0,.53.24.53.53v54.86c0,.29-.24.53-.53.53ZM440.78,664.44h40.79v-53.8h-40.79v53.8ZM435.6,665.51h-41.86c-.29,0-.53-.24-.53-.53v-53.93c0-.29.24-.53.53-.53h41.86c.29,0,.53.24.53.53v53.93c0,.29-.24.53-.53.53ZM394.27,664.44h40.79v-52.87h-40.79v52.87ZM390.02,665.51h-41.86c-.29,0-.53-.24-.53-.53v-51.14c0-.29.24-.53.53-.53h41.86c.29,0,.53.24.53.53v51.14c0,.29-.24.53-.53.53ZM348.7,664.44h40.79v-50.07h-40.79v50.07ZM344.44,665.51h-41.86c-.29,0-.53-.24-.53-.53v-50.21c0-.29.24-.53.53-.53h41.86c.29,0,.53.24.53.53v50.21c0,.29-.24.53-.53.53ZM303.12,664.44h40.79v-49.14h-40.79v49.14ZM297.94,665.51h-41.86c-.29,0-.53-.24-.53-.53v-43.7c0-.29.24-.53.53-.53h41.86c.29,0,.53.24.53.53v43.7c0,.29-.24.53-.53.53ZM256.61,664.44h40.79v-42.63h-40.79v42.63ZM252.36,665.51h-41.86c-.29,0-.53-.24-.53-.53v-43.7c0-.29.24-.53.53-.53h41.86c.29,0,.53.24.53.53v43.7c0,.29-.24.53-.53.53ZM211.03,664.44h40.79v-42.63h-40.79v42.63Z"/>
    </g>
    <g>
      <path class="cls-3" d="M210.5,588.72h41.86v32.56h-41.86v-32.56ZM256.08,588.72h41.86v32.56h-41.86v-32.56ZM302.59,589.65h41.86v25.11h-41.86v-25.11ZM348.16,581.28h41.86v32.56h-41.86v-32.56ZM393.74,570.12h41.86v40.93h-41.86v-40.93ZM440.25,571.98h41.86v38.14h-41.86v-38.14ZM485.83,563.61h41.86v36.28h-41.86v-36.28ZM531.4,528.26h41.86v61.39h-41.86v-61.39ZM577.91,520.82h41.86v58.6h-41.86v-58.6ZM623.49,522.68h41.86v44.65h-41.86v-44.65ZM669.07,529.19h41.86v27.9h-41.86v-27.9ZM715.57,525.47h41.86v21.39h-41.86v-21.39ZM761.15,526.4h41.86v12.09h-41.86v-12.09ZM806.73,515.24h41.86v13.95h-41.86v-13.95ZM853.24,494.78h41.86v27.9h-41.86v-27.9ZM898.81,478.03h41.86v35.35h-41.86v-35.35ZM944.39,465.01h41.85v31.63h-41.85v-31.63ZM990.9,456.64h41.86v30.7h-41.86v-30.7Z"/>
      <path class="cls-9" d="M297.94,621.81h-41.86c-.29,0-.53-.24-.53-.53v-32.56c0-.29.24-.53.53-.53h41.86c.29,0,.53.24.53.53v32.56c0,.29-.24.53-.53.53ZM256.61,620.74h40.79v-31.49h-40.79v31.49ZM252.36,621.81h-41.86c-.29,0-.53-.24-.53-.53v-32.56c0-.29.24-.53.53-.53h41.86c.29,0,.53.24.53.53v32.56c0,.29-.24.53-.53.53ZM211.03,620.74h40.79v-31.49h-40.79v31.49ZM344.44,615.3h-41.86c-.29,0-.53-.24-.53-.53v-25.11c0-.29.24-.53.53-.53h41.86c.29,0,.53.24.53.53v25.11c0,.29-.24.53-.53.53ZM303.12,614.23h40.79v-24.05h-40.79v24.05ZM390.02,614.37h-41.86c-.29,0-.53-.24-.53-.53v-32.56c0-.29.24-.53.53-.53h41.86c.29,0,.53.24.53.53v32.56c0,.29-.24.53-.53.53ZM348.7,613.3h40.79v-31.49h-40.79v31.49ZM435.6,611.58h-41.86c-.29,0-.53-.24-.53-.53v-40.93c0-.29.24-.53.53-.53h41.86c.29,0,.53.24.53.53v40.93c0,.29-.24.53-.53.53ZM394.27,610.51h40.79v-39.86h-40.79v39.86ZM482.11,610.65h-41.86c-.29,0-.53-.24-.53-.53v-38.14c0-.29.24-.53.53-.53h41.86c.29,0,.53.24.53.53v38.14c0,.29-.24.53-.53.53ZM440.78,609.58h40.79v-37.07h-40.79v37.07ZM527.68,600.42h-41.86c-.29,0-.53-.24-.53-.53v-36.28c0-.29.24-.53.53-.53h41.86c.29,0,.53.24.53.53v36.28c0,.29-.24.53-.53.53ZM486.36,599.35h40.79v-35.21h-40.79v35.21ZM573.26,590.19h-41.86c-.29,0-.53-.24-.53-.53v-61.39c0-.29.24-.53.53-.53h41.86c.29,0,.53.24.53.53v61.39c0,.29-.24.53-.53.53ZM531.94,589.12h40.79v-60.32h-40.79v60.32ZM619.77,579.95h-41.86c-.29,0-.53-.24-.53-.53v-58.6c0-.29.24-.53.53-.53h41.86c.29,0,.53.24.53.53v58.6c0,.29-.24.53-.53.53ZM578.44,578.89h40.79v-57.53h-40.79v57.53ZM665.35,567.86h-41.86c-.29,0-.53-.24-.53-.53v-44.65c0-.29.24-.53.53-.53h41.86c.29,0,.53.24.53.53v44.65c0,.29-.24.53-.53.53ZM624.02,566.8h40.79v-43.58h-40.79v43.58ZM710.92,557.63h-41.86c-.29,0-.53-.24-.53-.53v-27.9c0-.29.24-.53.53-.53h41.86c.29,0,.53.24.53.53v27.9c0,.29-.24.53-.53.53ZM669.6,556.56h40.79v-26.84h-40.79v26.84ZM757.43,547.4h-41.86c-.29,0-.53-.24-.53-.53v-21.39c0-.29.24-.53.53-.53h41.86c.29,0,.53.24.53.53v21.39c0,.29-.24.53-.53.53ZM716.11,546.33h40.79v-20.33h-40.79v20.33ZM803.01,539.03h-41.86c-.29,0-.53-.24-.53-.53v-12.09c0-.29.24-.53.53-.53h41.86c.29,0,.53.24.53.53v12.09c0,.29-.24.53-.53.53ZM761.69,537.96h40.79v-11.03h-40.79v11.03ZM848.59,529.73h-41.86c-.29,0-.53-.24-.53-.53v-13.95c0-.29.24-.53.53-.53h41.86c.29,0,.53.24.53.53v13.95c0,.29-.24.53-.53.53ZM807.26,528.66h40.79v-12.89h-40.79v12.89ZM895.09,523.22h-41.86c-.29,0-.53-.24-.53-.53v-27.91c0-.29.24-.53.53-.53h41.86c.29,0,.53.24.53.53v27.91c0,.29-.24.53-.53.53ZM853.77,522.15h40.79v-26.84h-40.79v26.84ZM940.67,513.91h-41.86c-.29,0-.53-.24-.53-.53v-35.35c0-.29.24-.53.53-.53h41.86c.29,0,.53.24.53.53v35.35c0,.29-.24.53-.53.53ZM899.35,512.85h40.79v-34.28h-40.79v34.28ZM986.25,497.17h-41.85c-.29,0-.53-.24-.53-.53v-31.63c0-.29.24-.53.53-.53h41.85c.29,0,.53.24.53.53v31.63c0,.29-.24.53-.53.53ZM944.92,496.1h40.79v-30.56h-40.79v30.56ZM1032.76,487.87h-41.86c-.29,0-.53-.24-.53-.53v-30.7c0-.29.24-.53.53-.53h41.86c.29,0,.53.24.53.53v30.7c0,.29-.24.53-.53.53ZM991.43,486.8h40.8v-29.63h-40.8v29.63Z"/>
    </g>
    <g>
      <path class="cls-2" d="M210.5,545.01h41.86v43.72h-41.86v-43.72ZM256.08,545.94h41.86v42.79h-41.86v-42.79ZM302.59,545.01h41.86v44.65h-41.86v-44.65ZM348.16,536.63h41.86v44.65h-41.86v-44.65ZM393.74,526.4h41.86v43.72h-41.86v-43.72ZM440.25,527.33h41.86v44.65h-41.86v-44.65ZM485.83,508.73h41.86v54.88h-41.86v-54.88ZM531.4,464.08h41.86v64.18h-41.86v-64.18ZM577.91,450.13h41.86v70.69h-41.86v-70.69ZM623.49,443.62h41.86v79.06h-41.86v-79.06ZM669.07,439.9h41.86v89.29h-41.86v-89.29ZM715.57,433.39h41.86v92.08h-41.86v-92.08ZM761.15,433.39h41.86v93.01h-41.86v-93.01ZM806.73,425.95h41.86v89.3h-41.86v-89.3ZM853.24,408.27h41.86v86.5h-41.86v-86.5ZM898.81,391.53h41.86v86.5h-41.86v-86.5ZM944.39,382.23h41.85v82.78h-41.85v-82.78ZM990.9,374.79h41.86v81.85h-41.86v-81.85Z"/>
      <path class="cls-9" d="M344.44,590.19h-41.86c-.29,0-.53-.24-.53-.53v-44.65c0-.29.24-.53.53-.53h41.86c.29,0,.53.24.53.53v44.65c0,.29-.24.53-.53.53ZM303.12,589.12h40.79v-43.58h-40.79v43.58ZM297.94,589.26h-41.86c-.29,0-.53-.24-.53-.53v-42.79c0-.29.24-.53.53-.53h41.86c.29,0,.53.24.53.53v42.79c0,.29-.24.53-.53.53ZM256.61,588.19h40.79v-41.72h-40.79v41.72ZM252.36,589.26h-41.86c-.29,0-.53-.24-.53-.53v-43.72c0-.29.24-.53.53-.53h41.86c.29,0,.53.24.53.53v43.72c0,.29-.24.53-.53.53ZM211.03,588.19h40.79v-42.65h-40.79v42.65ZM390.02,581.81h-41.86c-.29,0-.53-.24-.53-.53v-44.65c0-.29.24-.53.53-.53h41.86c.29,0,.53.24.53.53v44.65c0,.29-.24.53-.53.53ZM348.7,580.75h40.79v-43.58h-40.79v43.58ZM482.11,572.51h-41.86c-.29,0-.53-.24-.53-.53v-44.65c0-.29.24-.53.53-.53h41.86c.29,0,.53.24.53.53v44.65c0,.29-.24.53-.53.53ZM440.78,571.45h40.79v-43.58h-40.79v43.58ZM435.6,570.65h-41.86c-.29,0-.53-.24-.53-.53v-43.72c0-.29.24-.53.53-.53h41.86c.29,0,.53.24.53.53v43.72c0,.29-.24.53-.53.53ZM394.27,569.59h40.79v-42.65h-40.79v42.65ZM527.68,564.14h-41.86c-.29,0-.53-.24-.53-.53v-54.88c0-.29.24-.53.53-.53h41.86c.29,0,.53.24.53.53v54.88c0,.29-.24.53-.53.53ZM486.36,563.08h40.79v-53.81h-40.79v53.81ZM710.92,529.73h-41.86c-.29,0-.53-.24-.53-.53v-89.29c0-.29.24-.53.53-.53h41.86c.29,0,.53.24.53.53v89.29c0,.29-.24.53-.53.53ZM669.6,528.66h40.79v-88.23h-40.79v88.23ZM573.26,528.8h-41.86c-.29,0-.53-.24-.53-.53v-64.18c0-.29.24-.53.53-.53h41.86c.29,0,.53.24.53.53v64.18c0,.29-.24.53-.53.53ZM531.94,527.73h40.79v-63.12h-40.79v63.12ZM803.01,526.94h-41.86c-.29,0-.53-.24-.53-.53v-93.02c0-.29.24-.53.53-.53h41.86c.29,0,.53.24.53.53v93.02c0,.29-.24.53-.53.53ZM761.69,525.87h40.79v-91.95h-40.79v91.95ZM757.43,526.01h-41.86c-.29,0-.53-.24-.53-.53v-92.09c0-.29.24-.53.53-.53h41.86c.29,0,.53.24.53.53v92.09c0,.29-.24.53-.53.53ZM716.11,524.94h40.79v-91.02h-40.79v91.02ZM665.35,523.22h-41.86c-.29,0-.53-.24-.53-.53v-79.06c0-.29.24-.53.53-.53h41.86c.29,0,.53.24.53.53v79.06c0,.29-.24.53-.53.53ZM624.02,522.15h40.79v-78h-40.79v78ZM619.77,521.35h-41.86c-.29,0-.53-.24-.53-.53v-70.69c0-.29.24-.53.53-.53h41.86c.29,0,.53.24.53.53v70.69c0,.29-.24.53-.53.53ZM578.44,520.29h40.79v-69.63h-40.79v69.63ZM848.59,515.77h-41.86c-.29,0-.53-.24-.53-.53v-89.3c0-.29.24-.53.53-.53h41.86c.29,0,.53.24.53.53v89.3c0,.29-.24.53-.53.53ZM807.26,514.71h40.79v-88.23h-40.79v88.23ZM895.09,495.31h-41.86c-.29,0-.53-.24-.53-.53v-86.5c0-.29.24-.53.53-.53h41.86c.29,0,.53.24.53.53v86.5c0,.29-.24.53-.53.53ZM853.77,494.24h40.79v-85.44h-40.79v85.44ZM940.67,478.57h-41.86c-.29,0-.53-.24-.53-.53v-86.5c0-.29.24-.53.53-.53h41.86c.29,0,.53.24.53.53v86.5c0,.29-.24.53-.53.53ZM899.35,477.5h40.79v-85.44h-40.79v85.44ZM986.25,465.55h-41.85c-.29,0-.53-.24-.53-.53v-82.78c0-.29.24-.53.53-.53h41.85c.29,0,.53.24.53.53v82.78c0,.29-.24.53-.53.53ZM944.92,464.48h40.79v-81.72h-40.79v81.72ZM1032.76,457.17h-41.86c-.29,0-.53-.24-.53-.53v-81.85c0-.29.24-.53.53-.53h41.86c.29,0,.53.24.53.53v81.85c0,.29-.24.53-.53.53ZM991.43,456.11h40.8v-80.79h-40.8v80.79Z"/>
    </g>
    <g>
      <path class="cls-10" d="M853.24,290.14h41.86v118.13h-41.86v-118.13ZM898.81,265.96h41.86v125.57h-41.86v-125.57ZM944.39,253.87h41.85v128.36h-41.85v-128.36ZM990.9,229.68h41.86v145.1h-41.86v-145.1Z"/>
      <path class="cls-9" d="M895.09,408.81h-41.86c-.29,0-.53-.24-.53-.53v-118.13c0-.29.24-.53.53-.53h41.86c.29,0,.53.24.53.53v118.13c0,.29-.24.53-.53.53ZM853.77,407.74h40.79v-117.06h-40.79v117.06ZM940.67,392.06h-41.86c-.29,0-.53-.24-.53-.53v-125.57c0-.29.24-.53.53-.53h41.86c.29,0,.53.24.53.53v125.57c0,.29-.24.53-.53.53ZM899.35,391h40.79v-124.5h-40.79v124.5ZM986.25,382.76h-41.85c-.29,0-.53-.24-.53-.53v-128.36c0-.29.24-.53.53-.53h41.85c.29,0,.53.24.53.53v128.36c0,.29-.24.53-.53.53ZM944.92,381.7h40.79v-127.3h-40.79v127.3ZM1032.76,375.32h-41.86c-.29,0-.53-.24-.53-.53v-145.1c0-.29.24-.53.53-.53h41.86c.29,0,.53.24.53.53v145.1c0,.29-.24.53-.53.53ZM991.43,374.26h40.8v-144.04h-40.8v144.04Z"/>
    </g>
    <rect class="cls-5" x="208.64" y="663.38" width="825.95" height="3.2"/>
    <g class="cls-4">
      <path d="M159.67,656.13c1.38-1.93,3.41-3.2,6.3-3.2s4.92,1.27,6.3,3.2c1.65,2.31,2.17,5.37,2.17,8.4s-.52,6.09-2.17,8.4c-1.38,1.93-3.41,3.2-6.3,3.2s-4.92-1.27-6.3-3.2c-1.65-2.31-2.17-5.37-2.17-8.4s.52-6.09,2.17-8.4ZM161.87,672.44c1,1.07,2.31,1.76,4.09,1.76s3.1-.69,4.1-1.76c1.62-1.75,2.24-4.61,2.24-7.92s-.62-6.16-2.24-7.92c-1-1.07-2.31-1.76-4.1-1.76s-3.1.69-4.09,1.76c-1.62,1.75-2.24,4.61-2.24,7.92s.62,6.16,2.24,7.92Z"/>
    </g>
    <g class="cls-4">
      <path d="M67.02,613.58c-.1-.31-.1-.79-.1-1.07,0-3.82,2.82-7.02,7.4-7.02s7.12,2.99,7.12,6.57c0,3.03-1.58,5.2-4.16,6.82l-4.82,3.06c-1.48.93-2.79,2.37-3.03,4.34h12.29v1.96h-14.9c.03-3.13,1.31-5.82,4.65-7.99l4.34-2.79c2.31-1.48,3.48-3.17,3.48-5.37,0-2.48-1.82-4.72-5.02-4.72s-5.2,2.17-5.2,5.37c0,.38.03.72.1,1.1l-2.13-.28Z"/>
      <path d="M86.94,621.42c.17,3.03,2.62,5.37,5.82,5.37s5.75-2.34,5.75-5.47c0-3.37-2.55-5.54-5.71-5.54-1.82,0-3.58.72-4.96,2.24l-2.07-.83,2.82-11.25h11.22v1.96h-9.74l-2,8.02c1.34-1.41,3.3-2.03,5.09-2.03,4.3,0,7.5,2.99,7.5,7.36,0,4.1-3.2,7.43-7.92,7.43-4.44,0-7.61-3.06-7.88-6.64l2.06-.62Z"/>
      <path d="M113.3,608.69c1.38-1.93,3.41-3.2,6.3-3.2s4.92,1.27,6.3,3.2c1.65,2.31,2.17,5.37,2.17,8.4s-.52,6.09-2.17,8.4c-1.38,1.93-3.41,3.2-6.3,3.2s-4.92-1.27-6.3-3.2c-1.65-2.31-2.17-5.37-2.17-8.4s.52-6.09,2.17-8.4ZM115.51,625c1,1.07,2.31,1.76,4.09,1.76s3.1-.69,4.1-1.76c1.62-1.75,2.24-4.61,2.24-7.92s-.62-6.16-2.24-7.92c-1-1.07-2.31-1.76-4.1-1.76s-3.1.69-4.09,1.76c-1.62,1.75-2.24,4.61-2.24,7.92s.62,6.16,2.24,7.92Z"/>
      <path d="M134.16,608.69c1.38-1.93,3.41-3.2,6.3-3.2s4.92,1.27,6.3,3.2c1.65,2.31,2.17,5.37,2.17,8.4s-.52,6.09-2.17,8.4c-1.38,1.93-3.41,3.2-6.3,3.2s-4.92-1.27-6.3-3.2c-1.65-2.31-2.17-5.37-2.17-8.4s.52-6.09,2.17-8.4ZM136.36,625c1,1.07,2.31,1.76,4.09,1.76s3.1-.69,4.1-1.76c1.62-1.75,2.24-4.61,2.24-7.92s-.62-6.16-2.24-7.92c-1-1.07-2.31-1.76-4.1-1.76s-3.1.69-4.09,1.76c-1.62,1.75-2.24,4.61-2.24,7.92s.62,6.16,2.24,7.92Z"/>
      <path d="M155.01,608.69c1.38-1.93,3.41-3.2,6.3-3.2s4.92,1.27,6.3,3.2c1.65,2.31,2.17,5.37,2.17,8.4s-.52,6.09-2.17,8.4c-1.38,1.93-3.41,3.2-6.3,3.2s-4.92-1.27-6.3-3.2c-1.65-2.31-2.17-5.37-2.17-8.4s.52-6.09,2.17-8.4ZM157.22,625c1,1.07,2.31,1.76,4.1,1.76s3.1-.69,4.1-1.76c1.62-1.75,2.24-4.61,2.24-7.92s-.62-6.16-2.24-7.92c-1-1.07-2.31-1.76-4.1-1.76s-3.1.69-4.1,1.76c-1.62,1.75-2.24,4.61-2.24,7.92s.62,6.16,2.24,7.92Z"/>
    </g>
    <g class="cls-4">
      <path d="M66.1,573.99c.17,3.03,2.62,5.37,5.82,5.37s5.75-2.34,5.75-5.47c0-3.37-2.55-5.54-5.71-5.54-1.82,0-3.58.72-4.96,2.24l-2.06-.83,2.82-11.25h11.22v1.96h-9.74l-2,8.02c1.34-1.41,3.3-2.03,5.09-2.03,4.3,0,7.5,2.99,7.5,7.36,0,4.1-3.2,7.43-7.92,7.43-4.44,0-7.61-3.06-7.88-6.64l2.07-.62Z"/>
      <path d="M85.75,561.25c1.38-1.93,3.41-3.2,6.3-3.2s4.92,1.27,6.3,3.2c1.65,2.31,2.17,5.37,2.17,8.4s-.52,6.09-2.17,8.4c-1.38,1.93-3.41,3.2-6.3,3.2s-4.92-1.27-6.3-3.2c-1.65-2.31-2.17-5.37-2.17-8.4s.52-6.09,2.17-8.4ZM87.95,577.57c1,1.07,2.31,1.76,4.1,1.76s3.1-.69,4.09-1.76c1.62-1.75,2.24-4.61,2.24-7.92s-.62-6.16-2.24-7.92c-1-1.07-2.31-1.76-4.09-1.76s-3.1.69-4.1,1.76c-1.62,1.75-2.24,4.61-2.24,7.92s.62,6.16,2.24,7.92Z"/>
      <path d="M112.97,561.25c1.38-1.93,3.41-3.2,6.3-3.2s4.92,1.27,6.3,3.2c1.65,2.31,2.17,5.37,2.17,8.4s-.52,6.09-2.17,8.4c-1.38,1.93-3.41,3.2-6.3,3.2s-4.92-1.27-6.3-3.2c-1.65-2.31-2.17-5.37-2.17-8.4s.52-6.09,2.17-8.4ZM115.17,577.57c1,1.07,2.31,1.76,4.1,1.76s3.1-.69,4.1-1.76c1.62-1.75,2.24-4.61,2.24-7.92s-.62-6.16-2.24-7.92c-1-1.07-2.31-1.76-4.1-1.76s-3.1.69-4.1,1.76c-1.62,1.75-2.24,4.61-2.24,7.92s.62,6.16,2.24,7.92Z"/>
      <path d="M133.83,561.25c1.38-1.93,3.41-3.2,6.3-3.2s4.92,1.27,6.3,3.2c1.65,2.31,2.17,5.37,2.17,8.4s-.52,6.09-2.17,8.4c-1.38,1.93-3.41,3.2-6.3,3.2s-4.92-1.27-6.3-3.2c-1.65-2.31-2.17-5.37-2.17-8.4s.52-6.09,2.17-8.4ZM136.03,577.57c1,1.07,2.31,1.76,4.09,1.76s3.1-.69,4.1-1.76c1.62-1.75,2.24-4.61,2.24-7.92s-.62-6.16-2.24-7.92c-1-1.07-2.31-1.76-4.1-1.76s-3.1.69-4.09,1.76c-1.62,1.75-2.24,4.61-2.24,7.92s.62,6.16,2.24,7.92Z"/>
      <path d="M154.68,561.25c1.38-1.93,3.41-3.2,6.3-3.2s4.92,1.27,6.3,3.2c1.65,2.31,2.17,5.37,2.17,8.4s-.52,6.09-2.17,8.4c-1.38,1.93-3.41,3.2-6.3,3.2s-4.92-1.27-6.3-3.2c-1.65-2.31-2.17-5.37-2.17-8.4s.52-6.09,2.17-8.4ZM156.88,577.57c1,1.07,2.31,1.76,4.09,1.76s3.1-.69,4.1-1.76c1.62-1.75,2.24-4.61,2.24-7.92s-.62-6.16-2.24-7.92c-1-1.07-2.31-1.76-4.1-1.76s-3.1.69-4.09,1.76c-1.62,1.75-2.24,4.61-2.24,7.92s.62,6.16,2.24,7.92Z"/>
    </g>
    <g class="cls-4">
      <path d="M82.88,513.16c-4.23,3.85-8.98,9.77-10.08,20.2h-2.24c1.1-11.18,7.02-17.59,9.95-20.34h-13.63v-1.96h16v2.1Z"/>
      <path d="M86.53,526.55c.17,3.03,2.62,5.37,5.82,5.37s5.75-2.34,5.75-5.47c0-3.37-2.55-5.54-5.71-5.54-1.82,0-3.58.72-4.96,2.24l-2.06-.83,2.82-11.25h11.22v1.96h-9.74l-2,8.02c1.34-1.41,3.3-2.03,5.09-2.03,4.3,0,7.5,2.99,7.5,7.36,0,4.1-3.2,7.43-7.92,7.43-4.44,0-7.61-3.06-7.88-6.64l2.06-.62Z"/>
      <path d="M112.89,513.82c1.38-1.93,3.41-3.2,6.3-3.2s4.92,1.27,6.3,3.2c1.65,2.31,2.17,5.37,2.17,8.4s-.52,6.09-2.17,8.4c-1.38,1.93-3.41,3.2-6.3,3.2s-4.92-1.27-6.3-3.2c-1.65-2.31-2.17-5.37-2.17-8.4s.52-6.09,2.17-8.4ZM115.09,530.13c1,1.07,2.31,1.76,4.1,1.76s3.1-.69,4.09-1.76c1.62-1.75,2.24-4.61,2.24-7.92s-.62-6.16-2.24-7.92c-1-1.07-2.31-1.76-4.09-1.76s-3.1.69-4.1,1.76c-1.62,1.75-2.24,4.61-2.24,7.92s.62,6.16,2.24,7.92Z"/>
      <path d="M133.74,513.82c1.38-1.93,3.41-3.2,6.3-3.2s4.92,1.27,6.3,3.2c1.65,2.31,2.17,5.37,2.17,8.4s-.52,6.09-2.17,8.4c-1.38,1.93-3.41,3.2-6.3,3.2s-4.92-1.27-6.3-3.2c-1.65-2.31-2.17-5.37-2.17-8.4s.52-6.09,2.17-8.4ZM135.95,530.13c1,1.07,2.31,1.76,4.1,1.76s3.1-.69,4.1-1.76c1.62-1.75,2.24-4.61,2.24-7.92s-.62-6.16-2.24-7.92c-1-1.07-2.31-1.76-4.1-1.76s-3.1.69-4.1,1.76c-1.62,1.75-2.24,4.61-2.24,7.92s.62,6.16,2.24,7.92Z"/>
      <path d="M154.6,513.82c1.38-1.93,3.41-3.2,6.3-3.2s4.92,1.27,6.3,3.2c1.65,2.31,2.17,5.37,2.17,8.4s-.52,6.09-2.17,8.4c-1.38,1.93-3.41,3.2-6.3,3.2s-4.92-1.27-6.3-3.2c-1.65-2.31-2.17-5.37-2.17-8.4s.52-6.09,2.17-8.4ZM156.8,530.13c1,1.07,2.31,1.76,4.09,1.76s3.1-.69,4.1-1.76c1.62-1.75,2.24-4.61,2.24-7.92s-.62-6.16-2.24-7.92c-1-1.07-2.31-1.76-4.1-1.76s-3.1.69-4.09,1.76c-1.62,1.75-2.24,4.61-2.24,7.92s.62,6.16,2.24,7.92Z"/>
    </g>
    <g class="cls-4">
      <path d="M55.24,486.86v-18.62c-.96,1.31-3.37,2.68-5.54,2.68v-1.72c3.06-.28,5.13-2.24,5.68-4.65h1.96v22.3h-2.1Z"/>
      <path d="M64.15,467.31c1.38-1.93,3.41-3.2,6.3-3.2s4.92,1.27,6.3,3.2c1.65,2.31,2.17,5.37,2.17,8.4s-.52,6.09-2.17,8.4c-1.38,1.93-3.41,3.2-6.3,3.2s-4.92-1.27-6.3-3.2c-1.65-2.31-2.17-5.37-2.17-8.4s.52-6.09,2.17-8.4ZM66.36,483.62c1,1.07,2.31,1.76,4.1,1.76s3.1-.69,4.1-1.76c1.62-1.75,2.24-4.61,2.24-7.92s-.62-6.16-2.24-7.92c-1-1.07-2.31-1.76-4.1-1.76s-3.1.69-4.1,1.76c-1.62,1.75-2.24,4.61-2.24,7.92s.62,6.16,2.24,7.92Z"/>
      <path d="M85.01,467.31c1.38-1.93,3.41-3.2,6.3-3.2s4.92,1.27,6.3,3.2c1.65,2.31,2.17,5.37,2.17,8.4s-.52,6.09-2.17,8.4c-1.38,1.93-3.41,3.2-6.3,3.2s-4.92-1.27-6.3-3.2c-1.65-2.31-2.17-5.37-2.17-8.4s.52-6.09,2.17-8.4ZM87.21,483.62c1,1.07,2.31,1.76,4.09,1.76s3.1-.69,4.1-1.76c1.62-1.75,2.24-4.61,2.24-7.92s-.62-6.16-2.24-7.92c-1-1.07-2.31-1.76-4.1-1.76s-3.1.69-4.09,1.76c-1.62,1.75-2.24,4.61-2.24,7.92s.62,6.16,2.24,7.92Z"/>
      <path d="M112.23,467.31c1.38-1.93,3.41-3.2,6.3-3.2s4.92,1.27,6.3,3.2c1.65,2.31,2.17,5.37,2.17,8.4s-.52,6.09-2.17,8.4c-1.38,1.93-3.41,3.2-6.3,3.2s-4.92-1.27-6.3-3.2c-1.65-2.31-2.17-5.37-2.17-8.4s.52-6.09,2.17-8.4ZM114.43,483.62c1,1.07,2.31,1.76,4.1,1.76s3.1-.69,4.1-1.76c1.62-1.75,2.24-4.61,2.24-7.92s-.62-6.16-2.24-7.92c-1-1.07-2.31-1.76-4.1-1.76s-3.1.69-4.1,1.76c-1.62,1.75-2.24,4.61-2.24,7.92s.62,6.16,2.24,7.92Z"/>
      <path d="M133.08,467.31c1.38-1.93,3.41-3.2,6.3-3.2s4.92,1.27,6.3,3.2c1.65,2.31,2.17,5.37,2.17,8.4s-.52,6.09-2.17,8.4c-1.38,1.93-3.41,3.2-6.3,3.2s-4.92-1.27-6.3-3.2c-1.65-2.31-2.17-5.37-2.17-8.4s.52-6.09,2.17-8.4ZM135.29,483.62c1,1.07,2.31,1.76,4.1,1.76s3.1-.69,4.09-1.76c1.62-1.75,2.24-4.61,2.24-7.92s-.62-6.16-2.24-7.92c-1-1.07-2.31-1.76-4.09-1.76s-3.1.69-4.1,1.76c-1.62,1.75-2.24,4.61-2.24,7.92s.62,6.16,2.24,7.92Z"/>
      <path d="M153.94,467.31c1.38-1.93,3.41-3.2,6.3-3.2s4.92,1.27,6.3,3.2c1.65,2.31,2.17,5.37,2.17,8.4s-.52,6.09-2.17,8.4c-1.38,1.93-3.41,3.2-6.3,3.2s-4.92-1.27-6.3-3.2c-1.65-2.31-2.17-5.37-2.17-8.4s.52-6.09,2.17-8.4ZM156.14,483.62c1,1.07,2.31,1.76,4.1,1.76s3.1-.69,4.09-1.76c1.62-1.75,2.24-4.61,2.24-7.92s-.62-6.16-2.24-7.92c-1-1.07-2.31-1.76-4.09-1.76s-3.1.69-4.1,1.76c-1.62,1.75-2.24,4.61-2.24,7.92s.62,6.16,2.24,7.92Z"/>
    </g>
    <g class="cls-4">
      <path d="M59.42,439.42v-18.62c-.96,1.31-3.37,2.68-5.54,2.68v-1.72c3.06-.28,5.13-2.24,5.68-4.65h1.96v22.3h-2.1Z"/>
      <path d="M66.27,424.76c-.1-.31-.1-.79-.1-1.07,0-3.82,2.82-7.02,7.4-7.02s7.12,2.99,7.12,6.57c0,3.03-1.58,5.2-4.16,6.82l-4.82,3.06c-1.48.93-2.79,2.37-3.03,4.34h12.29v1.96h-14.9c.03-3.13,1.31-5.82,4.65-7.99l4.34-2.79c2.31-1.48,3.48-3.17,3.48-5.37,0-2.48-1.82-4.72-5.02-4.72s-5.2,2.17-5.2,5.37c0,.38.03.72.1,1.1l-2.13-.28Z"/>
      <path d="M86.19,432.61c.17,3.03,2.62,5.37,5.82,5.37s5.75-2.34,5.75-5.47c0-3.37-2.55-5.54-5.71-5.54-1.82,0-3.58.72-4.96,2.24l-2.07-.83,2.82-11.25h11.22v1.96h-9.74l-2,8.02c1.34-1.41,3.3-2.03,5.09-2.03,4.3,0,7.5,2.99,7.5,7.36,0,4.1-3.2,7.43-7.92,7.43-4.44,0-7.61-3.06-7.88-6.64l2.07-.62Z"/>
      <path d="M112.55,419.88c1.38-1.93,3.41-3.2,6.3-3.2s4.92,1.27,6.3,3.2c1.65,2.31,2.17,5.37,2.17,8.4s-.52,6.09-2.17,8.4c-1.38,1.93-3.41,3.2-6.3,3.2s-4.92-1.27-6.3-3.2c-1.65-2.31-2.17-5.37-2.17-8.4s.52-6.09,2.17-8.4ZM114.76,436.19c1,1.07,2.31,1.76,4.1,1.76s3.1-.69,4.1-1.76c1.62-1.75,2.24-4.61,2.24-7.92s-.62-6.16-2.24-7.92c-1-1.07-2.31-1.76-4.1-1.76s-3.1.69-4.1,1.76c-1.62,1.75-2.24,4.61-2.24,7.92s.62,6.16,2.24,7.92Z"/>
      <path d="M133.41,419.88c1.38-1.93,3.41-3.2,6.3-3.2s4.92,1.27,6.3,3.2c1.65,2.31,2.17,5.37,2.17,8.4s-.52,6.09-2.17,8.4c-1.38,1.93-3.41,3.2-6.3,3.2s-4.92-1.27-6.3-3.2c-1.65-2.31-2.17-5.37-2.17-8.4s.52-6.09,2.17-8.4ZM135.61,436.19c1,1.07,2.31,1.76,4.1,1.76s3.1-.69,4.1-1.76c1.62-1.75,2.24-4.61,2.24-7.92s-.62-6.16-2.24-7.92c-1-1.07-2.31-1.76-4.1-1.76s-3.1.69-4.1,1.76c-1.62,1.75-2.24,4.61-2.24,7.92s.62,6.16,2.24,7.92Z"/>
      <path d="M154.26,419.88c1.38-1.93,3.41-3.2,6.3-3.2s4.92,1.27,6.3,3.2c1.65,2.31,2.17,5.37,2.17,8.4s-.52,6.09-2.17,8.4c-1.38,1.93-3.41,3.2-6.3,3.2s-4.92-1.27-6.3-3.2c-1.65-2.31-2.17-5.37-2.17-8.4s.52-6.09,2.17-8.4ZM156.46,436.19c1,1.07,2.31,1.76,4.1,1.76s3.1-.69,4.1-1.76c1.62-1.75,2.24-4.61,2.24-7.92s-.62-6.16-2.24-7.92c-1-1.07-2.31-1.76-4.1-1.76s-3.1.69-4.1,1.76c-1.62,1.75-2.24,4.61-2.24,7.92s.62,6.16,2.24,7.92Z"/>
    </g>
    <g class="cls-4">
      <path d="M57.16,391.99v-18.62c-.96,1.31-3.37,2.68-5.54,2.68v-1.72c3.06-.28,5.13-2.24,5.68-4.65h1.96v22.3h-2.1Z"/>
      <path d="M65.35,385.17c.17,3.03,2.62,5.37,5.82,5.37s5.75-2.34,5.75-5.47c0-3.37-2.55-5.54-5.71-5.54-1.82,0-3.58.72-4.96,2.24l-2.06-.83,2.82-11.25h11.22v1.96h-9.74l-2,8.02c1.34-1.41,3.3-2.03,5.09-2.03,4.3,0,7.5,2.99,7.5,7.36,0,4.1-3.2,7.43-7.92,7.43-4.44,0-7.61-3.06-7.88-6.64l2.06-.62Z"/>
      <path d="M85,372.44c1.38-1.93,3.41-3.2,6.3-3.2s4.92,1.27,6.3,3.2c1.65,2.31,2.17,5.37,2.17,8.4s-.52,6.09-2.17,8.4c-1.38,1.93-3.41,3.2-6.3,3.2s-4.92-1.27-6.3-3.2c-1.65-2.31-2.17-5.37-2.17-8.4s.52-6.09,2.17-8.4ZM87.2,388.75c1,1.07,2.31,1.76,4.1,1.76s3.1-.69,4.1-1.76c1.62-1.75,2.24-4.61,2.24-7.92s-.62-6.16-2.24-7.92c-1-1.07-2.31-1.76-4.1-1.76s-3.1.69-4.1,1.76c-1.62,1.75-2.24,4.61-2.24,7.92s.62,6.16,2.24,7.92Z"/>
      <path d="M112.22,372.44c1.38-1.93,3.41-3.2,6.3-3.2s4.92,1.27,6.3,3.2c1.65,2.31,2.17,5.37,2.17,8.4s-.52,6.09-2.17,8.4c-1.38,1.93-3.41,3.2-6.3,3.2s-4.92-1.27-6.3-3.2c-1.65-2.31-2.17-5.37-2.17-8.4s.52-6.09,2.17-8.4ZM114.42,388.75c1,1.07,2.31,1.76,4.09,1.76s3.1-.69,4.1-1.76c1.62-1.75,2.24-4.61,2.24-7.92s-.62-6.16-2.24-7.92c-1-1.07-2.31-1.76-4.1-1.76s-3.1.69-4.09,1.76c-1.62,1.75-2.24,4.61-2.24,7.92s.62,6.16,2.24,7.92Z"/>
      <path d="M133.08,372.44c1.38-1.93,3.41-3.2,6.3-3.2s4.92,1.27,6.3,3.2c1.65,2.31,2.17,5.37,2.17,8.4s-.52,6.09-2.17,8.4c-1.38,1.93-3.41,3.2-6.3,3.2s-4.92-1.27-6.3-3.2c-1.65-2.31-2.17-5.37-2.17-8.4s.52-6.09,2.17-8.4ZM135.28,388.75c1,1.07,2.31,1.76,4.09,1.76s3.1-.69,4.1-1.76c1.62-1.75,2.24-4.61,2.24-7.92s-.62-6.16-2.24-7.92c-1-1.07-2.31-1.76-4.1-1.76s-3.1.69-4.09,1.76c-1.62,1.75-2.24,4.61-2.24,7.92s.62,6.16,2.24,7.92Z"/>
      <path d="M153.93,372.44c1.38-1.93,3.41-3.2,6.3-3.2s4.92,1.27,6.3,3.2c1.65,2.31,2.17,5.37,2.17,8.4s-.52,6.09-2.17,8.4c-1.38,1.93-3.41,3.2-6.3,3.2s-4.92-1.27-6.3-3.2c-1.65-2.31-2.17-5.37-2.17-8.4s.52-6.09,2.17-8.4ZM156.13,388.75c1,1.07,2.31,1.76,4.1,1.76s3.1-.69,4.09-1.76c1.62-1.75,2.24-4.61,2.24-7.92s-.62-6.16-2.24-7.92c-1-1.07-2.31-1.76-4.09-1.76s-3.1.69-4.1,1.76c-1.62,1.75-2.24,4.61-2.24,7.92s.62,6.16,2.24,7.92Z"/>
    </g>
    <g class="cls-4">
      <path d="M60.21,344.55v-18.62c-.96,1.31-3.37,2.68-5.54,2.68v-1.72c3.06-.28,5.13-2.24,5.68-4.65h1.96v22.3h-2.1Z"/>
      <path d="M82.13,324.35c-4.23,3.85-8.98,9.77-10.08,20.2h-2.24c1.1-11.19,7.02-17.59,9.95-20.34h-13.63v-1.96h16v2.1Z"/>
      <path d="M85.78,337.74c.17,3.03,2.62,5.37,5.82,5.37s5.75-2.34,5.75-5.47c0-3.37-2.55-5.54-5.71-5.54-1.82,0-3.58.72-4.96,2.24l-2.07-.83,2.82-11.25h11.22v1.96h-9.74l-2,8.02c1.34-1.41,3.3-2.03,5.09-2.03,4.3,0,7.5,2.99,7.5,7.36,0,4.1-3.2,7.43-7.92,7.43-4.44,0-7.61-3.06-7.88-6.64l2.06-.62Z"/>
      <path d="M112.14,325c1.38-1.93,3.41-3.2,6.3-3.2s4.92,1.27,6.3,3.2c1.65,2.31,2.17,5.37,2.17,8.4s-.52,6.09-2.17,8.4c-1.38,1.93-3.41,3.2-6.3,3.2s-4.92-1.27-6.3-3.2c-1.65-2.31-2.17-5.37-2.17-8.4s.52-6.09,2.17-8.4ZM114.34,341.32c1,1.07,2.31,1.76,4.1,1.76s3.1-.69,4.1-1.76c1.62-1.75,2.24-4.61,2.24-7.92s-.62-6.16-2.24-7.92c-1-1.07-2.31-1.76-4.1-1.76s-3.1.69-4.1,1.76c-1.62,1.75-2.24,4.61-2.24,7.92s.62,6.16,2.24,7.92Z"/>
      <path d="M132.99,325c1.38-1.93,3.41-3.2,6.3-3.2s4.92,1.27,6.3,3.2c1.65,2.31,2.17,5.37,2.17,8.4s-.52,6.09-2.17,8.4c-1.38,1.93-3.41,3.2-6.3,3.2s-4.92-1.27-6.3-3.2c-1.65-2.31-2.17-5.37-2.17-8.4s.52-6.09,2.17-8.4ZM135.2,341.32c1,1.07,2.31,1.76,4.09,1.76s3.1-.69,4.1-1.76c1.62-1.75,2.24-4.61,2.24-7.92s-.62-6.16-2.24-7.92c-1-1.07-2.31-1.76-4.1-1.76s-3.1.69-4.09,1.76c-1.62,1.75-2.24,4.61-2.24,7.92s.62,6.16,2.24,7.92Z"/>
      <path d="M153.85,325c1.38-1.93,3.41-3.2,6.3-3.2s4.92,1.27,6.3,3.2c1.65,2.31,2.17,5.37,2.17,8.4s-.52,6.09-2.17,8.4c-1.38,1.93-3.41,3.2-6.3,3.2s-4.92-1.27-6.3-3.2c-1.65-2.31-2.17-5.37-2.17-8.4s.52-6.09,2.17-8.4ZM156.05,341.32c1,1.07,2.31,1.76,4.09,1.76s3.1-.69,4.1-1.76c1.62-1.75,2.24-4.61,2.24-7.92s-.62-6.16-2.24-7.92c-1-1.07-2.31-1.76-4.1-1.76s-3.1.69-4.09,1.76c-1.62,1.75-2.24,4.61-2.24,7.92s.62,6.16,2.24,7.92Z"/>
    </g>
    <g class="cls-4">
      <path d="M43.57,282.45c-.1-.31-.1-.79-.1-1.07,0-3.82,2.82-7.02,7.4-7.02s7.12,2.99,7.12,6.57c0,3.03-1.58,5.2-4.16,6.82l-4.82,3.06c-1.48.93-2.79,2.37-3.03,4.34h12.29v1.96h-14.9c.03-3.13,1.31-5.82,4.65-7.99l4.34-2.79c2.31-1.48,3.48-3.17,3.48-5.37,0-2.48-1.82-4.72-5.02-4.72s-5.2,2.17-5.2,5.37c0,.38.03.72.1,1.1l-2.13-.28Z"/>
      <path d="M64.22,277.57c1.38-1.93,3.41-3.2,6.3-3.2s4.92,1.27,6.3,3.2c1.65,2.31,2.17,5.37,2.17,8.4s-.52,6.09-2.17,8.4c-1.38,1.93-3.41,3.2-6.3,3.2s-4.92-1.27-6.3-3.2c-1.65-2.31-2.17-5.37-2.17-8.4s.52-6.09,2.17-8.4ZM66.42,293.88c1,1.07,2.31,1.76,4.1,1.76s3.1-.69,4.1-1.76c1.62-1.75,2.24-4.61,2.24-7.92s-.62-6.16-2.24-7.92c-1-1.07-2.31-1.76-4.1-1.76s-3.1.69-4.1,1.76c-1.62,1.75-2.24,4.61-2.24,7.92s.62,6.16,2.24,7.92Z"/>
      <path d="M85.07,277.57c1.38-1.93,3.41-3.2,6.3-3.2s4.92,1.27,6.3,3.2c1.65,2.31,2.17,5.37,2.17,8.4s-.52,6.09-2.17,8.4c-1.38,1.93-3.41,3.2-6.3,3.2s-4.92-1.27-6.3-3.2c-1.65-2.31-2.17-5.37-2.17-8.4s.52-6.09,2.17-8.4ZM87.28,293.88c1,1.07,2.31,1.76,4.09,1.76s3.1-.69,4.1-1.76c1.62-1.75,2.24-4.61,2.24-7.92s-.62-6.16-2.24-7.92c-1-1.07-2.31-1.76-4.1-1.76s-3.1.69-4.09,1.76c-1.62,1.75-2.24,4.61-2.24,7.92s.62,6.16,2.24,7.92Z"/>
      <path d="M112.29,277.57c1.38-1.93,3.41-3.2,6.3-3.2s4.92,1.27,6.3,3.2c1.65,2.31,2.17,5.37,2.17,8.4s-.52,6.09-2.17,8.4c-1.38,1.93-3.41,3.2-6.3,3.2s-4.92-1.27-6.3-3.2c-1.65-2.31-2.17-5.37-2.17-8.4s.52-6.09,2.17-8.4ZM114.5,293.88c1,1.07,2.31,1.76,4.1,1.76s3.1-.69,4.09-1.76c1.62-1.75,2.24-4.61,2.24-7.92s-.62-6.16-2.24-7.92c-1-1.07-2.31-1.76-4.09-1.76s-3.1.69-4.1,1.76c-1.62,1.75-2.24,4.61-2.24,7.92s.62,6.16,2.24,7.92Z"/>
      <path d="M133.15,277.57c1.38-1.93,3.41-3.2,6.3-3.2s4.92,1.27,6.3,3.2c1.65,2.31,2.17,5.37,2.17,8.4s-.52,6.09-2.17,8.4c-1.38,1.93-3.41,3.2-6.3,3.2s-4.92-1.27-6.3-3.2c-1.65-2.31-2.17-5.37-2.17-8.4s.52-6.09,2.17-8.4ZM135.35,293.88c1,1.07,2.31,1.76,4.1,1.76s3.1-.69,4.09-1.76c1.62-1.75,2.24-4.61,2.24-7.92s-.62-6.16-2.24-7.92c-1-1.07-2.31-1.76-4.09-1.76s-3.1.69-4.1,1.76c-1.62,1.75-2.24,4.61-2.24,7.92s.62,6.16,2.24,7.92Z"/>
      <path d="M154,277.57c1.38-1.93,3.41-3.2,6.3-3.2s4.92,1.27,6.3,3.2c1.65,2.31,2.17,5.37,2.17,8.4s-.52,6.09-2.17,8.4c-1.38,1.93-3.41,3.2-6.3,3.2s-4.92-1.27-6.3-3.2c-1.65-2.31-2.17-5.37-2.17-8.4s.52-6.09,2.17-8.4ZM156.21,293.88c1,1.07,2.31,1.76,4.1,1.76s3.1-.69,4.09-1.76c1.62-1.75,2.24-4.61,2.24-7.92s-.62-6.16-2.24-7.92c-1-1.07-2.31-1.76-4.09-1.76s-3.1.69-4.1,1.76c-1.62,1.75-2.24,4.61-2.24,7.92s.62,6.16,2.24,7.92Z"/>
    </g>
    <g class="cls-4">
      <path d="M47.75,235.02c-.1-.31-.1-.79-.1-1.07,0-3.82,2.82-7.02,7.4-7.02s7.12,2.99,7.12,6.57c0,3.03-1.58,5.2-4.16,6.82l-4.82,3.06c-1.48.93-2.79,2.37-3.03,4.34h12.29v1.96h-14.9c.03-3.13,1.31-5.82,4.65-7.99l4.34-2.79c2.31-1.48,3.48-3.17,3.48-5.37,0-2.48-1.82-4.72-5.02-4.72s-5.2,2.17-5.2,5.37c0,.38.03.72.1,1.1l-2.13-.28Z"/>
      <path d="M66.33,235.02c-.1-.31-.1-.79-.1-1.07,0-3.82,2.82-7.02,7.4-7.02s7.12,2.99,7.12,6.57c0,3.03-1.58,5.2-4.16,6.82l-4.82,3.06c-1.48.93-2.79,2.37-3.03,4.34h12.29v1.96h-14.9c.03-3.13,1.31-5.82,4.65-7.99l4.34-2.79c2.31-1.48,3.48-3.17,3.48-5.37,0-2.48-1.82-4.72-5.02-4.72s-5.2,2.17-5.2,5.37c0,.38.03.72.1,1.1l-2.13-.28Z"/>
      <path d="M86.26,242.87c.17,3.03,2.62,5.37,5.82,5.37s5.75-2.34,5.75-5.47c0-3.37-2.55-5.54-5.71-5.54-1.82,0-3.58.72-4.96,2.24l-2.06-.83,2.82-11.25h11.22v1.96h-9.74l-2,8.02c1.34-1.41,3.3-2.03,5.09-2.03,4.3,0,7.5,2.99,7.5,7.36,0,4.1-3.2,7.43-7.92,7.43-4.44,0-7.61-3.06-7.88-6.64l2.07-.62Z"/>
      <path d="M112.62,230.13c1.38-1.93,3.41-3.2,6.3-3.2s4.92,1.27,6.3,3.2c1.65,2.31,2.17,5.37,2.17,8.4s-.52,6.09-2.17,8.4c-1.38,1.93-3.41,3.2-6.3,3.2s-4.92-1.27-6.3-3.2c-1.65-2.31-2.17-5.37-2.17-8.4s.52-6.09,2.17-8.4ZM114.82,246.44c1,1.07,2.31,1.76,4.1,1.76s3.1-.69,4.1-1.76c1.62-1.75,2.24-4.61,2.24-7.92s-.62-6.16-2.24-7.92c-1-1.07-2.31-1.76-4.1-1.76s-3.1.69-4.1,1.76c-1.62,1.75-2.24,4.61-2.24,7.92s.62,6.16,2.24,7.92Z"/>
      <path d="M133.47,230.13c1.38-1.93,3.41-3.2,6.3-3.2s4.92,1.27,6.3,3.2c1.65,2.31,2.17,5.37,2.17,8.4s-.52,6.09-2.17,8.4c-1.38,1.93-3.41,3.2-6.3,3.2s-4.92-1.27-6.3-3.2c-1.65-2.31-2.17-5.37-2.17-8.4s.52-6.09,2.17-8.4ZM135.68,246.44c1,1.07,2.31,1.76,4.1,1.76s3.1-.69,4.1-1.76c1.62-1.75,2.24-4.61,2.24-7.92s-.62-6.16-2.24-7.92c-1-1.07-2.31-1.76-4.1-1.76s-3.1.69-4.1,1.76c-1.62,1.75-2.24,4.61-2.24,7.92s.62,6.16,2.24,7.92Z"/>
      <path d="M154.33,230.13c1.38-1.93,3.41-3.2,6.3-3.2s4.92,1.27,6.3,3.2c1.65,2.31,2.17,5.37,2.17,8.4s-.52,6.09-2.17,8.4c-1.38,1.93-3.41,3.2-6.3,3.2s-4.92-1.27-6.3-3.2c-1.65-2.31-2.17-5.37-2.17-8.4s.52-6.09,2.17-8.4ZM156.53,246.44c1,1.07,2.31,1.76,4.1,1.76s3.1-.69,4.1-1.76c1.62-1.75,2.24-4.61,2.24-7.92s-.62-6.16-2.24-7.92c-1-1.07-2.31-1.76-4.1-1.76s-3.1.69-4.1,1.76c-1.62,1.75-2.24,4.61-2.24,7.92s.62,6.16,2.24,7.92Z"/>
      <path d="M106.2,226.85c.97,0,1.88.77,1.88,2.25,0,3.16-1.92,5.07-3.8,5.51v-1.21c1.44-.4,2.35-2.02,2.39-3.49-.1.1-.3.17-.61.17-.91,0-1.54-.67-1.54-1.65,0-.84.71-1.58,1.68-1.58Z"/>
      <path d="M105.32,274.54c.97,0,1.88.77,1.88,2.25,0,3.16-1.92,5.07-3.8,5.51v-1.21c1.44-.4,2.35-2.02,2.39-3.49-.1.1-.3.17-.61.17-.91,0-1.54-.67-1.54-1.65,0-.84.71-1.58,1.68-1.58Z"/>
      <path d="M105.32,321.65c.97,0,1.88.77,1.88,2.25,0,3.16-1.92,5.07-3.8,5.51v-1.21c1.44-.4,2.35-2.02,2.39-3.49-.1.1-.3.17-.61.17-.91,0-1.54-.67-1.54-1.65,0-.84.71-1.58,1.68-1.58Z"/>
      <path d="M105.32,369.98c.97,0,1.88.77,1.88,2.25,0,3.16-1.92,5.07-3.8,5.51v-1.21c1.44-.4,2.35-2.02,2.39-3.49-.1.1-.3.17-.61.17-.91,0-1.54-.67-1.54-1.65,0-.84.71-1.58,1.68-1.58Z"/>
      <path d="M105.32,416.76c.97,0,1.88.77,1.88,2.25,0,3.16-1.92,5.07-3.8,5.51v-1.21c1.44-.4,2.35-2.02,2.39-3.49-.1.1-.3.17-.61.17-.91,0-1.54-.67-1.54-1.65,0-.84.71-1.58,1.68-1.58Z"/>
      <path d="M105.32,464.76c.97,0,1.88.77,1.88,2.25,0,3.16-1.92,5.07-3.8,5.51v-1.21c1.44-.4,2.35-2.02,2.39-3.49-.1.1-.3.17-.61.17-.91,0-1.54-.67-1.54-1.65,0-.84.71-1.58,1.68-1.58Z"/>
      <path d="M106.32,510.65c.97,0,1.88.77,1.88,2.25,0,3.16-1.92,5.07-3.8,5.51v-1.21c1.44-.4,2.35-2.02,2.39-3.49-.1.1-.3.17-.61.17-.91,0-1.54-.67-1.54-1.65,0-.84.71-1.58,1.68-1.58Z"/>
      <path d="M106.32,559.2c.97,0,1.88.77,1.88,2.25,0,3.16-1.92,5.07-3.8,5.51v-1.21c1.44-.4,2.35-2.02,2.39-3.49-.1.1-.3.17-.61.17-.91,0-1.54-.67-1.54-1.65,0-.84.71-1.58,1.68-1.58Z"/>
      <path d="M106.32,605.54c.97,0,1.88.77,1.88,2.25,0,3.16-1.92,5.07-3.8,5.51v-1.21c1.44-.4,2.35-2.02,2.39-3.49-.1.1-.3.17-.61.17-.91,0-1.54-.67-1.54-1.65,0-.84.71-1.58,1.68-1.58Z"/>
    </g>
    <g class="cls-4">
      <path d="M45.49,188.51c-.1-.31-.1-.79-.1-1.07,0-3.82,2.82-7.02,7.4-7.02s7.12,2.99,7.12,6.57c0,3.03-1.58,5.2-4.16,6.82l-4.82,3.06c-1.48.93-2.79,2.37-3.03,4.34h12.29v1.96h-14.9c.03-3.13,1.31-5.82,4.65-7.99l4.34-2.79c2.31-1.48,3.48-3.17,3.48-5.37,0-2.48-1.82-4.72-5.02-4.72s-5.2,2.17-5.2,5.37c0,.38.03.72.1,1.1l-2.13-.28Z"/>
      <path d="M65.41,196.36c.17,3.03,2.62,5.37,5.82,5.37s5.75-2.34,5.75-5.47c0-3.37-2.55-5.54-5.71-5.54-1.82,0-3.58.72-4.96,2.24l-2.06-.83,2.82-11.25h11.22v1.96h-9.74l-2,8.02c1.34-1.41,3.3-2.03,5.09-2.03,4.3,0,7.5,2.99,7.5,7.36,0,4.1-3.2,7.43-7.92,7.43-4.44,0-7.61-3.06-7.88-6.64l2.06-.62Z"/>
      <path d="M85.06,183.62c1.38-1.93,3.41-3.2,6.3-3.2s4.92,1.27,6.3,3.2c1.65,2.31,2.17,5.37,2.17,8.4s-.52,6.09-2.17,8.4c-1.38,1.93-3.41,3.2-6.3,3.2s-4.92-1.27-6.3-3.2c-1.65-2.31-2.17-5.37-2.17-8.4s.52-6.09,2.17-8.4ZM87.27,199.94c1,1.07,2.31,1.76,4.09,1.76s3.1-.69,4.1-1.76c1.62-1.75,2.24-4.61,2.24-7.92s-.62-6.16-2.24-7.92c-1-1.07-2.31-1.76-4.1-1.76s-3.1.69-4.09,1.76c-1.62,1.75-2.24,4.61-2.24,7.92s.62,6.16,2.24,7.92Z"/>
      <path d="M112.29,183.62c1.38-1.93,3.41-3.2,6.3-3.2s4.92,1.27,6.3,3.2c1.65,2.31,2.17,5.37,2.17,8.4s-.52,6.09-2.17,8.4c-1.38,1.93-3.41,3.2-6.3,3.2s-4.92-1.27-6.3-3.2c-1.65-2.31-2.17-5.37-2.17-8.4s.52-6.09,2.17-8.4ZM114.49,199.94c1,1.07,2.31,1.76,4.1,1.76s3.1-.69,4.09-1.76c1.62-1.75,2.24-4.61,2.24-7.92s-.62-6.16-2.24-7.92c-1-1.07-2.31-1.76-4.09-1.76s-3.1.69-4.1,1.76c-1.62,1.75-2.24,4.61-2.24,7.92s.62,6.16,2.24,7.92Z"/>
      <path d="M133.14,183.62c1.38-1.93,3.41-3.2,6.3-3.2s4.92,1.27,6.3,3.2c1.65,2.31,2.17,5.37,2.17,8.4s-.52,6.09-2.17,8.4c-1.38,1.93-3.41,3.2-6.3,3.2s-4.92-1.27-6.3-3.2c-1.65-2.31-2.17-5.37-2.17-8.4s.52-6.09,2.17-8.4ZM135.34,199.94c1,1.07,2.31,1.76,4.1,1.76s3.1-.69,4.09-1.76c1.62-1.75,2.24-4.61,2.24-7.92s-.62-6.16-2.24-7.92c-1-1.07-2.31-1.76-4.09-1.76s-3.1.69-4.1,1.76c-1.62,1.75-2.24,4.61-2.24,7.92s.62,6.16,2.24,7.92Z"/>
      <path d="M154,183.62c1.38-1.93,3.41-3.2,6.3-3.2s4.92,1.27,6.3,3.2c1.65,2.31,2.17,5.37,2.17,8.4s-.52,6.09-2.17,8.4c-1.38,1.93-3.41,3.2-6.3,3.2s-4.92-1.27-6.3-3.2c-1.65-2.31-2.17-5.37-2.17-8.4s.52-6.09,2.17-8.4ZM156.2,199.94c1,1.07,2.31,1.76,4.1,1.76s3.1-.69,4.09-1.76c1.62-1.75,2.24-4.61,2.24-7.92s-.62-6.16-2.24-7.92c-1-1.07-2.31-1.76-4.09-1.76s-3.1.69-4.1,1.76c-1.62,1.75-2.24,4.61-2.24,7.92s.62,6.16,2.24,7.92Z"/>
      <path d="M105.6,180.08c.97,0,1.88.77,1.88,2.25,0,3.16-1.92,5.07-3.8,5.51v-1.21c1.44-.4,2.35-2.02,2.39-3.49-.1.1-.3.17-.61.17-.91,0-1.54-.67-1.54-1.65,0-.84.71-1.58,1.68-1.58Z"/>
    </g>
    <g class="cls-4">
      <path d="M192.2,704.73c-.1-.31-.1-.79-.1-1.07,0-3.82,2.82-7.02,7.4-7.02s7.12,2.99,7.12,6.57c0,3.03-1.58,5.2-4.16,6.82l-4.82,3.06c-1.48.93-2.79,2.37-3.03,4.34h12.29v1.96h-14.9c.03-3.13,1.31-5.82,4.65-7.99l4.34-2.79c2.31-1.48,3.48-3.17,3.48-5.37,0-2.48-1.82-4.72-5.02-4.72s-5.2,2.17-5.2,5.37c0,.38.03.72.1,1.1l-2.13-.28Z"/>
      <path d="M212.85,699.84c1.38-1.93,3.41-3.2,6.3-3.2s4.92,1.27,6.3,3.2c1.65,2.31,2.17,5.37,2.17,8.4s-.52,6.09-2.17,8.4c-1.38,1.93-3.41,3.2-6.3,3.2s-4.92-1.27-6.3-3.2c-1.65-2.31-2.17-5.37-2.17-8.4s.52-6.09,2.17-8.4ZM215.05,716.15c1,1.07,2.31,1.76,4.1,1.76s3.1-.69,4.1-1.76c1.62-1.75,2.24-4.61,2.24-7.92s-.62-6.16-2.24-7.92c-1-1.07-2.31-1.76-4.1-1.76s-3.1.69-4.1,1.76c-1.62,1.75-2.24,4.61-2.24,7.92s.62,6.16,2.24,7.92Z"/>
      <path d="M233.7,699.84c1.38-1.93,3.41-3.2,6.3-3.2s4.92,1.27,6.3,3.2c1.65,2.31,2.17,5.37,2.17,8.4s-.52,6.09-2.17,8.4c-1.38,1.93-3.41,3.2-6.3,3.2s-4.92-1.27-6.3-3.2c-1.65-2.31-2.17-5.37-2.17-8.4s.52-6.09,2.17-8.4ZM235.91,716.15c1,1.07,2.31,1.76,4.09,1.76s3.1-.69,4.1-1.76c1.62-1.75,2.24-4.61,2.24-7.92s-.62-6.16-2.24-7.92c-1-1.07-2.31-1.76-4.1-1.76s-3.1.69-4.09,1.76c-1.62,1.75-2.24,4.61-2.24,7.92s.62,6.16,2.24,7.92Z"/>
      <path d="M252.39,713.61c0-2.86,1.96-4.89,4.58-5.64-2.24-.65-4.1-2.79-4.1-5.33,0-3.41,2.99-5.99,7.26-5.99s7.26,2.58,7.26,5.99c0,2.55-1.83,4.72-4.1,5.33,2.58.72,4.61,2.79,4.61,5.64,0,3.44-2.93,6.23-7.78,6.23s-7.74-2.79-7.74-6.23ZM265.74,713.44c0-2.55-2-4.58-5.61-4.58s-5.61,2.03-5.61,4.58,2.1,4.51,5.61,4.51,5.61-2,5.61-4.51ZM265.26,702.73c0-2.41-1.96-4.27-5.13-4.27s-5.13,1.86-5.13,4.27,2.1,4.3,5.13,4.3,5.13-1.82,5.13-4.3Z"/>
    </g>
    <g class="cls-4">
      <path d="M380.9,704.73c-.1-.31-.1-.79-.1-1.07,0-3.82,2.82-7.02,7.4-7.02s7.12,2.99,7.12,6.57c0,3.03-1.58,5.2-4.16,6.82l-4.82,3.06c-1.48.93-2.79,2.37-3.03,4.34h12.29v1.96h-14.9c.03-3.13,1.31-5.82,4.65-7.99l4.34-2.79c2.31-1.48,3.48-3.17,3.48-5.37,0-2.48-1.82-4.72-5.02-4.72s-5.2,2.17-5.2,5.37c0,.38.03.72.1,1.1l-2.13-.28Z"/>
      <path d="M401.55,699.84c1.38-1.93,3.41-3.2,6.3-3.2s4.92,1.27,6.3,3.2c1.65,2.31,2.17,5.37,2.17,8.4s-.52,6.09-2.17,8.4c-1.38,1.93-3.41,3.2-6.3,3.2s-4.92-1.27-6.3-3.2c-1.65-2.31-2.17-5.37-2.17-8.4s.52-6.09,2.17-8.4ZM403.75,716.15c1,1.07,2.31,1.76,4.1,1.76s3.1-.69,4.1-1.76c1.62-1.75,2.24-4.61,2.24-7.92s-.62-6.16-2.24-7.92c-1-1.07-2.31-1.76-4.1-1.76s-3.1.69-4.1,1.76c-1.62,1.75-2.24,4.61-2.24,7.92s.62,6.16,2.24,7.92Z"/>
      <path d="M424.85,719.39v-18.62c-.96,1.31-3.37,2.68-5.54,2.68v-1.72c3.06-.28,5.13-2.24,5.68-4.65h1.96v22.3h-2.1Z"/>
      <path d="M431.69,704.73c-.1-.31-.1-.79-.1-1.07,0-3.82,2.82-7.02,7.4-7.02s7.12,2.99,7.12,6.57c0,3.03-1.58,5.2-4.16,6.82l-4.82,3.06c-1.48.93-2.79,2.37-3.03,4.34h12.29v1.96h-14.9c.03-3.13,1.31-5.82,4.65-7.99l4.34-2.79c2.31-1.48,3.48-3.17,3.48-5.37,0-2.48-1.82-4.72-5.02-4.72s-5.2,2.17-5.2,5.37c0,.38.03.72.1,1.1l-2.13-.28Z"/>
    </g>
    <g class="cls-4">
      <path d="M563.78,704.73c-.1-.31-.1-.79-.1-1.07,0-3.82,2.82-7.02,7.4-7.02s7.12,2.99,7.12,6.57c0,3.03-1.58,5.2-4.16,6.82l-4.82,3.06c-1.48.93-2.79,2.37-3.03,4.34h12.29v1.96h-14.9c.03-3.13,1.31-5.82,4.65-7.99l4.34-2.79c2.31-1.48,3.48-3.17,3.48-5.37,0-2.48-1.82-4.72-5.02-4.72s-5.2,2.17-5.2,5.37c0,.38.03.72.1,1.1l-2.13-.28Z"/>
      <path d="M584.43,699.84c1.38-1.93,3.41-3.2,6.3-3.2s4.92,1.27,6.3,3.2c1.65,2.31,2.17,5.37,2.17,8.4s-.52,6.09-2.17,8.4c-1.38,1.93-3.41,3.2-6.3,3.2s-4.92-1.27-6.3-3.2c-1.65-2.31-2.17-5.37-2.17-8.4s.52-6.09,2.17-8.4ZM586.63,716.15c1,1.07,2.31,1.76,4.1,1.76s3.1-.69,4.09-1.76c1.62-1.75,2.24-4.61,2.24-7.92s-.62-6.16-2.24-7.92c-1-1.07-2.31-1.76-4.09-1.76s-3.1.69-4.1,1.76c-1.62,1.75-2.24,4.61-2.24,7.92s.62,6.16,2.24,7.92Z"/>
      <path d="M607.73,719.39v-18.62c-.96,1.31-3.37,2.68-5.54,2.68v-1.72c3.06-.28,5.13-2.24,5.68-4.65h1.96v22.3h-2.1Z"/>
      <path d="M629.51,699.67c-.93-.55-2.37-1.1-4.27-1.1-5.82,0-8.74,4.99-8.74,10.39v.14c.65-2.24,3.24-4.37,6.68-4.37,4.23,0,7.54,2.99,7.54,7.57s-3.65,7.54-7.88,7.54c-4.85,0-8.43-3.61-8.43-10.43,0-8.54,5.02-12.77,10.95-12.77,2.1,0,3.75.52,4.82,1.24l-.65,1.79ZM622.83,717.95c3.1,0,5.71-2.27,5.71-5.68s-2.62-5.64-5.71-5.64-5.71,2.2-5.71,5.64,2.65,5.68,5.71,5.68Z"/>
    </g>
    <g class="cls-4">
      <path d="M743.36,704.73c-.1-.31-.1-.79-.1-1.07,0-3.82,2.82-7.02,7.4-7.02s7.12,2.99,7.12,6.57c0,3.03-1.58,5.2-4.16,6.82l-4.82,3.06c-1.48.93-2.79,2.37-3.03,4.34h12.29v1.96h-14.9c.03-3.13,1.31-5.82,4.65-7.99l4.34-2.79c2.31-1.48,3.48-3.17,3.48-5.37,0-2.48-1.82-4.72-5.02-4.72s-5.2,2.17-5.2,5.37c0,.38.03.72.1,1.1l-2.13-.28Z"/>
      <path d="M764.01,699.84c1.38-1.93,3.41-3.2,6.3-3.2s4.92,1.27,6.3,3.2c1.65,2.31,2.17,5.37,2.17,8.4s-.52,6.09-2.17,8.4c-1.38,1.93-3.41,3.2-6.3,3.2s-4.92-1.27-6.3-3.2c-1.65-2.31-2.17-5.37-2.17-8.4s.52-6.09,2.17-8.4ZM766.21,716.15c1,1.07,2.31,1.76,4.09,1.76s3.1-.69,4.1-1.76c1.62-1.75,2.24-4.61,2.24-7.92s-.62-6.16-2.24-7.92c-1-1.07-2.31-1.76-4.1-1.76s-3.1.69-4.09,1.76c-1.62,1.75-2.24,4.61-2.24,7.92s.62,6.16,2.24,7.92Z"/>
      <path d="M782.8,704.73c-.1-.31-.1-.79-.1-1.07,0-3.82,2.82-7.02,7.4-7.02s7.12,2.99,7.12,6.57c0,3.03-1.58,5.2-4.16,6.82l-4.82,3.06c-1.48.93-2.79,2.37-3.03,4.34h12.29v1.96h-14.9c.03-3.13,1.31-5.82,4.65-7.99l4.34-2.79c2.31-1.48,3.48-3.17,3.48-5.37,0-2.48-1.82-4.72-5.02-4.72s-5.2,2.17-5.2,5.37c0,.38.03.72.1,1.1l-2.13-.28Z"/>
      <path d="M803.44,699.84c1.38-1.93,3.41-3.2,6.3-3.2s4.92,1.27,6.3,3.2c1.65,2.31,2.17,5.37,2.17,8.4s-.52,6.09-2.17,8.4c-1.38,1.93-3.41,3.2-6.3,3.2s-4.92-1.27-6.3-3.2c-1.65-2.31-2.17-5.37-2.17-8.4s.52-6.09,2.17-8.4ZM805.65,716.15c1,1.07,2.31,1.76,4.1,1.76s3.1-.69,4.1-1.76c1.62-1.75,2.24-4.61,2.24-7.92s-.62-6.16-2.24-7.92c-1-1.07-2.31-1.76-4.1-1.76s-3.1.69-4.1,1.76c-1.62,1.75-2.24,4.61-2.24,7.92s.62,6.16,2.24,7.92Z"/>
    </g>
    <g class="cls-4">
      <path d="M927.7,704.73c-.1-.31-.1-.79-.1-1.07,0-3.82,2.82-7.02,7.4-7.02s7.12,2.99,7.12,6.57c0,3.03-1.58,5.2-4.16,6.82l-4.82,3.06c-1.48.93-2.79,2.37-3.03,4.34h12.29v1.96h-14.9c.03-3.13,1.31-5.82,4.65-7.99l4.34-2.79c2.31-1.48,3.48-3.17,3.48-5.37,0-2.48-1.82-4.72-5.02-4.72s-5.2,2.17-5.2,5.37c0,.38.03.72.1,1.1l-2.13-.28Z"/>
      <path d="M948.35,699.84c1.38-1.93,3.41-3.2,6.3-3.2s4.92,1.27,6.3,3.2c1.65,2.31,2.17,5.37,2.17,8.4s-.52,6.09-2.17,8.4c-1.38,1.93-3.41,3.2-6.3,3.2s-4.92-1.27-6.3-3.2c-1.65-2.31-2.17-5.37-2.17-8.4s.52-6.09,2.17-8.4ZM950.55,716.15c1,1.07,2.31,1.76,4.1,1.76s3.1-.69,4.1-1.76c1.62-1.75,2.24-4.61,2.24-7.92s-.62-6.16-2.24-7.92c-1-1.07-2.31-1.76-4.1-1.76s-3.1.69-4.1,1.76c-1.62,1.75-2.24,4.61-2.24,7.92s.62,6.16,2.24,7.92Z"/>
      <path d="M967.14,704.73c-.1-.31-.1-.79-.1-1.07,0-3.82,2.82-7.02,7.4-7.02s7.12,2.99,7.12,6.57c0,3.03-1.58,5.2-4.16,6.82l-4.82,3.06c-1.48.93-2.79,2.37-3.03,4.34h12.29v1.96h-14.9c.03-3.13,1.31-5.82,4.65-7.99l4.34-2.79c2.31-1.48,3.48-3.17,3.48-5.37,0-2.48-1.82-4.72-5.02-4.72s-5.2,2.17-5.2,5.37c0,.38.03.72.1,1.1l-2.13-.28Z"/>
      <path d="M984.69,711.47l10.22-14.39h3.03v14.87h3.92v1.96h-3.92v5.47h-2.1v-5.47h-11.15v-2.44ZM995.84,699.12l-9.12,12.84h9.12v-12.84Z"/>
    </g>
    <g>
      <rect class="cls-10" x="279.32" y="749.62" width="18.6" height="18.6"/>
      <path class="cls-9" d="M297.93,768.75h-18.6c-.29,0-.53-.24-.53-.53v-18.6c0-.29.24-.53.53-.53h18.6c.29,0,.53.24.53.53v18.6c0,.29-.24.53-.53.53ZM279.86,767.69h17.54v-17.54h-17.54v17.54Z"/>
    </g>
    <g class="cls-4">
      <path d="M321.67,751.44c-.55-2.48-2.24-4.75-5.95-4.75-2.89,0-5.58,1.93-5.58,4.82,0,2.2,1.38,3.72,3.85,4.3l3.72.86c3.82.93,6.13,3.1,6.13,6.54,0,3.72-3.17,6.85-8.09,6.85-5.33,0-8.36-3.51-8.74-7.26l2.03-.65c.28,3.17,2.72,5.95,6.71,5.95,3.75,0,5.92-2.07,5.92-4.72,0-2.31-1.58-3.92-4.37-4.58l-3.68-.86c-3.27-.72-5.64-2.86-5.64-6.3,0-3.75,3.65-6.88,7.68-6.88,5.02,0,7.23,2.86,7.95,5.99l-1.93.69Z"/>
      <path d="M328.04,760.67v-1.86h9.05v1.86h-9.05Z"/>
      <path d="M355.16,751.44c-.55-2.48-2.24-4.75-5.95-4.75-2.89,0-5.58,1.93-5.58,4.82,0,2.2,1.38,3.72,3.85,4.3l3.72.86c3.82.93,6.13,3.1,6.13,6.54,0,3.72-3.17,6.85-8.09,6.85-5.34,0-8.36-3.51-8.74-7.26l2.03-.65c.28,3.17,2.72,5.95,6.71,5.95,3.75,0,5.92-2.07,5.92-4.72,0-2.31-1.58-3.92-4.37-4.58l-3.68-.86c-3.27-.72-5.64-2.86-5.64-6.3,0-3.75,3.65-6.88,7.68-6.88,5.02,0,7.23,2.86,7.95,5.99l-1.93.69Z"/>
      <path d="M364.76,753.2h4.27v1.86h-4.27v9.91c0,1.96.93,2.96,2.79,2.96.58,0,1.17-.14,1.48-.28v1.82c-.28.14-1.03.31-2.03.31-2.65,0-4.3-1.58-4.3-4.61v-10.12h-3.48v-1.86h1.24c1.62,0,2.31-.72,2.31-2.41v-2.79h2v5.2Z"/>
      <path d="M371.5,765.38c0-2.79,1.89-4.41,4.92-4.85l4.37-.65c1.41-.24,1.72-.79,1.72-1.58,0-2.2-1.41-3.72-4.13-3.72s-4.34,1.45-4.61,3.82l-1.93-.41c.38-3.13,2.99-5.2,6.5-5.2,4.27,0,6.23,2.55,6.23,5.71v8.29c0,1.34.1,2.13.24,2.82h-2.03c-.1-.38-.21-1.48-.21-2.82-.72,1.55-2.75,3.24-5.71,3.24-3.44,0-5.37-2.27-5.37-4.65ZM382.52,762.91v-1.86c-.1.1-.55.31-1.2.41l-4.58.69c-1.93.28-3.13,1.34-3.13,3.13,0,1.51,1.2,2.99,3.51,2.99,3.17,0,5.4-2.06,5.4-5.37Z"/>
      <path d="M393.08,753.2h4.27v1.86h-4.27v9.91c0,1.96.93,2.96,2.79,2.96.58,0,1.17-.14,1.48-.28v1.82c-.28.14-1.03.31-2.03.31-2.65,0-4.3-1.58-4.3-4.61v-10.12h-3.48v-1.86h1.24c1.62,0,2.31-.72,2.31-2.41v-2.79h2v5.2Z"/>
      <path d="M412.11,767.07c-.79,1.62-2.55,2.99-5.16,2.99-4.13,0-6.13-3.1-6.13-6.54v-10.32h2.06v9.98c0,2.62,1.24,5.02,4.44,5.02,2.93,0,4.65-2.24,4.65-4.99v-10.02h2.07v13.29c0,1.24.1,2.41.21,3.13h-1.96c-.1-.38-.17-1.24-.17-2.31v-.24Z"/>
      <path d="M420.1,764.66c.31,2.03,1.79,3.61,4.51,3.61,2.07,0,3.65-1.17,3.65-2.92,0-1.52-1.03-2.34-2.79-2.75l-2.65-.62c-2.44-.55-4.03-2-4.03-4.37,0-2.65,2.55-4.82,5.54-4.82,3.85,0,5.4,2.27,5.89,4.23l-1.82.69c-.28-1.58-1.48-3.13-4.06-3.13-1.82,0-3.51,1.14-3.51,2.89,0,1.34.86,2.24,2.58,2.62l2.62.58c2.75.65,4.27,2.17,4.27,4.54s-2.03,4.85-5.71,4.85c-3.99,0-6.09-2.55-6.37-4.75l1.89-.65Z"/>
    </g>
    <g>
      <rect class="cls-2" x="279.32" y="796.13" width="18.6" height="18.6"/>
      <path class="cls-9" d="M297.93,815.26h-18.6c-.29,0-.53-.24-.53-.53v-18.6c0-.29.24-.53.53-.53h18.6c.29,0,.53.24.53.53v18.6c0,.29-.24.53-.53.53ZM279.86,814.19h17.54v-17.54h-17.54v17.54Z"/>
    </g>
    <g class="cls-4">
      <path d="M325.01,791.72h2.31l-9.4,24.4h-2.17l-9.26-24.4h2.34l8.05,21.79,8.12-21.79Z"/>
      <path d="M327.49,807.93c0-5.16,3.55-8.64,8.16-8.64s8.16,3.48,8.16,8.64-3.61,8.64-8.16,8.64-8.16-3.55-8.16-8.64ZM335.64,814.71c3.2,0,6.06-2.51,6.06-6.78s-2.86-6.78-6.06-6.78-6.06,2.48-6.06,6.78,2.86,6.78,6.06,6.78Z"/>
      <path d="M356.53,801.84c-.41-.1-.89-.17-1.44-.17-2.79,0-4.85,1.79-4.85,5.54v8.91h-2.06v-16.42h2.03v3.06c1-2.31,2.86-3.27,5.06-3.27.55,0,.96.07,1.27.17v2.17Z"/>
      <path d="M359.77,816.12v-24.85h2.07v24.85h-2.07Z"/>
      <path d="M366.13,811.89c0-2.79,1.89-4.41,4.92-4.85l4.37-.65c1.41-.24,1.72-.79,1.72-1.58,0-2.2-1.41-3.72-4.13-3.72s-4.34,1.45-4.61,3.82l-1.93-.41c.38-3.13,2.99-5.2,6.51-5.2,4.27,0,6.23,2.55,6.23,5.71v8.29c0,1.34.1,2.13.24,2.82h-2.03c-.1-.38-.21-1.48-.21-2.82-.72,1.55-2.75,3.24-5.71,3.24-3.44,0-5.37-2.27-5.37-4.65ZM377.15,809.41v-1.86c-.1.1-.55.31-1.2.41l-4.58.69c-1.93.28-3.13,1.34-3.13,3.13,0,1.51,1.2,2.99,3.51,2.99,3.17,0,5.4-2.06,5.4-5.37ZM369.99,793.65c.79,0,1.44.65,1.44,1.45s-.65,1.45-1.44,1.45-1.45-.65-1.45-1.45.65-1.45,1.45-1.45ZM376.05,793.65c.79,0,1.45.65,1.45,1.45s-.65,1.45-1.45,1.45-1.45-.65-1.45-1.45.65-1.45,1.45-1.45Z"/>
      <path d="M395.63,813.58c-.79,1.62-2.55,2.99-5.16,2.99-4.13,0-6.13-3.1-6.13-6.54v-10.32h2.07v9.98c0,2.62,1.24,5.02,4.44,5.02,2.92,0,4.65-2.24,4.65-4.99v-10.02h2.07v13.29c0,1.24.1,2.41.21,3.13h-1.96c-.1-.38-.17-1.24-.17-2.31v-.24Z"/>
      <path d="M406.36,801.56v14.56h-2.07v-14.56h-3.37v-1.86h3.37v-3.41c0-3.48,2.13-5.3,4.89-5.3.86,0,1.48.17,1.86.34v1.86c-.31-.14-.83-.28-1.55-.28-1.65,0-3.13.86-3.13,3.48v3.3h10.33v16.42h-2.07v-14.56h-8.26ZM415.66,791.17c.96,0,1.72.72,1.72,1.72s-.76,1.72-1.72,1.72-1.72-.72-1.72-1.72.76-1.72,1.72-1.72Z"/>
      <path d="M423.06,816.57c.28,2.58,2.37,4.72,5.27,4.72,4.3,0,5.64-2.93,5.64-6.33v-3.03c-.72,1.65-2.55,3.34-5.54,3.34-4.3,0-7.33-3.41-7.33-7.99s2.96-7.95,7.33-7.95c3.06,0,4.75,1.52,5.58,3.2v-2.82h2.03v15.21c0,3.82-1.69,8.19-7.74,8.19-3.96,0-6.81-2.62-7.19-6.06l1.96-.48ZM434.03,807.28c0-3.55-2.13-6.16-5.37-6.16s-5.51,2.58-5.51,6.16,2.2,6.19,5.51,6.19,5.37-2.62,5.37-6.19Z"/>
      <path d="M464.46,808.59h-11.67l-3,7.54h-2.34l9.88-24.4h2.62l9.88,24.4h-2.34l-3.03-7.54ZM453.58,806.59h10.08l-5.06-12.7-5.02,12.7Z"/>
      <path d="M483.93,813.58c-.79,1.62-2.55,2.99-5.16,2.99-4.13,0-6.13-3.1-6.13-6.54v-10.32h2.06v9.98c0,2.62,1.24,5.02,4.44,5.02,2.93,0,4.65-2.24,4.65-4.99v-10.02h2.07v13.29c0,1.24.1,2.41.21,3.13h-1.96c-.1-.38-.17-1.24-.17-2.31v-.24Z"/>
      <path d="M494.67,801.56v14.56h-2.07v-14.56h-3.37v-1.86h3.37v-3.41c0-3.48,2.13-5.3,4.89-5.3.86,0,1.48.17,1.86.34v1.86c-.31-.14-.82-.28-1.55-.28-1.65,0-3.13.86-3.13,3.48v3.3h4.58v1.86h-4.58Z"/>
      <path d="M503.1,816.57c.28,2.58,2.37,4.72,5.27,4.72,4.3,0,5.64-2.93,5.64-6.33v-3.03c-.72,1.65-2.55,3.34-5.54,3.34-4.3,0-7.33-3.41-7.33-7.99s2.96-7.95,7.33-7.95c3.06,0,4.75,1.52,5.58,3.2v-2.82h2.03v15.21c0,3.82-1.69,8.19-7.74,8.19-3.96,0-6.81-2.62-7.19-6.06l1.96-.48ZM514.08,807.28c0-3.55-2.13-6.16-5.37-6.16s-5.51,2.58-5.51,6.16,2.2,6.19,5.51,6.19,5.37-2.62,5.37-6.19Z"/>
      <path d="M535.63,811.48c-.93,2.79-3.41,5.09-7.19,5.09-4.34,0-7.98-3.2-7.98-8.71,0-5.13,3.51-8.6,7.61-8.6,4.78,0,7.67,3.48,7.67,8.29,0,.28,0,.48-.03.76h-13.15v.14c0,3.75,2.68,6.26,5.89,6.26,2.92,0,4.68-1.72,5.37-3.89l1.83.65ZM533.56,806.59c-.1-3.03-2.03-5.47-5.47-5.47-3.06,0-5.3,2.44-5.47,5.47h10.95Z"/>
      <path d="M542.06,816.12h-2.07v-16.42h2v2.62c.93-1.76,2.82-3.03,5.33-3.03,3.85,0,5.82,2.72,5.82,6.13v10.7h-2.07v-10.36c0-2.58-1.27-4.61-4.44-4.61-2.86,0-4.58,2.37-4.58,5.16v9.81Z"/>
      <path d="M557.34,807.93c0-5.16,3.55-8.64,8.16-8.64s8.16,3.48,8.16,8.64-3.61,8.64-8.16,8.64-8.16-3.55-8.16-8.64ZM565.49,814.71c3.2,0,6.06-2.51,6.06-6.78s-2.86-6.78-6.06-6.78-6.06,2.48-6.06,6.78,2.86,6.78,6.06,6.78Z"/>
      <path d="M578.02,816.12v-16.42h2.03v2.72c.72-1.76,2.65-3.17,5.23-3.17s4.51,1.38,5.16,3.72c1-2.38,3.03-3.72,5.64-3.72,3.2,0,5.68,2.2,5.68,5.99v10.88h-2.07v-10.63c0-2.48-1.45-4.41-4.2-4.41s-4.58,2.27-4.58,4.96v10.08h-2.07v-10.63c0-2.48-1.41-4.41-4.2-4.41s-4.58,2.24-4.58,4.96v10.08h-2.07Z"/>
      <path d="M607.1,816.12v-16.42h2.03v2.72c.72-1.76,2.65-3.17,5.23-3.17s4.51,1.38,5.16,3.72c1-2.38,3.03-3.72,5.64-3.72,3.2,0,5.68,2.2,5.68,5.99v10.88h-2.07v-10.63c0-2.48-1.44-4.41-4.2-4.41s-4.58,2.27-4.58,4.96v10.08h-2.06v-10.63c0-2.48-1.41-4.41-4.2-4.41s-4.58,2.24-4.58,4.96v10.08h-2.07Z"/>
      <path d="M650.22,811.48c-.93,2.79-3.41,5.09-7.19,5.09-4.34,0-7.98-3.2-7.98-8.71,0-5.13,3.51-8.6,7.61-8.6,4.78,0,7.68,3.48,7.68,8.29,0,.28,0,.48-.03.76h-13.15v.14c0,3.75,2.68,6.26,5.88,6.26,2.93,0,4.68-1.72,5.37-3.89l1.82.65ZM648.16,806.59c-.1-3.03-2.03-5.47-5.47-5.47-3.06,0-5.3,2.44-5.47,5.47h10.94Z"/>
      <path d="M656.66,816.12h-2.07v-16.42h2v2.62c.93-1.76,2.82-3.03,5.34-3.03,3.85,0,5.82,2.72,5.82,6.13v10.7h-2.06v-10.36c0-2.58-1.27-4.61-4.44-4.61-2.86,0-4.58,2.37-4.58,5.16v9.81Z"/>
      <path d="M687.11,811.48c-.93,2.79-3.41,5.09-7.19,5.09-4.34,0-7.98-3.2-7.98-8.71,0-5.13,3.51-8.6,7.61-8.6,4.78,0,7.67,3.48,7.67,8.29,0,.28,0,.48-.03.76h-13.15v.14c0,3.75,2.68,6.26,5.89,6.26,2.92,0,4.68-1.72,5.37-3.89l1.83.65ZM685.05,806.59c-.1-3.03-2.03-5.47-5.47-5.47-3.06,0-5.3,2.44-5.47,5.47h10.95Z"/>
    </g>
    <g>
      <rect class="cls-3" x="279.32" y="843.56" width="18.6" height="18.6"/>
      <path class="cls-9" d="M297.93,862.7h-18.6c-.29,0-.53-.24-.53-.53v-18.6c0-.29.24-.53.53-.53h18.6c.29,0,.53.24.53.53v18.6c0,.29-.24.53-.53.53ZM279.86,861.63h17.54v-17.54h-17.54v17.54Z"/>
    </g>
    <g class="cls-4">
      <path d="M326.04,863.56l-14.76-21.68v21.68h-2.2v-24.4h3.03l14.08,20.82v-20.82h2.2v24.4h-2.34Z"/>
      <path d="M333.96,854.61v-1.86h9.05v1.86h-9.05Z"/>
      <path d="M361.08,845.39c-.55-2.48-2.24-4.75-5.95-4.75-2.89,0-5.58,1.93-5.58,4.82,0,2.2,1.38,3.72,3.85,4.3l3.72.86c3.82.93,6.13,3.1,6.13,6.54,0,3.72-3.17,6.85-8.09,6.85-5.33,0-8.36-3.51-8.74-7.26l2.03-.65c.28,3.17,2.72,5.95,6.71,5.95,3.75,0,5.92-2.07,5.92-4.72,0-2.31-1.58-3.92-4.37-4.58l-3.68-.86c-3.27-.72-5.64-2.86-5.64-6.3,0-3.75,3.65-6.88,7.68-6.88,5.02,0,7.23,2.86,7.95,5.99l-1.93.69Z"/>
      <path d="M370.68,847.14h4.27v1.86h-4.27v9.91c0,1.96.93,2.96,2.79,2.96.58,0,1.17-.14,1.48-.28v1.82c-.27.14-1.03.31-2.03.31-2.65,0-4.3-1.58-4.3-4.61v-10.12h-3.48v-1.86h1.24c1.62,0,2.31-.72,2.31-2.41v-2.79h2v5.2Z"/>
      <path d="M377.42,859.33c0-2.79,1.89-4.41,4.92-4.85l4.37-.65c1.41-.24,1.72-.79,1.72-1.58,0-2.2-1.41-3.72-4.13-3.72s-4.34,1.45-4.61,3.82l-1.93-.41c.38-3.13,2.99-5.2,6.51-5.2,4.27,0,6.23,2.55,6.23,5.71v8.29c0,1.34.1,2.13.24,2.82h-2.03c-.1-.38-.21-1.48-.21-2.82-.72,1.55-2.75,3.24-5.71,3.24-3.44,0-5.37-2.27-5.37-4.65ZM388.44,856.85v-1.86c-.1.1-.55.31-1.2.41l-4.58.69c-1.93.28-3.13,1.34-3.13,3.13,0,1.51,1.21,2.99,3.51,2.99,3.17,0,5.4-2.06,5.4-5.37Z"/>
      <path d="M399,847.14h4.27v1.86h-4.27v9.91c0,1.96.93,2.96,2.79,2.96.58,0,1.17-.14,1.48-.28v1.82c-.27.14-1.03.31-2.03.31-2.65,0-4.3-1.58-4.3-4.61v-10.12h-3.48v-1.86h1.24c1.62,0,2.31-.72,2.31-2.41v-2.79h2v5.2Z"/>
      <path d="M418.03,861.01c-.79,1.62-2.55,2.99-5.16,2.99-4.13,0-6.13-3.1-6.13-6.54v-10.32h2.07v9.98c0,2.62,1.24,5.02,4.44,5.02,2.92,0,4.65-2.24,4.65-4.99v-10.02h2.07v13.29c0,1.24.1,2.41.21,3.13h-1.96c-.1-.38-.17-1.24-.17-2.31v-.24Z"/>
      <path d="M426.02,858.6c.31,2.03,1.79,3.61,4.51,3.61,2.07,0,3.65-1.17,3.65-2.92,0-1.52-1.03-2.34-2.79-2.75l-2.65-.62c-2.44-.55-4.03-2-4.03-4.37,0-2.65,2.55-4.82,5.54-4.82,3.85,0,5.4,2.27,5.88,4.23l-1.82.69c-.27-1.58-1.48-3.13-4.06-3.13-1.82,0-3.51,1.14-3.51,2.89,0,1.34.86,2.24,2.58,2.62l2.62.58c2.75.65,4.27,2.17,4.27,4.54s-2.03,4.85-5.71,4.85c-3.99,0-6.09-2.55-6.37-4.75l1.89-.65Z"/>
    </g>
    <g>
      <rect class="cls-6" x="279.32" y="890.07" width="18.6" height="18.6"/>
      <path class="cls-9" d="M297.93,909.2h-18.6c-.29,0-.53-.24-.53-.53v-18.6c0-.29.24-.53.53-.53h18.6c.29,0,.53.24.53.53v18.6c0,.29-.24.53-.53.53ZM279.86,908.14h17.54v-17.54h-17.54v17.54Z"/>
    </g>
    <g class="cls-4">
      <path d="M323.36,902.53h-11.67l-2.99,7.54h-2.34l9.88-24.4h2.62l9.88,24.4h-2.34l-3.03-7.54ZM312.48,900.53h10.08l-5.06-12.7-5.02,12.7Z"/>
      <path d="M334.3,910.07h-2.07v-16.42h2v2.62c.93-1.76,2.82-3.03,5.33-3.03,3.85,0,5.82,2.72,5.82,6.13v10.7h-2.06v-10.36c0-2.58-1.27-4.61-4.44-4.61-2.86,0-4.58,2.37-4.58,5.16v9.81Z"/>
      <path d="M364.76,905.42c-.93,2.79-3.41,5.09-7.19,5.09-4.34,0-7.98-3.2-7.98-8.71,0-5.13,3.51-8.6,7.61-8.6,4.78,0,7.68,3.48,7.68,8.29,0,.28,0,.48-.03.76h-13.15v.14c0,3.75,2.68,6.26,5.89,6.26,2.92,0,4.68-1.72,5.37-3.89l1.82.65ZM362.69,900.53c-.1-3.03-2.03-5.47-5.47-5.47-3.06,0-5.3,2.44-5.47,5.47h10.95Z"/>
      <path d="M377.49,895.78c-.41-.1-.89-.17-1.44-.17-2.79,0-4.85,1.79-4.85,5.54v8.91h-2.06v-16.42h2.03v3.06c1-2.31,2.86-3.27,5.06-3.27.55,0,.96.07,1.27.17v2.17Z"/>
      <path d="M387.26,900.63l7.12,9.43h-2.58l-5.99-8.02-3.03,2.99v5.02h-2.06v-24.85h2.06v17.11l8.61-8.67h2.86l-6.99,6.99Z"/>
      <path d="M396.18,905.83c0-2.79,1.89-4.41,4.92-4.85l4.37-.65c1.41-.24,1.72-.79,1.72-1.58,0-2.2-1.41-3.72-4.13-3.72s-4.34,1.45-4.61,3.82l-1.93-.41c.38-3.13,2.99-5.2,6.5-5.2,4.27,0,6.23,2.55,6.23,5.71v8.29c0,1.34.1,2.13.24,2.82h-2.03c-.1-.38-.21-1.48-.21-2.82-.72,1.55-2.75,3.24-5.71,3.24-3.44,0-5.37-2.27-5.37-4.65ZM407.19,903.35v-1.86c-.1.1-.55.31-1.2.41l-4.58.69c-1.93.28-3.13,1.34-3.13,3.13,0,1.51,1.2,2.99,3.51,2.99,3.17,0,5.4-2.06,5.4-5.37Z"/>
      <path d="M416.65,910.07h-2.07v-16.42h2v2.62c.93-1.76,2.82-3.03,5.34-3.03,3.85,0,5.82,2.72,5.82,6.13v10.7h-2.06v-10.36c0-2.58-1.27-4.61-4.44-4.61-2.86,0-4.58,2.37-4.58,5.16v9.81Z"/>
      <path d="M435.13,910.07h-2.07v-16.42h2v2.62c.93-1.76,2.82-3.03,5.34-3.03,3.85,0,5.82,2.72,5.82,6.13v10.7h-2.06v-10.36c0-2.58-1.27-4.61-4.44-4.61-2.86,0-4.58,2.37-4.58,5.16v9.81Z"/>
      <path d="M454.72,893.65h4.27v1.86h-4.27v9.91c0,1.96.93,2.96,2.79,2.96.58,0,1.17-.14,1.48-.28v1.82c-.27.14-1.03.31-2.03.31-2.65,0-4.3-1.58-4.3-4.61v-10.12h-3.48v-1.86h1.24c1.62,0,2.31-.72,2.31-2.41v-2.79h2v5.2Z"/>
      <path d="M476.71,905.42c-.93,2.79-3.41,5.09-7.19,5.09-4.34,0-7.98-3.2-7.98-8.71,0-5.13,3.51-8.6,7.61-8.6,4.78,0,7.67,3.48,7.67,8.29,0,.28,0,.48-.03.76h-13.15v.14c0,3.75,2.68,6.26,5.89,6.26,2.92,0,4.68-1.72,5.37-3.89l1.83.65ZM474.64,900.53c-.1-3.03-2.03-5.47-5.47-5.47-3.06,0-5.3,2.44-5.47,5.47h10.95Z"/>
      <path d="M490.71,910.07v-24.4h14.46v2h-12.25v9.46h11.19v2h-11.19v10.94h-2.2Z"/>
      <path d="M509.29,910.07v-24.85h2.07v24.85h-2.07Z"/>
      <path d="M527.95,907.52c-.79,1.62-2.55,2.99-5.16,2.99-4.13,0-6.13-3.1-6.13-6.54v-10.32h2.07v9.98c0,2.62,1.24,5.02,4.44,5.02,2.92,0,4.65-2.24,4.65-4.99v-10.02h2.07v13.29c0,1.24.1,2.41.21,3.13h-1.96c-.1-.38-.17-1.24-.17-2.31v-.24ZM520.21,887.59c.79,0,1.44.65,1.44,1.45s-.65,1.45-1.44,1.45-1.45-.65-1.45-1.45.65-1.45,1.45-1.45ZM526.26,887.59c.79,0,1.45.65,1.45,1.45s-.65,1.45-1.45,1.45-1.45-.65-1.45-1.45.65-1.45,1.45-1.45Z"/>
      <path d="M536.34,901.87c0,4.13,2.68,6.78,5.99,6.78,3.13,0,4.79-2.24,5.34-4.03l1.82.76c-.83,2.55-3.2,5.13-7.16,5.13-4.65,0-8.05-3.58-8.05-8.64s3.44-8.67,8.05-8.67c3.92,0,6.3,2.41,7.02,5.16l-1.82.76c-.55-1.93-2.03-4.06-5.2-4.06s-5.99,2.55-5.99,6.81Z"/>
      <path d="M555.69,910.07h-2.07v-24.85h2.07v11.01c.86-1.65,2.68-3.03,5.26-3.03,3.89,0,5.82,2.72,5.82,6.13v10.74h-2.07v-10.39c0-2.58-1.34-4.61-4.44-4.61-2.79,0-4.58,2.48-4.58,5.13v9.88Z"/>
      <path d="M575.27,893.65h4.27v1.86h-4.27v9.91c0,1.96.93,2.96,2.79,2.96.58,0,1.17-.14,1.48-.28v1.82c-.28.14-1.03.31-2.03.31-2.65,0-4.3-1.58-4.3-4.61v-10.12h-3.48v-1.86h1.24c1.62,0,2.31-.72,2.31-2.41v-2.79h2v5.2Z"/>
      <path d="M583.22,910.07v-24.85h2.07v24.85h-2.07Z"/>
      <path d="M591.82,885.11c.96,0,1.72.72,1.72,1.72s-.76,1.72-1.72,1.72-1.72-.72-1.72-1.72.76-1.72,1.72-1.72ZM590.79,910.07v-16.42h2.07v16.42h-2.07Z"/>
      <path d="M600.42,910.07h-2.07v-16.42h2v2.62c.93-1.76,2.82-3.03,5.33-3.03,3.85,0,5.82,2.72,5.82,6.13v10.7h-2.07v-10.36c0-2.58-1.27-4.61-4.44-4.61-2.86,0-4.58,2.37-4.58,5.16v9.81Z"/>
      <path d="M617.7,910.51c.27,2.58,2.37,4.72,5.26,4.72,4.3,0,5.64-2.93,5.64-6.33v-3.03c-.72,1.65-2.55,3.34-5.54,3.34-4.3,0-7.33-3.41-7.33-7.99s2.96-7.95,7.33-7.95c3.06,0,4.75,1.52,5.58,3.2v-2.82h2.03v15.21c0,3.82-1.69,8.19-7.74,8.19-3.96,0-6.81-2.62-7.19-6.06l1.96-.48ZM628.68,901.22c0-3.55-2.13-6.16-5.37-6.16s-5.51,2.58-5.51,6.16,2.2,6.19,5.51,6.19,5.37-2.62,5.37-6.19Z"/>
      <path d="M650.22,905.42c-.93,2.79-3.41,5.09-7.19,5.09-4.34,0-7.98-3.2-7.98-8.71,0-5.13,3.51-8.6,7.61-8.6,4.78,0,7.68,3.48,7.68,8.29,0,.28,0,.48-.03.76h-13.15v.14c0,3.75,2.68,6.26,5.88,6.26,2.93,0,4.68-1.72,5.37-3.89l1.82.65ZM648.16,900.53c-.1-3.03-2.03-5.47-5.47-5.47-3.06,0-5.3,2.44-5.47,5.47h10.94Z"/>
      <path d="M668.77,882.91l1.27,1.1c-3.54,3.96-5.78,8.67-5.78,15.14s2.31,11.19,5.78,15.14l-1.27,1.1c-3.58-3.79-6.33-8.85-6.33-16.24s2.72-12.36,6.33-16.25Z"/>
      <path d="M687.87,902.53h-11.67l-3,7.54h-2.34l9.88-24.4h2.62l9.88,24.4h-2.34l-3.03-7.54ZM676.99,900.53h10.08l-5.06-12.7-5.02,12.7Z"/>
      <path d="M707.35,907.52c-.79,1.62-2.55,2.99-5.16,2.99-4.13,0-6.13-3.1-6.13-6.54v-10.32h2.07v9.98c0,2.62,1.24,5.02,4.44,5.02,2.92,0,4.65-2.24,4.65-4.99v-10.02h2.07v13.29c0,1.24.1,2.41.21,3.13h-1.96c-.1-.38-.17-1.24-.17-2.31v-.24Z"/>
      <path d="M715.33,905.11c.31,2.03,1.79,3.61,4.51,3.61,2.07,0,3.65-1.17,3.65-2.92,0-1.52-1.03-2.34-2.79-2.75l-2.65-.62c-2.44-.55-4.03-2-4.03-4.37,0-2.65,2.55-4.82,5.54-4.82,3.85,0,5.4,2.27,5.88,4.23l-1.82.69c-.27-1.58-1.48-3.13-4.06-3.13-1.82,0-3.51,1.14-3.51,2.89,0,1.34.86,2.24,2.58,2.62l2.62.58c2.75.65,4.27,2.17,4.27,4.54s-2.03,4.85-5.71,4.85c-3.99,0-6.09-2.55-6.37-4.75l1.89-.65Z"/>
      <path d="M741.66,893.65l4.89,13.87,4.3-13.87h2.24l-5.37,16.42h-2.31l-4.89-13.9-4.89,13.9h-2.31l-5.44-16.42h2.27l4.37,13.87,4.89-13.87h2.24Z"/>
      <path d="M770.6,905.42c-.93,2.79-3.41,5.09-7.19,5.09-4.34,0-7.98-3.2-7.98-8.71,0-5.13,3.51-8.6,7.61-8.6,4.78,0,7.67,3.48,7.67,8.29,0,.28,0,.48-.03.76h-13.15v.14c0,3.75,2.68,6.26,5.89,6.26,2.92,0,4.68-1.72,5.37-3.89l1.83.65ZM768.54,900.53c-.1-3.03-2.03-5.47-5.47-5.47-3.06,0-5.3,2.44-5.47,5.47h10.95Z"/>
      <path d="M776,885.11c.96,0,1.72.72,1.72,1.72s-.76,1.72-1.72,1.72-1.72-.72-1.72-1.72.76-1.72,1.72-1.72ZM774.97,910.07v-16.42h2.07v16.42h-2.07Z"/>
      <path d="M783.06,905.11c.31,2.03,1.79,3.61,4.51,3.61,2.07,0,3.65-1.17,3.65-2.92,0-1.52-1.03-2.34-2.79-2.75l-2.65-.62c-2.44-.55-4.03-2-4.03-4.37,0-2.65,2.55-4.82,5.54-4.82,3.85,0,5.4,2.27,5.89,4.23l-1.82.69c-.28-1.58-1.48-3.13-4.06-3.13-1.82,0-3.51,1.14-3.51,2.89,0,1.34.86,2.24,2.58,2.62l2.62.58c2.75.65,4.27,2.17,4.27,4.54s-2.03,4.85-5.71,4.85c-3.99,0-6.09-2.55-6.37-4.75l1.89-.65Z"/>
      <path d="M814.31,885.66c4.68,0,7.4,2.65,7.4,6.5,0,2.62-1.51,4.58-3.72,5.37,2.65.65,4.51,3.13,4.51,5.95,0,3.85-3.03,6.57-7.5,6.57h-7.71v-24.4h7.02ZM814.86,896.78c2.68,0,4.65-1.86,4.65-4.47,0-2.89-1.96-4.72-5.4-4.72h-4.65v9.19h5.4ZM814.79,908.14c3.34,0,5.51-1.86,5.51-4.78,0-2.75-2.03-4.68-5.06-4.68h-5.78v9.46h5.33Z"/>
      <path d="M825.59,915.4l-1.27-1.1c3.48-3.89,5.78-8.67,5.78-15.14s-2.31-11.22-5.78-15.14l1.27-1.1c3.61,3.89,6.33,8.88,6.33,16.25s-2.75,12.46-6.33,16.24Z"/>
    </g>
  </g>
</svg>