<?xml version="1.0" encoding="UTF-8"?>
<svg id="Layer_1" xmlns="http://www.w3.org/2000/svg" version="1.1" viewBox="0 0 1127.4 1015.4">
  <!-- Generator: Adobe Illustrator 30.5.1, SVG Export Plug-In . SVG Version: 2.1.4 Build 3)  -->
  <defs>
    <style>
      .st0 {
        stroke: #d9d9d9;
      }

      .st0, .st1, .st2, .st3, .st4, .st5, .st6, .st7, .st8 {
        fill: none;
        stroke-linejoin: round;
      }

      .st1, .st2 {
        stroke: #e45974;
      }

      .st1, .st2, .st4, .st5, .st7, .st8 {
        stroke-linecap: round;
      }

      .st1, .st2, .st4, .st8 {
        opacity: .7;
      }

      .st1, .st5, .st8 {
        stroke-width: 1.8px;
      }

      .st9 {
        isolation: isolate;
      }

      .st2, .st4, .st7 {
        stroke-width: 5px;
      }

      .st10 {
        fill: #f5f6f8;
      }

      .st3 {
        stroke: #d9d9d9;
        stroke-width: 2px;
      }

      .st4, .st8 {
        stroke: #009ad3;
      }

      .st5, .st7 {
        stroke: #002342;
      }

      .st6 {
        stroke: #a6a6a6;
        stroke-width: 3px;
      }
    </style>
  </defs>
  <rect class="st10" x="-14.1" y="-14.6" width="1155.6" height="1039.7"/>
  <g class="st9">
    <path d="M366.1,750c-.2-.1-.5-.3-.7-.5-2.6-2.1-3.3-5.8-.7-9,2.5-3.1,6.1-3.3,8.6-1.3,2,1.6,2.7,4,2.4,6.6l-.5,4.7c-.1,1.4,0,2.9.9,3.9l6.4-8.1,1.8,1.4-8.4,10.4c-2.3-1.9-3.4-4.4-3-8l.4-4.1c.2-2.2-.3-3.8-1.6-4.9-1.5-1.2-3.7-1.2-5.4.8-1.6,2.1-1.1,4.3.8,5.8.3.2.6.4.8.5l-1.8,1.7Z"/>
    <path d="M385.4,742.3c-2.4-.2-4.7-1.4-6.7-3.1-2.1-1.6-3.8-3.6-4.5-5.9-.6-2.1-.4-4.3,1.3-6.4,1.7-2.1,3.7-2.8,5.9-2.6,2.4.2,4.7,1.4,6.7,3.1s3.8,3.6,4.5,5.9c.6,2.1.4,4.3-1.3,6.4-1.6,2.1-3.7,2.8-5.9,2.6ZM390.6,734.8c-.2-1.9-1.7-3.7-4-5.5s-4.4-2.8-6.2-2.7c-1.1,0-2.2.6-3.1,1.7-.9,1.1-1.1,2.3-1,3.4.2,1.9,1.7,3.7,4,5.5,2.3,1.8,4.4,2.8,6.2,2.7,1.1,0,2.2-.6,3.1-1.7.9-1.1,1.1-2.3,1-3.4Z"/>
    <path d="M387.8,722.9c-.2-.1-.5-.3-.7-.5-2.6-2.1-3.3-5.8-.7-9,2.5-3.1,6.1-3.3,8.6-1.3,2,1.6,2.7,4,2.4,6.6l-.5,4.7c-.1,1.4,0,2.9.9,3.9l6.4-8.1,1.8,1.4-8.4,10.4c-2.3-1.9-3.4-4.4-3-8l.4-4.1c.2-2.2-.3-3.8-1.6-4.9-1.5-1.2-3.7-1.2-5.4.8-1.6,2.1-1.1,4.3.8,5.8.3.2.6.4.8.5l-1.8,1.7Z"/>
    <path d="M401.7,707.8l-.7-8.3-6.1,7.6-1.8-1.4,8.2-10.2,1.8,1.4.7,8.1c0-.1.2-.3.3-.5,1.7-2.2,5.2-3.2,8.2-.8,2.6,2.1,3.2,5.9.5,9.3-2.7,3.4-6.6,3.7-9.2,1.8l1.1-2.3c2.2,1.6,4.8,1,6.4-.9,1.7-2.2,1.4-4.6-.3-6-2.1-1.6-4.3-.8-5.7.9-.4.5-.7,1-.9,1.6l-2.4-.3Z"/>
  </g>
  <g class="st9">
    <path d="M209.2,736.8c-.2-.1-.5-.3-.7-.5-2.6-2.1-3.3-5.8-.7-9,2.5-3.1,6.1-3.3,8.6-1.3,2,1.6,2.7,4,2.4,6.6l-.5,4.7c-.1,1.4,0,2.9.9,3.9l6.4-8.1,1.8,1.4-8.4,10.4c-2.3-1.9-3.4-4.4-3-8l.4-4.1c.2-2.2-.3-3.8-1.6-4.9-1.5-1.2-3.7-1.2-5.4.8-1.6,2.1-1.1,4.3.8,5.8.3.2.6.4.8.5l-1.8,1.7Z"/>
    <path d="M228.5,729.1c-2.4-.2-4.7-1.4-6.7-3.1-2.1-1.7-3.8-3.6-4.5-5.9-.6-2.1-.4-4.3,1.3-6.4,1.7-2.1,3.7-2.8,5.9-2.6,2.4.2,4.7,1.4,6.7,3.1,2.1,1.6,3.8,3.6,4.5,5.9.6,2.1.4,4.3-1.3,6.4-1.6,2.1-3.7,2.8-5.9,2.6ZM233.6,721.6c-.2-1.9-1.7-3.7-4-5.5-2.3-1.8-4.4-2.8-6.2-2.7-1.1,0-2.2.6-3.1,1.7-.9,1.1-1.1,2.3-1,3.4.2,1.9,1.7,3.7,4,5.5s4.4,2.8,6.2,2.7c1.1,0,2.2-.6,3.1-1.7.9-1.1,1.1-2.3,1-3.4Z"/>
    <path d="M230.9,709.6c-.2-.1-.5-.3-.7-.5-2.6-2.1-3.3-5.8-.7-9,2.5-3.1,6.1-3.3,8.6-1.3,2,1.6,2.7,4,2.4,6.6l-.5,4.7c-.1,1.4,0,2.9.9,3.9l6.4-8.1,1.8,1.4-8.4,10.4c-2.3-1.9-3.4-4.4-3-8l.4-4.1c.2-2.2-.3-3.8-1.6-4.9-1.5-1.2-3.7-1.2-5.4.8-1.6,2.1-1.1,4.3.8,5.8.3.2.6.4.8.5l-1.8,1.7Z"/>
    <path d="M253.6,701.8l-11.1-8.9-3,3.7-1.1-.9c1.6-2.2,1.5-4.6.2-6.3l1.4-1.7,15.2,12.1-1.5,1.9Z"/>
  </g>
  <g>
    <path d="M47.9,60.6c-.2-1.3-1.3-3.4-4.4-3.4s-3.8,1.5-3.8,3.1.9,2.4,2.6,2.7l3.4.6c4.4.9,6.7,3.7,6.7,7.1s-3.1,7.4-8.7,7.4-9.2-4.1-9.6-7.5l4.4-1.2c.2,2.4,1.9,4.5,5.3,4.5s3.9-1.3,3.9-3-1.1-2.5-2.9-2.9l-3.4-.7c-3.8-.8-6.3-3.3-6.3-6.9s3.8-7.5,8.4-7.5,8.1,3.5,8.6,6.3l-4.2,1.3Z"/>
    <path d="M72.3,77.6l-10.9-17.1v17.1h-4.7v-24.1h5.8l10,15.9v-15.9h4.7v24.1h-4.9Z"/>
    <path d="M91.5,53.5c4.7,0,7.3,2.8,7.3,6.5s-1.5,4.5-3.5,5.2c2.3.6,4.2,2.7,4.2,5.7s-2.9,6.7-7.4,6.7h-9.3v-24.1h8.7ZM90.8,63.5c2.1,0,3.4-1.2,3.4-3s-1.2-3-3.5-3h-3.3v6h3.3ZM91.3,73.7c2.3,0,3.6-1.2,3.6-3.1s-1.2-3.2-3.6-3.2h-3.9v6.4h3.8Z"/>
    <path d="M111.5,84.1v-23.2h4.4v2c.7-1.3,2.6-2.4,5.1-2.4,4.9,0,7.7,3.7,7.7,8.7s-3.2,8.8-7.9,8.8-4-.9-4.8-2v8.1h-4.5ZM120.1,64.6c-2.3,0-4.2,1.7-4.2,4.7s1.9,4.7,4.2,4.7,4.1-1.7,4.1-4.7-1.8-4.7-4.1-4.7Z"/>
    <path d="M136.4,68l4.1-.6c1-.1,1.3-.6,1.3-1.2,0-1.2-.9-2.2-2.8-2.2s-3.1,1.3-3.2,2.7l-4-.9c.3-2.6,2.7-5.5,7.2-5.5s7.3,3,7.3,6.4v8.2c0,.9.1,2.1.2,2.7h-4.1c-.1-.4-.2-1.4-.2-2-.9,1.3-2.4,2.5-4.9,2.5-3.6,0-5.7-2.4-5.7-5s2.2-4.7,5-5.1ZM141.7,70.9v-.7l-3.8.6c-1.2.2-2.1.8-2.1,2.1s.7,1.9,2.2,1.9,3.7-.9,3.7-3.9Z"/>
    <path d="M153.4,72.1c.1,1.3,1.1,2.5,3.1,2.5s2.2-.8,2.2-1.7-.5-1.4-1.8-1.6l-2.2-.5c-3.2-.7-4.7-2.7-4.7-5s2.7-5.5,6.3-5.5,6.4,3,6.6,4.8l-3.8.9c-.1-1-.8-2.2-2.8-2.2s-2.1.7-2.1,1.7.6,1.3,1.5,1.5l2.4.5c3.3.7,5,2.7,5,5.1s-2.1,5.5-6.5,5.5-6.8-3.3-7-5.2l3.9-.8Z"/>
    <path d="M169.4,72.1c.1,1.3,1.1,2.5,3.1,2.5s2.2-.8,2.2-1.7-.5-1.4-1.8-1.6l-2.2-.5c-3.2-.7-4.7-2.7-4.7-5s2.7-5.5,6.3-5.5,6.4,3,6.6,4.8l-3.8.9c-.1-1-.8-2.2-2.8-2.2s-2.1.7-2.1,1.7.6,1.3,1.5,1.5l2.4.5c3.3.7,5,2.7,5,5.1s-2.1,5.5-6.5,5.5-6.8-3.3-7-5.2l3.9-.8Z"/>
    <path d="M188.6,60.9h3.4v4h-3.4v7c0,1.5.7,1.9,2,1.9s1.2,0,1.4-.1v3.7c-.4.2-1.2.4-2.5.4-3.3,0-5.3-1.9-5.3-5.2v-7.8h-3v-4h.8c1.8,0,2.6-1.2,2.6-2.7v-2.3h4.1v5Z"/>
    <path d="M205.9,52.6c1.6,0,2.8,1.3,2.8,2.8s-1.2,2.8-2.8,2.8-2.8-1.3-2.8-2.8,1.3-2.8,2.8-2.8ZM203.6,77.6v-16.7h4.5v16.7h-4.5Z"/>
    <path d="M217.3,77.6h-4.5v-24.6h4.5v9.3c1.1-1.3,2.9-1.8,4.5-1.8,4.2,0,6.2,3,6.2,6.6v10.5h-4.5v-9.8c0-1.9-.9-3.3-3.1-3.3s-3,1.4-3.1,3.3v9.8Z"/>
    <path d="M242.7,65.4c-.5-.1-1-.1-1.4-.1-2.3,0-4.3,1.1-4.3,4.7v7.6h-4.5v-16.7h4.4v2.5c1-2.2,3.3-2.6,4.8-2.6s.7,0,1.1,0v4.6Z"/>
    <path d="M260.7,72.8c-.9,2.9-3.5,5.3-7.6,5.3s-8.6-3.3-8.6-8.9,3.9-8.8,8.2-8.8,8.3,3.3,8.3,8.7,0,1.3,0,1.4h-12c.1,2.2,2,3.8,4.2,3.8s3.3-1.1,3.8-2.5l3.8,1.1ZM256.5,67.4c0-1.7-1.2-3.3-3.7-3.3s-3.6,1.8-3.7,3.3h7.5Z"/>
    <path d="M273.2,77.6v-24.1h4.8v24.1h-4.8Z"/>
    <path d="M287.6,77.6h-4.5v-16.7h4.4v2.1c1-1.7,3-2.5,4.8-2.5,4.1,0,6.1,3,6.1,6.6v10.5h-4.5v-9.8c0-1.9-.9-3.3-3.1-3.3s-3.1,1.5-3.1,3.5v9.6Z"/>
    <path d="M308.6,59.1v1.8h6.7v-7.9h4.5v24.6h-4.5v-12.9h-6.7v12.9h-4.6v-12.9h-2.8v-3.9h2.8v-1.9c0-3.8,2.4-6.2,6.1-6.2s1.9.2,2.2.3v3.8c-.2,0-.7-.2-1.4-.2s-2.3.4-2.3,2.3Z"/>
    <path d="M328.5,68l4.1-.6c1-.1,1.3-.6,1.3-1.2,0-1.2-.9-2.2-2.8-2.2s-3.1,1.3-3.2,2.7l-4-.9c.3-2.6,2.7-5.5,7.2-5.5s7.3,3,7.3,6.4v8.2c0,.9.1,2.1.2,2.7h-4.1c-.1-.4-.2-1.4-.2-2-.9,1.3-2.4,2.5-4.9,2.5-3.6,0-5.7-2.4-5.7-5s2.2-4.7,5-5.1ZM333.8,70.9v-.7l-3.8.6c-1.2.2-2.1.8-2.1,2.1s.7,1.9,2.2,1.9,3.7-.9,3.7-3.9Z"/>
    <path d="M348.5,60.9h3.4v4h-3.4v7c0,1.5.7,1.9,2,1.9s1.2,0,1.4-.1v3.7c-.4.2-1.2.4-2.5.4-3.3,0-5.3-1.9-5.3-5.2v-7.8h-3v-4h.8c1.8,0,2.6-1.2,2.6-2.7v-2.3h4.1v5Z"/>
    <path d="M357.7,52.6c1.6,0,2.8,1.3,2.8,2.8s-1.2,2.8-2.8,2.8-2.8-1.3-2.8-2.8,1.3-2.8,2.8-2.8ZM355.5,77.6v-16.7h4.5v16.7h-4.5Z"/>
    <path d="M381.2,69.3c0,5.1-3.8,8.9-8.8,8.9s-8.8-3.7-8.8-8.9,3.8-8.9,8.8-8.9,8.8,3.7,8.8,8.9ZM376.6,69.3c0-3.2-2-4.8-4.2-4.8s-4.2,1.6-4.2,4.8,2,4.8,4.2,4.8,4.2-1.6,4.2-4.8Z"/>
    <path d="M389.3,77.6h-4.5v-16.7h4.4v2.1c1-1.7,3-2.5,4.8-2.5,4.1,0,6.1,3,6.1,6.6v10.5h-4.5v-9.8c0-1.9-.9-3.3-3.1-3.3s-3.1,1.5-3.1,3.5v9.6Z"/>
    <path d="M407.2,72.1c.1,1.3,1.1,2.5,3.1,2.5s2.2-.8,2.2-1.7-.5-1.4-1.8-1.6l-2.2-.5c-3.2-.7-4.7-2.7-4.7-5s2.7-5.5,6.3-5.5,6.4,3,6.6,4.8l-3.8.9c-.1-1-.8-2.2-2.8-2.2s-2.1.7-2.1,1.7.6,1.3,1.5,1.5l2.4.5c3.3.7,5,2.7,5,5.1s-2.1,5.5-6.5,5.5-6.8-3.3-7-5.2l3.9-.8Z"/>
    <path d="M420.5,84.1v-23.2h4.4v2c.7-1.3,2.6-2.4,5.1-2.4,4.9,0,7.7,3.7,7.7,8.7s-3.2,8.8-7.9,8.8-4-.9-4.8-2v8.1h-4.5ZM429.1,64.6c-2.3,0-4.2,1.7-4.2,4.7s1.9,4.7,4.2,4.7,4.1-1.7,4.1-4.7-1.8-4.7-4.1-4.7Z"/>
    <path d="M451.6,65.4c-.5-.1-1-.1-1.4-.1-2.3,0-4.3,1.1-4.3,4.7v7.6h-4.5v-16.7h4.4v2.5c1-2.2,3.3-2.6,4.8-2.6s.7,0,1.1,0v4.6Z"/>
    <path d="M470.9,69.3c0,5.1-3.8,8.9-8.8,8.9s-8.8-3.7-8.8-8.9,3.8-8.9,8.8-8.9,8.8,3.7,8.8,8.9ZM466.4,69.3c0-3.2-2-4.8-4.2-4.8s-4.2,1.6-4.2,4.8,2,4.8,4.2,4.8,4.2-1.6,4.2-4.8Z"/>
    <path d="M477.6,77.5c.3,1.8,1.8,3.2,3.9,3.2s4.5-1.4,4.5-4.7v-1.2c-.7,1.1-2.2,2.1-4.7,2.1-4.5,0-7.8-3.4-7.8-8.1s3.2-8.2,7.8-8.2,4.2,1.2,4.8,2.3v-2h4.4v14.9c0,4.6-2.5,8.8-8.8,8.8s-7.6-2.9-8.1-6.1l4.1-1.1ZM486,68.8c0-2.6-1.8-4.2-3.9-4.2s-4,1.6-4,4.2,1.7,4.2,4,4.2,3.9-1.7,3.9-4.2Z"/>
    <path d="M499.6,77.6h-4.5v-16.7h4.4v2.1c1-1.7,3-2.5,4.8-2.5,4.1,0,6.1,3,6.1,6.6v10.5h-4.5v-9.8c0-1.9-.9-3.3-3.1-3.3s-3.1,1.5-3.1,3.5v9.6Z"/>
    <path d="M531.3,69.3c0,5.1-3.8,8.9-8.8,8.9s-8.8-3.7-8.8-8.9,3.8-8.9,8.8-8.9,8.8,3.7,8.8,8.9ZM526.8,69.3c0-3.2-2-4.8-4.2-4.8s-4.2,1.6-4.2,4.8,2,4.8,4.2,4.8,4.2-1.6,4.2-4.8Z"/>
    <path d="M537.6,72.1c.1,1.3,1.1,2.5,3.1,2.5s2.2-.8,2.2-1.7-.5-1.4-1.8-1.6l-2.2-.5c-3.2-.7-4.7-2.7-4.7-5s2.7-5.5,6.3-5.5,6.4,3,6.6,4.8l-3.8.9c-.1-1-.8-2.2-2.8-2.2s-2.1.7-2.1,1.7.6,1.3,1.5,1.5l2.4.5c3.3.7,5,2.7,5,5.1s-2.1,5.5-6.5,5.5-6.8-3.3-7-5.2l3.9-.8Z"/>
    <path d="M566.2,72.8c-.9,2.9-3.5,5.3-7.6,5.3s-8.6-3.3-8.6-8.9,3.9-8.8,8.2-8.8,8.3,3.3,8.3,8.7,0,1.3,0,1.4h-12c.1,2.2,2,3.8,4.2,3.8s3.3-1.1,3.8-2.5l3.8,1.1ZM561.9,67.4c0-1.7-1.2-3.3-3.7-3.3s-3.6,1.8-3.7,3.3h7.5Z"/>
    <path d="M578.1,77.6v-24.6h4.5v24.6h-4.5Z"/>
    <path d="M602.5,72.8c-.8,2.9-3.5,5.3-7.6,5.3s-8.6-3.3-8.6-8.9,3.9-8.8,8.2-8.8,8.3,3.3,8.3,8.7,0,1.3,0,1.4h-12c.1,2.2,2,3.8,4.2,3.8s3.3-1.1,3.8-2.5l3.8,1.1ZM598.3,67.4c0-1.7-1.2-3.3-3.7-3.3s-3.6,1.8-3.7,3.3h7.5Z"/>
    <path d="M608.6,52.6c1.6,0,2.8,1.3,2.8,2.8s-1.2,2.8-2.8,2.8-2.8-1.3-2.8-2.8,1.3-2.8,2.8-2.8ZM606.4,77.6v-16.7h4.5v16.7h-4.5Z"/>
    <path d="M619,69.3c0,3,2,4.7,4.3,4.7s3.5-1.5,3.8-2.8l4,1.3c-.7,2.8-3.4,5.6-7.8,5.6s-8.8-3.7-8.8-8.9,3.8-8.9,8.7-8.9,7.1,2.8,7.9,5.6l-4,1.4c-.4-1.4-1.5-2.8-3.7-2.8s-4.2,1.7-4.2,4.7Z"/>
    <path d="M639,77.6h-4.5v-24.6h4.5v9.3c1.1-1.3,2.9-1.8,4.5-1.8,4.2,0,6.2,3,6.2,6.6v10.5h-4.5v-9.8c0-1.9-.9-3.3-3.1-3.3s-3,1.4-3.1,3.3v9.8Z"/>
    <path d="M660,60.9h3.4v4h-3.4v7c0,1.5.7,1.9,2,1.9s1.2,0,1.4-.1v3.7c-.4.2-1.2.4-2.5.4-3.3,0-5.3-1.9-5.3-5.2v-7.8h-3v-4h.9c1.8,0,2.6-1.2,2.6-2.7v-2.3h4.1v5Z"/>
    <path d="M679.6,77.6h-4.5v-16.7h4.4v2.1c1-1.7,3-2.5,4.8-2.5,4.1,0,6.1,3,6.1,6.6v10.5h-4.5v-9.8c0-1.9-.9-3.3-3.1-3.3s-3.1,1.5-3.1,3.5v9.6Z"/>
    <path d="M698.8,68l4.1-.6c1-.1,1.3-.6,1.3-1.2,0-1.2-.9-2.2-2.8-2.2s-3.1,1.3-3.2,2.7l-4-.9c.3-2.6,2.7-5.5,7.2-5.5s7.3,3,7.3,6.4v8.2c0,.9.1,2.1.2,2.7h-4.1c-.1-.4-.2-1.4-.2-2-.9,1.3-2.4,2.5-4.9,2.5-3.6,0-5.7-2.4-5.7-5s2.2-4.7,5-5.1ZM704.2,70.9v-.7l-3.8.6c-1.2.2-2.1.8-2.1,2.1s.7,1.9,2.2,1.9,3.7-.9,3.7-3.9Z"/>
    <path d="M716.6,69.3c0,3,2,4.7,4.3,4.7s3.5-1.5,3.8-2.8l4,1.3c-.7,2.8-3.4,5.6-7.8,5.6s-8.8-3.7-8.8-8.9,3.8-8.9,8.7-8.9,7.1,2.8,7.9,5.6l-4,1.4c-.4-1.4-1.5-2.8-3.7-2.8s-4.2,1.7-4.2,4.7Z"/>
    <path d="M736.5,77.6h-4.5v-24.6h4.5v9.3c1.1-1.3,2.9-1.8,4.5-1.8,4.2,0,6.2,3,6.2,6.6v10.5h-4.5v-9.8c0-1.9-.9-3.3-3.1-3.3s-3,1.4-3.1,3.3v9.8Z"/>
    <path d="M776.3,69.3c0,5.1-3.8,8.9-8.8,8.9s-8.8-3.7-8.8-8.9,3.8-8.9,8.8-8.9,8.8,3.7,8.8,8.9ZM771.8,69.3c0-3.2-2-4.8-4.2-4.8s-4.2,1.6-4.2,4.8,2,4.8,4.2,4.8,4.2-1.6,4.2-4.8Z"/>
    <path d="M779.9,77.6v-24.6h4.5v9.7c.7-1.2,2.6-2.3,5.1-2.3,4.9,0,7.7,3.8,7.7,8.7s-3.1,8.8-7.9,8.8-4.1-1-5-2.4v2h-4.4ZM788.5,64.5c-2.3,0-4.2,1.7-4.2,4.7s1.9,4.8,4.2,4.8,4.1-1.7,4.1-4.8-1.8-4.7-4.1-4.7Z"/>
    <path d="M816.1,72.8c-.8,2.9-3.5,5.3-7.6,5.3s-8.6-3.3-8.6-8.9,3.9-8.8,8.2-8.8,8.3,3.3,8.3,8.7,0,1.3,0,1.4h-12c.1,2.2,2,3.8,4.2,3.8s3.3-1.1,3.8-2.5l3.8,1.1ZM811.8,67.4c0-1.7-1.2-3.3-3.7-3.3s-3.6,1.8-3.7,3.3h7.5Z"/>
    <path d="M824.5,77.6h-4.5v-16.7h4.4v2.1c1-1.7,3-2.5,4.8-2.5,4.1,0,6.1,3,6.1,6.6v10.5h-4.5v-9.8c0-1.9-.9-3.3-3.1-3.3s-3.1,1.5-3.1,3.5v9.6Z"/>
    <path d="M851.7,68l4.1-.6c1-.1,1.3-.6,1.3-1.2,0-1.2-.9-2.2-2.8-2.2s-3.1,1.3-3.2,2.7l-4-.9c.3-2.6,2.7-5.5,7.2-5.5s7.3,3,7.3,6.4v8.2c0,.9.1,2.1.2,2.7h-4.1c-.1-.4-.2-1.4-.2-2-.9,1.3-2.4,2.5-4.9,2.5-3.6,0-5.7-2.4-5.7-5s2.2-4.7,5-5.1ZM857.1,70.9v-.7l-3.8.6c-1.2.2-2.1.8-2.1,2.1s.7,1.9,2.2,1.9,3.7-.9,3.7-3.9Z"/>
    <path d="M870.5,77.6h-4.5v-16.7h4.4v2.1c1-1.7,3-2.5,4.8-2.5,4.1,0,6.1,3,6.1,6.6v10.5h-4.5v-9.8c0-1.9-.9-3.3-3.1-3.3s-3.1,1.5-3.1,3.5v9.6Z"/>
  </g>
  <g>
    <path d="M36.4,143.6v-24.1h14.4v2.6h-11.6v8.1h10.5v2.6h-10.5v8.1h11.6v2.6h-14.4Z"/>
    <path d="M57.8,143.6h-2.7v-16.3h2.7v2.4c1.1-1.9,3-2.9,5.1-2.9,3.9,0,5.8,2.8,5.8,6.3v10.4h-2.7v-10c0-2.4-1.1-4.3-4-4.3s-4.1,2.2-4.1,4.7v9.6Z"/>
    <path d="M77.6,127.3h3.8v2.4h-3.8v9c0,1.7.7,2.5,2.5,2.5s1.1-.1,1.4-.2v2.3c-.3.1-1.1.3-2.1.3-2.7,0-4.4-1.7-4.4-4.6v-9.4h-3.3v-2.4h1.1c1.7,0,2.4-1,2.4-2.5v-2.7h2.5v5.2Z"/>
    <path d="M97.6,127.3l4.5,12.9,3.9-12.9h2.9l-5.3,16.3h-2.9l-4.6-13-4.5,13h-2.9l-5.4-16.3h2.9l4,12.9,4.5-12.9h2.8Z"/>
    <path d="M113.9,118.8c1.1,0,2,.9,2,2s-.9,2-2,2-2-.9-2-2,.9-2,2-2ZM112.6,143.6v-16.3h2.7v16.3h-2.7Z"/>
    <path d="M122.2,135.4c0,3.9,2.5,6.2,5.4,6.2s4.4-2.2,4.9-3.7l2.4,1.1c-.8,2.4-3.1,5.1-7.2,5.1s-8.1-3.7-8.1-8.6,3.5-8.6,8.1-8.6,6.5,2.5,7.1,5.1l-2.4,1.1c-.4-1.7-1.8-3.7-4.7-3.7s-5.3,2.2-5.3,6.2Z"/>
    <path d="M145.8,134.2l7.1,9.4h-3.4l-5.6-7.5-2.5,2.6v4.9h-2.7v-24.6h2.7v16l7.6-7.8h3.7l-6.9,6.9Z"/>
    <path d="M156.1,143.6v-24.6h2.7v24.6h-2.7Z"/>
    <path d="M170,144.1c-3.9,0-6.1-2.9-6.1-6.5v-10.2h2.7v9.8c0,2.4,1.1,4.5,4,4.5s4.1-1.9,4.1-4.5v-9.8h2.7v13.2c0,1.3.1,2.4.2,3.1h-2.6c-.1-.4-.2-1.3-.2-2.1h0c-.8,1.5-2.8,2.5-4.9,2.5Z"/>
    <path d="M185.5,143.6h-2.7v-16.3h2.7v2.4c1.1-1.9,3-2.9,5.1-2.9,3.9,0,5.8,2.8,5.8,6.3v10.4h-2.7v-10c0-2.4-1.1-4.3-4-4.3s-4.1,2.2-4.1,4.7v9.6Z"/>
    <path d="M203,143.9c.3,2.4,2.1,4.2,4.7,4.2,3.8,0,5.2-2.2,5.2-5.6v-2.6c-.7,1.6-2.5,3-5.2,3-4.3,0-7.3-3.4-7.3-8s3-8.1,7.4-8.1,4.3,1.2,5.1,2.8v-2.3h2.7v15.1c0,4-1.8,8.2-7.9,8.2s-6.9-2.6-7.3-6l2.6-.6ZM208.1,129.3c-3,0-5,2.2-5,5.6s2,5.6,5,5.6,5-2.2,5-5.6-2-5.6-5-5.6Z"/>
    <path d="M230.3,143.6v-24.1h2.9v21.5h11.7v2.6h-14.6Z"/>
    <path d="M251.9,134.4l4.4-.6c1.2-.2,1.5-.7,1.5-1.4,0-1.8-1.2-3.2-3.8-3.2s-3.8,1.4-4,3.5l-2.6-.6c.3-3.1,3.1-5.2,6.6-5.2s6.6,2.7,6.6,5.8v8.2c0,1.4.1,2.2.2,2.7h-2.7c0-.4-.2-1.2-.2-2.4-.7,1.3-2.5,2.9-5.4,2.9s-5.4-2.3-5.4-4.8,2-4.5,4.9-4.9ZM257.7,136.7v-1.1l-5.3.8c-1.6.2-2.7,1.1-2.7,2.7s1.1,2.6,3,2.6c2.8,0,5-1.6,5-5Z"/>
    <path d="M268.3,143.6h-2.7v-16.3h2.7v2.4c1.1-1.9,3-2.9,5.1-2.9,3.9,0,5.8,2.8,5.8,6.3v10.4h-2.7v-10c0-2.4-1.1-4.3-4-4.3s-4.1,2.2-4.1,4.7v9.6Z"/>
    <path d="M296,140.8c-.7,1.6-2.5,3.3-5.3,3.3-4.7,0-7.5-3.8-7.5-8.6s3-8.6,7.5-8.6,4.7,1.7,5.3,3.1v-10.9h2.7v21.5c0,1.6.1,2.7.2,3.1h-2.7c0-.4-.2-1.3-.2-2.3v-.4ZM296,135.4c0-3.6-2-6.2-5.1-6.2s-5.1,2.5-5.1,6.2,2,6.2,5.1,6.2,5.1-2.6,5.1-6.2Z"/>
    <path d="M318.2,139c-.9,2.8-3.5,5.1-7.2,5.1s-8.1-3.2-8.1-8.7,3.6-8.6,7.7-8.6,7.7,3.4,7.7,8.4,0,.7,0,1h-12.5c0,3.2,2.3,5.4,5.3,5.4s4.2-1.6,4.9-3.5l2.3.9ZM315.4,133.9c0-2.6-1.7-4.6-4.8-4.6s-4.7,2.2-4.9,4.6h9.7Z"/>
    <path d="M323.5,138.5c.2,1.9,1.6,3.3,4.1,3.3s3.2-1.1,3.2-2.5-1-2-2.5-2.4l-2.7-.6c-2.5-.6-4-2.2-4-4.5s2.6-4.9,5.7-4.9,5.7,2.7,6.1,4.4l-2.4.9c-.2-1.1-1.1-2.9-3.6-2.9s-3,1.1-3,2.4.7,1.9,2.1,2.2l2.7.6c2.9.6,4.4,2.3,4.4,4.7s-2,4.9-5.9,4.9-6.2-2.7-6.5-4.8l2.4-.8Z"/>
    <path d="M339,118.8c1.1,0,2,.9,2,2s-.9,2-2,2-2-.9-2-2,.9-2,2-2ZM337.6,143.6v-16.3h2.7v16.3h-2.7Z"/>
    <path d="M348.4,143.6h-2.7v-16.3h2.7v2.4c1.1-1.9,3-2.9,5.1-2.9,3.9,0,5.8,2.8,5.8,6.3v10.4h-2.7v-10c0-2.4-1.1-4.3-4-4.3s-4.1,2.2-4.1,4.7v9.6Z"/>
    <path d="M376.1,140.8c-.7,1.6-2.5,3.3-5.3,3.3-4.7,0-7.5-3.8-7.5-8.6s3-8.6,7.5-8.6,4.7,1.7,5.3,3.1v-10.9h2.7v21.5c0,1.6.1,2.7.2,3.1h-2.7c0-.4-.2-1.3-.2-2.3v-.4ZM376.1,135.4c0-3.6-2-6.2-5.1-6.2s-5.1,2.5-5.1,6.2,2,6.2,5.1,6.2,5.1-2.6,5.1-6.2Z"/>
    <path d="M398.2,139c-.9,2.8-3.5,5.1-7.2,5.1s-8.1-3.2-8.1-8.7,3.6-8.6,7.7-8.6,7.7,3.4,7.7,8.4,0,.7,0,1h-12.5c0,3.2,2.3,5.4,5.3,5.4s4.2-1.6,4.9-3.5l2.3.9ZM395.5,133.9c0-2.6-1.7-4.6-4.8-4.6s-4.7,2.2-4.9,4.6h9.7Z"/>
    <path d="M406.2,135.3l-6-8h3.3l4.2,6,4.3-6h3.2l-5.9,8,6.2,8.3h-3.3l-4.5-6.3-4.5,6.3h-3.3l6.2-8.3Z"/>
    <path d="M439.3,140.8c-.7,1.6-2.5,3.3-5.3,3.3-4.7,0-7.5-3.8-7.5-8.6s3-8.6,7.5-8.6,4.7,1.7,5.3,3.1v-10.9h2.7v21.5c0,1.6.1,2.7.2,3.1h-2.7c0-.4-.2-1.3-.2-2.3v-.4ZM439.3,135.4c0-3.6-2-6.2-5.1-6.2s-5.1,2.5-5.1,6.2,2,6.2,5.1,6.2,5.1-2.6,5.1-6.2Z"/>
    <path d="M461.4,139c-.9,2.8-3.5,5.1-7.2,5.1s-8.1-3.2-8.1-8.7,3.6-8.6,7.7-8.6,7.7,3.4,7.7,8.4,0,.7,0,1h-12.5c0,3.2,2.3,5.4,5.3,5.4s4.2-1.6,4.9-3.5l2.3.9ZM458.7,133.9c0-2.6-1.7-4.6-4.8-4.6s-4.7,2.2-4.9,4.6h9.7Z"/>
    <path d="M474.4,130.1c-.4-.1-1-.2-1.4-.2-2.7,0-4.6,1.6-4.6,5.2v8.4h-2.7v-16.3h2.7v2.9c1.1-2.4,3.1-3.2,4.9-3.2s.9,0,1.2.1v2.9Z"/>
    <path d="M492.8,132.3l-3.7,4v7.3h-2.9v-24.1h2.9v13l11.9-13h3.8l-10,10.7,10.2,13.4h-3.6l-8.5-11.3Z"/>
    <path d="M521.7,135.4c0,5-3.5,8.6-8.2,8.6s-8.2-3.6-8.2-8.6,3.5-8.6,8.2-8.6,8.2,3.6,8.2,8.6ZM508.1,135.4c0,4,2.5,6.2,5.4,6.2s5.4-2.2,5.4-6.2-2.5-6.2-5.4-6.2-5.4,2.2-5.4,6.2Z"/>
    <path d="M528.6,143.6h-2.7v-16.3h2.7v2.4c1.1-1.9,3-2.9,5.1-2.9,3.9,0,5.8,2.8,5.8,6.3v10.4h-2.7v-10c0-2.4-1.1-4.3-4-4.3s-4.1,2.2-4.1,4.7v9.6Z"/>
    <path d="M545.6,138.5c.2,1.9,1.6,3.3,4.1,3.3s3.2-1.1,3.2-2.5-1-2-2.5-2.4l-2.7-.6c-2.5-.6-4-2.2-4-4.5s2.6-4.9,5.7-4.9,5.7,2.7,6.1,4.4l-2.4.9c-.2-1.1-1.1-2.9-3.6-2.9s-3,1.1-3,2.4.7,1.9,2.1,2.2l2.7.6c2.9.6,4.4,2.3,4.4,4.7s-2,4.9-5.9,4.9-6.2-2.7-6.5-4.8l2.4-.8Z"/>
    <path d="M565.6,144.1c-3.9,0-6.1-2.9-6.1-6.5v-10.2h2.7v9.8c0,2.4,1.1,4.5,4,4.5s4.1-1.9,4.1-4.5v-9.8h2.7v13.2c0,1.3.1,2.4.2,3.1h-2.6c-.1-.4-.2-1.3-.2-2.1h0c-.8,1.5-2.8,2.5-4.9,2.5Z"/>
    <path d="M581.1,129.6c.9-1.7,2.9-2.8,5-2.8s4.2,1.2,5,3.3c1.2-2.3,3.2-3.3,5.5-3.3s5.6,2,5.6,6.1v10.6h-2.7v-10.3c0-2.2-1.2-4-3.7-4s-4,2-4,4.4v9.9h-2.7v-10.3c0-2.2-1.2-4-3.8-4s-4,1.9-4,4.5v9.9h-2.7v-16.3h2.7v2.3Z"/>
    <path d="M621.5,139c-.9,2.8-3.5,5.1-7.2,5.1s-8.1-3.2-8.1-8.7,3.6-8.6,7.7-8.6,7.7,3.4,7.7,8.4,0,.7,0,1h-12.5c0,3.2,2.3,5.4,5.3,5.4s4.2-1.6,4.9-3.5l2.3.9ZM618.8,133.9c0-2.6-1.7-4.6-4.8-4.6s-4.7,2.2-4.9,4.6h9.7Z"/>
    <path d="M628.4,143.6h-2.7v-16.3h2.7v2.4c1.1-1.9,3-2.9,5.1-2.9,3.9,0,5.8,2.8,5.8,6.3v10.4h-2.7v-10c0-2.4-1.1-4.3-4-4.3s-4.1,2.2-4.1,4.7v9.6Z"/>
    <path d="M648.1,127.3h3.8v2.4h-3.8v9c0,1.7.7,2.5,2.5,2.5s1.1-.1,1.4-.2v2.3c-.3.1-1.1.3-2.1.3-2.7,0-4.4-1.7-4.4-4.6v-9.4h-3.3v-2.4h1.1c1.7,0,2.4-1,2.4-2.5v-2.7h2.5v5.2Z"/>
    <path d="M669.9,139c-.9,2.8-3.5,5.1-7.2,5.1s-8.1-3.2-8.1-8.7,3.6-8.6,7.7-8.6,7.7,3.4,7.7,8.4,0,.7,0,1h-12.5c0,3.2,2.3,5.4,5.3,5.4s4.2-1.6,4.9-3.5l2.3.9ZM667.2,133.9c0-2.6-1.7-4.6-4.8-4.6s-4.7,2.2-4.9,4.6h9.7Z"/>
    <path d="M676.8,143.6h-2.7v-16.3h2.7v2.4c1.1-1.9,3-2.9,5.1-2.9,3.9,0,5.8,2.8,5.8,6.3v10.4h-2.7v-10c0-2.4-1.1-4.3-4-4.3s-4.1,2.2-4.1,4.7v9.6Z"/>
    <path d="M692.8,150v-22.7h2.7v2.7c.8-1.7,2.8-3.2,5.6-3.2,4.8,0,7.4,3.7,7.4,8.6s-2.8,8.6-7.5,8.6-4.7-1.5-5.5-3v9h-2.7ZM705.8,135.4c0-3.6-2-6.2-5.2-6.2s-5.2,2.5-5.2,6.2,2,6.2,5.2,6.2,5.2-2.6,5.2-6.2Z"/>
    <path d="M721.4,130.1c-.4-.1-1-.2-1.4-.2-2.7,0-4.6,1.6-4.6,5.2v8.4h-2.7v-16.3h2.7v2.9c1.1-2.4,3.1-3.2,4.9-3.2s.9,0,1.2.1v2.9Z"/>
    <path d="M738.5,139c-.9,2.8-3.5,5.1-7.2,5.1s-8.1-3.2-8.1-8.7,3.6-8.6,7.7-8.6,7.7,3.4,7.7,8.4,0,.7,0,1h-12.5c0,3.2,2.3,5.4,5.3,5.4s4.2-1.6,4.9-3.5l2.3.9ZM735.7,133.9c0-2.6-1.7-4.6-4.8-4.6s-4.7,2.2-4.9,4.6h9.7Z"/>
    <path d="M744,118.8c1.1,0,2,.9,2,2s-.9,2-2,2-2-.9-2-2,.9-2,2-2ZM742.7,143.6v-16.3h2.7v16.3h-2.7Z"/>
    <path d="M751.8,138.5c.2,1.9,1.6,3.3,4.1,3.3s3.2-1.1,3.2-2.5-1-2-2.5-2.4l-2.7-.6c-2.5-.6-4-2.2-4-4.5s2.6-4.9,5.7-4.9,5.7,2.7,6.1,4.4l-2.4.9c-.2-1.1-1.1-2.9-3.6-2.9s-3,1.1-3,2.4.7,1.9,2.1,2.2l2.7.6c2.9.6,4.4,2.3,4.4,4.7s-2,4.9-5.9,4.9-6.2-2.7-6.5-4.8l2.4-.8Z"/>
    <path d="M780.1,139c-.9,2.8-3.5,5.1-7.2,5.1s-8.1-3.2-8.1-8.7,3.6-8.6,7.7-8.6,7.7,3.4,7.7,8.4,0,.7,0,1h-12.5c0,3.2,2.3,5.4,5.3,5.4s4.2-1.6,4.9-3.5l2.3.9ZM777.4,133.9c0-2.6-1.7-4.6-4.8-4.6s-4.7,2.2-4.9,4.6h9.7Z"/>
    <path d="M799.6,143.6h-2.8l-6.6-16.3h3.1l4.9,13.1,4.9-13.1h2.9l-6.5,16.3Z"/>
    <path d="M810.2,138.5c.2,1.9,1.6,3.3,4.1,3.3s3.2-1.1,3.2-2.5-1-2-2.5-2.4l-2.7-.6c-2.5-.6-4-2.2-4-4.5s2.6-4.9,5.7-4.9,5.7,2.7,6.1,4.4l-2.4.9c-.2-1.1-1.1-2.9-3.6-2.9s-3,1.1-3,2.4.7,1.9,2.1,2.2l2.7.6c2.9.6,4.4,2.3,4.4,4.7s-2,4.9-5.9,4.9-6.2-2.7-6.5-4.8l2.4-.8Z"/>
    <path d="M825.8,139.5c1.2,0,2.1.9,2.1,2.1s-1,2.1-2.1,2.1-2.1-.9-2.1-2.1,1-2.1,2.1-2.1Z"/>
    <path d="M854.2,125.9c-.4-2-2-4.3-5.4-4.3-2.8,0-5,1.8-5,4.3s1.3,3.3,3.5,3.8l3.5.8c3.9.9,6.2,3.3,6.2,6.7s-3.2,7-8.2,7-8.4-3.6-8.8-7.2l2.7-.9c.3,2.9,2.3,5.4,6.2,5.4s5.3-1.8,5.3-4.1-1.4-3.5-3.9-4.1l-3.5-.8c-3.3-.7-5.7-2.9-5.7-6.5s3.5-7,7.8-7,7.4,3.2,8,5.9l-2.5.9Z"/>
    <path d="M878.5,143.6l-13.7-20.4v20.4h-2.9v-24.1h3.7l12.9,19.3v-19.3h2.9v24.1h-3Z"/>
    <path d="M895.6,119.5c4.6,0,7.3,2.7,7.3,6.5s-1.5,4.5-3.6,5.2c2.7.7,4.4,3.1,4.4,5.8s-3,6.5-7.4,6.5h-8.1v-24.1h7.5ZM895.6,130.2c2.7,0,4.4-1.7,4.4-4.1s-1.8-4.1-4.8-4.1h-4.3v8.2h4.7ZM895.9,141.1c2.9,0,4.9-1.6,4.9-4.2s-1.7-4.2-4.7-4.2h-5.2v8.4h4.9Z"/>
    <path d="M908,135v-2.4h9.1v2.4h-9.1Z"/>
    <path d="M925.2,133.6v10h-2.9v-24.1h8.4c4.5,0,7.4,3.1,7.4,7.1s-3,7-7.4,7h-5.5ZM930.3,131c3.1,0,5-1.8,5-4.5s-1.9-4.6-5-4.6h-5.1v9h5.1Z"/>
    <path d="M950.3,130.1c-.4-.1-1-.2-1.4-.2-2.7,0-4.6,1.6-4.6,5.2v8.4h-2.7v-16.3h2.7v2.9c1.1-2.4,3.1-3.2,4.9-3.2s.9,0,1.2.1v2.9Z"/>
    <path d="M968.3,135.4c0,5-3.5,8.6-8.2,8.6s-8.2-3.6-8.2-8.6,3.5-8.6,8.2-8.6,8.2,3.6,8.2,8.6ZM954.7,135.4c0,4,2.5,6.2,5.4,6.2s5.4-2.2,5.4-6.2-2.5-6.2-5.4-6.2-5.4,2.2-5.4,6.2Z"/>
    <path d="M974,143.9c.3,2.4,2.1,4.2,4.7,4.2,3.8,0,5.2-2.2,5.2-5.6v-2.6c-.7,1.6-2.5,3-5.2,3-4.3,0-7.3-3.4-7.3-8s3-8.1,7.4-8.1,4.3,1.2,5.1,2.8v-2.3h2.7v15.1c0,4-1.8,8.2-7.9,8.2s-6.9-2.6-7.3-6l2.6-.6ZM979.1,129.3c-3,0-5,2.2-5,5.6s2,5.6,5,5.6,5-2.2,5-5.6-2-5.6-5-5.6Z"/>
    <path d="M994.7,143.6h-2.7v-16.3h2.7v2.4c1.1-1.9,3-2.9,5.1-2.9,3.9,0,5.8,2.8,5.8,6.3v10.4h-2.7v-10c0-2.4-1.1-4.3-4-4.3s-4.1,2.2-4.1,4.7v9.6Z"/>
    <path d="M1025.8,135.4c0,5-3.5,8.6-8.2,8.6s-8.2-3.6-8.2-8.6,3.5-8.6,8.2-8.6,8.2,3.6,8.2,8.6ZM1012.2,135.4c0,4,2.5,6.2,5.4,6.2s5.4-2.2,5.4-6.2-2.5-6.2-5.4-6.2-5.4,2.2-5.4,6.2Z"/>
    <path d="M1031.1,138.5c.2,1.9,1.6,3.3,4.1,3.3s3.2-1.1,3.2-2.5-1-2-2.5-2.4l-2.7-.6c-2.5-.6-4-2.2-4-4.5s2.6-4.9,5.7-4.9,5.7,2.7,6.1,4.4l-2.4.9c-.2-1.1-1.1-2.9-3.6-2.9s-3,1.1-3,2.4.7,1.9,2.1,2.2l2.7.6c2.9.6,4.4,2.3,4.4,4.7s-2,4.9-5.9,4.9-6.2-2.7-6.5-4.8l2.4-.8Z"/>
    <path d="M1059.4,139c-.9,2.8-3.5,5.1-7.2,5.1s-8.1-3.2-8.1-8.7,3.6-8.6,7.7-8.6,7.7,3.4,7.7,8.4,0,.7,0,1h-12.5c0,3.2,2.3,5.4,5.3,5.4s4.2-1.6,4.9-3.5l2.3.9ZM1056.7,133.9c0-2.6-1.7-4.6-4.8-4.6s-4.7,2.2-4.9,4.6h9.7Z"/>
  </g>
  <line class="st3" x1="36.4" y1="100.3" x2="1059.5" y2="100.3"/>
  <g>
    <path d="M62.3,951.9c3.9,0,7.3,2.8,7.3,7.4s-.7,3.7-1.7,4.9l1.7,1.9-1.8,1.6-1.7-1.9c-1.1.6-2.4,1-3.7,1-3.8,0-7.3-2.8-7.3-7.4s3.4-7.4,7.3-7.4ZM62.3,964c.6,0,1.3-.1,1.8-.4l-2.2-2.4,1.8-1.6,2.2,2.5c.5-.7.8-1.7.8-2.8,0-3.2-2.2-4.7-4.4-4.7s-4.4,1.5-4.4,4.7,2.2,4.7,4.4,4.7Z"/>
    <path d="M78.1,965.3c-.5.9-1.7,1.3-2.7,1.3-2.4,0-3.7-1.7-3.7-3.9v-6.2h2.7v5.7c0,1.1.6,2,1.8,2s1.9-.8,1.9-1.9v-5.7h2.7v8.1c0,.8,0,1.4.1,1.8h-2.5c0-.2,0-.7,0-1.1Z"/>
    <path d="M92.3,963.6c-.5,1.7-2.1,3.1-4.5,3.1s-5.1-1.9-5.1-5.3,2.3-5.2,4.8-5.2,4.9,1.9,4.9,5.1,0,.8,0,.8h-7c0,1.3,1.2,2.2,2.5,2.2s1.9-.6,2.2-1.5l2.2.7ZM89.8,960.3c0-1-.7-1.9-2.2-1.9s-2.1,1-2.2,1.9h4.4Z"/>
    <path d="M94.6,966.4v-14.5h2.7v14.5h-2.7Z"/>
    <path d="M100,966.4v-14.5h2.7v14.5h-2.7Z"/>
    <path d="M114.3,963.6c-.5,1.7-2.1,3.1-4.5,3.1s-5.1-1.9-5.1-5.3,2.3-5.2,4.8-5.2,4.9,1.9,4.9,5.1,0,.8,0,.8h-7c0,1.3,1.2,2.2,2.5,2.2s1.9-.6,2.2-1.5l2.2.7ZM111.9,960.3c0-1-.7-1.9-2.2-1.9s-2.1,1-2.2,1.9h4.4Z"/>
    <path d="M118.2,956.4c1,0,1.8.8,1.8,1.8s-.8,1.8-1.8,1.8-1.8-.8-1.8-1.8.8-1.8,1.8-1.8ZM118.2,962.9c1,0,1.8.8,1.8,1.8s-.8,1.8-1.8,1.8-1.8-.8-1.8-1.8.8-1.8,1.8-1.8Z"/>
    <path d="M132.4,952.2c2.7,0,4.3,1.6,4.3,3.8s-.9,2.6-2.1,3.1c1.6.4,2.6,1.8,2.6,3.4s-1.8,3.8-4.4,3.8h-4.8v-14.2h4.4ZM132.4,958.5c1.6,0,2.6-1,2.6-2.4s-1-2.4-2.8-2.4h-2.5v4.8h2.7ZM132.5,964.9c1.7,0,2.9-1,2.9-2.5s-1-2.5-2.7-2.5h-3v5h2.9Z"/>
    <path d="M143.1,966.7c-2.3,0-3.6-1.7-3.6-3.8v-6h1.6v5.8c0,1.4.7,2.7,2.4,2.7s2.4-1.1,2.4-2.6v-5.8h1.6v7.8c0,.7,0,1.4.1,1.8h-1.5c0-.2,0-.7,0-1.2h0c-.5.9-1.6,1.5-2.9,1.5Z"/>
    <path d="M152.3,966.4h-1.6v-9.6h1.6v1.4c.6-1.1,1.7-1.7,3-1.7,2.3,0,3.4,1.6,3.4,3.7v6.1h-1.6v-5.9c0-1.4-.6-2.5-2.4-2.5s-2.4,1.3-2.4,2.8v5.6Z"/>
    <path d="M168.6,964.7c-.4.9-1.5,1.9-3.1,1.9-2.8,0-4.4-2.2-4.4-5.1s1.8-5.1,4.4-5.1,2.8,1,3.1,1.8v-6.4h1.6v12.7c0,1,0,1.6.1,1.8h-1.6c0-.2,0-.8,0-1.4v-.3ZM168.6,961.6c0-2.1-1.2-3.6-3-3.6s-3,1.5-3,3.6,1.2,3.6,3,3.6,3-1.5,3-3.6Z"/>
    <path d="M181.6,963.7c-.5,1.7-2,3-4.3,3s-4.7-1.9-4.7-5.1,2.1-5,4.5-5,4.5,2,4.5,4.9,0,.4,0,.6h-7.4c0,1.9,1.4,3.2,3.1,3.2s2.5-.9,2.9-2.1l1.4.5ZM180,960.7c0-1.5-1-2.7-2.8-2.7s-2.8,1.3-2.9,2.7h5.7Z"/>
    <path d="M184.7,963.4c.1,1.1,1,1.9,2.4,1.9s1.9-.6,1.9-1.5-.6-1.2-1.5-1.4l-1.6-.4c-1.5-.3-2.4-1.3-2.4-2.7s1.5-2.9,3.3-2.9,3.3,1.6,3.6,2.6l-1.4.5c-.1-.7-.6-1.7-2.1-1.7s-1.8.6-1.8,1.4.4,1.1,1.3,1.3l1.6.4c1.7.4,2.6,1.4,2.6,2.8s-1.2,2.9-3.5,2.9-3.7-1.6-3.8-2.8l1.4-.5Z"/>
    <path d="M195.2,961l2.6-.4c.7,0,.9-.4.9-.8,0-1.1-.7-1.9-2.2-1.9s-2.2.8-2.4,2.1l-1.5-.4c.2-1.8,1.8-3.1,3.9-3.1s3.9,1.6,3.9,3.4v4.8c0,.8,0,1.3.1,1.6h-1.6c0-.2-.1-.7-.1-1.4-.4.8-1.5,1.7-3.2,1.7s-3.2-1.4-3.2-2.8,1.2-2.6,2.9-2.9ZM198.7,962.3v-.6l-3.1.5c-.9.1-1.6.7-1.6,1.6s.7,1.5,1.8,1.5c1.7,0,2.9-.9,2.9-3Z"/>
    <path d="M204.8,958.2c.5-1,1.7-1.6,2.9-1.6s2.5.7,2.9,2c.7-1.4,1.9-2,3.2-2s3.3,1.2,3.3,3.6v6.3h-1.6v-6.1c0-1.3-.7-2.3-2.2-2.3s-2.4,1.2-2.4,2.6v5.8h-1.6v-6.1c0-1.3-.7-2.3-2.2-2.3s-2.4,1.1-2.4,2.6v5.8h-1.6v-9.6h1.6v1.4Z"/>
    <path d="M222.5,956.8h2.3v1.4h-2.3v5.3c0,1,.4,1.5,1.5,1.5s.6,0,.8-.1v1.4c-.2,0-.6.2-1.3.2-1.6,0-2.6-1-2.6-2.7v-5.5h-1.9v-1.4h.6c1,0,1.4-.6,1.4-1.5v-1.6h1.5v3Z"/>
    <path d="M234.1,958.2v8.1h-1.6v-8.1h-1.9v-1.4h1.9v-1.8c0-2.1,1.3-3.2,3-3.2s1,.1,1.1.2v1.4c-.1,0-.4-.1-.9-.1-.8,0-1.7.4-1.7,1.8v1.7h2.5v1.4h-2.5Z"/>
    <path d="M242,966.7c-2.3,0-3.6-1.7-3.6-3.8v-6h1.6v5.8c0,1.4.7,2.7,2.4,2.7s2.4-1.1,2.4-2.6v-5.8h1.6v7.8c0,.7,0,1.4.1,1.8h-1.5c0-.2,0-.7,0-1.2h0c-.5.9-1.6,1.5-2.9,1.5ZM240.5,953c.6,0,1,.5,1,1s-.5,1-1,1-1-.5-1-1,.5-1,1-1ZM244.2,953c.6,0,1,.5,1,1s-.5,1-1,1-1-.5-1-1,.5-1,1-1Z"/>
    <path d="M254.6,958.4c-.3,0-.6-.1-.8-.1-1.6,0-2.7.9-2.7,3.1v5h-1.6v-9.6h1.6v1.7c.6-1.4,1.8-1.9,2.9-1.9s.5,0,.7,0v1.7Z"/>
    <path d="M268.8,956c-.2-1.2-1.2-2.5-3.2-2.5-1.6,0-2.9,1.1-2.9,2.5s.7,2,2,2.2l2.1.5c2.3.5,3.6,1.9,3.6,3.9s-1.9,4.1-4.8,4.1-4.9-2.1-5.2-4.2l1.6-.5c.2,1.7,1.4,3.2,3.6,3.2s3.1-1.1,3.1-2.4-.8-2.1-2.3-2.4l-2.1-.5c-2-.4-3.4-1.7-3.4-3.8s2-4.1,4.6-4.1,4.4,1.9,4.7,3.5l-1.5.5Z"/>
    <path d="M275,956.8h2.3v1.4h-2.3v5.3c0,1,.4,1.5,1.5,1.5s.6,0,.8-.1v1.4c-.2,0-.6.2-1.3.2-1.6,0-2.6-1-2.6-2.7v-5.5h-1.9v-1.4h.6c1,0,1.4-.6,1.4-1.5v-1.6h1.5v3Z"/>
    <path d="M281.7,961l2.6-.4c.7,0,.9-.4.9-.8,0-1.1-.7-1.9-2.2-1.9s-2.2.8-2.4,2.1l-1.5-.4c.2-1.8,1.8-3.1,3.9-3.1s3.9,1.6,3.9,3.4v4.8c0,.8,0,1.3.1,1.6h-1.6c0-.2-.1-.7-.1-1.4-.4.8-1.5,1.7-3.2,1.7s-3.2-1.4-3.2-2.8,1.2-2.6,2.9-2.9ZM285.1,962.3v-.6l-3.1.5c-.9.1-1.6.7-1.6,1.6s.7,1.5,1.8,1.5c1.7,0,2.9-.9,2.9-3Z"/>
    <path d="M292,956.8h2.3v1.4h-2.3v5.3c0,1,.4,1.5,1.5,1.5s.6,0,.8-.1v1.4c-.2,0-.6.2-1.3.2-1.6,0-2.6-1-2.6-2.7v-5.5h-1.9v-1.4h.6c1,0,1.4-.6,1.4-1.5v-1.6h1.5v3Z"/>
    <path d="M297.2,951.8c.7,0,1.2.5,1.2,1.2s-.5,1.2-1.2,1.2-1.2-.5-1.2-1.2.5-1.2,1.2-1.2ZM296.4,966.4v-9.6h1.6v9.6h-1.6Z"/>
    <path d="M301.8,963.4c.1,1.1,1,1.9,2.4,1.9s1.9-.6,1.9-1.5-.6-1.2-1.5-1.4l-1.6-.4c-1.5-.3-2.4-1.3-2.4-2.7s1.5-2.9,3.3-2.9,3.3,1.6,3.6,2.6l-1.4.5c-.1-.7-.6-1.7-2.1-1.7s-1.8.6-1.8,1.4.4,1.1,1.3,1.3l1.6.4c1.7.4,2.6,1.4,2.6,2.8s-1.2,2.9-3.5,2.9-3.7-1.6-3.8-2.8l1.4-.5Z"/>
    <path d="M312.4,956.8h2.3v1.4h-2.3v5.3c0,1,.4,1.5,1.5,1.5s.6,0,.8-.1v1.4c-.2,0-.6.2-1.3.2-1.6,0-2.6-1-2.6-2.7v-5.5h-1.9v-1.4h.6c1,0,1.4-.6,1.4-1.5v-1.6h1.5v3Z"/>
    <path d="M317.7,951.8c.7,0,1.2.5,1.2,1.2s-.5,1.2-1.2,1.2-1.2-.5-1.2-1.2.5-1.2,1.2-1.2ZM316.9,966.4v-9.6h1.6v9.6h-1.6Z"/>
    <path d="M325.8,960.9l4.2,5.5h-2l-3.3-4.4-1.5,1.5v2.9h-1.6v-14.5h1.6v9.4l4.5-4.6h2.2l-4.1,4.1Z"/>
    <path d="M332.8,964c.8,0,1.4.6,1.4,1.7,0,2.4-1.5,3.5-2.7,3.7v-.9c1-.2,1.6-1.2,1.6-2.2,0,0-.2,0-.4,0-.7,0-1.2-.5-1.2-1.2s.5-1.2,1.3-1.2Z"/>
    <path d="M349.7,956c-.2-1.2-1.2-2.5-3.2-2.5-1.6,0-2.9,1.1-2.9,2.5s.7,2,2,2.2l2.1.5c2.3.5,3.6,1.9,3.6,3.9s-1.9,4.1-4.8,4.1-4.9-2.1-5.2-4.2l1.6-.5c.2,1.7,1.4,3.2,3.6,3.2s3.1-1.1,3.1-2.4-.8-2.1-2.3-2.4l-2.1-.5c-2-.4-3.4-1.7-3.4-3.8s2-4.1,4.6-4.1,4.4,1.9,4.7,3.5l-1.5.5Z"/>
    <path d="M364,966.4l-8-12v12h-1.7v-14.2h2.2l7.6,11.4v-11.4h1.7v14.2h-1.8Z"/>
    <path d="M374,952.2c2.7,0,4.3,1.6,4.3,3.8s-.9,2.6-2.1,3.1c1.6.4,2.6,1.8,2.6,3.4s-1.8,3.8-4.4,3.8h-4.8v-14.2h4.4ZM374,958.5c1.6,0,2.6-1,2.6-2.4s-1-2.4-2.8-2.4h-2.5v4.8h2.7ZM374.2,964.9c1.7,0,2.9-1,2.9-2.5s-1-2.5-2.7-2.5h-3v5h2.9Z"/>
    <path d="M382.2,964c.8,0,1.4.6,1.4,1.7,0,2.4-1.5,3.5-2.7,3.7v-.9c1-.2,1.6-1.2,1.6-2.2,0,0-.2,0-.4,0-.7,0-1.2-.5-1.2-1.2s.5-1.2,1.3-1.2Z"/>
    <path d="M392.1,963.4c.1,1.1,1,1.9,2.4,1.9s1.9-.6,1.9-1.5-.6-1.2-1.5-1.4l-1.6-.4c-1.5-.3-2.4-1.3-2.4-2.7s1.5-2.9,3.3-2.9,3.3,1.6,3.6,2.6l-1.4.5c-.1-.7-.6-1.7-2.1-1.7s-1.8.6-1.8,1.4.4,1.1,1.3,1.3l1.6.4c1.7.4,2.6,1.4,2.6,2.8s-1.2,2.9-3.5,2.9-3.7-1.6-3.8-2.8l1.4-.5Z"/>
    <path d="M402,958.2c.5-1,1.7-1.6,2.9-1.6s2.5.7,2.9,2c.7-1.4,1.9-2,3.2-2s3.3,1.2,3.3,3.6v6.3h-1.6v-6.1c0-1.3-.7-2.3-2.2-2.3s-2.4,1.2-2.4,2.6v5.8h-1.6v-6.1c0-1.3-.7-2.3-2.2-2.3s-2.4,1.1-2.4,2.6v5.8h-1.6v-9.6h1.6v1.4Z"/>
    <path d="M416.8,966.4v-1.4l5.6-6.7h-5.5v-1.4h7.5v1.4l-5.6,6.7h5.7v1.4h-7.7Z"/>
    <path d="M428.5,966.4h-1.6v-14.5h1.6v6.2c.6-1,1.7-1.6,3-1.6,2.3,0,3.4,1.6,3.4,3.7v6.1h-1.6v-5.9c0-1.4-.6-2.5-2.4-2.5s-2.4,1.2-2.4,2.7v5.7Z"/>
    <path d="M445.1,961l2.6-.4c.7,0,.9-.4.9-.8,0-1.1-.7-1.9-2.2-1.9s-2.2.8-2.4,2.1l-1.5-.4c.2-1.8,1.8-3.1,3.9-3.1s3.9,1.6,3.9,3.4v4.8c0,.8,0,1.3.1,1.6h-1.6c0-.2-.1-.7-.1-1.4-.4.8-1.5,1.7-3.2,1.7s-3.2-1.4-3.2-2.8,1.2-2.6,2.9-2.9ZM448.6,962.3v-.6l-3.1.5c-.9.1-1.6.7-1.6,1.6s.7,1.5,1.8,1.5c1.7,0,2.9-.9,2.9-3Z"/>
    <path d="M454.1,966.5c.2,1.4,1.2,2.5,2.8,2.5,2.2,0,3.1-1.3,3.1-3.3v-1.5c-.4.9-1.5,1.8-3,1.8-2.5,0-4.3-2-4.3-4.7s1.8-4.7,4.4-4.7,2.5.7,3,1.6v-1.4h1.6v8.9c0,2.4-1.1,4.8-4.7,4.8s-4.1-1.5-4.3-3.5l1.5-.4ZM457.1,958c-1.7,0-2.9,1.3-2.9,3.3s1.2,3.3,2.9,3.3,2.9-1.3,2.9-3.3-1.2-3.3-2.9-3.3Z"/>
    <path d="M465.5,964c.7,0,1.2.5,1.2,1.2s-.6,1.2-1.2,1.2-1.2-.5-1.2-1.2.6-1.2,1.2-1.2Z"/>
  </g>
  <path class="st0" d="M157.9,233.7h761.4M157.9,305.3h761.4M157.9,376.3h761.4M157.9,447.4h761.4M157.9,589.4h761.4M157.9,660.8h761.4"/>
  <line class="st6" x1="157.9" y1="518.4" x2="919.3" y2="518.4"/>
  <polyline class="st7" points="161.4 554.9 168.5 594.2 175.2 612.7 181.9 609.6 189.6 583.7 196.3 579.8 203 575 210.7 558.7 217.4 567.3 224.1 576 230.8 556.8 238.5 553.9 245.2 535.7 252 495.4 259.6 479 266.4 475.2 273.1 470.4 279.8 456 287.5 451.2 294.2 430.1 300.9 409 307.6 409.9 315.3 401.3 322 365.8 328.8 348.5 336.4 337 343.2 309.1 349.9 277.4 356.6 273.6 364.3 272.7 371 287 377.7 305.3 385.4 308.2 392.1 315.8 398.8 285.1 405.6 278.4 413.2 309.1 420 336 426.7 364.8 433.4 396.5 441.1 404.2 447.8 408 454.5 400.3 462.2 397.4 468.9 415.7 475.6 396.5 482.3 427.2 490 434.9 496.7 444.5 503.5 421.4 511.1 419.5 517.9 424.3 524.6 426.2 531.3 442.6 539 458.9 545.7 474.2 552.4 466.6 559.1 474.2 566.8 489.6 573.5 495.4 580.3 494.4 587.9 516.5 594.7 525.1 601.4 512.6 608.1 503 615.8 507.8 622.5 502.1 629.2 511.7 636.9 516.5 643.6 513.6 650.3 514.5 657.1 508.8 664.7 496.3 671.5 475.2 678.4 474.2"/>
  <polyline class="st4" points="657.4 509.1 664.7 504 684.9 482.9 706 476.2 727.1 476.2 748.2 476.2 769.4 482.9 790.5 479 810.6 476.2 831.8 476.2 852.9 476.2 874 468.6 894.9 468.6"/>
  <polyline class="st2" points="678.4 474.2 684.9 476.2 706 468.5 727.1 461.5 748.2 461.5 769.4 482.8 790.5 479 810.6 476.2 831.8 476.2 852.9 468.5 874 468.5 895.1 468.5 915.8 461.5"/>
  <g class="st9">
    <g>
      <path d="M63.2,236.7l8.6-12h3.5v12.6h3.4v2.3h-3.4v4.5h-2.5v-4.5h-9.6v-2.9ZM72.7,227.1l-7.3,10.2h7.3v-10.2Z"/>
      <path d="M83.2,240.5c1,0,1.9.8,1.9,1.9s-.8,1.9-1.9,1.9-1.9-.8-1.9-1.9.8-1.9,1.9-1.9Z"/>
      <path d="M89.6,241.5c-1.3-2-1.8-4.5-1.8-7.2s.5-5.2,1.8-7.2c1.2-1.8,3.1-3,5.8-3s4.5,1.2,5.8,3c1.3,1.9,1.8,4.5,1.8,7.2s-.5,5.2-1.8,7.2c-1.2,1.8-3.1,3-5.8,3s-4.5-1.2-5.8-3ZM98.6,240.9c1.3-1.4,1.8-3.6,1.8-6.5s-.5-5.2-1.8-6.5c-.8-.8-1.8-1.4-3.3-1.4s-2.5.5-3.3,1.4c-1.3,1.4-1.8,3.6-1.8,6.5s.5,5.2,1.8,6.5c.8.8,1.8,1.4,3.3,1.4s2.5-.5,3.3-1.4Z"/>
      <path d="M110.2,224.4c2.6,0,4.7,2.1,4.7,4.7s-2.2,4.7-4.7,4.7-4.7-2.1-4.7-4.7,2.1-4.7,4.7-4.7ZM110.2,231.7c1.5,0,2.6-1.1,2.6-2.7s-1.1-2.7-2.6-2.7-2.6,1.1-2.6,2.7,1.1,2.7,2.6,2.7ZM107.9,244.1l14.1-19.4h2.3l-14,19.4h-2.4ZM122.1,234.9c2.6,0,4.7,2.1,4.7,4.7s-2.2,4.7-4.7,4.7-4.7-2.1-4.7-4.7,2.1-4.7,4.7-4.7ZM122.1,242.2c1.5,0,2.6-1.1,2.6-2.7s-1.1-2.7-2.6-2.7-2.6,1.1-2.6,2.7,1.1,2.7,2.6,2.7Z"/>
    </g>
  </g>
  <g class="st9">
    <g>
      <path d="M68.5,303.9l6-5.7h-9.8v-2.3h13.1v2.2l-5.9,5.6c.2,0,.4,0,.6,0,2.8,0,5.8,2,5.8,5.9s-2.6,6.2-7,6.2-7-2.8-7.2-6.1l2.5-.6c.1,2.7,2.2,4.4,4.7,4.4s4.5-1.7,4.5-4-2.1-3.9-4.3-3.9-1.2,0-1.8.3l-1.2-2.1Z"/>
      <path d="M83.2,311.7c1,0,1.9.8,1.9,1.9s-.8,1.9-1.9,1.9-1.9-.8-1.9-1.9.8-1.9,1.9-1.9Z"/>
      <path d="M89.6,312.8c-1.3-2-1.8-4.5-1.8-7.2s.5-5.2,1.8-7.2c1.2-1.8,3.1-3,5.8-3s4.5,1.2,5.8,3c1.3,1.9,1.8,4.5,1.8,7.2s-.5,5.2-1.8,7.2c-1.2,1.8-3.1,3-5.8,3s-4.5-1.2-5.8-3ZM98.6,312.1c1.3-1.4,1.8-3.6,1.8-6.5s-.5-5.2-1.8-6.5c-.8-.8-1.8-1.4-3.3-1.4s-2.5.5-3.3,1.4c-1.3,1.4-1.8,3.6-1.8,6.5s.5,5.2,1.8,6.5c.8.8,1.8,1.4,3.3,1.4s2.5-.5,3.3-1.4Z"/>
      <path d="M110.2,295.6c2.6,0,4.7,2.1,4.7,4.7s-2.2,4.7-4.7,4.7-4.7-2.1-4.7-4.7,2.1-4.7,4.7-4.7ZM110.2,302.9c1.5,0,2.6-1.1,2.6-2.7s-1.1-2.7-2.6-2.7-2.6,1.1-2.6,2.7,1.1,2.7,2.6,2.7ZM107.9,315.3l14.1-19.4h2.3l-14,19.4h-2.4ZM122.1,306.1c2.6,0,4.7,2.1,4.7,4.7s-2.2,4.7-4.7,4.7-4.7-2.1-4.7-4.7,2.1-4.7,4.7-4.7ZM122.1,313.5c1.5,0,2.6-1.1,2.6-2.7s-1.1-2.7-2.6-2.7-2.6,1.1-2.6,2.7,1.1,2.7,2.6,2.7Z"/>
    </g>
  </g>
  <g class="st9">
    <g>
      <path d="M64.8,373.6c0-.3,0-.6,0-.9,0-3.3,2.4-6.2,6.6-6.2s6.4,2.7,6.4,5.9-1.4,4.6-3.7,6l-4,2.5c-1.2.8-2.2,1.8-2.5,3.2h10.3v2.3h-13.4c0-3,1.3-5.4,4.4-7.4l3.5-2.2c1.9-1.2,2.8-2.6,2.8-4.3s-1.4-3.7-4-3.7-4.1,1.8-4.1,4.2,0,.7,0,.9l-2.5-.3Z"/>
      <path d="M83.2,382.9c1,0,1.9.8,1.9,1.9s-.8,1.9-1.9,1.9-1.9-.8-1.9-1.9.8-1.9,1.9-1.9Z"/>
      <path d="M89.6,383.9c-1.3-2-1.8-4.5-1.8-7.2s.5-5.2,1.8-7.2c1.2-1.8,3.1-3,5.8-3s4.5,1.2,5.8,3c1.3,1.9,1.8,4.5,1.8,7.2s-.5,5.2-1.8,7.2c-1.2,1.8-3.1,3-5.8,3s-4.5-1.2-5.8-3ZM98.6,383.2c1.3-1.4,1.8-3.6,1.8-6.5s-.5-5.2-1.8-6.5c-.8-.8-1.8-1.4-3.3-1.4s-2.5.5-3.3,1.4c-1.3,1.4-1.8,3.6-1.8,6.5s.5,5.2,1.8,6.5c.8.8,1.8,1.4,3.3,1.4s2.5-.5,3.3-1.4Z"/>
      <path d="M110.2,366.7c2.6,0,4.7,2.1,4.7,4.7s-2.2,4.7-4.7,4.7-4.7-2.1-4.7-4.7,2.1-4.7,4.7-4.7ZM110.2,374c1.5,0,2.6-1.1,2.6-2.7s-1.1-2.7-2.6-2.7-2.6,1.1-2.6,2.7,1.1,2.7,2.6,2.7ZM107.9,386.4l14.1-19.4h2.3l-14,19.4h-2.4ZM122.1,377.2c2.6,0,4.7,2.1,4.7,4.7s-2.2,4.7-4.7,4.7-4.7-2.1-4.7-4.7,2.1-4.7,4.7-4.7ZM122.1,384.6c1.5,0,2.6-1.1,2.6-2.7s-1.1-2.7-2.6-2.7-2.6,1.1-2.6,2.7,1.1,2.7,2.6,2.7Z"/>
    </g>
  </g>
  <g class="st9">
    <g>
      <path d="M53.9,663.8v-2.1h8v2.1h-8Z"/>
      <path d="M64.8,658.6c0-.3,0-.6,0-.9,0-3.3,2.4-6.2,6.6-6.2s6.4,2.7,6.4,5.9-1.4,4.6-3.7,6l-4,2.5c-1.2.8-2.2,1.8-2.5,3.2h10.3v2.3h-13.4c0-3,1.3-5.4,4.4-7.4l3.5-2.2c1.9-1.2,2.8-2.6,2.8-4.3s-1.4-3.7-4-3.7-4.1,1.8-4.1,4.2,0,.7,0,.9l-2.5-.3Z"/>
      <path d="M83.2,667.8c1,0,1.9.8,1.9,1.9s-.8,1.9-1.9,1.9-1.9-.8-1.9-1.9.8-1.9,1.9-1.9Z"/>
      <path d="M89.6,668.8c-1.3-2-1.8-4.5-1.8-7.2s.5-5.2,1.8-7.2c1.2-1.8,3.1-3,5.8-3s4.5,1.2,5.8,3c1.3,2,1.8,4.5,1.8,7.2s-.5,5.2-1.8,7.2c-1.2,1.8-3.1,3-5.8,3s-4.5-1.2-5.8-3ZM98.6,668.2c1.3-1.4,1.8-3.6,1.8-6.5s-.5-5.2-1.8-6.5c-.8-.8-1.8-1.4-3.3-1.4s-2.5.5-3.3,1.4c-1.3,1.4-1.8,3.6-1.8,6.5s.5,5.2,1.8,6.5c.8.8,1.8,1.4,3.3,1.4s2.5-.5,3.3-1.4Z"/>
      <path d="M110.2,651.6c2.6,0,4.7,2.1,4.7,4.7s-2.2,4.7-4.7,4.7-4.7-2.1-4.7-4.7,2.1-4.7,4.7-4.7ZM110.2,658.9c1.5,0,2.6-1.1,2.6-2.7s-1.1-2.7-2.6-2.7-2.6,1.1-2.6,2.7,1.1,2.7,2.6,2.7ZM107.9,671.3l14.1-19.4h2.3l-14,19.4h-2.4ZM122.1,662.1c2.6,0,4.7,2.1,4.7,4.7s-2.2,4.7-4.7,4.7-4.7-2.1-4.7-4.7,2.1-4.7,4.7-4.7ZM122.1,669.5c1.5,0,2.6-1.1,2.6-2.7s-1.1-2.7-2.6-2.7-2.6,1.1-2.6,2.7,1.1,2.7,2.6,2.7Z"/>
    </g>
  </g>
  <g class="st9">
    <g>
      <path d="M60.3,592.5v-2.1h8v2.1h-8Z"/>
      <path d="M74.8,600.1v-14.2h-4.8v-1.4c2.7-.1,4.5-1.7,5-3.8h2.2v19.4h-2.5Z"/>
      <path d="M83.2,596.5c1,0,1.9.8,1.9,1.9s-.8,1.9-1.9,1.9-1.9-.8-1.9-1.9.8-1.9,1.9-1.9Z"/>
      <path d="M89.6,597.6c-1.3-2-1.8-4.5-1.8-7.2s.5-5.2,1.8-7.2c1.2-1.8,3.1-3,5.8-3s4.5,1.2,5.8,3c1.3,2,1.8,4.5,1.8,7.2s-.5,5.2-1.8,7.2c-1.2,1.8-3.1,3-5.8,3s-4.5-1.2-5.8-3ZM98.6,596.9c1.3-1.4,1.8-3.6,1.8-6.5s-.5-5.2-1.8-6.5c-.8-.8-1.8-1.4-3.3-1.4s-2.5.5-3.3,1.4c-1.3,1.4-1.8,3.6-1.8,6.5s.5,5.2,1.8,6.5c.8.8,1.8,1.4,3.3,1.4s2.5-.5,3.3-1.4Z"/>
      <path d="M110.2,580.4c2.6,0,4.7,2.1,4.7,4.7s-2.2,4.7-4.7,4.7-4.7-2.1-4.7-4.7,2.1-4.7,4.7-4.7ZM110.2,587.7c1.5,0,2.6-1.1,2.6-2.7s-1.1-2.7-2.6-2.7-2.6,1.1-2.6,2.7,1.1,2.7,2.6,2.7ZM107.9,600.1l14.1-19.4h2.3l-14,19.4h-2.4ZM122.1,590.9c2.6,0,4.7,2.1,4.7,4.7s-2.2,4.7-4.7,4.7-4.7-2.1-4.7-4.7,2.1-4.7,4.7-4.7ZM122.1,598.2c1.5,0,2.6-1.1,2.6-2.7s-1.1-2.7-2.6-2.7-2.6,1.1-2.6,2.7,1.1,2.7,2.6,2.7Z"/>
    </g>
  </g>
  <g class="st9">
    <g>
      <path d="M74.8,457.1v-14.2h-4.8v-1.4c2.7-.1,4.5-1.7,5-3.8h2.2v19.4h-2.5Z"/>
      <path d="M83.2,453.5c1,0,1.9.8,1.9,1.9s-.8,1.9-1.9,1.9-1.9-.8-1.9-1.9.8-1.9,1.9-1.9Z"/>
      <path d="M89.6,454.5c-1.3-2-1.8-4.5-1.8-7.2s.5-5.2,1.8-7.2c1.2-1.8,3.1-3,5.8-3s4.5,1.2,5.8,3c1.3,1.9,1.8,4.5,1.8,7.2s-.5,5.2-1.8,7.2c-1.2,1.8-3.1,3-5.8,3s-4.5-1.2-5.8-3ZM98.6,453.9c1.3-1.4,1.8-3.6,1.8-6.5s-.5-5.2-1.8-6.5c-.8-.8-1.8-1.4-3.3-1.4s-2.5.5-3.3,1.4c-1.3,1.4-1.8,3.6-1.8,6.5s.5,5.2,1.8,6.5c.8.8,1.8,1.4,3.3,1.4s2.5-.5,3.3-1.4Z"/>
      <path d="M110.2,437.3c2.6,0,4.7,2.1,4.7,4.7s-2.2,4.7-4.7,4.7-4.7-2.1-4.7-4.7,2.1-4.7,4.7-4.7ZM110.2,444.7c1.5,0,2.6-1.1,2.6-2.7s-1.1-2.7-2.6-2.7-2.6,1.1-2.6,2.7,1.1,2.7,2.6,2.7ZM107.9,457.1l14.1-19.4h2.3l-14,19.4h-2.4ZM122.1,447.9c2.6,0,4.7,2.1,4.7,4.7s-2.2,4.7-4.7,4.7-4.7-2.1-4.7-4.7,2.1-4.7,4.7-4.7ZM122.1,455.2c1.5,0,2.6-1.1,2.6-2.7s-1.1-2.7-2.6-2.7-2.6,1.1-2.6,2.7,1.1,2.7,2.6,2.7Z"/>
    </g>
  </g>
  <g class="st9">
    <g>
      <path d="M65.2,525.8c-1.3-2-1.8-4.5-1.8-7.2s.5-5.2,1.8-7.2c1.2-1.8,3.1-3,5.8-3s4.5,1.2,5.8,3c1.3,1.9,1.8,4.5,1.8,7.2s-.5,5.2-1.8,7.2c-1.2,1.8-3.1,3-5.8,3s-4.5-1.2-5.8-3ZM74.2,525.2c1.3-1.3,1.8-3.6,1.8-6.5s-.5-5.2-1.8-6.5c-.8-.8-1.8-1.4-3.3-1.4s-2.5.5-3.3,1.4c-1.3,1.3-1.8,3.6-1.8,6.5s.5,5.2,1.8,6.5c.8.8,1.8,1.4,3.3,1.4s2.5-.5,3.3-1.4Z"/>
      <path d="M83.2,524.8c1,0,1.9.8,1.9,1.9s-.8,1.9-1.9,1.9-1.9-.8-1.9-1.9.8-1.9,1.9-1.9Z"/>
      <path d="M89.6,525.8c-1.3-2-1.8-4.5-1.8-7.2s.5-5.2,1.8-7.2c1.2-1.8,3.1-3,5.8-3s4.5,1.2,5.8,3c1.3,1.9,1.8,4.5,1.8,7.2s-.5,5.2-1.8,7.2c-1.2,1.8-3.1,3-5.8,3s-4.5-1.2-5.8-3ZM98.6,525.2c1.3-1.3,1.8-3.6,1.8-6.5s-.5-5.2-1.8-6.5c-.8-.8-1.8-1.4-3.3-1.4s-2.5.5-3.3,1.4c-1.3,1.3-1.8,3.6-1.8,6.5s.5,5.2,1.8,6.5c.8.8,1.8,1.4,3.3,1.4s2.5-.5,3.3-1.4Z"/>
      <path d="M110.2,508.6c2.6,0,4.7,2.1,4.7,4.7s-2.2,4.7-4.7,4.7-4.7-2.1-4.7-4.7,2.1-4.7,4.7-4.7ZM110.2,516c1.5,0,2.6-1.1,2.6-2.7s-1.1-2.7-2.6-2.7-2.6,1.1-2.6,2.7,1.1,2.7,2.6,2.7ZM107.9,528.4l14.1-19.4h2.3l-14,19.4h-2.4ZM122.1,519.2c2.6,0,4.7,2.1,4.7,4.7s-2.2,4.7-4.7,4.7-4.7-2.1-4.7-4.7,2.1-4.7,4.7-4.7ZM122.1,526.5c1.5,0,2.6-1.1,2.6-2.7s-1.1-2.7-2.6-2.7-2.6,1.1-2.6,2.7,1.1,2.7,2.6,2.7Z"/>
    </g>
  </g>
  <g class="st9">
    <path d="M111.7,746c-.2-.1-.5-.3-.7-.5-2.6-2.1-3.3-5.8-.7-9,2.5-3.1,6.1-3.3,8.6-1.3,2,1.6,2.7,4,2.4,6.6l-.5,4.7c-.1,1.4,0,2.9.9,3.9l6.4-8.1,1.8,1.4-8.4,10.4c-2.3-1.9-3.4-4.4-3-8l.4-4.1c.2-2.2-.3-3.8-1.6-4.9-1.5-1.2-3.7-1.2-5.4.8-1.7,2.1-1.1,4.3.8,5.8.3.2.6.4.8.5l-1.8,1.7Z"/>
    <path d="M131,738.2c-2.4-.2-4.7-1.4-6.7-3.1-2.1-1.6-3.8-3.6-4.5-5.9-.6-2.1-.4-4.3,1.3-6.4,1.6-2.1,3.7-2.8,5.9-2.6,2.4.2,4.7,1.4,6.7,3.1,2.1,1.6,3.8,3.6,4.5,5.9.6,2.1.4,4.3-1.3,6.4-1.6,2.1-3.7,2.8-5.9,2.6ZM136.2,730.8c-.2-1.9-1.7-3.7-4-5.5-2.3-1.8-4.4-2.8-6.2-2.7-1.1,0-2.2.6-3.1,1.7-.9,1.1-1.1,2.3-1,3.4.2,1.9,1.7,3.7,4,5.5,2.3,1.8,4.4,2.8,6.2,2.7,1.1,0,2.2-.6,3.1-1.7.9-1.1,1.1-2.3,1-3.4Z"/>
    <path d="M133.5,718.8c-.2-.1-.5-.3-.7-.5-2.6-2.1-3.3-5.8-.7-9,2.5-3.1,6.1-3.3,8.6-1.3,2,1.6,2.7,4,2.4,6.6l-.5,4.7c-.1,1.4,0,2.9.9,3.9l6.4-8.1,1.8,1.4-8.4,10.4c-2.3-1.9-3.4-4.4-3-8l.4-4.1c.2-2.2-.3-3.8-1.6-4.9-1.5-1.2-3.7-1.2-5.4.8-1.6,2.1-1.1,4.3.8,5.8.3.2.6.4.8.5l-1.8,1.7Z"/>
    <path d="M152.8,711.1c-2.4-.2-4.7-1.4-6.7-3.1s-3.8-3.6-4.5-5.9c-.6-2.1-.4-4.3,1.3-6.4,1.7-2.1,3.7-2.8,5.9-2.6,2.4.2,4.7,1.4,6.7,3.1,2.1,1.7,3.8,3.6,4.5,5.9.6,2.1.4,4.3-1.3,6.4-1.6,2.1-3.7,2.8-5.9,2.6ZM157.9,703.6c-.2-1.9-1.7-3.7-4-5.5-2.3-1.8-4.4-2.8-6.2-2.7-1.1,0-2.2.6-3.1,1.7-.9,1.1-1.1,2.3-1,3.4.2,1.9,1.7,3.7,4,5.5s4.4,2.8,6.2,2.7c1.1,0,2.2-.6,3.1-1.7.9-1.1,1.1-2.3,1-3.4Z"/>
  </g>
  <g class="st9">
    <path d="M282.7,748c-.2-.1-.5-.3-.7-.5-2.6-2.1-3.3-5.8-.7-9,2.5-3.1,6.1-3.3,8.6-1.3,2,1.6,2.7,4,2.4,6.6l-.5,4.7c-.1,1.4,0,2.9.9,3.9l6.4-8.1,1.8,1.4-8.4,10.4c-2.3-1.9-3.4-4.4-3-8l.4-4.1c.2-2.2-.3-3.8-1.6-4.9-1.5-1.2-3.7-1.2-5.4.8-1.6,2.1-1.1,4.3.8,5.8.3.2.6.4.8.5l-1.8,1.7Z"/>
    <path d="M302,740.3c-2.4-.2-4.7-1.4-6.7-3.1-2.1-1.7-3.8-3.6-4.5-5.9-.6-2.1-.4-4.3,1.3-6.4,1.6-2.1,3.7-2.8,5.9-2.6,2.4.2,4.7,1.4,6.7,3.1,2.1,1.6,3.8,3.6,4.5,5.9.6,2.1.4,4.3-1.3,6.4s-3.7,2.8-5.9,2.6ZM307.2,732.8c-.2-1.9-1.7-3.7-4-5.5-2.3-1.8-4.4-2.8-6.2-2.7-1.1,0-2.2.6-3.1,1.7-.9,1.1-1.1,2.3-1,3.4.2,1.9,1.7,3.7,4,5.5,2.3,1.8,4.4,2.8,6.2,2.7,1.1,0,2.2-.6,3.1-1.7.9-1.1,1.1-2.3,1-3.4Z"/>
    <path d="M304.5,720.9c-.2-.1-.5-.3-.7-.5-2.6-2.1-3.3-5.8-.7-9,2.5-3.1,6.1-3.3,8.6-1.3,2,1.6,2.7,4,2.4,6.6l-.5,4.7c-.1,1.4,0,2.9.9,3.9l6.4-8.1,1.8,1.4-8.4,10.4c-2.3-1.9-3.4-4.4-3-8l.4-4.1c.2-2.2-.3-3.8-1.6-4.9-1.5-1.2-3.7-1.2-5.4.8-1.6,2.1-1.1,4.3.8,5.8.3.2.6.4.8.5l-1.8,1.7Z"/>
    <path d="M314.8,708c-.2-.1-.5-.3-.7-.5-2.6-2.1-3.3-5.8-.7-9,2.5-3.1,6.1-3.3,8.6-1.3,2,1.6,2.7,4,2.4,6.6l-.5,4.7c-.1,1.4,0,2.9.9,3.9l6.4-8.1,1.8,1.4-8.4,10.4c-2.3-1.9-3.4-4.4-3-8l.4-4.1c.2-2.2-.3-3.8-1.6-4.9-1.5-1.2-3.7-1.2-5.4.8-1.6,2.1-1.1,4.3.8,5.8.3.2.6.4.8.5l-1.8,1.7Z"/>
  </g>
  <g class="st9">
    <path d="M447.4,748.7c-.2-.1-.5-.3-.7-.5-2.6-2.1-3.3-5.8-.7-9,2.5-3.1,6.1-3.3,8.6-1.3,2,1.6,2.7,4,2.4,6.6l-.5,4.7c-.1,1.4,0,2.9.9,3.9l6.4-8.1,1.8,1.4-8.4,10.4c-2.3-1.9-3.4-4.4-3-8l.4-4.1c.2-2.2-.3-3.8-1.6-4.9-1.5-1.2-3.7-1.2-5.4.8-1.6,2.1-1.1,4.3.8,5.8.3.2.6.4.8.5l-1.8,1.7Z"/>
    <path d="M466.7,741c-2.4-.2-4.7-1.4-6.7-3.1-2.1-1.6-3.8-3.6-4.5-5.9-.6-2.1-.4-4.3,1.3-6.4,1.6-2.1,3.7-2.8,5.9-2.6,2.4.2,4.7,1.4,6.7,3.1,2.1,1.6,3.8,3.6,4.5,5.9.6,2.1.4,4.3-1.3,6.4-1.6,2.1-3.7,2.8-5.9,2.6ZM471.8,733.5c-.2-1.9-1.7-3.7-4-5.5s-4.4-2.8-6.2-2.7c-1.1,0-2.2.6-3.1,1.7-.9,1.1-1.1,2.3-1,3.4.2,1.9,1.7,3.7,4,5.5,2.3,1.8,4.4,2.8,6.2,2.7,1.1,0,2.2-.6,3.1-1.7.9-1.1,1.1-2.3,1-3.4Z"/>
    <path d="M469.1,721.5c-.2-.1-.5-.3-.7-.5-2.6-2.1-3.3-5.8-.7-9,2.5-3.1,6.1-3.3,8.6-1.3,2,1.6,2.7,4,2.4,6.6l-.5,4.7c-.1,1.4,0,2.9.9,3.9l6.4-8.1,1.8,1.4-8.4,10.4c-2.3-1.9-3.4-4.4-3-8l.4-4.1c.2-2.2-.3-3.8-1.6-4.9-1.5-1.2-3.7-1.2-5.4.8-1.6,2.1-1.1,4.3.8,5.8.3.2.6.4.8.5l-1.8,1.7Z"/>
    <path d="M483.1,712.7l-4-14.2,2.2-2.7,9.9,7.9,2.1-2.6,1.8,1.4-2.1,2.6,3.5,2.8-1.5,1.9-3.5-2.8-6,7.5-2.2-1.8ZM481.6,699.2l3.4,12,4.5-5.7-8-6.4Z"/>
  </g>
  <g class="st9">
    <path d="M534.3,745.9c-.2-.1-.5-.3-.7-.5-2.6-2.1-3.3-5.8-.7-9,2.5-3.1,6.1-3.3,8.6-1.3,2,1.6,2.7,4,2.4,6.6l-.5,4.7c-.1,1.4,0,2.9.9,3.9l6.4-8.1,1.8,1.4-8.4,10.4c-2.3-1.9-3.4-4.4-3-8l.4-4.1c.2-2.2-.3-3.8-1.6-4.9-1.5-1.2-3.7-1.2-5.4.8-1.7,2.1-1.1,4.3.8,5.8.3.2.6.4.8.5l-1.8,1.7Z"/>
    <path d="M553.6,738.2c-2.4-.2-4.7-1.4-6.7-3.1-2.1-1.6-3.8-3.6-4.5-5.9-.6-2.1-.4-4.3,1.3-6.4,1.6-2.1,3.7-2.8,5.9-2.6,2.4.2,4.7,1.4,6.7,3.1,2.1,1.6,3.8,3.6,4.5,5.9.6,2.1.4,4.3-1.3,6.4-1.6,2.1-3.7,2.8-5.9,2.6ZM558.8,730.7c-.2-1.9-1.7-3.7-4-5.5-2.3-1.8-4.4-2.8-6.2-2.7-1.1,0-2.2.6-3.1,1.7-.9,1.1-1.1,2.3-1,3.4.2,1.9,1.7,3.7,4,5.5,2.3,1.8,4.4,2.8,6.2,2.7,1.1,0,2.2-.6,3.1-1.7.9-1.1,1.1-2.3,1-3.4Z"/>
    <path d="M556.1,718.7c-.2-.1-.5-.3-.7-.5-2.6-2.1-3.3-5.8-.7-9,2.5-3.1,6.1-3.3,8.6-1.3,2,1.6,2.7,4,2.4,6.6l-.5,4.7c-.1,1.4,0,2.9.9,3.9l6.4-8.1,1.8,1.4-8.4,10.4c-2.3-1.9-3.4-4.4-3-8l.4-4.1c.2-2.2-.3-3.8-1.6-4.9-1.5-1.2-3.7-1.2-5.4.8-1.6,2.1-1.1,4.3.8,5.8.3.2.6.4.8.5l-1.8,1.7Z"/>
    <path d="M572.7,708.8c2.1,1.4,4.6,1,6.2-1,1.6-2,1.5-4.6-.5-6.2-2.2-1.7-4.7-1.1-6.2.8-.9,1.1-1.4,2.6-1.1,4l-2.3,1.3-6-8,6.3-7.8,1.8,1.4-5.2,6.6,3.8,5.1c-.2-1.4.4-3.1,1.4-4.2,2.4-3,6.1-3.6,9.1-1.1,2.8,2.3,3.4,6.3.7,9.6-2.5,3.1-6.3,3.6-8.9,1.9l1-2.3Z"/>
  </g>
  <g class="st9">
    <path d="M621.6,746.9c-.2-.1-.5-.3-.7-.5-2.6-2.1-3.3-5.8-.7-9,2.5-3.1,6.1-3.3,8.6-1.3,2,1.6,2.7,4,2.4,6.6l-.5,4.7c-.1,1.4,0,2.9.9,3.9l6.4-8.1,1.8,1.4-8.4,10.4c-2.3-1.9-3.4-4.4-3-8l.4-4.1c.2-2.2-.3-3.8-1.6-4.9-1.5-1.2-3.7-1.2-5.4.8-1.6,2.1-1.1,4.3.8,5.8.3.2.6.4.8.5l-1.8,1.7Z"/>
    <path d="M640.9,739.2c-2.4-.2-4.7-1.4-6.7-3.1s-3.8-3.6-4.5-5.9c-.6-2.1-.4-4.3,1.3-6.4,1.7-2.1,3.7-2.8,5.9-2.6,2.4.2,4.7,1.4,6.7,3.1s3.8,3.6,4.5,5.9c.6,2.1.4,4.3-1.3,6.4-1.6,2.1-3.7,2.8-5.9,2.6ZM646.1,731.7c-.2-1.9-1.7-3.7-4-5.5s-4.4-2.8-6.2-2.7c-1.1,0-2.2.6-3.1,1.7-.9,1.1-1.1,2.3-1,3.4.2,1.9,1.7,3.7,4,5.5,2.3,1.8,4.4,2.8,6.2,2.7,1.1,0,2.2-.6,3.1-1.7.9-1.1,1.1-2.3,1-3.4Z"/>
    <path d="M643.4,719.8c-.2-.1-.5-.3-.7-.5-2.6-2.1-3.3-5.8-.7-9,2.5-3.1,6.1-3.3,8.6-1.3,2,1.6,2.7,4,2.4,6.6l-.5,4.7c-.1,1.4,0,2.9.9,3.9l6.4-8.1,1.8,1.4-8.4,10.4c-2.3-1.9-3.4-4.4-3-8l.4-4.1c.2-2.2-.3-3.8-1.6-4.9-1.5-1.2-3.7-1.2-5.4.8-1.6,2.1-1.1,4.3.8,5.8.3.2.6.4.8.5l-1.8,1.7Z"/>
    <path d="M658.7,694.3c-.8.3-2,1-2.9,2.2-2.8,3.5-1.6,7.7,1.7,10.5-.8-1.6-.7-4,1-6.1,2.4-3,6.1-3.6,9.3-1,3.2,2.5,3.1,6.7.7,9.7-2.4,3-6.9,4.1-11.7.2-5.7-4.6-6-10.4-2.6-14.7,1.1-1.4,2.4-2.3,3.5-2.6l1.1,1.9ZM666.8,708.1c1.5-1.9,1.5-4.6-.6-6.3-2.2-1.7-4.8-1.2-6.3.7s-1.5,4.6.7,6.3c2.1,1.7,4.8,1,6.2-.8Z"/>
  </g>
  <g class="st9">
    <path d="M702.7,741.8c-.2-.1-.5-.3-.7-.5-2.6-2.1-3.3-5.8-.7-9,2.5-3.1,6.1-3.3,8.6-1.3,2,1.6,2.7,4,2.4,6.6l-.5,4.7c-.1,1.4,0,2.9.9,3.9l6.4-8.1,1.8,1.4-8.4,10.4c-2.3-1.9-3.4-4.4-3-8l.4-4.1c.2-2.2-.3-3.8-1.6-4.9-1.5-1.2-3.7-1.2-5.4.8-1.6,2.1-1.1,4.3.8,5.8.3.2.6.4.8.5l-1.8,1.7Z"/>
    <path d="M722,734.1c-2.4-.2-4.7-1.4-6.7-3.1-2.1-1.6-3.8-3.6-4.5-5.9-.6-2.1-.4-4.3,1.3-6.4,1.6-2.1,3.7-2.8,5.9-2.6,2.4.2,4.7,1.4,6.7,3.1,2.1,1.7,3.8,3.6,4.5,5.9.6,2.1.4,4.3-1.3,6.4s-3.7,2.8-5.9,2.6ZM727.2,726.6c-.2-1.9-1.7-3.7-4-5.5-2.3-1.8-4.4-2.8-6.2-2.7-1.1,0-2.2.6-3.1,1.7-.9,1.1-1.1,2.3-1,3.4.2,1.9,1.7,3.7,4,5.5s4.4,2.8,6.2,2.7c1.1,0,2.2-.6,3.1-1.7.9-1.1,1.1-2.3,1-3.4Z"/>
    <path d="M724.5,714.7c-.2-.1-.5-.3-.7-.5-2.6-2.1-3.3-5.8-.7-9,2.5-3.1,6.1-3.3,8.6-1.3,2,1.6,2.7,4,2.4,6.6l-.5,4.7c-.1,1.4,0,2.9.9,3.9l6.4-8.1,1.8,1.4-8.4,10.4c-2.3-1.9-3.4-4.4-3-8l.4-4.1c.2-2.2-.3-3.8-1.6-4.9-1.5-1.2-3.7-1.2-5.4.8-1.6,2.1-1.1,4.3.8,5.8.3.2.6.4.8.5l-1.8,1.7Z"/>
    <path d="M739.7,688.8c.2,3.4,1,10.4,8,17.2l-1.6,2c-7.8-7.4-8.2-15.6-8.3-17.1l-7,8.8-1.8-1.4,8.8-11,1.9,1.5Z"/>
  </g>
  <g class="st9">
    <path d="M785.1,746.4c-.2-.1-.5-.3-.7-.5-2.6-2.1-3.3-5.8-.7-9,2.5-3.1,6.1-3.3,8.6-1.3,2,1.6,2.7,4,2.4,6.6l-.5,4.7c-.1,1.4,0,2.9.9,3.9l6.4-8.1,1.8,1.4-8.4,10.4c-2.3-1.9-3.4-4.4-3-8l.4-4.1c.2-2.2-.3-3.8-1.6-4.9-1.5-1.2-3.7-1.2-5.4.8-1.6,2.1-1.1,4.3.8,5.8.3.2.6.4.8.5l-1.8,1.7Z"/>
    <path d="M804.4,738.7c-2.4-.2-4.7-1.4-6.7-3.1-2.1-1.7-3.8-3.6-4.5-5.9-.6-2.1-.4-4.3,1.3-6.4,1.7-2.1,3.7-2.8,5.9-2.6,2.4.2,4.7,1.4,6.7,3.1,2.1,1.6,3.8,3.6,4.5,5.9.6,2.1.4,4.3-1.3,6.4-1.6,2.1-3.7,2.8-5.9,2.6ZM809.6,731.2c-.2-1.9-1.7-3.7-4-5.5-2.3-1.8-4.4-2.8-6.2-2.7-1.1,0-2.2.6-3.1,1.7-.9,1.1-1.1,2.3-1,3.4.2,1.9,1.7,3.7,4,5.5s4.4,2.8,6.2,2.7c1.1,0,2.2-.6,3.1-1.7.9-1.1,1.1-2.3,1-3.4Z"/>
    <path d="M806.9,719.3c-.2-.1-.5-.3-.7-.5-2.6-2.1-3.3-5.8-.7-9,2.5-3.1,6.1-3.3,8.6-1.3,2,1.6,2.7,4,2.4,6.6l-.5,4.7c-.1,1.4,0,2.9.9,3.9l6.4-8.1,1.8,1.4-8.4,10.4c-2.3-1.9-3.4-4.4-3-8l.4-4.1c.2-2.2-.3-3.8-1.6-4.9-1.5-1.2-3.7-1.2-5.4.8-1.6,2.1-1.1,4.3.8,5.8.3.2.6.4.8.5l-1.8,1.7Z"/>
    <path d="M823,711.3c-1.9-1.5-2.2-3.9-1.4-6-1.7,1.1-4,1.1-5.7-.3-2.4-1.9-2.4-5.4-.1-8.4s5.8-3.6,8.2-1.7c1.7,1.3,2.2,3.6,1.5,5.5,1.9-1.3,4.3-1.5,6.2,0,2.4,1.9,2.7,5.4,0,8.9s-6.3,3.9-8.6,2ZM822.6,697c-1.5-1.2-3.6-.9-5.1,1-1.5,1.9-1.3,4,.1,5.2,1.6,1.3,3.7.8,5.1-1,1.4-1.8,1.4-4-.2-5.2ZM830,702.4c-1.5-1.2-3.8-1-5.6,1.2-1.8,2.2-1.5,4.5,0,5.7,1.5,1.2,3.8,1,5.5-1.2,1.7-2.2,1.5-4.4,0-5.7Z"/>
  </g>
  <g class="st9">
    <path d="M872.3,750.3c-.2-.1-.5-.3-.7-.5-2.6-2.1-3.3-5.8-.7-9,2.5-3.1,6.1-3.3,8.6-1.3,2,1.6,2.7,4,2.4,6.6l-.5,4.7c-.1,1.4,0,2.9.9,3.9l6.4-8.1,1.8,1.4-8.4,10.4c-2.3-1.9-3.4-4.4-3-8l.4-4.1c.2-2.2-.3-3.8-1.6-4.9-1.5-1.2-3.7-1.2-5.4.8-1.6,2.1-1.1,4.3.8,5.8.3.2.6.4.8.5l-1.8,1.7Z"/>
    <path d="M891.7,742.6c-2.4-.2-4.7-1.4-6.7-3.1-2.1-1.6-3.8-3.6-4.5-5.9-.6-2.1-.4-4.3,1.3-6.4,1.7-2.1,3.7-2.8,5.9-2.6,2.4.2,4.7,1.4,6.7,3.1,2.1,1.7,3.8,3.6,4.5,5.9.6,2.1.4,4.3-1.3,6.4-1.6,2.1-3.7,2.8-5.9,2.6ZM896.8,735.1c-.2-1.9-1.7-3.7-4-5.5-2.3-1.8-4.4-2.8-6.2-2.7-1.1,0-2.2.6-3.1,1.7-.9,1.1-1.1,2.3-1,3.4.2,1.9,1.7,3.7,4,5.5,2.3,1.8,4.4,2.8,6.2,2.7,1.1,0,2.2-.6,3.1-1.7.9-1.1,1.1-2.3,1-3.4Z"/>
    <path d="M894.1,723.2c-.2-.1-.5-.3-.7-.5-2.6-2.1-3.3-5.8-.7-9,2.5-3.1,6.1-3.3,8.6-1.3,2,1.6,2.7,4,2.4,6.6l-.5,4.7c-.1,1.4,0,2.9.9,3.9l6.4-8.1,1.8,1.4-8.4,10.4c-2.3-1.9-3.4-4.4-3-8l.4-4.1c.2-2.2-.3-3.8-1.6-4.9-1.5-1.2-3.7-1.2-5.4.8-1.7,2.1-1.1,4.3.8,5.8.3.2.6.4.8.5l-1.8,1.7Z"/>
    <path d="M912.7,715.8c1-.3,2.3-1.2,3.1-2.2,3-3.7,1.8-7.3-1.8-10.4.8,1.6.7,3.9-1,6-2.1,2.6-6,3.7-9.3,1.1-3.1-2.5-3.1-6.7-.8-9.6,2.5-3.1,7-4,11.6-.2,5.4,4.3,7,9.4,2.9,14.5-1,1.2-2.6,2.5-3.8,2.8l-1.1-2ZM904.7,702c-1.5,1.8-1.5,4.6.7,6.3,2.2,1.7,4.8,1.1,6.3-.8,1.5-1.9,1.5-4.6-.6-6.3-2.1-1.7-4.8-1.1-6.3.8Z"/>
  </g>
  <g>
    <path d="M363.5,867c-.5-2.4-2.2-4.6-5.8-4.6s-5.4,1.9-5.4,4.7,1.3,3.6,3.8,4.2l3.6.8c3.7.9,6,3,6,6.4s-3.1,6.7-7.9,6.7-8.2-3.4-8.5-7.1l2-.6c.3,3.1,2.7,5.8,6.6,5.8s5.8-2,5.8-4.6-1.5-3.8-4.3-4.5l-3.6-.8c-3.2-.7-5.5-2.8-5.5-6.1s3.6-6.7,7.5-6.7,7.1,2.8,7.8,5.8l-1.9.7Z"/>
    <path d="M387.3,884.7l-14.4-21.2v21.2h-2.2v-23.8h3l13.7,20.3v-20.3h2.2v23.8h-2.3Z"/>
    <path d="M403.2,860.9c4.6,0,7.2,2.6,7.2,6.4s-1.5,4.5-3.6,5.2c2.6.6,4.4,3.1,4.4,5.8s-3,6.4-7.3,6.4h-7.5v-23.8h6.9ZM403.7,871.7c2.6,0,4.5-1.8,4.5-4.4s-1.9-4.6-5.3-4.6h-4.5v9h5.3ZM403.7,882.8c3.3,0,5.4-1.8,5.4-4.7s-2-4.6-4.9-4.6h-5.6v9.2h5.2Z"/>
    <path d="M415.6,876v-1.8h8.8v1.8h-8.8Z"/>
    <path d="M432,874.6v10.1h-2.2v-23.8h7.9c4.4,0,7.3,3,7.3,6.9s-2.9,6.9-7.3,6.9h-5.7ZM437.4,872.7c3.4,0,5.5-2,5.5-4.9s-2.1-5-5.5-5h-5.4v9.9h5.4Z"/>
    <path d="M456.6,870.7c-.4-.1-.9-.2-1.4-.2-2.7,0-4.7,1.7-4.7,5.4v8.7h-2v-16h2v3c1-2.3,2.8-3.2,4.9-3.2s.9,0,1.2.2v2.1Z"/>
    <path d="M458.2,876.7c0-5,3.5-8.4,8-8.4s8,3.4,8,8.4-3.5,8.4-8,8.4-8-3.5-8-8.4ZM466.1,883.3c3.1,0,5.9-2.5,5.9-6.6s-2.8-6.6-5.9-6.6-5.9,2.4-5.9,6.6,2.8,6.6,5.9,6.6Z"/>
    <path d="M479.2,885.1c.3,2.5,2.3,4.6,5.1,4.6,4.2,0,5.5-2.9,5.5-6.2v-3c-.7,1.6-2.5,3.3-5.4,3.3-4.2,0-7.2-3.3-7.2-7.8s2.9-7.8,7.2-7.8,4.6,1.5,5.4,3.1v-2.8h2v14.9c0,3.7-1.6,8-7.6,8s-6.7-2.6-7-5.9l1.9-.5ZM489.9,876.1c0-3.5-2.1-6-5.2-6s-5.4,2.5-5.4,6,2.2,6,5.4,6,5.2-2.6,5.2-6Z"/>
    <path d="M499.3,884.7h-2v-16h1.9v2.6c.9-1.7,2.8-3,5.2-3,3.8,0,5.7,2.7,5.7,6v10.4h-2v-10.1c0-2.5-1.2-4.5-4.3-4.5s-4.5,2.3-4.5,5v9.6Z"/>
    <path d="M514.2,876.7c0-5,3.5-8.4,8-8.4s8,3.4,8,8.4-3.5,8.4-8,8.4-8-3.5-8-8.4ZM522.1,883.3c3.1,0,5.9-2.5,5.9-6.6s-2.8-6.6-5.9-6.6-5.9,2.4-5.9,6.6,2.8,6.6,5.9,6.6Z"/>
    <path d="M534.9,879.9c.3,2,1.7,3.5,4.4,3.5s3.6-1.1,3.6-2.9-1-2.3-2.7-2.7l-2.6-.6c-2.4-.5-3.9-1.9-3.9-4.3s2.5-4.7,5.4-4.7,5.3,2.2,5.7,4.1l-1.8.7c-.3-1.5-1.4-3.1-4-3.1s-3.4,1.1-3.4,2.8.8,2.2,2.5,2.6l2.6.6c2.7.6,4.2,2.1,4.2,4.4s-2,4.7-5.6,4.7-5.9-2.5-6.2-4.6l1.8-.6Z"/>
    <path d="M562.8,880.2c-.9,2.7-3.3,5-7,5s-7.8-3.1-7.8-8.5,3.4-8.4,7.4-8.4,7.5,3.4,7.5,8.1,0,.5,0,.7h-12.8c0,3.8,2.6,6.2,5.7,6.2s4.6-1.7,5.2-3.8l1.8.6ZM560.8,875.4c-.1-3-2-5.3-5.3-5.3s-5.2,2.4-5.3,5.3h10.7Z"/>
    <path d="M575.8,891.1v-22.4h2v3.2c.8-1.6,2.6-3.6,5.8-3.6s7.3,3.7,7.3,8.4-2.8,8.5-7.3,8.5-4.9-1.8-5.7-3.5v9.4h-2ZM583.3,870c-3.4,0-5.5,2.9-5.5,6.6s2.2,6.7,5.5,6.7,5.6-2.9,5.6-6.7-2.2-6.6-5.6-6.6Z"/>
    <path d="M608.9,880.2c-.9,2.7-3.3,5-7,5s-7.8-3.1-7.8-8.5,3.4-8.4,7.4-8.4,7.5,3.4,7.5,8.1,0,.5,0,.7h-12.8c0,3.8,2.6,6.2,5.7,6.2s4.6-1.7,5.2-3.8l1.8.6ZM606.9,875.4c-.1-3-2-5.3-5.3-5.3s-5.2,2.4-5.3,5.3h10.7Z"/>
    <path d="M621.3,870.7c-.4-.1-.9-.2-1.4-.2-2.7,0-4.7,1.7-4.7,5.4v8.7h-2v-16h2v3c1-2.3,2.8-3.2,4.9-3.2s.9,0,1.2.2v2.1Z"/>
    <path d="M630,876.2l2.1-.5v1.9c0,3.5,1.8,5.6,4.8,5.6s4.7-2.1,4.7-5.5v-16.8h2.2v16.8c0,4.3-2.6,7.5-6.9,7.5s-7-2.9-7-7.4v-1.5Z"/>
    <path d="M660.2,882.2c-.8,1.6-2.5,2.9-5,2.9-4,0-6-3-6-6.4v-10.1h2v9.7c0,2.6,1.2,4.9,4.3,4.9s4.5-2.2,4.5-4.9v-9.8h2v13c0,1.2.1,2.4.2,3.1h-1.9c-.1-.4-.2-1.2-.2-2.3v-.2Z"/>
    <path d="M669.5,884.7h-2v-16h1.9v2.6c.9-1.7,2.8-3,5.2-3,3.8,0,5.7,2.7,5.7,6v10.4h-2v-10.1c0-2.5-1.2-4.5-4.3-4.5s-4.5,2.3-4.5,5v9.6Z"/>
    <path d="M686.5,860.3c.9,0,1.7.7,1.7,1.7s-.7,1.7-1.7,1.7-1.7-.7-1.7-1.7.7-1.7,1.7-1.7ZM685.5,884.7v-16h2v16h-2Z"/>
    <path d="M700.9,870.4c-.1-.3-.1-.8-.1-1,0-3.7,2.8-6.9,7.2-6.9s7,2.9,7,6.4-1.5,5.1-4.1,6.7l-4.7,3c-1.4.9-2.7,2.3-3,4.2h12v1.9h-14.5c0-3.1,1.3-5.7,4.5-7.8l4.2-2.7c2.3-1.4,3.4-3.1,3.4-5.2s-1.8-4.6-4.9-4.6-5.1,2.1-5.1,5.2,0,.7.1,1.1l-2.1-.3Z"/>
    <path d="M721.1,865.6c1.3-1.9,3.3-3.1,6.1-3.1s4.8,1.2,6.1,3.1c1.6,2.3,2.1,5.2,2.1,8.2s-.5,5.9-2.1,8.2c-1.3,1.9-3.3,3.1-6.1,3.1s-4.8-1.2-6.1-3.1c-1.6-2.3-2.1-5.2-2.1-8.2s.5-5.9,2.1-8.2ZM723.2,881.5c1,1,2.3,1.7,4,1.7s3-.7,4-1.7c1.6-1.7,2.2-4.5,2.2-7.7s-.6-6-2.2-7.7c-1-1-2.3-1.7-4-1.7s-3,.7-4,1.7c-1.6,1.7-2.2,4.5-2.2,7.7s.6,6,2.2,7.7Z"/>
    <path d="M739.4,870.4c-.1-.3-.1-.8-.1-1,0-3.7,2.8-6.9,7.2-6.9s7,2.9,7,6.4-1.5,5.1-4.1,6.7l-4.7,3c-1.4.9-2.7,2.3-3,4.2h12v1.9h-14.5c0-3.1,1.3-5.7,4.5-7.8l4.2-2.7c2.3-1.4,3.4-3.1,3.4-5.2s-1.8-4.6-4.9-4.6-5.1,2.1-5.1,5.2,0,.7.1,1.1l-2.1-.3Z"/>
    <path d="M772.1,865.4c-.9-.5-2.3-1.1-4.2-1.1-5.7,0-8.5,4.9-8.5,10.1h0c.6-2,3.2-4.1,6.5-4.1s7.4,2.9,7.4,7.4-3.6,7.4-7.7,7.4-8.2-3.5-8.2-10.2,4.9-12.5,10.7-12.5,3.7.5,4.7,1.2l-.6,1.7ZM765.6,883.3c3,0,5.6-2.2,5.6-5.5s-2.6-5.5-5.6-5.5-5.6,2.2-5.6,5.5,2.6,5.5,5.6,5.5Z"/>
  </g>
  <g>
    <path d="M363.5,828.3c-.5-2.4-2.2-4.6-5.8-4.6s-5.4,1.9-5.4,4.7,1.3,3.6,3.8,4.2l3.6.8c3.7.9,6,3,6,6.4s-3.1,6.7-7.9,6.7-8.2-3.4-8.5-7.1l2-.6c.3,3.1,2.7,5.8,6.6,5.8s5.8-2,5.8-4.6-1.5-3.8-4.3-4.5l-3.6-.8c-3.2-.7-5.5-2.8-5.5-6.1s3.6-6.7,7.5-6.7,7.1,2.8,7.8,5.8l-1.9.7Z"/>
    <path d="M387.3,846l-14.4-21.2v21.2h-2.2v-23.8h3l13.7,20.3v-20.3h2.2v23.8h-2.3Z"/>
    <path d="M403.2,822.2c4.6,0,7.2,2.6,7.2,6.4s-1.5,4.5-3.6,5.2c2.6.6,4.4,3.1,4.4,5.8s-3,6.4-7.3,6.4h-7.5v-23.8h6.9ZM403.7,833.1c2.6,0,4.5-1.8,4.5-4.4s-1.9-4.6-5.3-4.6h-4.5v9h5.3ZM403.7,844.1c3.3,0,5.4-1.8,5.4-4.7s-2-4.6-4.9-4.6h-5.6v9.2h5.2Z"/>
    <path d="M415.6,837.3v-1.8h8.8v1.8h-8.8Z"/>
    <path d="M432,835.9v10.1h-2.2v-23.8h7.9c4.4,0,7.3,3,7.3,6.9s-2.9,6.9-7.3,6.9h-5.7ZM437.4,834c3.4,0,5.5-2,5.5-4.9s-2.1-5-5.5-5h-5.4v9.9h5.4Z"/>
    <path d="M456.6,832.1c-.4-.1-.9-.2-1.4-.2-2.7,0-4.7,1.7-4.7,5.4v8.7h-2v-16h2v3c1-2.3,2.8-3.2,4.9-3.2s.9,0,1.2.2v2.1Z"/>
    <path d="M458.2,838c0-5,3.5-8.4,8-8.4s8,3.4,8,8.4-3.5,8.4-8,8.4-8-3.5-8-8.4ZM466.1,844.7c3.1,0,5.9-2.5,5.9-6.6s-2.8-6.6-5.9-6.6-5.9,2.4-5.9,6.6,2.8,6.6,5.9,6.6Z"/>
    <path d="M479.2,846.5c.3,2.5,2.3,4.6,5.1,4.6,4.2,0,5.5-2.9,5.5-6.2v-3c-.7,1.6-2.5,3.3-5.4,3.3-4.2,0-7.2-3.3-7.2-7.8s2.9-7.8,7.2-7.8,4.6,1.5,5.4,3.1v-2.8h2v14.9c0,3.7-1.6,8-7.6,8s-6.7-2.6-7-5.9l1.9-.5ZM489.9,837.4c0-3.5-2.1-6-5.2-6s-5.4,2.5-5.4,6,2.2,6,5.4,6,5.2-2.6,5.2-6Z"/>
    <path d="M499.3,846h-2v-16h1.9v2.6c.9-1.7,2.8-3,5.2-3,3.8,0,5.7,2.7,5.7,6v10.4h-2v-10.1c0-2.5-1.2-4.5-4.3-4.5s-4.5,2.3-4.5,5v9.6Z"/>
    <path d="M514.2,838c0-5,3.5-8.4,8-8.4s8,3.4,8,8.4-3.5,8.4-8,8.4-8-3.5-8-8.4ZM522.1,844.7c3.1,0,5.9-2.5,5.9-6.6s-2.8-6.6-5.9-6.6-5.9,2.4-5.9,6.6,2.8,6.6,5.9,6.6Z"/>
    <path d="M534.9,841.2c.3,2,1.7,3.5,4.4,3.5s3.6-1.1,3.6-2.9-1-2.3-2.7-2.7l-2.6-.6c-2.4-.5-3.9-1.9-3.9-4.3s2.5-4.7,5.4-4.7,5.3,2.2,5.7,4.1l-1.8.7c-.3-1.5-1.4-3.1-4-3.1s-3.4,1.1-3.4,2.8.8,2.2,2.5,2.6l2.6.6c2.7.6,4.2,2.1,4.2,4.4s-2,4.7-5.6,4.7-5.9-2.5-6.2-4.6l1.8-.6Z"/>
    <path d="M562.8,841.5c-.9,2.7-3.3,5-7,5s-7.8-3.1-7.8-8.5,3.4-8.4,7.4-8.4,7.5,3.4,7.5,8.1,0,.5,0,.7h-12.8c0,3.8,2.6,6.2,5.7,6.2s4.6-1.7,5.2-3.8l1.8.6ZM560.8,836.7c-.1-3-2-5.3-5.3-5.3s-5.2,2.4-5.3,5.3h10.7Z"/>
    <path d="M575.8,852.4v-22.4h2v3.2c.8-1.6,2.6-3.6,5.8-3.6s7.3,3.7,7.3,8.4-2.8,8.5-7.3,8.5-4.9-1.8-5.7-3.5v9.4h-2ZM583.3,831.4c-3.4,0-5.5,2.9-5.5,6.6s2.2,6.7,5.5,6.7,5.6-2.9,5.6-6.7-2.2-6.6-5.6-6.6Z"/>
    <path d="M608.9,841.5c-.9,2.7-3.3,5-7,5s-7.8-3.1-7.8-8.5,3.4-8.4,7.4-8.4,7.5,3.4,7.5,8.1,0,.5,0,.7h-12.8c0,3.8,2.6,6.2,5.7,6.2s4.6-1.7,5.2-3.8l1.8.6ZM606.9,836.7c-.1-3-2-5.3-5.3-5.3s-5.2,2.4-5.3,5.3h10.7Z"/>
    <path d="M621.3,832.1c-.4-.1-.9-.2-1.4-.2-2.7,0-4.7,1.7-4.7,5.4v8.7h-2v-16h2v3c1-2.3,2.8-3.2,4.9-3.2s.9,0,1.2.2v2.1Z"/>
    <path d="M655.9,846v-20.6l-9.3,20.6h-2l-9.3-20.6v20.6h-2.2v-23.8h3l9.5,21,9.5-21h3v23.8h-2.2Z"/>
    <path d="M662.7,841.9c0-2.7,1.8-4.3,4.8-4.7l4.3-.6c1.4-.2,1.7-.8,1.7-1.5,0-2.2-1.4-3.6-4-3.6s-4.2,1.4-4.5,3.7l-1.9-.4c.4-3.1,2.9-5.1,6.4-5.1s6.1,2.5,6.1,5.6v8.1c0,1.3.1,2.1.2,2.8h-2c-.1-.4-.2-1.4-.2-2.8-.7,1.5-2.7,3.2-5.6,3.2s-5.2-2.2-5.2-4.5ZM673.4,839.5v-1.8c-.1.1-.5.3-1.2.4l-4.5.7c-1.9.3-3.1,1.3-3.1,3.1s1.2,2.9,3.4,2.9,5.3-2,5.3-5.2ZM666.4,824.1c.8,0,1.4.6,1.4,1.4s-.6,1.4-1.4,1.4-1.4-.6-1.4-1.4.6-1.4,1.4-1.4ZM672.4,824.1c.8,0,1.4.6,1.4,1.4s-.6,1.4-1.4,1.4-1.4-.6-1.4-1.4.6-1.4,1.4-1.4Z"/>
    <path d="M688.8,832.1c-.4-.1-.9-.2-1.4-.2-2.7,0-4.7,1.7-4.7,5.4v8.7h-2v-16h2v3c1-2.3,2.8-3.2,4.9-3.2s.9,0,1.2.2v2.1Z"/>
    <path d="M690.7,846v-1.8l10.1-12.4h-10v-1.8h12.5v1.8l-10.1,12.4h10.2v1.8h-12.7Z"/>
    <path d="M715.6,831.7c-.1-.3-.1-.8-.1-1,0-3.7,2.8-6.9,7.2-6.9s7,2.9,7,6.4-1.5,5.1-4.1,6.7l-4.7,3c-1.4.9-2.7,2.3-3,4.2h12v1.9h-14.5c0-3.1,1.3-5.7,4.5-7.8l4.2-2.7c2.3-1.4,3.4-3.1,3.4-5.2s-1.8-4.6-4.9-4.6-5.1,2.1-5.1,5.2,0,.7.1,1.1l-2.1-.3Z"/>
    <path d="M735.8,826.9c1.3-1.9,3.3-3.1,6.1-3.1s4.8,1.2,6.1,3.1c1.6,2.3,2.1,5.2,2.1,8.2s-.5,5.9-2.1,8.2c-1.3,1.9-3.3,3.1-6.1,3.1s-4.8-1.2-6.1-3.1c-1.6-2.3-2.1-5.2-2.1-8.2s.5-5.9,2.1-8.2ZM737.9,842.9c1,1,2.3,1.7,4,1.7s3-.7,4-1.7c1.6-1.7,2.2-4.5,2.2-7.7s-.6-6-2.2-7.7c-1-1-2.3-1.7-4-1.7s-3,.7-4,1.7c-1.6,1.7-2.2,4.5-2.2,7.7s.6,6,2.2,7.7Z"/>
    <path d="M754.1,831.7c-.1-.3-.1-.8-.1-1,0-3.7,2.8-6.9,7.2-6.9s7,2.9,7,6.4-1.5,5.1-4.1,6.7l-4.7,3c-1.4.9-2.7,2.3-3,4.2h12v1.9h-14.5c0-3.1,1.3-5.7,4.5-7.8l4.2-2.7c2.3-1.4,3.4-3.1,3.4-5.2s-1.8-4.6-4.9-4.6-5.1,2.1-5.1,5.2,0,.7.1,1.1l-2.1-.3Z"/>
    <path d="M786.8,826.8c-.9-.5-2.3-1.1-4.2-1.1-5.7,0-8.5,4.9-8.5,10.1h0c.6-2,3.2-4.1,6.5-4.1s7.4,2.9,7.4,7.4-3.6,7.4-7.7,7.4-8.2-3.5-8.2-10.2,4.9-12.5,10.7-12.5,3.7.5,4.7,1.2l-.6,1.7ZM780.3,844.6c3,0,5.6-2.2,5.6-5.5s-2.6-5.5-5.6-5.5-5.6,2.2-5.6,5.5,2.6,5.5,5.6,5.5Z"/>
  </g>
  <g>
    <path d="M351.2,807.3v-23.8h2.2v21.9h12v1.9h-14.2Z"/>
    <path d="M369.4,807.3v-23.8h2.2v23.8h-2.2Z"/>
    <path d="M384.6,795.6l-4.1,4.4v7.4h-2.2v-23.8h2.2v13.6l12.6-13.6h2.8l-9.9,10.6,10,13.2h-2.7l-8.8-11.7Z"/>
  </g>
  <line class="st1" x1="266" y1="874.7" x2="339.7" y2="874.7"/>
  <line class="st8" x1="266" y1="836" x2="339.7" y2="836"/>
  <line class="st5" x1="266" y1="797.4" x2="339.7" y2="797.4"/>
</svg>