<?xml version="1.0" encoding="UTF-8"?>
<svg id="Layer_1" xmlns="http://www.w3.org/2000/svg" xmlns:xlink="http://www.w3.org/1999/xlink" version="1.1" viewBox="0 0 1127.4 1015.4">
  <!-- Generator: Adobe Illustrator 30.5.1, SVG Export Plug-In . SVG Version: 2.1.4 Build 3)  -->
  <defs>
    <style>
      .st0, .st1, .st2, .st3, .st4, .st5, .st6, .st7, .st8, .st9, .st10, .st11, .st12, .st13 {
        fill: none;
      }

      .st1 {
        stroke: #d9d9d9;
      }

      .st1, .st2, .st3, .st4, .st5, .st6, .st7, .st8, .st9, .st10, .st11, .st12, .st13 {
        stroke-linejoin: round;
      }

      .st2, .st3, .st4, .st5, .st6, .st7, .st8, .st10, .st11, .st13 {
        stroke-linecap: round;
      }

      .st2, .st4, .st6, .st7 {
        stroke-width: 4px;
      }

      .st2, .st11 {
        stroke: #bb4d9b;
      }

      .st3, .st5, .st8, .st11, .st13 {
        stroke-width: 1.8px;
      }

      .st3, .st7 {
        opacity: .7;
        stroke: #00a6bb;
      }

      .st4, .st8 {
        stroke: #002237;
      }

      .st5, .st10 {
        stroke: #e45974;
      }

      .st6, .st13 {
        stroke: #4bb380;
      }

      .st14 {
        isolation: isolate;
      }

      .st15 {
        fill: #f5f6f8;
      }

      .st9 {
        stroke: #d9d9d9;
        stroke-width: 2px;
      }

      .st10 {
        stroke-width: 5px;
      }

      .st12 {
        stroke: #a6a6a6;
        stroke-width: 3px;
      }
    </style>
    <clipPath id="clippath">
      <rect class="st0" x="17.5" y="219.5" width="1067.9" height="649.1"/>
    </clipPath>
  </defs>
  <rect class="st15" x="-14.1" y="-14.6" width="1155.6" height="1039.7"/>
  <g>
    <path d="M47.9,60.6c-.2-1.3-1.3-3.4-4.4-3.4s-3.8,1.5-3.8,3.1.9,2.4,2.6,2.7l3.4.6c4.4.9,6.7,3.7,6.7,7.1s-3.1,7.4-8.7,7.4-9.2-4.1-9.6-7.5l4.4-1.2c.2,2.4,1.9,4.5,5.3,4.5s3.9-1.3,3.9-3-1.1-2.5-2.9-2.9l-3.4-.7c-3.8-.8-6.3-3.3-6.3-6.9s3.8-7.5,8.4-7.5,8.1,3.5,8.6,6.3l-4.2,1.3Z"/>
    <path d="M59.6,69.3c0,3,2,4.7,4.3,4.7s3.5-1.5,3.8-2.8l4,1.3c-.7,2.8-3.4,5.6-7.8,5.6s-8.8-3.7-8.8-8.9,3.8-8.9,8.7-8.9,7.1,2.8,7.9,5.6l-4,1.4c-.4-1.4-1.5-2.8-3.7-2.8s-4.2,1.7-4.2,4.7Z"/>
    <path d="M79.6,77.6h-4.5v-24.6h4.5v9.3c1.1-1.3,2.9-1.8,4.5-1.8,4.2,0,6.2,3,6.2,6.6v10.5h-4.5v-9.8c0-1.9-.9-3.3-3.1-3.3s-3,1.4-3.1,3.3v9.8Z"/>
    <path d="M109.1,60.9l3.6,10.8,3.1-10.8h4.5l-5.2,16.7h-4.5l-3.9-11.4-3.8,11.4h-4.6l-5.3-16.7h4.8l3.1,10.7,3.6-10.7h4.8Z"/>
    <path d="M138.1,72.8c-.8,2.9-3.5,5.3-7.6,5.3s-8.6-3.3-8.6-8.9,3.9-8.8,8.2-8.8,8.3,3.3,8.3,8.7,0,1.3,0,1.4h-12c.1,2.2,2,3.8,4.2,3.8s3.3-1.1,3.8-2.5l3.8,1.1ZM133.9,67.4c0-1.7-1.2-3.3-3.7-3.3s-3.6,1.8-3.7,3.3h7.5Z"/>
    <path d="M144.2,52.6c1.6,0,2.8,1.3,2.8,2.8s-1.2,2.8-2.8,2.8-2.8-1.3-2.8-2.8,1.3-2.8,2.8-2.8ZM142,77.6v-16.7h4.5v16.7h-4.5Z"/>
    <path d="M150.3,77.6v-4l7.9-8.8h-7.7v-3.9h13.5v3.8l-8.2,9h8.3v3.9h-13.8Z"/>
    <path d="M183.1,72.8c-.8,2.9-3.5,5.3-7.6,5.3s-8.6-3.3-8.6-8.9,3.9-8.8,8.2-8.8,8.3,3.3,8.3,8.7,0,1.3,0,1.4h-12c.1,2.2,2,3.8,4.2,3.8s3.3-1.1,3.8-2.5l3.8,1.1ZM178.8,67.4c0-1.7-1.2-3.3-3.7-3.3s-3.6,1.8-3.7,3.3h7.5Z"/>
    <path d="M197.1,65.4c-.5-.1-1-.1-1.4-.1-2.3,0-4.3,1.1-4.3,4.7v7.6h-4.5v-16.7h4.4v2.5c1-2.2,3.3-2.6,4.8-2.6s.7,0,1.1,0v4.6Z"/>
    <path d="M206.6,77.6v-4.6l12.5-15.1h-12.1v-4.5h18.4v4.4l-12.7,15.2h12.9v4.5h-19Z"/>
    <path d="M231.6,52.6c1.6,0,2.8,1.3,2.8,2.8s-1.2,2.8-2.8,2.8-2.8-1.3-2.8-2.8,1.3-2.8,2.8-2.8ZM229.4,77.6v-16.7h4.5v16.7h-4.5Z"/>
    <path d="M243,77.6h-4.5v-16.7h4.4v2.1c1-1.7,3-2.5,4.8-2.5,4.1,0,6.1,3,6.1,6.6v10.5h-4.5v-9.8c0-1.9-.9-3.3-3.1-3.3s-3.1,1.5-3.1,3.5v9.6Z"/>
    <path d="M261,72.1c.1,1.3,1.1,2.5,3.1,2.5s2.2-.8,2.2-1.7-.5-1.4-1.8-1.6l-2.2-.5c-3.2-.7-4.7-2.7-4.7-5s2.7-5.5,6.3-5.5,6.4,3,6.6,4.8l-3.8.9c-.1-1-.8-2.2-2.8-2.2s-2.1.7-2.1,1.7.6,1.3,1.5,1.5l2.4.5c3.3.7,5,2.7,5,5.1s-2.1,5.5-6.5,5.5-6.8-3.3-7-5.2l3.9-.8Z"/>
    <path d="M289.5,72.8c-.8,2.9-3.5,5.3-7.6,5.3s-8.6-3.3-8.6-8.9,3.9-8.8,8.2-8.8,8.3,3.3,8.3,8.7,0,1.3,0,1.4h-12c.1,2.2,2,3.8,4.2,3.8s3.3-1.1,3.8-2.5l3.8,1.1ZM285.3,67.4c0-1.7-1.2-3.3-3.7-3.3s-3.6,1.8-3.7,3.3h7.5Z"/>
    <path d="M297.9,77.6h-4.5v-16.7h4.4v2.1c1-1.7,3-2.5,4.8-2.5,4.1,0,6.1,3,6.1,6.6v10.5h-4.5v-9.8c0-1.9-.9-3.3-3.1-3.3s-3.1,1.5-3.1,3.5v9.6Z"/>
    <path d="M321.2,77.6v-24.6h4.5v9.7c.7-1.2,2.6-2.3,5.1-2.3,4.9,0,7.7,3.8,7.7,8.7s-3.1,8.8-7.9,8.8-4.1-1-5-2.4v2h-4.4ZM329.7,64.5c-2.3,0-4.2,1.7-4.2,4.7s1.9,4.8,4.2,4.8,4.1-1.7,4.1-4.8-1.8-4.7-4.1-4.7Z"/>
    <path d="M342,77.6v-24.6h4.5v24.6h-4.5Z"/>
    <path d="M366.4,72.8c-.8,2.9-3.5,5.3-7.6,5.3s-8.6-3.3-8.6-8.9,3.9-8.8,8.2-8.8,8.3,3.3,8.3,8.7,0,1.3,0,1.4h-12c.1,2.2,2,3.8,4.2,3.8s3.3-1.1,3.8-2.5l3.8,1.1ZM362.2,67.4c0-1.7-1.2-3.3-3.7-3.3s-3.6,1.8-3.7,3.3h7.5Z"/>
    <path d="M372.6,52.6c1.6,0,2.8,1.3,2.8,2.8s-1.2,2.8-2.8,2.8-2.8-1.3-2.8-2.8,1.3-2.8,2.8-2.8ZM370.3,77.6v-16.7h4.5v16.7h-4.5Z"/>
    <path d="M379.5,77.6v-24.6h4.5v9.7c.7-1.2,2.6-2.3,5.1-2.3,4.9,0,7.7,3.8,7.7,8.7s-3.1,8.8-7.9,8.8-4.1-1-5-2.4v2h-4.4ZM388,64.5c-2.3,0-4.2,1.7-4.2,4.7s1.9,4.8,4.2,4.8,4.1-1.7,4.1-4.8-1.8-4.7-4.1-4.7Z"/>
    <path d="M415.6,72.8c-.8,2.9-3.5,5.3-7.6,5.3s-8.6-3.3-8.6-8.9,3.9-8.8,8.2-8.8,8.3,3.3,8.3,8.7,0,1.3,0,1.4h-12c.1,2.2,2,3.8,4.2,3.8s3.3-1.1,3.8-2.5l3.8,1.1ZM411.4,67.4c0-1.7-1.2-3.3-3.7-3.3s-3.6,1.8-3.7,3.3h7.5Z"/>
    <path d="M424,77.6h-4.5v-16.7h4.4v2.1c1-1.7,3-2.5,4.8-2.5,4.1,0,6.1,3,6.1,6.6v10.5h-4.5v-9.8c0-1.9-.9-3.3-3.1-3.3s-3.1,1.5-3.1,3.5v9.6Z"/>
    <path d="M451.3,68l4.1-.6c1-.1,1.3-.6,1.3-1.2,0-1.2-.9-2.2-2.8-2.2s-3.1,1.3-3.2,2.7l-4-.9c.3-2.6,2.7-5.5,7.2-5.5s7.3,3,7.3,6.4v8.2c0,.9.1,2.1.2,2.7h-4.1c-.1-.4-.2-1.4-.2-2-.8,1.3-2.4,2.5-4.9,2.5-3.6,0-5.7-2.4-5.7-5s2.2-4.7,5-5.1ZM456.6,70.9v-.7l-3.8.6c-1.2.2-2.1.8-2.1,2.1s.7,1.9,2.2,1.9,3.7-.9,3.7-3.9Z"/>
    <path d="M476.4,75.8c-.9,1.6-2.9,2.2-4.6,2.2-4,0-6.4-3-6.4-6.6v-10.6h4.5v9.7c0,1.9,1,3.4,3.1,3.4s3.2-1.4,3.2-3.3v-9.7h4.5v13.7c0,1.3.1,2.4.2,3h-4.3c0-.3-.1-1.1-.1-1.8Z"/>
    <path d="M488.8,69.3c0,3,2,4.7,4.3,4.7s3.5-1.5,3.8-2.8l4,1.3c-.7,2.8-3.4,5.6-7.8,5.6s-8.8-3.7-8.8-8.9,3.8-8.9,8.7-8.9,7.1,2.8,7.9,5.6l-4,1.4c-.4-1.4-1.5-2.8-3.7-2.8s-4.2,1.7-4.2,4.7Z"/>
    <path d="M508.7,77.6h-4.5v-24.6h4.5v9.3c1.1-1.3,2.9-1.8,4.5-1.8,4.2,0,6.2,3,6.2,6.6v10.5h-4.5v-9.8c0-1.9-.9-3.3-3.1-3.3s-3,1.4-3.1,3.3v9.8Z"/>
    <path d="M536,68l4.1-.6c1-.1,1.3-.6,1.3-1.2,0-1.2-.9-2.2-2.8-2.2s-3.1,1.3-3.2,2.7l-4-.9c.3-2.6,2.7-5.5,7.2-5.5s7.3,3,7.3,6.4v8.2c0,.9.1,2.1.2,2.7h-4.1c-.1-.4-.2-1.4-.2-2-.9,1.3-2.4,2.5-4.9,2.5-3.6,0-5.7-2.4-5.7-5s2.2-4.7,5-5.1ZM541.3,70.9v-.7l-3.8.6c-1.2.2-2.1.8-2.1,2.1s.7,1.9,2.2,1.9,3.7-.9,3.7-3.9Z"/>
    <path d="M550.2,77.6v-16.7h4.3v2c.9-1.6,3.1-2.5,4.9-2.5s4.1,1,5,2.8c1.3-2,3.1-2.8,5.3-2.8s6.1,1.9,6.1,6.4v10.8h-4.4v-9.9c0-1.8-.9-3.2-3-3.2s-3.1,1.5-3.1,3.3v9.8h-4.5v-9.9c0-1.8-.9-3.2-3-3.2s-3.1,1.5-3.1,3.3v9.8h-4.5Z"/>
    <path d="M588.3,77.6v-24.6h4.5v24.6h-4.5Z"/>
    <path d="M601.5,68l4.1-.6c1-.1,1.3-.6,1.3-1.2,0-1.2-.9-2.2-2.8-2.2s-3.1,1.3-3.2,2.7l-4-.9c.3-2.6,2.7-5.5,7.2-5.5s7.3,3,7.3,6.4v8.2c0,.9.1,2.1.2,2.7h-4.1c-.1-.4-.2-1.4-.2-2-.8,1.3-2.4,2.5-4.9,2.5-3.6,0-5.7-2.4-5.7-5s2.2-4.7,5-5.1ZM606.8,70.9v-.7l-3.8.6c-1.2.2-2.1.8-2.1,2.1s.7,1.9,2.2,1.9,3.7-.9,3.7-3.9Z"/>
    <path d="M620.3,77.6h-4.5v-16.7h4.4v2.1c1-1.7,3-2.5,4.8-2.5,4.1,0,6.1,3,6.1,6.6v10.5h-4.5v-9.8c0-1.9-.9-3.3-3.1-3.3s-3.1,1.5-3.1,3.5v9.6Z"/>
    <path d="M638.5,77.5c.3,1.8,1.8,3.2,3.9,3.2s4.5-1.4,4.5-4.7v-1.2c-.7,1.1-2.2,2.1-4.7,2.1-4.5,0-7.8-3.4-7.8-8.1s3.2-8.2,7.8-8.2,4.2,1.2,4.8,2.3v-2h4.4v14.9c0,4.6-2.5,8.8-8.8,8.8s-7.6-2.9-8.1-6.1l4.1-1.1ZM647,68.8c0-2.6-1.8-4.2-3.9-4.2s-4,1.6-4,4.2,1.7,4.2,4,4.2,3.9-1.7,3.9-4.2Z"/>
    <path d="M671.3,72.8c-.8,2.9-3.5,5.3-7.6,5.3s-8.6-3.3-8.6-8.9,3.9-8.8,8.2-8.8,8.3,3.3,8.3,8.7,0,1.3,0,1.4h-12c.1,2.2,2,3.8,4.2,3.8s3.3-1.1,3.8-2.5l3.8,1.1ZM667,67.4c0-1.7-1.2-3.3-3.7-3.3s-3.6,1.8-3.7,3.3h7.5Z"/>
    <path d="M679.6,77.6h-4.5v-16.7h4.4v2.1c1-1.7,3-2.5,4.8-2.5,4.1,0,6.1,3,6.1,6.6v10.5h-4.5v-9.8c0-1.9-.9-3.3-3.1-3.3s-3.1,1.5-3.1,3.5v9.6Z"/>
    <path d="M703.4,77.6v-24.1h15.1v4.4h-10.4v5.5h9.4v4.2h-9.4v5.6h10.4v4.4h-15.1Z"/>
    <path d="M726.9,77.6h-4.5v-16.7h4.4v2.1c1-1.7,3-2.5,4.8-2.5,4.1,0,6.1,3,6.1,6.6v10.5h-4.5v-9.8c0-1.9-.9-3.3-3.1-3.3s-3.1,1.5-3.1,3.5v9.6Z"/>
    <path d="M758.3,74.6c0,1.1,0,2.3.1,3h-4.3c0-.3-.2-1.2-.2-1.9-.7,1.3-2.4,2.3-4.7,2.3-4.8,0-8.2-3.7-8.2-8.8s3.3-8.7,8-8.7,4.2,1.2,4.7,2.1v-9.6h4.5v21.6ZM749.8,74c2.3,0,4.1-1.8,4.1-4.8s-1.8-4.7-4.1-4.7-4.1,1.7-4.1,4.7,1.8,4.8,4.1,4.8Z"/>
    <path d="M778.2,72.8c-.8,2.9-3.5,5.3-7.6,5.3s-8.6-3.3-8.6-8.9,3.9-8.8,8.2-8.8,8.3,3.3,8.3,8.7,0,1.3,0,1.4h-12c.1,2.2,2,3.8,4.2,3.8s3.3-1.1,3.8-2.5l3.8,1.1ZM774,67.4c0-1.7-1.2-3.3-3.7-3.3s-3.6,1.8-3.7,3.3h7.5Z"/>
    <path d="M795.4,60.9h3.4v4h-3.4v7c0,1.5.7,1.9,2,1.9s1.2,0,1.4-.1v3.7c-.4.2-1.2.4-2.5.4-3.3,0-5.3-1.9-5.3-5.2v-7.8h-3v-4h.9c1.8,0,2.6-1.2,2.6-2.7v-2.3h4.1v5Z"/>
    <path d="M804.6,52.6c1.6,0,2.8,1.3,2.8,2.8s-1.2,2.8-2.8,2.8-2.8-1.3-2.8-2.8,1.3-2.8,2.8-2.8ZM802.4,77.6v-16.7h4.5v16.7h-4.5Z"/>
    <path d="M826.8,72.8c-.8,2.9-3.5,5.3-7.6,5.3s-8.6-3.3-8.6-8.9,3.9-8.8,8.2-8.8,8.3,3.3,8.3,8.7,0,1.3,0,1.4h-12c.1,2.2,2,3.8,4.2,3.8s3.3-1.1,3.8-2.5l3.8,1.1ZM822.6,67.4c0-1.7-1.2-3.3-3.7-3.3s-3.6,1.8-3.7,3.3h7.5Z"/>
    <path d="M836.5,59.1v1.8h3.8v3.9h-3.8v12.9h-4.6v-12.9h-2.8v-3.9h2.8v-1.9c0-3.8,2.4-6.2,6.1-6.2s1.9.2,2.2.3v3.8c-.2,0-.7-.2-1.4-.2s-2.3.4-2.3,2.3Z"/>
  </g>
  <g>
    <path d="M36.4,143.6v-24.1h14.4v2.6h-11.6v8.1h10.5v2.6h-10.5v8.1h11.6v2.6h-14.4Z"/>
    <path d="M57.8,143.6h-2.7v-16.3h2.7v2.4c1.1-1.9,3-2.9,5.1-2.9,3.9,0,5.8,2.8,5.8,6.3v10.4h-2.7v-10c0-2.4-1.1-4.3-4-4.3s-4.1,2.2-4.1,4.7v9.6Z"/>
    <path d="M77.6,127.3h3.8v2.4h-3.8v9c0,1.7.7,2.5,2.5,2.5s1.1-.1,1.4-.2v2.3c-.3.1-1.1.3-2.1.3-2.7,0-4.4-1.7-4.4-4.6v-9.4h-3.3v-2.4h1.1c1.7,0,2.4-1,2.4-2.5v-2.7h2.5v5.2Z"/>
    <path d="M97.6,127.3l4.5,12.9,3.9-12.9h2.9l-5.3,16.3h-2.9l-4.6-13-4.5,13h-2.9l-5.4-16.3h2.9l4,12.9,4.5-12.9h2.8Z"/>
    <path d="M113.9,118.8c1.1,0,2,.9,2,2s-.9,2-2,2-2-.9-2-2,.9-2,2-2ZM112.6,143.6v-16.3h2.7v16.3h-2.7Z"/>
    <path d="M122.2,135.4c0,3.9,2.5,6.2,5.4,6.2s4.4-2.2,4.9-3.7l2.4,1.1c-.8,2.4-3.1,5.1-7.2,5.1s-8.1-3.7-8.1-8.6,3.5-8.6,8.1-8.6,6.5,2.5,7.1,5.1l-2.4,1.1c-.4-1.7-1.8-3.7-4.7-3.7s-5.3,2.2-5.3,6.2Z"/>
    <path d="M145.8,134.2l7.1,9.4h-3.4l-5.6-7.5-2.5,2.6v4.9h-2.7v-24.6h2.7v16l7.6-7.8h3.7l-6.9,6.9Z"/>
    <path d="M156.1,143.6v-24.6h2.7v24.6h-2.7Z"/>
    <path d="M170,144.1c-3.9,0-6.1-2.9-6.1-6.5v-10.2h2.7v9.8c0,2.4,1.1,4.5,4,4.5s4.1-1.9,4.1-4.5v-9.8h2.7v13.2c0,1.3.1,2.4.2,3.1h-2.6c-.1-.4-.2-1.3-.2-2.1h0c-.8,1.5-2.8,2.5-4.9,2.5Z"/>
    <path d="M185.5,143.6h-2.7v-16.3h2.7v2.4c1.1-1.9,3-2.9,5.1-2.9,3.9,0,5.8,2.8,5.8,6.3v10.4h-2.7v-10c0-2.4-1.1-4.3-4-4.3s-4.1,2.2-4.1,4.7v9.6Z"/>
    <path d="M203,143.9c.3,2.4,2.1,4.2,4.7,4.2,3.8,0,5.2-2.2,5.2-5.6v-2.6c-.7,1.6-2.5,3-5.2,3-4.3,0-7.3-3.4-7.3-8s3-8.1,7.4-8.1,4.3,1.2,5.1,2.8v-2.3h2.7v15.1c0,4-1.8,8.2-7.9,8.2s-6.9-2.6-7.3-6l2.6-.6ZM208.1,129.3c-3,0-5,2.2-5,5.6s2,5.6,5,5.6,5-2.2,5-5.6-2-5.6-5-5.6Z"/>
    <path d="M230.3,143.6v-24.1h2.9v21.5h11.7v2.6h-14.6Z"/>
    <path d="M251.9,134.4l4.4-.6c1.2-.2,1.5-.7,1.5-1.4,0-1.8-1.2-3.2-3.8-3.2s-3.8,1.4-4,3.5l-2.6-.6c.3-3.1,3.1-5.2,6.6-5.2s6.6,2.7,6.6,5.8v8.2c0,1.4.1,2.2.2,2.7h-2.7c0-.4-.2-1.2-.2-2.4-.7,1.3-2.5,2.9-5.4,2.9s-5.4-2.3-5.4-4.8,2-4.5,4.9-4.9ZM257.7,136.7v-1.1l-5.3.8c-1.6.2-2.7,1.1-2.7,2.7s1.1,2.6,3,2.6c2.8,0,5-1.6,5-5Z"/>
    <path d="M268.3,143.6h-2.7v-16.3h2.7v2.4c1.1-1.9,3-2.9,5.1-2.9,3.9,0,5.8,2.8,5.8,6.3v10.4h-2.7v-10c0-2.4-1.1-4.3-4-4.3s-4.1,2.2-4.1,4.7v9.6Z"/>
    <path d="M296,140.8c-.7,1.6-2.5,3.3-5.3,3.3-4.7,0-7.5-3.8-7.5-8.6s3-8.6,7.5-8.6,4.7,1.7,5.3,3.1v-10.9h2.7v21.5c0,1.6.1,2.7.2,3.1h-2.7c0-.4-.2-1.3-.2-2.3v-.4ZM296,135.4c0-3.6-2-6.2-5.1-6.2s-5.1,2.5-5.1,6.2,2,6.2,5.1,6.2,5.1-2.6,5.1-6.2Z"/>
    <path d="M318.2,139c-.9,2.8-3.5,5.1-7.2,5.1s-8.1-3.2-8.1-8.7,3.6-8.6,7.7-8.6,7.7,3.4,7.7,8.4,0,.7,0,1h-12.5c0,3.2,2.3,5.4,5.3,5.4s4.2-1.6,4.9-3.5l2.3.9ZM315.4,133.9c0-2.6-1.7-4.6-4.8-4.6s-4.7,2.2-4.9,4.6h9.7Z"/>
    <path d="M323.5,138.5c.2,1.9,1.6,3.3,4.1,3.3s3.2-1.1,3.2-2.5-1-2-2.5-2.4l-2.7-.6c-2.5-.6-4-2.2-4-4.5s2.6-4.9,5.7-4.9,5.7,2.7,6.1,4.4l-2.4.9c-.2-1.1-1.1-2.9-3.6-2.9s-3,1.1-3,2.4.7,1.9,2.1,2.2l2.7.6c2.9.6,4.4,2.3,4.4,4.7s-2,4.9-5.9,4.9-6.2-2.7-6.5-4.8l2.4-.8Z"/>
    <path d="M339,118.8c1.1,0,2,.9,2,2s-.9,2-2,2-2-.9-2-2,.9-2,2-2ZM337.6,143.6v-16.3h2.7v16.3h-2.7Z"/>
    <path d="M348.4,143.6h-2.7v-16.3h2.7v2.4c1.1-1.9,3-2.9,5.1-2.9,3.9,0,5.8,2.8,5.8,6.3v10.4h-2.7v-10c0-2.4-1.1-4.3-4-4.3s-4.1,2.2-4.1,4.7v9.6Z"/>
    <path d="M376.1,140.8c-.7,1.6-2.5,3.3-5.3,3.3-4.7,0-7.5-3.8-7.5-8.6s3-8.6,7.5-8.6,4.7,1.7,5.3,3.1v-10.9h2.7v21.5c0,1.6.1,2.7.2,3.1h-2.7c0-.4-.2-1.3-.2-2.3v-.4ZM376.1,135.4c0-3.6-2-6.2-5.1-6.2s-5.1,2.5-5.1,6.2,2,6.2,5.1,6.2,5.1-2.6,5.1-6.2Z"/>
    <path d="M398.2,139c-.9,2.8-3.5,5.1-7.2,5.1s-8.1-3.2-8.1-8.7,3.6-8.6,7.7-8.6,7.7,3.4,7.7,8.4,0,.7,0,1h-12.5c0,3.2,2.3,5.4,5.3,5.4s4.2-1.6,4.9-3.5l2.3.9ZM395.5,133.9c0-2.6-1.7-4.6-4.8-4.6s-4.7,2.2-4.9,4.6h9.7Z"/>
    <path d="M406.2,135.3l-6-8h3.3l4.2,6,4.3-6h3.2l-5.9,8,6.2,8.3h-3.3l-4.5-6.3-4.5,6.3h-3.3l6.2-8.3Z"/>
    <path d="M439.3,140.8c-.7,1.6-2.5,3.3-5.3,3.3-4.7,0-7.5-3.8-7.5-8.6s3-8.6,7.5-8.6,4.7,1.7,5.3,3.1v-10.9h2.7v21.5c0,1.6.1,2.7.2,3.1h-2.7c0-.4-.2-1.3-.2-2.3v-.4ZM439.3,135.4c0-3.6-2-6.2-5.1-6.2s-5.1,2.5-5.1,6.2,2,6.2,5.1,6.2,5.1-2.6,5.1-6.2Z"/>
    <path d="M461.4,139c-.9,2.8-3.5,5.1-7.2,5.1s-8.1-3.2-8.1-8.7,3.6-8.6,7.7-8.6,7.7,3.4,7.7,8.4,0,.7,0,1h-12.5c0,3.2,2.3,5.4,5.3,5.4s4.2-1.6,4.9-3.5l2.3.9ZM458.7,133.9c0-2.6-1.7-4.6-4.8-4.6s-4.7,2.2-4.9,4.6h9.7Z"/>
    <path d="M474.4,130.1c-.4-.1-1-.2-1.4-.2-2.7,0-4.6,1.6-4.6,5.2v8.4h-2.7v-16.3h2.7v2.9c1.1-2.4,3.1-3.2,4.9-3.2s.9,0,1.2.1v2.9Z"/>
    <path d="M492.8,132.3l-3.7,4v7.3h-2.9v-24.1h2.9v13l11.9-13h3.8l-10,10.7,10.2,13.4h-3.6l-8.5-11.3Z"/>
    <path d="M521.7,135.4c0,5-3.5,8.6-8.2,8.6s-8.2-3.6-8.2-8.6,3.5-8.6,8.2-8.6,8.2,3.6,8.2,8.6ZM508.1,135.4c0,4,2.5,6.2,5.4,6.2s5.4-2.2,5.4-6.2-2.5-6.2-5.4-6.2-5.4,2.2-5.4,6.2Z"/>
    <path d="M528.6,143.6h-2.7v-16.3h2.7v2.4c1.1-1.9,3-2.9,5.1-2.9,3.9,0,5.8,2.8,5.8,6.3v10.4h-2.7v-10c0-2.4-1.1-4.3-4-4.3s-4.1,2.2-4.1,4.7v9.6Z"/>
    <path d="M545.6,138.5c.2,1.9,1.6,3.3,4.1,3.3s3.2-1.1,3.2-2.5-1-2-2.5-2.4l-2.7-.6c-2.5-.6-4-2.2-4-4.5s2.6-4.9,5.7-4.9,5.7,2.7,6.1,4.4l-2.4.9c-.2-1.1-1.1-2.9-3.6-2.9s-3,1.1-3,2.4.7,1.9,2.1,2.2l2.7.6c2.9.6,4.4,2.3,4.4,4.7s-2,4.9-5.9,4.9-6.2-2.7-6.5-4.8l2.4-.8Z"/>
    <path d="M565.6,144.1c-3.9,0-6.1-2.9-6.1-6.5v-10.2h2.7v9.8c0,2.4,1.1,4.5,4,4.5s4.1-1.9,4.1-4.5v-9.8h2.7v13.2c0,1.3.1,2.4.2,3.1h-2.6c-.1-.4-.2-1.3-.2-2.1h0c-.8,1.5-2.8,2.5-4.9,2.5Z"/>
    <path d="M581.1,129.6c.9-1.7,2.9-2.8,5-2.8s4.2,1.2,5,3.3c1.2-2.3,3.2-3.3,5.5-3.3s5.6,2,5.6,6.1v10.6h-2.7v-10.3c0-2.2-1.2-4-3.7-4s-4,2-4,4.4v9.9h-2.7v-10.3c0-2.2-1.2-4-3.8-4s-4,1.9-4,4.5v9.9h-2.7v-16.3h2.7v2.3Z"/>
    <path d="M621.5,139c-.9,2.8-3.5,5.1-7.2,5.1s-8.1-3.2-8.1-8.7,3.6-8.6,7.7-8.6,7.7,3.4,7.7,8.4,0,.7,0,1h-12.5c0,3.2,2.3,5.4,5.3,5.4s4.2-1.6,4.9-3.5l2.3.9ZM618.8,133.9c0-2.6-1.7-4.6-4.8-4.6s-4.7,2.2-4.9,4.6h9.7Z"/>
    <path d="M628.4,143.6h-2.7v-16.3h2.7v2.4c1.1-1.9,3-2.9,5.1-2.9,3.9,0,5.8,2.8,5.8,6.3v10.4h-2.7v-10c0-2.4-1.1-4.3-4-4.3s-4.1,2.2-4.1,4.7v9.6Z"/>
    <path d="M648.1,127.3h3.8v2.4h-3.8v9c0,1.7.7,2.5,2.5,2.5s1.1-.1,1.4-.2v2.3c-.3.1-1.1.3-2.1.3-2.7,0-4.4-1.7-4.4-4.6v-9.4h-3.3v-2.4h1.1c1.7,0,2.4-1,2.4-2.5v-2.7h2.5v5.2Z"/>
    <path d="M669.9,139c-.9,2.8-3.5,5.1-7.2,5.1s-8.1-3.2-8.1-8.7,3.6-8.6,7.7-8.6,7.7,3.4,7.7,8.4,0,.7,0,1h-12.5c0,3.2,2.3,5.4,5.3,5.4s4.2-1.6,4.9-3.5l2.3.9ZM667.2,133.9c0-2.6-1.7-4.6-4.8-4.6s-4.7,2.2-4.9,4.6h9.7Z"/>
    <path d="M676.8,143.6h-2.7v-16.3h2.7v2.4c1.1-1.9,3-2.9,5.1-2.9,3.9,0,5.8,2.8,5.8,6.3v10.4h-2.7v-10c0-2.4-1.1-4.3-4-4.3s-4.1,2.2-4.1,4.7v9.6Z"/>
    <path d="M692.8,150v-22.7h2.7v2.7c.8-1.7,2.8-3.2,5.6-3.2,4.8,0,7.4,3.7,7.4,8.6s-2.8,8.6-7.5,8.6-4.7-1.5-5.5-3v9h-2.7ZM705.8,135.4c0-3.6-2-6.2-5.2-6.2s-5.2,2.5-5.2,6.2,2,6.2,5.2,6.2,5.2-2.6,5.2-6.2Z"/>
    <path d="M721.4,130.1c-.4-.1-1-.2-1.4-.2-2.7,0-4.6,1.6-4.6,5.2v8.4h-2.7v-16.3h2.7v2.9c1.1-2.4,3.1-3.2,4.9-3.2s.9,0,1.2.1v2.9Z"/>
    <path d="M738.5,139c-.9,2.8-3.5,5.1-7.2,5.1s-8.1-3.2-8.1-8.7,3.6-8.6,7.7-8.6,7.7,3.4,7.7,8.4,0,.7,0,1h-12.5c0,3.2,2.3,5.4,5.3,5.4s4.2-1.6,4.9-3.5l2.3.9ZM735.7,133.9c0-2.6-1.7-4.6-4.8-4.6s-4.7,2.2-4.9,4.6h9.7Z"/>
    <path d="M744,118.8c1.1,0,2,.9,2,2s-.9,2-2,2-2-.9-2-2,.9-2,2-2ZM742.7,143.6v-16.3h2.7v16.3h-2.7Z"/>
    <path d="M751.8,138.5c.2,1.9,1.6,3.3,4.1,3.3s3.2-1.1,3.2-2.5-1-2-2.5-2.4l-2.7-.6c-2.5-.6-4-2.2-4-4.5s2.6-4.9,5.7-4.9,5.7,2.7,6.1,4.4l-2.4.9c-.2-1.1-1.1-2.9-3.6-2.9s-3,1.1-3,2.4.7,1.9,2.1,2.2l2.7.6c2.9.6,4.4,2.3,4.4,4.7s-2,4.9-5.9,4.9-6.2-2.7-6.5-4.8l2.4-.8Z"/>
    <path d="M780.1,139c-.9,2.8-3.5,5.1-7.2,5.1s-8.1-3.2-8.1-8.7,3.6-8.6,7.7-8.6,7.7,3.4,7.7,8.4,0,.7,0,1h-12.5c0,3.2,2.3,5.4,5.3,5.4s4.2-1.6,4.9-3.5l2.3.9ZM777.4,133.9c0-2.6-1.7-4.6-4.8-4.6s-4.7,2.2-4.9,4.6h9.7Z"/>
    <path d="M799.6,143.6h-2.8l-6.6-16.3h3.1l4.9,13.1,4.9-13.1h2.9l-6.5,16.3Z"/>
    <path d="M810.2,138.5c.2,1.9,1.6,3.3,4.1,3.3s3.2-1.1,3.2-2.5-1-2-2.5-2.4l-2.7-.6c-2.5-.6-4-2.2-4-4.5s2.6-4.9,5.7-4.9,5.7,2.7,6.1,4.4l-2.4.9c-.2-1.1-1.1-2.9-3.6-2.9s-3,1.1-3,2.4.7,1.9,2.1,2.2l2.7.6c2.9.6,4.4,2.3,4.4,4.7s-2,4.9-5.9,4.9-6.2-2.7-6.5-4.8l2.4-.8Z"/>
    <path d="M825.8,139.5c1.2,0,2.1.9,2.1,2.1s-1,2.1-2.1,2.1-2.1-.9-2.1-2.1,1-2.1,2.1-2.1Z"/>
    <path d="M854.2,125.9c-.4-2-2-4.3-5.4-4.3-2.8,0-5,1.8-5,4.3s1.3,3.3,3.5,3.8l3.5.8c3.9.9,6.2,3.3,6.2,6.7s-3.2,7-8.2,7-8.4-3.6-8.8-7.2l2.7-.9c.3,2.9,2.3,5.4,6.2,5.4s5.3-1.8,5.3-4.1-1.4-3.5-3.9-4.1l-3.5-.8c-3.3-.7-5.7-2.9-5.7-6.5s3.5-7,7.8-7,7.4,3.2,8,5.9l-2.5.9Z"/>
    <path d="M878.5,143.6l-13.7-20.4v20.4h-2.9v-24.1h3.7l12.9,19.3v-19.3h2.9v24.1h-3Z"/>
    <path d="M895.6,119.5c4.6,0,7.3,2.7,7.3,6.5s-1.5,4.5-3.6,5.2c2.7.7,4.4,3.1,4.4,5.8s-3,6.5-7.4,6.5h-8.1v-24.1h7.5ZM895.6,130.2c2.7,0,4.4-1.7,4.4-4.1s-1.8-4.1-4.8-4.1h-4.3v8.2h4.7ZM895.9,141.1c2.9,0,4.9-1.6,4.9-4.2s-1.7-4.2-4.7-4.2h-5.2v8.4h4.9Z"/>
    <path d="M908,135v-2.4h9.1v2.4h-9.1Z"/>
    <path d="M925.2,133.6v10h-2.9v-24.1h8.4c4.5,0,7.4,3.1,7.4,7.1s-3,7-7.4,7h-5.5ZM930.3,131c3.1,0,5-1.8,5-4.5s-1.9-4.6-5-4.6h-5.1v9h5.1Z"/>
    <path d="M950.3,130.1c-.4-.1-1-.2-1.4-.2-2.7,0-4.6,1.6-4.6,5.2v8.4h-2.7v-16.3h2.7v2.9c1.1-2.4,3.1-3.2,4.9-3.2s.9,0,1.2.1v2.9Z"/>
    <path d="M968.3,135.4c0,5-3.5,8.6-8.2,8.6s-8.2-3.6-8.2-8.6,3.5-8.6,8.2-8.6,8.2,3.6,8.2,8.6ZM954.7,135.4c0,4,2.5,6.2,5.4,6.2s5.4-2.2,5.4-6.2-2.5-6.2-5.4-6.2-5.4,2.2-5.4,6.2Z"/>
    <path d="M974,143.9c.3,2.4,2.1,4.2,4.7,4.2,3.8,0,5.2-2.2,5.2-5.6v-2.6c-.7,1.6-2.5,3-5.2,3-4.3,0-7.3-3.4-7.3-8s3-8.1,7.4-8.1,4.3,1.2,5.1,2.8v-2.3h2.7v15.1c0,4-1.8,8.2-7.9,8.2s-6.9-2.6-7.3-6l2.6-.6ZM979.1,129.3c-3,0-5,2.2-5,5.6s2,5.6,5,5.6,5-2.2,5-5.6-2-5.6-5-5.6Z"/>
    <path d="M994.7,143.6h-2.7v-16.3h2.7v2.4c1.1-1.9,3-2.9,5.1-2.9,3.9,0,5.8,2.8,5.8,6.3v10.4h-2.7v-10c0-2.4-1.1-4.3-4-4.3s-4.1,2.2-4.1,4.7v9.6Z"/>
    <path d="M1025.8,135.4c0,5-3.5,8.6-8.2,8.6s-8.2-3.6-8.2-8.6,3.5-8.6,8.2-8.6,8.2,3.6,8.2,8.6ZM1012.2,135.4c0,4,2.5,6.2,5.4,6.2s5.4-2.2,5.4-6.2-2.5-6.2-5.4-6.2-5.4,2.2-5.4,6.2Z"/>
    <path d="M1031.1,138.5c.2,1.9,1.6,3.3,4.1,3.3s3.2-1.1,3.2-2.5-1-2-2.5-2.4l-2.7-.6c-2.5-.6-4-2.2-4-4.5s2.6-4.9,5.7-4.9,5.7,2.7,6.1,4.4l-2.4.9c-.2-1.1-1.1-2.9-3.6-2.9s-3,1.1-3,2.4.7,1.9,2.1,2.2l2.7.6c2.9.6,4.4,2.3,4.4,4.7s-2,4.9-5.9,4.9-6.2-2.7-6.5-4.8l2.4-.8Z"/>
    <path d="M1059.4,139c-.9,2.8-3.5,5.1-7.2,5.1s-8.1-3.2-8.1-8.7,3.6-8.6,7.7-8.6,7.7,3.4,7.7,8.4,0,.7,0,1h-12.5c0,3.2,2.3,5.4,5.3,5.4s4.2-1.6,4.9-3.5l2.3.9ZM1056.7,133.9c0-2.6-1.7-4.6-4.8-4.6s-4.7,2.2-4.9,4.6h9.7Z"/>
  </g>
  <line class="st9" x1="36.4" y1="100.3" x2="1059.5" y2="100.3"/>
  <g>
    <path d="M62.3,951.9c3.9,0,7.3,2.8,7.3,7.4s-.7,3.7-1.7,4.9l1.7,1.9-1.8,1.6-1.7-1.9c-1.1.6-2.4,1-3.7,1-3.8,0-7.3-2.8-7.3-7.4s3.4-7.4,7.3-7.4ZM62.3,964c.6,0,1.3-.1,1.8-.4l-2.2-2.4,1.8-1.6,2.2,2.5c.5-.7.8-1.7.8-2.8,0-3.2-2.2-4.7-4.4-4.7s-4.4,1.5-4.4,4.7,2.2,4.7,4.4,4.7Z"/>
    <path d="M78.1,965.3c-.5.9-1.7,1.3-2.7,1.3-2.4,0-3.7-1.7-3.7-3.9v-6.2h2.7v5.7c0,1.1.6,2,1.8,2s1.9-.8,1.9-1.9v-5.7h2.7v8.1c0,.8,0,1.4.1,1.8h-2.5c0-.2,0-.7,0-1.1Z"/>
    <path d="M92.3,963.6c-.5,1.7-2.1,3.1-4.5,3.1s-5.1-1.9-5.1-5.3,2.3-5.2,4.8-5.2,4.9,1.9,4.9,5.1,0,.8,0,.8h-7c0,1.3,1.2,2.2,2.5,2.2s1.9-.6,2.2-1.5l2.2.7ZM89.8,960.3c0-1-.7-1.9-2.2-1.9s-2.1,1-2.2,1.9h4.4Z"/>
    <path d="M94.6,966.4v-14.5h2.7v14.5h-2.7Z"/>
    <path d="M100,966.4v-14.5h2.7v14.5h-2.7Z"/>
    <path d="M114.3,963.6c-.5,1.7-2.1,3.1-4.5,3.1s-5.1-1.9-5.1-5.3,2.3-5.2,4.8-5.2,4.9,1.9,4.9,5.1,0,.8,0,.8h-7c0,1.3,1.2,2.2,2.5,2.2s1.9-.6,2.2-1.5l2.2.7ZM111.9,960.3c0-1-.7-1.9-2.2-1.9s-2.1,1-2.2,1.9h4.4Z"/>
    <path d="M118.2,956.4c1,0,1.8.8,1.8,1.8s-.8,1.8-1.8,1.8-1.8-.8-1.8-1.8.8-1.8,1.8-1.8ZM118.2,962.9c1,0,1.8.8,1.8,1.8s-.8,1.8-1.8,1.8-1.8-.8-1.8-1.8.8-1.8,1.8-1.8Z"/>
    <path d="M132.4,952.2c2.7,0,4.3,1.6,4.3,3.8s-.9,2.6-2.1,3.1c1.6.4,2.6,1.8,2.6,3.4s-1.8,3.8-4.4,3.8h-4.8v-14.2h4.4ZM132.4,958.5c1.6,0,2.6-1,2.6-2.4s-1-2.4-2.8-2.4h-2.5v4.8h2.7ZM132.5,964.9c1.7,0,2.9-1,2.9-2.5s-1-2.5-2.7-2.5h-3v5h2.9Z"/>
    <path d="M139.7,966.4v-14.5h1.6v14.5h-1.6Z"/>
    <path d="M153.3,961.6c0,3-2,5.1-4.8,5.1s-4.8-2.1-4.8-5.1,2-5.1,4.8-5.1,4.8,2.1,4.8,5.1ZM145.3,961.6c0,2.3,1.5,3.6,3.2,3.6s3.2-1.3,3.2-3.6-1.5-3.6-3.2-3.6-3.2,1.3-3.2,3.6Z"/>
    <path d="M164.7,961.6c0,3-2,5.1-4.8,5.1s-4.8-2.1-4.8-5.1,2-5.1,4.8-5.1,4.8,2.1,4.8,5.1ZM156.7,961.6c0,2.3,1.5,3.6,3.2,3.6s3.2-1.3,3.2-3.6-1.5-3.6-3.2-3.6-3.2,1.3-3.2,3.6Z"/>
    <path d="M168.7,958.2c.5-1,1.7-1.6,2.9-1.6s2.5.7,2.9,2c.7-1.4,1.9-2,3.2-2s3.3,1.2,3.3,3.6v6.3h-1.6v-6.1c0-1.3-.7-2.3-2.2-2.3s-2.4,1.2-2.4,2.6v5.8h-1.6v-6.1c0-1.3-.7-2.3-2.2-2.3s-2.4,1.1-2.4,2.6v5.8h-1.6v-9.6h1.6v1.4Z"/>
    <path d="M184.2,966.4v-14.5h1.6v6.4c.4-.9,1.6-1.8,3.3-1.8,2.8,0,4.4,2.3,4.4,5.1s-1.6,5.1-4.4,5.1-2.7-.8-3.3-1.9v1.6h-1.6ZM191.8,961.6c0-2.1-1.2-3.6-3-3.6s-3,1.5-3,3.6,1.2,3.6,3,3.6,3-1.5,3-3.6Z"/>
    <path d="M204.2,963.7c-.5,1.7-2,3-4.3,3s-4.7-1.9-4.7-5.1,2.1-5,4.5-5,4.5,2,4.5,4.9,0,.4,0,.6h-7.4c0,1.9,1.4,3.2,3.1,3.2s2.5-.9,2.9-2.1l1.4.5ZM202.6,960.7c0-1.5-1-2.7-2.8-2.7s-2.8,1.3-2.9,2.7h5.7Z"/>
    <path d="M211.8,958.4c-.3,0-.6-.1-.8-.1-1.6,0-2.7.9-2.7,3.1v5h-1.6v-9.6h1.6v1.7c.6-1.4,1.8-1.9,2.9-1.9s.5,0,.7,0v1.7Z"/>
    <path d="M214.5,966.5c.2,1.4,1.2,2.5,2.8,2.5,2.2,0,3.1-1.3,3.1-3.3v-1.5c-.4.9-1.5,1.8-3,1.8-2.5,0-4.3-2-4.3-4.7s1.8-4.7,4.4-4.7,2.5.7,3,1.6v-1.4h1.6v8.9c0,2.4-1.1,4.8-4.7,4.8s-4.1-1.5-4.3-3.5l1.5-.4ZM217.5,958c-1.7,0-2.9,1.3-2.9,3.3s1.2,3.3,2.9,3.3,2.9-1.3,2.9-3.3-1.2-3.3-2.9-3.3Z"/>
    <path d="M226,964c.8,0,1.4.6,1.4,1.7,0,2.4-1.5,3.5-2.7,3.7v-.9c1-.2,1.6-1.2,1.6-2.2,0,0-.2,0-.4,0-.7,0-1.2-.5-1.2-1.2s.5-1.2,1.3-1.2Z"/>
    <path d="M235.9,963.4c.1,1.1,1,1.9,2.4,1.9s1.9-.6,1.9-1.5-.6-1.2-1.5-1.4l-1.6-.4c-1.5-.3-2.4-1.3-2.4-2.7s1.5-2.9,3.3-2.9,3.3,1.6,3.6,2.6l-1.4.5c-.1-.7-.6-1.7-2.1-1.7s-1.8.6-1.8,1.4.4,1.1,1.3,1.3l1.6.4c1.7.4,2.6,1.4,2.6,2.8s-1.2,2.9-3.5,2.9-3.7-1.6-3.8-2.8l1.4-.5Z"/>
    <path d="M245.8,958.2c.5-1,1.7-1.6,2.9-1.6s2.5.7,2.9,2c.7-1.4,1.9-2,3.2-2s3.3,1.2,3.3,3.6v6.3h-1.6v-6.1c0-1.3-.7-2.3-2.2-2.3s-2.4,1.2-2.4,2.6v5.8h-1.6v-6.1c0-1.3-.7-2.3-2.2-2.3s-2.4,1.1-2.4,2.6v5.8h-1.6v-9.6h1.6v1.4Z"/>
    <path d="M260.5,966.4v-1.4l5.6-6.7h-5.5v-1.4h7.5v1.4l-5.6,6.7h5.7v1.4h-7.7Z"/>
    <path d="M272.2,966.4h-1.6v-14.5h1.6v6.2c.6-1,1.7-1.6,3-1.6,2.3,0,3.4,1.6,3.4,3.7v6.1h-1.6v-5.9c0-1.4-.6-2.5-2.4-2.5s-2.4,1.2-2.4,2.7v5.7Z"/>
    <path d="M288.9,961l2.6-.4c.7,0,.9-.4.9-.8,0-1.1-.7-1.9-2.2-1.9s-2.2.8-2.4,2.1l-1.5-.4c.2-1.8,1.8-3.1,3.9-3.1s3.9,1.6,3.9,3.4v4.8c0,.8,0,1.3.1,1.6h-1.6c0-.2-.1-.7-.1-1.4-.4.8-1.5,1.7-3.2,1.7s-3.2-1.4-3.2-2.8,1.2-2.6,2.9-2.9ZM292.3,962.3v-.6l-3.1.5c-.9.1-1.6.7-1.6,1.6s.7,1.5,1.8,1.5c1.7,0,2.9-.9,2.9-3Z"/>
    <path d="M297.8,966.5c.2,1.4,1.2,2.5,2.8,2.5,2.2,0,3.1-1.3,3.1-3.3v-1.5c-.4.9-1.5,1.8-3,1.8-2.5,0-4.3-2-4.3-4.7s1.8-4.7,4.4-4.7,2.5.7,3,1.6v-1.4h1.6v8.9c0,2.4-1.1,4.8-4.7,4.8s-4.1-1.5-4.3-3.5l1.5-.4ZM300.8,958c-1.7,0-2.9,1.3-2.9,3.3s1.2,3.3,2.9,3.3,2.9-1.3,2.9-3.3-1.2-3.3-2.9-3.3Z"/>
    <path d="M309.3,964c.7,0,1.2.5,1.2,1.2s-.6,1.2-1.2,1.2-1.2-.5-1.2-1.2.6-1.2,1.2-1.2Z"/>
  </g>
  <path class="st1" d="M153.6,243.3h790.1M153.6,294.1h790.1M153.6,344.5h790.1M153.6,394.8h790.1M153.6,445.8h790.1M153.6,496.2h790.1M153.6,596.9h790.1M153.6,647.8h790.1"/>
  <line class="st12" x1="153.6" y1="546.6" x2="943.7" y2="546.6"/>
  <polyline class="st10" points="155.5 312.7 155.5 317.8 159.1 319.6 159.1 323.1 159.1 315.4 159.1 313.6 162.6 326.7 162.6 331.4 162.6 336.2 162.6 333.2 162.6 335.6 166.2 344.5 166.2 335 166.2 333.8 166.2 336.2 169.7 348 169.7 344.5 169.7 343.9 169.7 356.9 169.7 349.2 173.9 360.5 173.9 361 173.9 375.3 173.9 381.8 177.4 393.6 177.4 380 177.4 394.8 177.4 397.8 181 397.2 181 394.2 181 398.4 181 383 181 380 184.6 376.5 184.6 389.5 184.6 394.2 184.6 389.5 188.1 399 188.1 391.9 188.1 396 188.1 390.7 191.7 383.6 191.7 382.4 191.7 381.2 191.7 385.3 195.2 386.5 195.2 372.3 195.2 376.5 195.2 367.6 195.2 365.2 199.4 358.7 199.4 362.8 199.4 369.3 199.4 375.3 202.9 377.6 202.9 381.8 202.9 374.7 202.9 371.1 202.9 380 206.5 369.3 206.5 378.8 206.5 379.4 206.5 382.4 210 383 210 375.9 210 381.8 213.6 388.9 213.6 384.8 213.6 380.6 213.6 377.6 213.6 383.6 217.1 376.5 217.1 375.9 217.1 382.4 217.1 386.5 220.7 383 220.7 384.2 220.7 388.3 220.7 378.8 224.9 375.3 224.9 381.8 224.9 384.2 224.9 385.3 228.4 388.9 228.4 385.3 228.4 380.6 228.4 390.1 232 387.1 232 386.5 232 389.5 232 387.1 235.5 390.7 235.5 386.5 235.5 390.7 235.5 391.9 235.5 394.2 239.1 405.5 239.1 401.9 239.1 412 239.1 410.8 242.6 416.2 242.6 416.8 242.6 408.5 242.6 414.4 246.2 416.2 246.2 413.2 246.2 415 246.2 409.6 246.2 412 250.3 419.1 250.3 425.6 250.3 431.6 250.3 435.7 253.9 427.4 253.9 425.1 253.9 423.9 253.9 428 257.5 431 257.5 432.8 257.5 426.8 257.5 421.5 257.5 419.1 261 424.5 261 419.7 261 410.2 261 408.5 264.6 401.9 264.6 397.2 264.6 393.6 264.6 396 264.6 396.6 268.1 401.3 268.1 393.6 268.1 385.9 268.1 387.7 271.7 381.8 271.7 380 271.7 382.4 271.7 387.1 275.8 381.2 275.8 384.2 275.8 385.3 275.8 381.2 279.4 376.5 279.4 370.5 279.4 375.9 279.4 381.8 279.4 383 282.9 386.5 282.9 391.3 282.9 392.5 282.9 396 286.5 391.9 286.5 397.2 286.5 403.7 290 393.6 290 403.7 290 410.2 290 403.7 290 418.5 293.6 428 293.6 428.6 293.6 440.5 293.6 437.5 297.2 445.2 297.2 457.1 297.2 452.3 297.2 458.2 297.2 451.1 301.3 445.8 301.3 435.7 301.3 440.5 301.3 436.9 304.9 454.7 304.9 451.1 304.9 447.6 304.9 432.2 308.4 438.7 308.4 438.1 308.4 452.9 308.4 447.6 308.4 454.1 312 452.9 312 457.7 312 449.4 312 452.9 315.5 448.8 315.5 450.5 315.5 449.4 315.5 451.7 319.1 455.9 319.1 442.8 319.1 452.3 319.1 455.9 322.6 458.8 322.6 460.6 326.8 466.5 326.8 470.1 326.8 474.8 326.8 477.2 330.3 487.3 330.3 479.6 330.3 474.2 330.3 466.5 333.9 479.6 333.9 483.1 333.9 487.9 333.9 476 337.5 474.8 337.5 476.6 337.5 471.3 337.5 478.4 337.5 479 341 470.1 341 460.6 341 466 341 473.7 344.6 470.1 344.6 473.7 344.6 466 344.6 468.9 348.1 473.7 348.1 478.4 348.1 479.6 348.1 474.2 348.1 476.6 352.3 481.4 352.3 478.4 352.3 477.2 352.3 480.8 355.8 468.9 355.8 466.5 355.8 468.3 355.8 464.2 359.4 462.4 359.4 465.4 359.4 463 359.4 467.1 362.9 475.4 362.9 469.5 362.9 473.1 362.9 477.2 362.9 481.4 366.5 485.5 366.5 483.1 366.5 483.7 366.5 485.5 370.1 483.7 370.1 477.2 370.1 479.6 370.1 474.2 370.1 470.7 374.2 468.3 374.2 470.1 374.2 459.4 377.8 460 377.8 467.7 377.8 470.1 377.8 462.4 381.3 463 381.3 461.8 381.3 451.7 381.3 448.8 381.3 452.9 384.9 448.2 384.9 447 384.9 448.8 384.9 457.1 388.4 453.5 388.4 452.3 388.4 454.1 388.4 457.7 392 461.2 392 457.7 392 460.6 392 458.2 392 461.2 395.5 453.5 395.5 454.1 395.5 452.3 395.5 447.6 399.7 448.8 399.7 453.5 399.7 458.2 399.7 463 403.2 463 403.2 461.8 403.2 462.4 403.2 464.8 406.8 463 406.8 468.3 406.8 464.2 406.8 468.3 410.4 468.3 410.4 470.7 410.4 470.1 410.4 471.9 413.9 473.7 413.9 473.1 413.9 479.6 413.9 475.4 413.9 477.8 417.5 478.4 417.5 477.8 417.5 479 417.5 483.1 421 482.5 421 486.1 421 488.5 425.2 489.7 425.2 493.2 425.2 498.5 425.2 496.8 425.2 501.5 428.7 499.7 428.7 492 428.7 493.8 428.7 497.4 432.3 499.7 432.3 502.1 432.3 503.3 432.3 501.5 432.3 504.5 435.8 505.7 435.8 506.8 435.8 508 435.8 511 439.4 507.4 439.4 515.1 439.4 516.9 443 521.7 443 524 443 528.2 443 531.1 446.5 527.6 446.5 529.4 446.5 528.2 446.5 530 450.7 527 450.7 533.5 450.7 537.7 450.7 536.5 454.2 537.1 454.2 538.8 454.2 543 454.2 538.8 457.8 528.2 457.8 519.3 457.8 515.1 457.8 516.3 457.8 522.3 461.3 503.9 461.3 504.5 461.3 508.6 461.3 500.3 464.9 506.8 464.9 501.5 464.9 506.8 464.9 511.6 464.9 514 468.4 513.4 468.4 518.1 468.4 509.2 472 512.8 472 514 472 513.4 472 514 476.1 521.1 476.1 515.7 476.1 519.3 476.1 521.1 476.1 520.5 479.7 511.6 479.7 518.7 479.7 522.3 479.7 523.4 483.3 512.2 483.3 519.3 483.3 514.5 486.8 515.1 486.8 520.5 486.8 519.3 486.8 522.3 486.8 530.6 490.4 531.7 490.4 533.5 490.4 536.5 490.4 539.4 493.9 534.7 493.9 532.9 493.9 535.9 493.9 537.7 497.5 540 497.5 541.8 497.5 540 497.5 535.3 497.5 532.9 501.6 539.4 501.6 540.6 501.6 538.3 501.6 539.4 505.2 543 505.2 545.4 505.2 546 505.2 548.9 508.7 553.1 508.7 556 508.7 546.6 508.7 548.3 508.7 552.5 512.3 550.1 512.3 552.5 512.3 548.3 512.3 550.1 515.9 548.9 515.9 546 515.9 546.6 515.9 550.7 515.9 553.1 519.4 546 519.4 543.6 519.4 546.6 519.4 538.3 523 540 523 531.1 523 532.9 523 534.7 527.1 532.3 527.1 528.2 527.1 531.1 527.1 535.9 527.1 536.5 530.7 531.7 530.7 530 530.7 525.2 530.7 523.4 534.2 525.8 534.2 530.6 534.2 531.7 534.2 537.1 537.8 528.8 537.8 522.3 537.8 524.6 537.8 526.4 537.8 530 541.3 535.3 541.3 537.1 541.3 534.1 541.3 530.6 544.9 525.8 544.9 527 544.9 528.2 544.9 530 548.5 532.9 548.5 533.5 548.5 532.9 548.5 534.1 548.5 522.8 552.6 517.5 552.6 516.9 552.6 521.1 552.6 519.3 556.2 522.8 556.2 527.6 556.2 525.8 556.2 527.6 559.7 527.6 559.7 531.1 559.7 524.6 559.7 524 559.7 523.4 563.3 523.4 563.3 526.4 563.3 524 563.3 527.6 566.8 528.2 566.8 525.8 566.8 528.8 570.4 531.1 570.4 531.7 570.4 525.8 570.4 525.2 573.9 524.6 573.9 517.5 573.9 518.1 573.9 515.1 578.1 508 578.1 509.2 578.1 511 578.1 514 581.6 514 581.6 518.1 581.6 519.9 581.6 521.7 585.2 521.7 585.2 521.1 585.2 516.9 585.2 518.1 588.8 519.3 588.8 518.7 588.8 517.5 588.8 526.4 592.3 527.6 592.3 524 592.3 526.4 592.3 530 592.3 531.7 595.9 531.7 595.9 529.4 595.9 528.2 595.9 526.4 599.4 526.4 599.4 530.6 599.4 531.1 599.4 529.4 599.4 530 603.6 527 603.6 524 603.6 523.4 603.6 522.8 607.1 517.5 607.1 521.7 607.1 523.4 607.1 528.8 610.7 525.2 610.7 526.4 610.7 528.2 610.7 529.4 610.7 531.1 614.2 534.1 614.2 534.7 617.8 536.5 617.8 534.7 617.8 533.5 617.8 537.1 621.3 538.3 621.3 542.4 621.3 541.8 624.9 537.7 624.9 543 624.9 542.4 624.9 547.7 624.9 550.1 629.1 546.6 629.1 544.2 629.1 545.4 629.1 547.7 632.6 545.4 632.6 548.9 632.6 551.9 632.6 552.5 632.6 557.2 636.2 559.6 636.2 561.4 636.2 563.1 639.7 564.9 639.7 557.2 639.7 563.1 639.7 565.5 643.3 572 643.3 575.6 643.3 581.5 643.3 580.9 643.3 582.1 646.8 579.2 646.8 569.7 646.8 573.2 646.8 575.6 650.4 576.2 650.4 569.1 650.4 566.1 650.4 564.9 654.5 566.1 654.5 560.2 654.5 563.7 654.5 564.9 658.1 561.4 658.1 559.6 661.7 560.8 661.7 556.6 661.7 557.8 661.7 563.7 661.7 568.5 665.2 566.1 665.2 566.7 665.2 568.5 665.2 577.4 668.8 582.6 668.8 574.4 668.8 563.1 668.8 570.9 672.3 569.1 672.3 564.3 672.3 570.9 675.9 576.2 675.9 573.8 675.9 571.4 675.9 569.1 680 560.8 680 569.1 680 567.9 680 570.9 683.6 568.5 683.6 570.3 683.6 569.7 683.6 569.1 683.6 573.2 687.1 572.6 687.1 567.9 687.1 572.6 687.1 567.3 690.7 570.9 690.7 571.4 690.7 573.2 694.2 573.8 694.2 573.2 694.2 578 694.2 575.6 694.2 578.6 697.8 578 697.8 574.4 697.8 576.2 701.4 574.4 701.4 579.2 701.4 575.6 701.4 574.4 705.5 575.6 705.5 573.2 705.5 574.4 705.5 572.6 709.1 569.1 709.1 568.5 709.1 562 709.1 560.2 712.6 562 712.6 561.4 712.6 564.3 716.2 563.1 716.2 562 716.2 560.2 716.2 559.6 716.2 556.6 719.7 557.8 719.7 553.1 719.7 556 723.3 557.2 723.3 560.8 723.3 556.6 723.3 554.3 726.8 558.4 726.8 561.4 726.8 564.3 726.8 567.9 726.8 570.3 731 569.7 731 570.3 731 571.4 731 567.9 734.5 564.9 734.5 563.1 734.5 560.8 734.5 558.4 738.1 557.8 738.1 554.3 738.1 555.4 738.1 551.9 741.7 560.8 741.7 559.6 741.7 564.3 741.7 563.7 745.2 566.7 745.2 564.3 745.2 566.1 745.2 559.6 745.2 556 748.8 548.9 748.8 550.1 748.8 548.9 752.3 536.5 752.3 531.7 752.3 537.1 752.3 535.3 756.5 550.1 756.5 534.1 756.5 528.2 756.5 516.9 760 518.7 760 511 760 504.5 760 498 760 499.1 763.6 489.7 763.6 499.1 763.6 498 767.1 482.5 767.1 470.1 767.1 463 767.1 474.2 770.7 484.3 770.7 479 770.7 489.7 770.7 495 770.7 505.7 774.3 498.5 774.3 496.8 774.3 484.9 774.3 476.6 777.8 469.5 777.8 461.2 777.8 458.2 777.8 444.6 777.8 440.5 782 435.7 782 428 782 424.5 782 440.5 785.5 431 785.5 437.5 785.5 445.2 785.5 447 789.1 452.9 789.1 449.4 789.1 438.1 789.1 425.6 789.1 416.8 792.6 435.1 792.6 436.9 792.6 433.4 796.2 435.7 796.2 427.4 796.2 423.3 796.2 418.5 799.7 409.6 799.7 420.3 799.7 440.5 799.7 439.3 799.7 431 803.3 436.3 803.3 423.3 803.3 421.5 803.3 429.8 807.4 431 807.4 431.6 807.4 423.9 807.4 418.5 811 429.8 811 426.8 811 421.5 811 428 811 425.6 814.6 413.2 814.6 419.7 814.6 422.1 814.6 420.9 818.1 417.4 818.1 414.4 818.1 417.4 821.7 417.9 821.7 415 821.7 411.4 821.7 408.5 821.7 403.1 825.2 400.8 825.2 408.5 825.2 400.8 825.2 403.7 828.8 413.2 828.8 409.1 828.8 416.2 828.8 413.2 832.9 427.4 832.9 431.6 832.9 444.6 832.9 447 832.9 444.6 836.5 437.5 836.5 436.3 836.5 428.6 836.5 430.4 840 433.4 840 426.2 840 425.1 840 427.4 843.6 424.5 843.6 432.2 843.6 423.3 843.6 429.2 843.6 430.4 847.2 425.6 847.2 427.4 847.2 420.3 847.2 416.8 850.7 420.3 850.7 419.7 850.7 416.2 850.7 412 854.3 414.4 854.3 427.4 854.3 425.1 854.3 420.3 858.4 417.4 858.4 420.3 858.4 422.1 858.4 425.1 862 436.9 862 434.5 862 433.4 862 434.5 862 430.4 865.5 436.9 865.5 438.1 865.5 435.1 865.5 438.7 869.1 435.1 869.1 432.2 869.1 436.3 869.1 431 872.6 425.1 872.6 426.8 872.6 427.4 872.6 433.4 872.6 441.1 876.2 440.5 876.2 432.8 876.2 431 876.2 425.6 879.8 423.9 879.8 415.6 879.8 418.5 879.8 416.8 879.8 422.1 883.9 426.8 883.9 423.9 883.9 422.1 883.9 425.1 887.5 403.1 887.5 401.3 887.5 406.7 887.5 409.1 891 416.2 891 416.8 891 422.1 894.6 418.5 894.6 417.4 894.6 415.6 894.6 416.8 894.6 420.3 898.1 416.8 898.1 418.5 898.1 419.7 898.1 415.6 901.7 415 901.7 409.1 901.7 410.2 901.7 409.1 905.2 411.4 905.2 410.8 905.2 405.5 905.2 409.1 909.4 412 909.4 409.6 909.4 407.9 912.9 410.2 912.9 413.2 912.9 416.2 912.9 413.8 916.5 412 916.5 409.1 916.5 410.2 916.5 410.8 920.1 405.5 920.1 402.5 920.1 400.2 920.1 401.9 923.6 400.2 923.6 401.9 923.6 403.1 923.6 399.6 923.6 403.1 927.2 403.1 927.2 407.3 927.2 408.5 927.2 413.2 930.7 401.9 930.7 396 930.7 393.1 930.7 390.1 934.9 395.4 934.9 391.9 934.9 397.2 934.9 395.4 938.4 393.1 938.4 394.8 938.4 386.5 938.4 393.1 938.4 398.4 941.9 393.1 941.9 395.4"/>
  <line class="st3" x1="110.3" y1="813.7" x2="155.8" y2="813.7"/>
  <line class="st11" x1="290.9" y1="813.7" x2="336.5" y2="813.7"/>
  <line class="st5" x1="474.4" y1="813.7" x2="519.9" y2="813.7"/>
  <line class="st13" x1="656.6" y1="813.7" x2="702.2" y2="813.7"/>
  <line class="st8" x1="828.9" y1="813.7" x2="874.4" y2="813.7"/>
  <polyline class="st7" points="155.5 375.8 155.5 380 159.1 382.4 159.1 388.3 159.1 385.3 159.1 383.6 162.6 392.5 162.6 396 162.6 401.3 162.6 399.6 162.6 400.8 166.2 406.7 166.2 402.5 166.2 406.1 166.2 407.9 169.7 413.8 169.7 403.7 169.7 396 169.7 408.5 169.7 403.1 173.9 409.1 173.9 415 173.9 432.8 173.9 431.6 177.4 442.8 177.4 435.1 177.4 436.9 177.4 439.3 181 440.5 181 433.4 181 436.9 181 435.1 181 436.9 184.6 438.1 184.6 445.8 184.6 440.5 184.6 433.9 188.1 439.9 188.1 438.7 188.1 445.2 188.1 438.1 191.7 436.3 191.7 435.1 191.7 438.1 191.7 442.2 195.2 438.7 195.2 426.8 195.2 429.8 195.2 427.4 195.2 424.5 199.4 420.3 199.4 423.3 199.4 426.8 199.4 429.2 202.9 431.6 202.9 433.4 202.9 432.8 202.9 437.5 202.9 447 206.5 439.9 206.5 445.8 206.5 444 206.5 445.2 210 442.8 210 440.5 210 438.7 210 442.8 213.6 447.6 213.6 444.6 213.6 440.5 213.6 439.3 213.6 444.6 217.1 446.4 217.1 447.6 217.1 452.3 220.7 452.3 220.7 451.1 220.7 455.3 220.7 452.9 224.9 450.5 224.9 445.2 224.9 448.2 224.9 445.2 228.4 448.2 228.4 448.8 228.4 446.4 228.4 450.5 232 452.3 232 449.9 232 449.4 232 449.9 235.5 450.5 235.5 449.4 235.5 451.1 235.5 452.9 235.5 456.5 239.1 463.6 239.1 461.2 239.1 468.9 239.1 468.3 242.6 471.3 242.6 470.1 242.6 466.5 242.6 470.1 246.2 474.2 246.2 474.8 246.2 475.4 246.2 473.7 246.2 473.1 250.3 476.6 250.3 484.3 250.3 490.2 250.3 489.1 253.9 482 253.9 473.7 253.9 471.3 253.9 473.7 257.5 474.2 257.5 471.3 257.5 470.1 257.5 471.3 261 473.7 261 470.1 261 468.3 261 464.2 264.6 461.2 264.6 458.8 264.6 454.1 264.6 460.6 264.6 460 268.1 459.4 268.1 454.1 268.1 451.7 268.1 454.1 271.7 451.1 271.7 449.9 271.7 450.5 271.7 451.7 275.8 452.9 275.8 455.3 275.8 457.1 275.8 453.5 279.4 447 279.4 440.5 279.4 441.7 279.4 443.4 279.4 444 282.9 449.4 282.9 452.9 282.9 454.1 282.9 456.5 286.5 457.7 286.5 465.4 286.5 463 286.5 465.4 290 461.8 290 464.8 290 471.3 290 470.7 290 479 293.6 485.5 293.6 487.3 293.6 502.1 293.6 496.8 297.2 498.5 297.2 497.4 297.2 496.8 297.2 501.5 297.2 500.3 301.3 499.1 301.3 494.4 301.3 496.2 301.3 495 304.9 503.3 304.9 501.5 304.9 503.3 308.4 505.7 308.4 509.8 308.4 511.6 308.4 512.8 308.4 514.5 312 508.6 312 509.2 312 508 312 509.2 315.5 509.8 315.5 506.3 315.5 508 315.5 508.6 319.1 512.8 319.1 511.6 319.1 499.7 319.1 502.1 319.1 503.9 322.6 506.8 322.6 509.8 322.6 508 322.6 511 326.8 514 326.8 515.1 326.8 516.3 326.8 514.5 330.3 521.7 330.3 517.5 330.3 518.7 330.3 519.3 330.3 514.5 333.9 520.5 333.9 522.8 333.9 521.1 337.5 521.7 337.5 518.1 337.5 518.7 337.5 520.5 337.5 521.7 341 518.1 341 514 341 517.5 341 518.7 344.6 519.9 344.6 522.3 344.6 521.1 344.6 521.7 348.1 522.8 348.1 525.2 348.1 525.8 348.1 522.8 348.1 525.2 352.3 528.2 352.3 521.1 352.3 519.9 352.3 521.1 355.8 518.7 355.8 514.5 355.8 512.8 355.8 509.8 359.4 508.6 359.4 509.8 359.4 508 359.4 508.6 362.9 512.8 362.9 508.6 362.9 507.4 362.9 511 362.9 511.6 366.5 515.1 366.5 514.5 366.5 516.3 366.5 518.7 370.1 518.7 370.1 516.3 370.1 514.5 370.1 511 374.2 508.6 374.2 500.3 374.2 496.2 377.8 494.4 377.8 496.8 377.8 498 377.8 494.4 381.3 495.6 381.3 498 381.3 494.4 381.3 489.7 381.3 493.2 384.9 490.8 384.9 489.7 384.9 491.4 384.9 495 388.4 495 388.4 495.6 388.4 495 388.4 498 392 499.1 392 498.5 392 499.1 392 502.1 395.5 497.4 395.5 498 395.5 494.4 395.5 492 399.7 484.3 399.7 489.1 399.7 493.8 399.7 496.2 403.2 496.2 403.2 495 403.2 496.2 403.2 496.8 406.8 495.6 406.8 498.5 406.8 496.2 406.8 499.7 410.4 500.9 410.4 502.7 410.4 503.3 410.4 506.3 413.9 505.1 413.9 505.7 413.9 509.2 413.9 506.8 413.9 511 417.5 511.6 417.5 509.2 417.5 511 417.5 514 421 514 421 516.9 421 519.3 421 521.1 425.2 521.1 425.2 524 425.2 524.6 425.2 521.7 425.2 525.2 428.7 522.8 428.7 519.9 428.7 521.7 428.7 522.8 432.3 522.8 432.3 524.6 432.3 524 432.3 522.8 432.3 523.4 435.8 524.6 435.8 527.6 435.8 528.2 435.8 531.7 439.4 531.7 439.4 534.1 439.4 534.7 443 529.4 443 536.5 443 550.7 443 561.4 443 550.7 446.5 550.7 446.5 546 446.5 544.8 446.5 546.6 450.7 549.5 450.7 550.1 450.7 551.3 450.7 548.3 454.2 550.7 454.2 551.9 454.2 555.4 454.2 553.1 457.8 546 457.8 544.2 457.8 546 457.8 550.7 461.3 541.8 461.3 539.4 461.3 540.6 461.3 538.8 464.9 542.4 464.9 544.2 464.9 549.5 468.4 554.3 468.4 556 468.4 557.2 468.4 554.3 472 554.9 472 551.9 472 549.5 472 551.3 476.1 557.8 476.1 556.6 476.1 559 476.1 562.6 476.1 561.4 479.7 562 479.7 563.1 479.7 563.7 479.7 565.5 483.3 559 483.3 558.4 483.3 555.4 483.3 552.5 486.8 551.3 486.8 552.5 486.8 554.9 486.8 556.6 486.8 560.8 490.4 560.8 490.4 560.2 490.4 563.7 490.4 567.3 493.9 567.3 493.9 562 493.9 563.7 493.9 564.3 497.5 564.9 497.5 566.1 497.5 560.8 497.5 559.6 501.6 562.6 501.6 563.1 501.6 561.4 501.6 563.1 505.2 568.5 505.2 570.9 505.2 572 505.2 573.2 508.7 578 508.7 579.2 508.7 575.6 508.7 573.8 508.7 576.8 512.3 575 512.3 575.6 512.3 572.6 512.3 574.4 515.9 570.9 515.9 569.7 515.9 567.9 515.9 571.4 515.9 575.6 519.4 572.6 519.4 572 519.4 573.2 519.4 567.9 523 566.1 523 557.2 523 553.7 523 556.6 527.1 554.9 527.1 551.3 527.1 552.5 527.1 554.9 527.1 557.8 530.7 553.1 530.7 555.4 530.7 551.3 534.2 551.3 534.2 553.7 534.2 554.3 534.2 559 537.8 554.3 537.8 545.4 537.8 548.9 537.8 552.5 541.3 557.2 541.3 556.6 541.3 558.4 541.3 553.7 544.9 550.7 544.9 551.3 544.9 553.1 544.9 554.3 548.5 557.2 548.5 556.6 548.5 555.4 548.5 556 548.5 548.9 552.6 547.1 552.6 548.3 552.6 545.4 556.2 551.3 556.2 556 556.2 554.3 556.2 554.9 559.7 554.9 559.7 556 559.7 550.7 559.7 549.5 563.3 548.9 563.3 550.7 563.3 549.5 563.3 550.7 566.8 552.5 566.8 551.9 566.8 554.3 570.4 555.4 570.4 556 570.4 556.6 570.4 553.7 570.4 555.4 573.9 553.1 573.9 547.7 573.9 544.2 578.1 539.4 578.1 538.8 578.1 540 578.1 542.4 581.6 544.2 581.6 542.4 581.6 543.6 581.6 544.8 581.6 546.6 585.2 547.7 585.2 547.1 585.2 541.8 585.2 543.6 588.8 546 588.8 544.2 588.8 543 588.8 548.3 592.3 550.7 592.3 546.6 592.3 549.5 592.3 550.1 592.3 551.9 595.9 553.7 595.9 551.9 595.9 550.1 595.9 549.5 599.4 549.5 599.4 553.7 599.4 554.3 599.4 553.7 599.4 553.1 603.6 551.3 603.6 548.9 603.6 547.1 603.6 546 607.1 543.6 607.1 547.1 607.1 550.1 610.7 547.1 610.7 548.9 610.7 551.9 610.7 553.1 614.2 556 614.2 556.6 614.2 559.6 614.2 560.8 617.8 557.8 617.8 556 617.8 554.9 617.8 557.2 621.3 560.2 621.3 563.1 621.3 562.6 624.9 559.6 624.9 565.5 624.9 563.1 624.9 569.7 624.9 567.3 629.1 562.6 629.1 560.8 629.1 562.6 629.1 563.7 632.6 562.6 632.6 564.3 632.6 566.7 632.6 568.5 632.6 571.4 636.2 573.2 636.2 571.4 636.2 572 636.2 574.4 639.7 579.2 639.7 573.2 639.7 579.2 639.7 582.1 643.3 589.8 643.3 594.6 643.3 604.1 643.3 595.2 643.3 599.9 646.8 594.6 646.8 581.5 646.8 586.9 646.8 587.4 650.4 588 650.4 580.9 650.4 578 650.4 576.8 654.5 574.4 654.5 567.9 654.5 573.8 654.5 576.8 654.5 578.6 658.1 578 658.1 576.2 658.1 574.4 661.7 574.4 661.7 573.2 661.7 575.6 661.7 582.1 661.7 585.1 665.2 582.1 665.2 585.1 665.2 589.2 668.8 591 668.8 575.6 668.8 564.9 672.3 564.3 672.3 564.9 672.3 571.4 672.3 570.3 675.9 575 675.9 574.4 675.9 573.2 675.9 571.4 680 562.6 680 570.9 680 568.5 680 569.7 683.6 567.3 683.6 571.4 683.6 569.7 683.6 571.4 683.6 575 687.1 573.2 687.1 570.3 687.1 573.8 687.1 569.1 690.7 571.4 690.7 570.9 690.7 572 690.7 572.6 694.2 572.6 694.2 575 694.2 573.2 694.2 575 697.8 573.8 697.8 572 697.8 572.6 697.8 573.8 701.4 574.4 701.4 577.4 701.4 576.2 701.4 574.4 705.5 576.2 705.5 572.6 705.5 571.4 705.5 569.7 709.1 565.5 709.1 564.3 709.1 559.6 709.1 557.8 712.6 560.8 712.6 559.6 712.6 563.7 716.2 563.1 716.2 560.8 716.2 559.6 716.2 560.8 716.2 557.8 719.7 558.4 719.7 554.3 719.7 555.4 723.3 555.4 723.3 559.6 723.3 559 723.3 556.6 726.8 560.2 726.8 562.6 726.8 563.7 726.8 566.1 726.8 566.7 731 567.3 731 567.9 731 564.9 734.5 564.3 734.5 561.4 734.5 557.2 734.5 555.4 738.1 556.6 738.1 553.1 738.1 553.7 738.1 550.1 738.1 549.5 741.7 558.4 741.7 555.4 741.7 558.4 741.7 559.6 745.2 562.6 745.2 563.1 745.2 562.6 745.2 557.2 745.2 554.3 748.8 547.1 748.8 546.6 748.8 546 752.3 534.1 752.3 531.7 752.3 534.1 752.3 531.7 756.5 539.4 756.5 530.6 756.5 528.8 756.5 519.9 760 517.5 760 511.6 760 505.1 760 502.7 760 503.9 763.6 496.8 763.6 509.2 763.6 512.8 763.6 510.4 767.1 496.2 767.1 490.8 767.1 477.8 767.1 483.7 770.7 505.7 770.7 502.7 770.7 511 770.7 512.8 770.7 526.4 774.3 520.5 774.3 523.4 774.3 515.1 774.3 506.8 777.8 505.1 777.8 498 777.8 493.2 777.8 479.6 777.8 486.7 782 478.4 782 479 782 479.6 782 492.6 785.5 487.9 785.5 492.6 785.5 496.2 785.5 494.4 789.1 495 789.1 489.7 789.1 483.7 789.1 471.3 789.1 466.5 792.6 482.5 792.6 492 792.6 488.5 792.6 485.5 796.2 486.7 796.2 477.2 796.2 475.4 796.2 474.8 799.7 470.1 799.7 479 799.7 499.1 799.7 491.4 799.7 486.1 803.3 491.4 803.3 490.2 803.3 491.4 803.3 495.6 807.4 493.2 807.4 499.1 807.4 496.8 807.4 494.4 811 505.7 811 500.3 811 496.8 811 500.9 811 500.3 814.6 495 814.6 498 814.6 499.7 814.6 497.4 818.1 496.2 818.1 493.8 818.1 495.6 818.1 497.4 821.7 499.7 821.7 495.6 821.7 493.8 821.7 494.4 821.7 493.2 825.2 487.9 825.2 492.6 825.2 488.5 825.2 491.4 828.8 491.4 828.8 492 828.8 498 828.8 496.2 832.9 509.8 832.9 508.6 832.9 518.1 832.9 513.4 836.5 506.8 836.5 506.3 836.5 502.7 840 505.7 840 500.3 840 502.1 840 506.8 843.6 509.8 843.6 513.4 843.6 507.4 843.6 515.1 847.2 511 847.2 512.8 847.2 509.2 847.2 511 850.7 511 850.7 510.4 850.7 511 850.7 508 850.7 503.3 854.3 504.5 854.3 512.2 854.3 516.3 854.3 519.9 858.4 515.7 858.4 518.1 858.4 519.3 858.4 522.8 862 528.2 862 526.4 862 527 862 527.6 862 525.2 865.5 525.2 865.5 527 865.5 522.8 865.5 527.6 869.1 527 869.1 521.1 869.1 528.8 869.1 527 872.6 529.4 872.6 530 872.6 532.3 872.6 536.5 876.2 535.9 876.2 534.7 876.2 532.3 879.8 530.6 879.8 523.4 879.8 527.6 879.8 524 879.8 527.6 883.9 528.8 883.9 524 883.9 519.3 883.9 525.2 887.5 513.4 887.5 508 887.5 512.8 887.5 517.5 891 525.2 891 526.4 891 528.2 891 527.6 894.6 530.6 894.6 532.9 894.6 531.7 894.6 530.6 894.6 534.7 898.1 530 898.1 533.5 898.1 527.6 898.1 524.6 901.7 527 901.7 524.6 901.7 524 901.7 525.8 905.2 530 905.2 534.7 905.2 532.9 905.2 531.7 905.2 532.9 909.4 534.7 909.4 535.3 909.4 537.7 909.4 538.8 912.9 536.5 912.9 538.3 912.9 540 912.9 540.6 912.9 541.8 916.5 541.8 916.5 539.4 916.5 540 916.5 538.8 920.1 538.8 920.1 531.7 920.1 531.1 920.1 531.7 923.6 532.9 923.6 533.5 923.6 535.3 923.6 532.3 923.6 536.5 927.2 534.1 927.2 537.1 930.7 528.2 930.7 527 930.7 527.6 930.7 527 934.9 528.2 934.9 525.8 934.9 527.6 934.9 525.8 938.4 527.6 938.4 528.8 938.4 521.1 938.4 519.3 938.4 527.6 941.9 525.2 941.9 527"/>
  <polyline class="st2" points="155.5 336.2 155.5 346.2 159.1 345.6 159.1 346.8 159.1 340.3 159.1 339.7 162.6 348 162.6 352.8 162.6 351 162.6 353.9 166.2 359.9 166.2 358.7 166.2 353.9 166.2 352.2 169.7 364.6 169.7 351 169.7 348 169.7 360.5 169.7 346.8 173.9 355.1 173.9 358.1 173.9 384.8 173.9 399 177.4 410.2 177.4 416.8 177.4 439.3 177.4 438.7 181 426.8 181 425.6 181 429.2 181 414.4 181 403.1 184.6 395.4 184.6 400.8 184.6 405.5 184.6 394.2 188.1 401.3 188.1 400.8 188.1 413.2 188.1 407.3 191.7 400.8 191.7 399 191.7 397.8 191.7 395.4 195.2 387.1 195.2 380.6 195.2 388.3 195.2 372.3 195.2 371.7 199.4 353.3 199.4 355.1 199.4 355.7 199.4 368.2 202.9 369.9 202.9 379.4 202.9 362.2 202.9 361.6 202.9 370.5 206.5 352.2 206.5 366.4 206.5 372.3 210 372.9 210 377.6 210 371.7 210 378.8 213.6 384.2 213.6 375.9 213.6 374.1 213.6 369.9 213.6 375.9 217.1 369.9 217.1 374.1 217.1 376.5 217.1 384.8 220.7 371.1 220.7 367 220.7 367.6 220.7 354.5 224.9 352.8 224.9 361 224.9 364 224.9 365.2 228.4 366.4 228.4 359.9 228.4 355.7 228.4 364 232 360.5 232 359.9 232 352.2 235.5 347.4 235.5 350.4 235.5 356.3 235.5 353.9 235.5 362.2 239.1 373.5 239.1 372.3 239.1 383 239.1 380 242.6 384.8 242.6 383 242.6 384.2 242.6 389.5 246.2 396 246.2 392.5 246.2 399 246.2 395.4 246.2 399.6 250.3 404.3 250.3 411.4 250.3 414.4 250.3 413.2 253.9 410.2 253.9 405.5 253.9 408.5 253.9 415 257.5 419.7 257.5 425.6 257.5 417.4 257.5 415 261 418.5 261 405.5 261 401.3 261 401.9 264.6 394.8 264.6 378.8 264.6 378.2 264.6 375.3 264.6 380 268.1 378.8 268.1 374.7 268.1 378.8 271.7 362.8 271.7 363.4 271.7 365.8 271.7 374.1 275.8 369.9 275.8 374.7 275.8 381.2 275.8 372.9 279.4 372.9 279.4 365.8 279.4 374.1 279.4 375.3 279.4 380.6 282.9 387.7 282.9 386.5 282.9 387.7 282.9 391.3 286.5 395.4 286.5 396.6 286.5 397.8 286.5 401.9 290 385.9 290 393.6 290 399.6 290 396.6 290 405.5 293.6 417.4 293.6 432.8 293.6 442.2 293.6 435.7 297.2 446.4 297.2 449.9 297.2 442.8 297.2 454.1 297.2 449.9 301.3 441.7 301.3 432.8 301.3 434.5 301.3 429.8 304.9 444 304.9 442.8 304.9 445.2 304.9 447.6 308.4 444 308.4 442.2 308.4 453.5 308.4 444 308.4 451.7 312 447.6 312 452.3 312 444 312 451.1 315.5 449.4 315.5 446.4 315.5 445.2 315.5 447 319.1 447 319.1 444 319.1 430.4 319.1 433.9 319.1 435.1 322.6 442.8 322.6 446.4 322.6 447.6 322.6 448.8 326.8 451.7 326.8 453.5 326.8 459.4 326.8 458.8 330.3 473.1 330.3 464.2 330.3 467.1 330.3 461.8 330.3 463.6 333.9 468.3 333.9 471.3 333.9 473.1 333.9 468.3 337.5 467.7 337.5 463 337.5 455.3 337.5 461.2 337.5 468.3 341 462.4 341 452.3 341 458.2 341 464.2 344.6 458.8 344.6 463 344.6 457.7 344.6 458.2 348.1 460 348.1 465.4 348.1 466.5 348.1 461.2 348.1 464.8 352.3 464.8 352.3 460.6 352.3 457.7 352.3 460.6 355.8 450.5 355.8 452.3 355.8 453.5 355.8 448.2 359.4 444.6 359.4 448.2 359.4 445.2 359.4 447.6 362.9 453.5 362.9 443.4 362.9 445.8 362.9 449.4 362.9 452.9 366.5 460 366.5 459.4 366.5 460.6 366.5 462.4 370.1 458.8 370.1 450.5 370.1 448.2 370.1 445.2 370.1 439.3 374.2 436.9 374.2 439.3 374.2 418.5 374.2 420.9 377.8 408.5 377.8 416.2 377.8 420.9 377.8 417.4 381.3 415.6 381.3 416.2 381.3 403.7 381.3 404.3 381.3 406.1 384.9 398.4 384.9 400.8 384.9 408.5 384.9 413.8 388.4 413.2 388.4 410.8 388.4 416.2 388.4 419.7 392 414.4 392 407.9 392 410.2 392 407.9 395.5 402.5 395.5 401.9 395.5 400.8 395.5 394.8 399.7 395.4 399.7 401.9 399.7 404.3 399.7 409.6 399.7 413.2 403.2 410.8 403.2 407.9 403.2 408.5 403.2 412.6 406.8 405.5 406.8 412.6 406.8 407.9 406.8 409.1 410.4 409.1 410.4 413.8 410.4 409.1 410.4 412 413.9 416.2 413.9 413.8 413.9 419.1 413.9 418.5 413.9 421.5 417.5 416.2 417.5 415 417.5 418.5 421 413.2 421 419.7 421 421.5 421 422.1 425.2 420.9 425.2 424.5 425.2 428.6 425.2 425.1 425.2 428 428.7 422.1 428.7 414.4 428.7 416.8 428.7 419.1 432.3 423.9 432.3 431.6 432.3 435.7 432.3 432.2 432.3 428.6 435.8 430.4 435.8 429.2 435.8 429.8 435.8 437.5 439.4 429.8 439.4 441.7 439.4 437.5 439.4 432.8 443 439.9 443 448.2 443 453.5 443 455.9 443 463.6 446.5 447.6 446.5 442.8 446.5 439.9 446.5 445.8 450.7 433.4 450.7 439.9 450.7 449.4 450.7 447.6 454.2 453.5 454.2 448.2 454.2 452.3 454.2 449.9 457.8 439.9 457.8 438.1 457.8 435.1 457.8 439.3 461.3 425.1 461.3 425.6 461.3 432.8 461.3 421.5 464.9 426.2 464.9 425.6 464.9 428 464.9 432.2 464.9 436.3 468.4 437.5 468.4 435.7 468.4 443.4 468.4 436.3 472 439.3 472 436.3 472 438.7 472 437.5 476.1 445.8 476.1 441.1 476.1 444 476.1 441.1 476.1 438.1 479.7 429.2 479.7 432.2 479.7 434.5 483.3 432.2 483.3 439.3 483.3 435.1 483.3 433.4 486.8 432.2 486.8 439.9 486.8 444 486.8 442.8 486.8 449.4 490.4 454.1 490.4 458.2 490.4 457.7 493.9 451.7 493.9 446.4 493.9 451.7 493.9 450.5 497.5 457.1 497.5 460 497.5 458.2 497.5 451.1 497.5 454.1 501.6 456.5 501.6 460.6 501.6 453.5 501.6 452.9 505.2 460.6 505.2 463.6 505.2 465.4 505.2 467.7 508.7 473.7 508.7 477.8 508.7 468.3 508.7 467.7 508.7 473.1 512.3 466.5 512.3 470.1 512.3 467.1 512.3 464.2 515.9 465.4 515.9 461.8 515.9 461.2 515.9 464.8 515.9 466 519.4 460 519.4 455.9 519.4 458.8 519.4 453.5 523 457.1 523 438.1 523 427.4 527.1 426.2 527.1 422.1 527.1 415.6 527.1 418.5 527.1 423.3 530.7 424.5 530.7 425.6 530.7 422.1 530.7 420.9 534.2 422.1 534.2 425.1 534.2 424.5 534.2 429.8 537.8 421.5 537.8 416.8 537.8 420.3 537.8 424.5 537.8 426.2 541.3 426.2 541.3 433.4 541.3 432.8 541.3 431.6 544.9 428 544.9 429.2 544.9 433.9 544.9 433.4 548.5 437.5 548.5 435.1 548.5 438.1 548.5 430.4 552.6 426.2 552.6 428.6 552.6 433.4 552.6 431 556.2 432.2 556.2 435.7 556.2 436.9 559.7 436.9 559.7 442.8 559.7 435.1 559.7 432.8 559.7 428.6 563.3 427.4 563.3 431.6 563.3 426.2 563.3 425.1 566.8 428.6 566.8 425.6 566.8 428 570.4 427.4 570.4 426.2 570.4 427.4 570.4 421.5 570.4 425.1 573.9 421.5 573.9 417.9 573.9 412 578.1 403.1 578.1 402.5 578.1 401.3 578.1 401.9 581.6 401.9 581.6 400.2 581.6 403.1 581.6 404.3 581.6 408.5 585.2 406.7 585.2 403.7 585.2 397.2 588.8 397.8 588.8 396.6 588.8 391.9 588.8 398.4 592.3 400.2 592.3 397.8 592.3 399 592.3 400.2 592.3 401.9 595.9 403.7 595.9 400.2 595.9 397.2 599.4 397.8 599.4 401.3 599.4 401.9 599.4 404.3 599.4 401.9 603.6 397.8 603.6 395.4 603.6 391.9 607.1 383 607.1 387.1 607.1 385.3 607.1 391.3 610.7 384.2 610.7 385.9 610.7 391.9 610.7 393.1 610.7 395.4 614.2 402.5 614.2 400.8 614.2 405.5 614.2 409.1 617.8 412 617.8 410.2 617.8 406.1 617.8 407.3 621.3 410.8 621.3 413.2 621.3 412 621.3 412.6 624.9 407.3 624.9 413.8 624.9 415.6 624.9 423.3 624.9 425.1 629.1 420.3 629.1 416.8 629.1 417.4 629.1 420.3 632.6 419.1 632.6 422.1 632.6 425.6 632.6 429.2 632.6 439.3 636.2 441.7 636.2 442.8 636.2 445.2 639.7 444 639.7 439.3 639.7 442.8 639.7 442.2 643.3 453.5 643.3 458.2 643.3 468.3 643.3 468.9 643.3 471.3 646.8 467.7 646.8 450.5 646.8 459.4 646.8 461.8 650.4 469.5 650.4 459.4 650.4 458.2 650.4 455.9 654.5 460 654.5 448.8 654.5 454.1 654.5 457.1 658.1 454.1 658.1 454.7 658.1 449.9 658.1 451.7 661.7 456.5 661.7 454.7 661.7 461.8 661.7 470.7 665.2 466.5 665.2 472.5 665.2 488.5 668.8 508 668.8 498 668.8 503.9 668.8 512.8 672.3 516.3 672.3 510.4 672.3 514 672.3 516.3 675.9 515.7 675.9 512.2 675.9 514 675.9 513.4 680 501.5 680 511 680 511.6 680 514 683.6 512.8 683.6 514 683.6 515.1 683.6 516.9 683.6 520 687.1 518.1 687.1 511 687.1 515.1 687.1 510.4 690.7 510.4 690.7 512.8 690.7 511.6 690.7 513.4 694.2 511 694.2 507.4 694.2 509.2 694.2 503.9 694.2 502.7 697.8 505.1 697.8 501.5 697.8 505.1 697.8 504.5 701.4 498 701.4 501.5 701.4 498.5 701.4 499.7 705.5 500.3 705.5 490.2 705.5 492 705.5 492.6 709.1 487.9 709.1 485.5 709.1 479 709.1 475.4 712.6 467.7 712.6 464.8 712.6 459.4 712.6 461.8 716.2 459.4 716.2 463 716.2 466.5 716.2 467.7 716.2 464.2 719.7 467.1 719.7 464.2 719.7 464.8 719.7 466 723.3 468.3 723.3 473.1 723.3 473.7 723.3 469.5 726.8 474.8 726.8 477.8 726.8 481.4 726.8 482 726.8 484.9 731 481.4 731 482 731 483.1 731 480.8 734.5 479.6 734.5 479 734.5 477.8 734.5 473.1 738.1 472.5 738.1 465.4 738.1 467.1 738.1 464.2 738.1 468.3 741.7 473.1 741.7 467.7 741.7 468.3 741.7 472.5 745.2 479 745.2 471.9 745.2 476 745.2 471.3 745.2 470.1 748.8 457.7 748.8 456.5 748.8 457.7 748.8 457.1 752.3 449.9 752.3 448.8 752.3 449.4 752.3 447.6 756.5 459.4 756.5 445.8 756.5 438.1 756.5 421.5 760 426.2 760 410.2 760 403.7 760 400.2 760 398.4 763.6 388.3 763.6 399 763.6 406.1 763.6 408.5 767.1 398.4 767.1 387.1 767.1 383.6 767.1 388.3 770.7 400.8 770.7 390.7 770.7 399.6 770.7 407.9 770.7 412.6 774.3 403.7 774.3 396.6 774.3 393.1 777.8 385.3 777.8 379.4 777.8 372.3 777.8 360.5 777.8 353.3 782 350.4 782 343.3 782 333.2 782 343.9 785.5 336.2 785.5 353.9 785.5 353.3 785.5 360.5 789.1 370.5 789.1 365.8 789.1 370.5 789.1 357.5 789.1 351 792.6 367 792.6 369.3 792.6 370.5 792.6 369.3 796.2 368.8 796.2 358.1 796.2 353.9 796.2 347.4 799.7 346.8 799.7 359.9 799.7 373.5 799.7 375.9 799.7 371.1 803.3 375.3 803.3 369.3 803.3 365.8 803.3 373.5 807.4 372.9 807.4 371.7 807.4 361 807.4 354.5 811 359.9 811 357.5 811 356.3 811 358.1 811 352.8 814.6 341.5 814.6 352.8 814.6 346.8 818.1 342.7 818.1 336.7 818.1 331.4 818.1 332.6 821.7 335.6 821.7 330.8 821.7 327.9 821.7 322.5 821.7 315.4 825.2 304.2 825.2 313.6 825.2 298.2 825.2 302.4 828.8 315.4 828.8 311.3 828.8 322.5 828.8 320.7 832.9 334.4 832.9 333.2 832.9 349.2 832.9 349.8 832.9 350.4 836.5 342.1 836.5 347.4 836.5 338.5 836.5 337.3 840 343.3 840 335.6 840 330.2 840 332 843.6 335.6 843.6 340.9 843.6 329 843.6 334.4 847.2 324.3 847.2 317.8 847.2 313 847.2 310.7 850.7 319 850.7 319.6 850.7 323.1 850.7 320.7 850.7 319 854.3 322.5 854.3 333.2 854.3 331.4 854.3 324.3 858.4 330.2 858.4 335 858.4 332.6 858.4 334.4 862 355.1 862 347.4 862 350.4 862 354.5 862 349.2 865.5 359.3 865.5 362.2 865.5 357.5 865.5 356.9 869.1 346.2 869.1 339.1 869.1 340.3 869.1 332.6 872.6 324.9 872.6 329 872.6 321.9 872.6 324.3 872.6 336.2 876.2 336.7 876.2 324.3 876.2 317.8 876.2 313 879.8 314.2 879.8 305.9 879.8 312.4 879.8 313 879.8 317.2 883.9 319.6 883.9 320.2 883.9 322.5 883.9 333.8 887.5 329 887.5 328.5 887.5 332 891 344.5 891 319.6 891 327.9 891 332.6 894.6 329 894.6 325.5 894.6 320.2 894.6 318.4 894.6 324.3 898.1 319 898.1 324.3 898.1 325.5 898.1 330.2 901.7 326.7 901.7 323.7 901.7 324.9 905.2 333.8 905.2 330.2 905.2 328.5 905.2 331.4 905.2 332.6 909.4 340.9 909.4 337.9 909.4 335.6 912.9 338.5 912.9 342.7 912.9 343.9 912.9 344.5 912.9 340.3 916.5 339.7 916.5 336.7 916.5 341.5 916.5 343.9 920.1 337.3 920.1 335 920.1 336.7 920.1 337.9 923.6 335 923.6 336.2 923.6 333.2 923.6 332.6 927.2 333.8 927.2 342.1 927.2 340.3 927.2 347.4 930.7 337.3 930.7 330.2 930.7 325.5 930.7 322.5 934.9 327.3 934.9 328.5 934.9 332 934.9 329 938.4 325.5 938.4 326.7 938.4 314.2 938.4 316 938.4 322.5 941.9 317.8 941.9 320.2"/>
  <polyline class="st6" points="155.5 457.7 155.5 464.8 159.1 463 159.1 465.4 159.1 467.1 159.1 466.5 162.6 470.1 162.6 471.9 162.6 472.5 162.6 473.1 162.6 474.8 166.2 472.5 166.2 468.9 166.2 471.3 166.2 472.5 169.7 473.1 169.7 469.5 169.7 466.5 169.7 470.7 169.7 471.9 173.9 470.1 173.9 470.7 173.9 476 177.4 477.2 177.4 476 177.4 484.3 177.4 485.5 181 487.3 181 481.4 181 484.9 181 483.7 181 481.4 184.6 479 184.6 482.5 184.6 482 188.1 480.8 188.1 479.6 188.1 482.5 188.1 479 191.7 474.8 191.7 473.1 191.7 474.2 195.2 475.4 195.2 473.1 195.2 474.2 195.2 471.3 199.4 470.7 199.4 469.5 199.4 473.1 199.4 475.4 202.9 479.6 202.9 480.8 202.9 479.6 202.9 476.6 202.9 474.8 206.5 473.7 206.5 476.6 206.5 480.2 210 479.6 210 480.2 210 478.4 210 480.2 213.6 483.1 213.6 481.4 213.6 479 213.6 477.2 213.6 474.8 217.1 473.1 217.1 478.4 217.1 480.2 217.1 483.1 220.7 481.4 220.7 484.3 220.7 482 224.9 481.4 224.9 477.8 224.9 479.6 228.4 477.2 228.4 479 228.4 480.8 232 480.2 232 478.4 232 477.2 232 476.6 235.5 477.8 235.5 476.6 235.5 478.4 235.5 480.2 235.5 481.4 239.1 482 239.1 480.8 239.1 483.7 239.1 483.1 242.6 482 242.6 484.3 242.6 485.5 242.6 488.5 246.2 490.8 246.2 487.9 246.2 491.4 246.2 492 246.2 492.6 250.3 492.6 250.3 496.8 250.3 499.1 250.3 495.6 253.9 488.5 253.9 487.9 253.9 492 253.9 495.6 257.5 498 257.5 502.7 257.5 502.1 257.5 501.5 257.5 499.1 261 499.1 261 496.2 261 492.6 261 486.1 264.6 485.5 264.6 486.1 264.6 487.9 264.6 489.7 268.1 485.5 268.1 484.9 271.7 481.4 271.7 480.2 271.7 480.8 271.7 483.1 275.8 480.8 275.8 483.1 275.8 485.5 275.8 484.9 279.4 482 279.4 479.6 279.4 481.4 279.4 484.9 279.4 485.5 282.9 488.5 282.9 489.7 286.5 489.1 286.5 490.2 286.5 490.8 290 489.1 290 487.3 290 491.4 290 490.8 290 492 293.6 496.2 293.6 493.8 293.6 496.8 293.6 494.4 297.2 495 297.2 496.2 297.2 495.6 297.2 496.8 297.2 495 301.3 496.8 301.3 495.6 301.3 494.4 304.9 496.8 304.9 498 304.9 499.1 304.9 495 308.4 492.6 308.4 495 308.4 496.8 308.4 497.4 308.4 496.8 312 497.4 312 499.1 312 497.4 312 498 315.5 499.1 315.5 497.4 315.5 499.1 315.5 497.4 319.1 498 319.1 496.8 319.1 493.8 319.1 495 319.1 496.8 322.6 496.8 322.6 499.1 322.6 501.5 326.8 502.1 326.8 503.9 326.8 505.1 326.8 502.1 330.3 505.7 330.3 503.9 330.3 505.1 330.3 504.5 333.9 506.3 333.9 507.4 333.9 509.2 337.5 509.2 337.5 506.3 337.5 504.5 337.5 506.3 337.5 506.8 341 505.1 341 506.3 341 507.4 344.6 507.4 344.6 508 344.6 507.4 344.6 508 348.1 507.4 348.1 509.8 348.1 509.2 348.1 511 352.3 511 352.3 509.8 352.3 508 352.3 506.8 355.8 505.1 355.8 505.7 355.8 508.6 355.8 510.4 359.4 508 359.4 508.6 359.4 509.8 362.9 513.4 362.9 514 362.9 515.1 362.9 518.1 362.9 519.3 366.5 519.9 366.5 515.7 366.5 517.5 366.5 516.9 370.1 518.1 370.1 511.6 370.1 506.8 370.1 504.5 370.1 503.3 374.2 503.9 374.2 505.1 374.2 502.7 374.2 503.9 377.8 503.3 377.8 505.1 377.8 505.7 377.8 506.8 381.3 505.1 381.3 508.6 381.3 508 381.3 510.4 384.9 507.4 384.9 509.8 384.9 511.6 384.9 512.2 388.4 514 388.4 515.7 392 516.3 392 516.9 392 515.1 392 516.3 395.5 513.4 395.5 511.6 395.5 512.8 395.5 511 399.7 509.2 399.7 511.6 399.7 512.8 399.7 515.1 399.7 515.7 403.2 515.7 403.2 516.3 403.2 517.5 406.8 515.1 406.8 516.3 406.8 515.1 410.4 514 410.4 516.3 410.4 515.1 413.9 515.7 413.9 516.3 413.9 517.5 413.9 516.9 413.9 517.5 417.5 516.3 417.5 517.5 417.5 518.1 421 518.1 421 519.9 421 519.3 421 519.9 425.2 519.9 425.2 521.7 425.2 521.1 425.2 521.7 428.7 519.3 428.7 517.5 428.7 518.1 428.7 520.5 432.3 520.5 432.3 521.7 432.3 522.8 432.3 524 435.8 522.3 435.8 523.4 435.8 525.8 439.4 525.8 439.4 527 439.4 528.8 439.4 530 443 530.6 443 532.9 443 534.7 443 535.3 443 532.9 446.5 530 446.5 525.2 446.5 527.6 446.5 530 450.7 527 450.7 526.4 450.7 530.6 450.7 528.2 454.2 528.2 454.2 529.4 454.2 531.1 454.2 532.3 457.8 528.8 457.8 525.8 457.8 526.4 457.8 525.8 457.8 527 461.3 522.3 461.3 521.1 461.3 525.8 461.3 522.8 464.9 522.3 464.9 524.6 464.9 525.2 464.9 526.4 468.4 525.8 468.4 527.6 468.4 528.2 468.4 527.6 472 528.8 472 529.4 472 531.1 472 530.6 476.1 531.1 476.1 530.6 476.1 531.7 476.1 531.1 479.7 530.6 479.7 531.7 479.7 530.6 479.7 531.7 483.3 530 483.3 530.6 483.3 533.5 483.3 532.9 486.8 533.5 486.8 535.3 486.8 535.9 486.8 534.7 486.8 541.8 490.4 545.4 490.4 542.4 490.4 546.6 490.4 550.1 493.9 548.9 493.9 547.1 493.9 551.9 497.5 550.1 497.5 551.3 497.5 553.1 497.5 552.5 497.5 550.7 501.6 553.1 501.6 552.5 505.2 551.9 505.2 554.3 505.2 555.4 508.7 559.6 508.7 561.2 508.7 558.4 508.7 556.6 512.3 551.9 512.3 552.5 512.3 550.7 515.9 548.3 515.9 547.7 515.9 548.9 515.9 551.3 519.4 550.1 519.4 549.5 523 550.1 523 548.3 523 544.8 527.1 544.8 527.1 543.6 527.1 543 527.1 544.2 527.1 544.8 530.7 544.2 530.7 543.6 530.7 543 534.2 541.8 534.2 542.4 534.2 543.6 537.8 543 537.8 542.4 537.8 543 537.8 543.6 541.3 543.6 541.3 546.6 541.3 546 544.9 546 544.9 544.8 548.5 544.2 548.5 542.4 552.6 542.4 552.6 543 552.6 543.6 552.6 543 556.2 543.6 556.2 545.4 556.2 546 559.7 547.1 559.7 545.4 559.7 546 559.7 543.6 563.3 544.2 563.3 543.6 563.3 543 566.8 544.2 566.8 544.8 566.8 545.4 570.4 545.4 570.4 544.2 570.4 544.8 570.4 544.2 573.9 543.6 573.9 543 573.9 542.4 573.9 543 578.1 542.4 578.1 543.6 578.1 544.2 581.6 543.6 581.6 544.2 581.6 544.8 581.6 546 581.6 544.2 585.2 544.8 585.2 543.6 585.2 544.2 588.8 544.8 588.8 543.6 588.8 544.8 592.3 544.2 592.3 544.8 592.3 545.4 595.9 545.4 595.9 544.8 595.9 545.4 595.9 541.8 599.4 541.2 599.4 541.8 603.6 541.2 603.6 540 603.6 540.6 607.1 538.8 607.1 539.4 607.1 541.2 610.7 540.6 610.7 541.8 610.7 542.4 614.2 544.2 614.2 545.4 614.2 544.8 614.2 547.1 617.8 548.9 617.8 546 617.8 547.1 621.3 547.7 621.3 548.3 621.3 547.7 621.3 548.9 624.9 547.1 624.9 548.3 624.9 548.9 624.9 550.7 624.9 551.3 629.1 548.3 629.1 549.5 629.1 548.3 629.1 548.9 632.6 548.9 632.6 549.5 632.6 550.7 632.6 551.9 636.2 553.1 636.2 553.7 636.2 554.9 639.7 554.9 639.7 552.5 639.7 553.7 639.7 554.3 643.3 555.4 643.3 557.8 643.3 558.4 643.3 560.8 646.8 559 646.8 554.9 646.8 557.2 646.8 559 650.4 557.8 650.4 556 650.4 553.7 650.4 554.3 654.5 556 654.5 549.5 654.5 550.7 658.1 547.1 658.1 547.7 658.1 546.6 658.1 547.1 661.7 547.7 661.7 547.1 661.7 546.6 661.7 547.7 661.7 550.1 665.2 548.9 665.2 548.3 665.2 549.5 665.2 554.9 668.8 553.7 668.8 545.4 668.8 543.6 668.8 546.6 672.3 547.7 672.3 546.6 672.3 546 672.3 547.7 675.9 548.3 675.9 547.1 675.9 546.6 680 544.2 680 546.6 680 546 680 546.6 683.6 545.4 683.6 546 687.1 546.6 687.1 544.2 687.1 545.4 687.1 544.2 690.7 544.8 690.7 545.4 690.7 546 690.7 546.6 694.2 546 694.2 545.4 694.2 546 694.2 544.8 697.8 546 697.8 545.4 697.8 546 697.8 545.4 701.4 546 701.4 546.6 701.4 546 705.5 546 705.5 544.8 705.5 545.4 705.5 544.8 705.5 544.2 709.1 544.2 709.1 543.6 709.1 541.2 709.1 538.8 712.6 542.4 712.6 540.6 712.6 541.2 712.6 543 716.2 540.6 716.2 541.2 716.2 542.4 716.2 543.6 716.2 541.8 719.7 542.4 719.7 543 723.3 542.4 723.3 545.4 723.3 544.2 723.3 544.8 726.8 544.8 726.8 545.4 726.8 546 731 546 731 545.4 731 546.6 731 545.4 734.5 544.8 734.5 544.2 734.5 543.6 738.1 544.2 738.1 542.4 738.1 543 738.1 541.8 741.7 543.6 741.7 543 745.2 544.2 745.2 543.6 748.8 540 748.8 539.4 748.8 540 748.8 538.3 752.3 537.1 752.3 535.3 752.3 535.9 756.5 538.8 756.5 537.7 756.5 536.5 756.5 534.7 760 535.3 760 534.7 760 534.1 760 535.3 763.6 534.7 763.6 535.3 767.1 534.7 767.1 534.1 767.1 535.3 770.7 535.9 770.7 534.7 770.7 535.3 770.7 535.9 770.7 537.7 774.3 538.3 774.3 537.1 774.3 536.5 774.3 535.9 777.8 534.7 777.8 534.1 777.8 535.3 777.8 534.7 782 534.1 782 534.7 785.5 534.1 785.5 534.7 785.5 534.1 789.1 534.1 789.1 527.6 789.1 525.8 792.6 521.7 792.6 521.1 792.6 527.6 792.6 522.3 796.2 522.3 796.2 521.7 796.2 521.1 796.2 521.7 799.7 521.7 799.7 526.4 799.7 532.3 799.7 530 803.3 523.4 803.3 522.8 803.3 527 807.4 525.8 807.4 527 807.4 525.8 811 525.8 811 525.2 811 526.4 811 528.2 811 527 814.6 525.2 814.6 522.8 814.6 524.6 814.6 518.7 818.1 514 818.1 517.5 818.1 515.1 818.1 513.4 821.7 515.1 821.7 514 821.7 511 821.7 509.2 821.7 508 825.2 506.3 825.2 508.6 825.2 504.5 825.2 502.7 828.8 500.3 828.8 503.9 828.8 508.6 828.8 507.4 832.9 511.6 832.9 508 832.9 511.6 832.9 515.7 836.5 516.3 836.5 516.9 836.5 513.4 836.5 511 840 512.8 840 510.4 840 509.8 840 510.4 843.6 511 843.6 509.8 843.6 507.4 843.6 509.2 843.6 510.4 847.2 508 847.2 503.9 847.2 502.1 850.7 501.5 850.7 500.9 850.7 499.1 850.7 496.2 850.7 492.6 854.3 498 854.3 499.1 854.3 498 854.3 493.8 858.4 492.6 858.4 493.2 858.4 494.4 858.4 493.2 862 499.1 862 503.9 862 502.7 862 501.5 865.5 503.9 865.5 504.5 865.5 503.9 869.1 502.1 869.1 499.1 869.1 498 869.1 498.5 872.6 499.1 872.6 496.2 872.6 492.6 872.6 492 872.6 494.4 876.2 493.8 876.2 494.4 876.2 493.8 876.2 490.8 879.8 492 879.8 486.1 879.8 484.9 879.8 483.7 883.9 481.4 883.9 478.4 883.9 474.8 883.9 477.2 887.5 470.1 887.5 468.9 891 486.7 891 480.8 891 482 891 479 894.6 483.1 894.6 477.8 894.6 473.1 894.6 469.5 894.6 471.3 898.1 473.7 898.1 475.4 898.1 476 898.1 474.2 901.7 474.2 901.7 470.1 901.7 468.9 901.7 466 905.2 468.3 905.2 471.3 905.2 467.7 905.2 464.8 905.2 466 909.4 467.1 909.4 466.5 909.4 463.6 912.9 463 912.9 461.8 912.9 464.8 912.9 463 912.9 462.4 916.5 461.8 916.5 460.6 916.5 457.1 916.5 455.3 920.1 448.8 920.1 448.2 920.1 444.6 920.1 444 923.6 442.8 923.6 441.1 923.6 436.3 923.6 432.8 923.6 433.4 927.2 434.5 927.2 439.9 930.7 436.9 930.7 432.8 930.7 432.2 930.7 426.2 934.9 426.2 934.9 423.9 934.9 424.5 934.9 423.9 938.4 420.3 938.4 421.5 938.4 409.6 938.4 407.6 938.4 412 941.9 412 941.9 414.4"/>
  <polyline class="st4" points="155.5 286.4 155.5 292.3 159.1 295.9 159.1 299.4 159.1 291.7 159.1 294.1 162.6 301.8 162.6 310.1 162.6 315.4 162.6 314.2 162.6 320.2 166.2 324.9 166.2 314.2 166.2 313.6 166.2 316.6 169.7 323.7 169.7 320.7 169.7 310.7 169.7 326.1 169.7 317.8 173.9 335 173.9 340.9 173.9 351.6 173.9 356.3 177.4 374.1 177.4 364.6 177.4 385.9 177.4 392.5 181 393.1 181 388.3 181 380 181 360.5 181 359.3 184.6 358.1 184.6 367 184.6 374.1 184.6 363.4 188.1 391.9 188.1 397.8 188.1 393.6 188.1 380.6 191.7 373.5 191.7 380.6 191.7 377 191.7 370.5 195.2 367 195.2 358.1 195.2 367.6 195.2 358.1 195.2 357.5 199.4 348.6 199.4 345.6 199.4 353.9 199.4 360.5 202.9 358.1 202.9 357.5 202.9 353.9 202.9 346.2 202.9 354.5 206.5 354.5 206.5 360.5 206.5 362.2 206.5 367 210 363.4 210 364 210 357.5 210 364 213.6 372.9 213.6 372.3 213.6 364.6 213.6 361 213.6 363.4 217.1 350.4 217.1 354.5 217.1 362.8 217.1 367.6 220.7 359.3 220.7 351.6 220.7 355.7 220.7 344.5 224.9 343.9 224.9 341.5 224.9 347.4 224.9 348.6 224.9 349.2 228.4 350.4 228.4 342.1 228.4 335.6 228.4 342.7 232 341.5 232 339.7 232 346.8 232 342.7 235.5 348.6 235.5 342.1 235.5 345 235.5 342.1 235.5 352.2 239.1 352.8 239.1 356.9 239.1 367 239.1 365.8 242.6 368.8 242.6 371.7 242.6 367.6 242.6 375.9 246.2 377 246.2 378.2 246.2 372.9 246.2 378.8 250.3 383.6 250.3 388.9 250.3 396 250.3 400.2 253.9 394.8 253.9 388.9 253.9 388.3 253.9 393.1 257.5 396.6 257.5 401.9 257.5 397.8 257.5 397.2 257.5 391.3 261 396 261 384.8 261 375.3 261 377.6 264.6 374.1 264.6 368.8 264.6 367 264.6 369.3 264.6 374.7 268.1 369.3 268.1 364 268.1 359.9 268.1 362.2 271.7 353.9 271.7 351 271.7 354.5 271.7 364 275.8 363.4 275.8 367.6 275.8 369.3 275.8 364 279.4 358.7 279.4 353.9 279.4 364.6 279.4 368.2 279.4 373.5 282.9 375.9 282.9 376.5 282.9 377.6 282.9 380 286.5 380.6 286.5 383.6 286.5 384.8 286.5 388.3 290 375.9 290 385.3 290 391.3 290 389.5 290 401.9 293.6 410.8 293.6 418.5 293.6 426.2 293.6 420.3 297.2 423.3 297.2 432.8 297.2 420.9 297.2 427.4 297.2 423.9 301.3 422.1 301.3 415 301.3 418.5 301.3 415 304.9 429.8 304.9 431 304.9 432.8 304.9 431 308.4 431 308.4 437.5 308.4 443.4 308.4 444 308.4 447 312 444.6 312 447 312 439.9 312 442.2 315.5 436.3 315.5 439.9 315.5 436.3 315.5 442.2 319.1 438.7 319.1 438.1 319.1 423.3 319.1 431.6 319.1 435.1 322.6 437.5 322.6 443.4 322.6 436.9 322.6 439.3 326.8 445.8 326.8 447.6 326.8 454.7 326.8 458.2 330.3 469.5 330.3 464.8 330.3 462.4 330.3 459.4 330.3 458.8 333.9 466.5 333.9 468.3 333.9 471.9 333.9 468.9 337.5 467.7 337.5 468.9 337.5 462.4 337.5 469.5 337.5 472.5 341 461.8 341 447.6 341 454.1 341 459.4 344.6 457.1 344.6 459.4 344.6 451.7 344.6 452.3 348.1 452.9 348.1 458.8 348.1 459.4 348.1 453.5 348.1 457.1 352.3 458.8 352.3 452.3 352.3 451.7 352.3 454.7 355.8 439.9 355.8 441.7 355.8 445.2 355.8 442.8 359.4 440.5 359.4 441.1 359.4 435.7 359.4 439.9 362.9 452.3 362.9 442.2 362.9 448.8 362.9 452.9 362.9 457.1 366.5 464.2 366.5 459.4 366.5 463 366.5 461.8 370.1 459.4 370.1 451.1 370.1 451.7 370.1 450.5 370.1 445.2 374.2 442.2 374.2 425.1 374.2 423.3 377.8 420.9 377.8 429.2 377.8 431 377.8 428.6 381.3 423.9 381.3 422.7 381.3 410.2 381.3 409.6 381.3 406.7 384.9 398.4 384.9 399.6 384.9 399 384.9 409.6 388.4 408.5 388.4 409.6 388.4 414.4 392 413.2 392 406.7 392 407.9 392 405.5 392 406.7 395.5 400.2 395.5 397.8 395.5 391.3 399.7 393.6 399.7 401.3 399.7 403.7 399.7 406.7 399.7 409.6 403.2 409.6 403.2 405.5 403.2 406.1 403.2 409.1 406.8 405.5 406.8 412 406.8 407.9 406.8 409.1 410.4 410.8 410.4 415 410.4 412 410.4 413.2 413.9 413.2 413.9 410.8 413.9 417.4 413.9 413.2 413.9 416.8 417.5 412.6 417.5 407.9 417.5 407.3 417.5 413.2 421 407.3 421 415 421 416.8 425.2 417.9 425.2 422.1 425.2 429.2 425.2 425.1 425.2 426.8 428.7 422.1 428.7 419.1 428.7 417.9 428.7 422.1 432.3 425.6 432.3 434.5 432.3 435.7 432.3 433.9 432.3 433.4 435.8 435.1 435.8 439.9 435.8 443.4 435.8 449.4 439.4 444.6 439.4 455.9 439.4 452.9 439.4 451.7 443 460 443 466 443 468.9 443 471.9 443 479.6 446.5 463.6 446.5 461.8 446.5 457.7 446.5 455.9 450.7 448.2 450.7 460 450.7 470.1 450.7 468.9 454.2 466 454.2 466.5 454.2 463.6 457.8 453.5 457.8 451.7 457.8 449.4 457.8 455.3 461.3 441.7 461.3 446.4 461.3 445.2 461.3 436.3 464.9 445.8 464.9 441.7 464.9 448.8 464.9 451.7 468.4 453.5 468.4 451.7 468.4 461.2 468.4 447.6 472 454.1 472 453.5 476.1 460.6 476.1 452.3 476.1 455.9 476.1 452.3 476.1 449.4 479.7 443.4 479.7 446.4 479.7 451.7 479.7 454.7 483.3 449.4 483.3 455.3 483.3 454.1 483.3 449.9 486.8 447.6 486.8 457.1 486.8 462.4 486.8 460 486.8 467.7 490.4 467.7 490.4 475.4 490.4 476 493.9 471.9 493.9 467.1 493.9 473.7 493.9 473.1 497.5 475.4 497.5 477.8 497.5 475.4 497.5 466 501.6 474.8 501.6 477.2 501.6 473.1 501.6 474.2 505.2 482 505.2 484.3 505.2 489.1 505.2 492 508.7 503.3 508.7 509.8 508.7 504.5 508.7 506.3 508.7 512.2 512.3 512.8 512.3 520.5 512.3 515.1 512.3 518.1 515.9 509.8 515.9 503.3 515.9 502.7 515.9 509.8 515.9 509.2 519.4 498 519.4 491.4 519.4 483.1 523 489.7 523 477.8 523 473.1 523 474.8 527.1 477.2 527.1 473.1 527.1 474.2 527.1 479 527.1 484.3 530.7 476.6 530.7 477.8 530.7 474.2 530.7 472.5 534.2 478.4 534.2 483.1 534.2 485.5 534.2 492 537.8 486.7 537.8 484.3 537.8 483.7 537.8 486.1 537.8 489.1 541.3 492.6 541.3 493.8 541.3 494.4 541.3 492 544.9 490.2 544.9 492 544.9 491.4 544.9 495.6 548.5 494.4 548.5 496.2 548.5 495 548.5 494.4 548.5 483.1 552.6 480.8 552.6 480.2 552.6 487.3 552.6 485.5 556.2 487.3 556.2 493.2 556.2 491.4 556.2 493.2 559.7 493.2 559.7 496.8 559.7 480.8 559.7 478.4 559.7 477.8 563.3 477.8 563.3 479.6 563.3 478.4 566.8 483.1 566.8 479 566.8 481.4 566.8 483.7 570.4 484.3 570.4 482 570.4 488.5 570.4 483.7 570.4 486.7 573.9 483.7 573.9 479 573.9 473.7 578.1 467.1 578.1 466.5 578.1 469.5 581.6 471.9 581.6 471.3 581.6 474.2 581.6 473.7 581.6 478.4 585.2 476 585.2 474.2 585.2 471.9 585.2 473.7 588.8 476 588.8 473.7 588.8 470.7 588.8 480.2 592.3 482 592.3 476.6 592.3 479.6 592.3 480.2 592.3 482 595.9 482.5 595.9 484.3 595.9 482 599.4 479.6 599.4 483.7 599.4 484.3 599.4 482 599.4 474.8 603.6 473.1 603.6 469.5 603.6 468.3 603.6 467.1 607.1 459.4 607.1 464.2 607.1 467.1 607.1 476.6 610.7 471.3 610.7 475.4 610.7 477.2 610.7 477.8 614.2 482.5 614.2 484.3 614.2 480.2 614.2 482.5 617.8 482 617.8 481.4 617.8 478.4 617.8 480.8 621.3 483.7 621.3 488.5 621.3 487.9 624.9 481.4 624.9 486.7 624.9 485.5 624.9 495.6 624.9 496.2 629.1 490.2 629.1 485.5 629.1 486.1 629.1 489.1 632.6 484.9 632.6 489.1 632.6 494.4 632.6 498.5 632.6 502.1 636.2 505.7 636.2 503.9 636.2 504.5 639.7 509.2 639.7 504.5 639.7 509.8 639.7 512.2 643.3 518.7 643.3 522.3 643.3 523.4 643.3 522.3 646.8 521.1 646.8 508 646.8 515.1 646.8 521.7 650.4 524.6 650.4 511 650.4 512.2 654.5 513.4 654.5 506.8 654.5 509.8 654.5 511 654.5 511.6 658.1 507.4 658.1 506.8 658.1 507.4 658.1 508.6 661.7 509.2 661.7 508 661.7 514.5 661.7 518.1 661.7 520.5 665.2 518.1 665.2 515.1 665.2 517.5 665.2 524.6 668.8 534.7 668.8 525.8 668.8 518.7 668.8 528.2 672.3 531.1 672.3 531.7 675.9 534.1 675.9 534.7 675.9 535.3 675.9 537.7 680 528.8 680 536.5 680 534.7 680 538.3 683.6 537.1 683.6 538.8 683.6 538.3 683.6 539.4 683.6 541.4 687.1 539.4 687.1 534.7 687.1 536.5 687.1 531.1 690.7 533.5 690.7 537.7 690.7 537.1 694.2 534.1 694.2 532.3 694.2 537.7 694.2 532.3 694.2 533.5 697.8 532.9 697.8 529.4 697.8 531.7 697.8 532.3 701.4 528.8 701.4 538.3 701.4 534.1 705.5 537.1 705.5 532.3 705.5 531.1 705.5 530 709.1 522.3 709.1 520.5 709.1 511.6 709.1 505.1 712.6 508.6 712.6 505.1 712.6 504.5 712.6 508.6 716.2 506.3 716.2 507.4 716.2 508 716.2 509.2 716.2 503.9 719.7 507.4 719.7 503.3 719.7 504.5 719.7 506.3 723.3 506.8 723.3 511 723.3 508.6 723.3 507.4 726.8 511 726.8 513.4 726.8 515.1 726.8 516.9 726.8 518.1 731 515.7 731 517.5 731 520.5 731 517.5 734.5 510.4 734.5 508.6 734.5 503.9 734.5 499.7 738.1 496.2 738.1 487.9 738.1 490.8 738.1 489.1 738.1 494.4 741.7 503.9 741.7 500.3 741.7 502.1 741.7 505.1 745.2 509.2 745.2 508.6 745.2 500.3 745.2 498 748.8 487.3 748.8 488.5 748.8 487.3 748.8 483.7 752.3 475.4 752.3 468.9 752.3 477.2 752.3 473.1 756.5 485.5 756.5 471.3 756.5 461.2 760 465.4 760 458.2 760 451.1 760 447.6 760 450.5 763.6 445.8 763.6 458.8 763.6 451.1 763.6 449.9 767.1 437.5 767.1 423.3 767.1 420.3 767.1 430.4 770.7 441.1 770.7 433.9 770.7 441.1 770.7 448.8 770.7 452.3 774.3 443.4 774.3 439.9 774.3 425.1 774.3 415 777.8 399 777.8 390.7 777.8 388.3 777.8 353.3 777.8 340.3 782 332.6 782 327.9 782 342.1 782 371.1 785.5 368.2 785.5 377 785.5 383 785.5 388.9 789.1 387.7 789.1 385.9 789.1 378.8 789.1 362.8 789.1 361.6 792.6 371.1 792.6 376.5 792.6 375.9 792.6 378.8 796.2 392.5 796.2 375.3 796.2 369.3 796.2 361.6 799.7 352.2 799.7 362.8 799.7 380.6 799.7 381.2 799.7 370.5 803.3 373.5 803.3 361.6 803.3 356.9 803.3 358.7 807.4 355.7 807.4 345 807.4 327.9 811 336.7 811 332.6 811 323.7 811 328.5 811 324.9 814.6 311.9 814.6 321.9 814.6 330.8 814.6 328.5 818.1 325.5 818.1 317.8 818.1 310.7 818.1 322.5 821.7 323.1 821.7 326.7 821.7 332 821.7 322.5 825.2 315.4 825.2 324.9 825.2 311.9 825.2 317.2 828.8 330.2 828.8 327.9 828.8 339.1 828.8 330.2 832.9 337.3 832.9 342.7 832.9 360.5 832.9 369.3 832.9 368.2 836.5 355.1 836.5 348 836.5 346.2 840 348.6 840 340.3 840 339.1 840 342.7 843.6 338.5 843.6 345.6 843.6 339.7 843.6 348 847.2 340.9 847.2 337.3 847.2 332.6 847.2 327.9 850.7 333.2 850.7 336.2 850.7 337.9 850.7 331.4 850.7 328.5 854.3 331.4 854.3 341.5 854.3 340.3 854.3 335.6 858.4 337.9 858.4 339.1 858.4 338.5 858.4 339.7 862 353.3 862 347.4 862 348 862 349.2 862 343.9 865.5 350.4 865.5 356.3 865.5 349.2 865.5 345.6 869.1 337.9 869.1 333.8 869.1 341.5 869.1 332.6 872.6 321.9 872.6 322.5 872.6 320.7 872.6 324.9 872.6 332 876.2 330.8 876.2 323.7 876.2 319 876.2 312.4 879.8 314.2 879.8 302.4 879.8 311.3 879.8 312.4 879.8 317.2 883.9 320.2 883.9 319 883.9 315.4 883.9 320.2 887.5 312.4 887.5 310.7 887.5 308.3 887.5 309.5 891 321.9 891 306.5 891 316 891 320.2 894.6 319 894.6 316 894.6 311.9 894.6 310.1 894.6 311.9 898.1 311.9 898.1 316.6 898.1 317.2 898.1 319 901.7 316.6 901.7 313 901.7 310.7 901.7 312.4 905.2 317.8 905.2 314.2 905.2 309.5 905.2 308.3 909.4 311.9 909.4 310.7 909.4 308.3 909.4 306.5 912.9 309.5 912.9 310.1 912.9 317.8 912.9 322.5 912.9 323.7 916.5 320.7 916.5 315.4 916.5 317.2 916.5 321.9 920.1 320.2 920.1 318.4 920.1 317.8 920.1 319 923.6 317.2 923.6 325.5 923.6 324.3 923.6 318.4 927.2 318.4 927.2 323.7 927.2 326.7 927.2 332.6 930.7 313 930.7 303 930.7 294.1 930.7 295.3 934.9 302.4 934.9 305.9 934.9 298.2 938.4 295.9 938.4 298.2 938.4 285.2 938.4 298.8 938.4 303.6 941.9 298.8 941.9 302.4"/>
  <g class="st14">
    <path d="M81.7,242.9c-.8-.5-2-.9-3.6-.9-4.5,0-7,3.5-7.2,7.9.7-1.6,2.7-3.1,5.4-3.1s6.6,2.5,6.6,6.6-3.3,6.6-7.1,6.6-7.5-2.8-7.5-9,4.4-11.2,9.8-11.2,3.3.5,4.2,1.1l-.8,2ZM75.9,257.9c2.5,0,4.5-1.6,4.5-4.4s-2.1-4.5-4.5-4.5-4.5,1.7-4.5,4.5,2.2,4.4,4.5,4.4Z"/>
    <path d="M87.8,256.1c1,0,1.9.8,1.9,1.9s-.8,1.9-1.9,1.9-1.9-.8-1.9-1.9.8-1.9,1.9-1.9Z"/>
    <path d="M94.2,257.1c-1.3-2-1.8-4.5-1.8-7.2s.5-5.2,1.8-7.2c1.2-1.8,3.1-3,5.8-3s4.5,1.2,5.8,3c1.3,1.9,1.8,4.5,1.8,7.2s-.5,5.2-1.8,7.2c-1.2,1.8-3.1,3-5.8,3s-4.5-1.2-5.8-3ZM103.2,256.5c1.3-1.4,1.8-3.6,1.8-6.5s-.5-5.2-1.8-6.5c-.8-.8-1.8-1.4-3.3-1.4s-2.5.5-3.3,1.4c-1.3,1.4-1.8,3.6-1.8,6.5s.5,5.2,1.8,6.5c.8.8,1.8,1.4,3.3,1.4s2.5-.5,3.3-1.4Z"/>
    <path d="M114.8,239.9c2.6,0,4.7,2.1,4.7,4.7s-2.2,4.7-4.7,4.7-4.7-2.1-4.7-4.7,2.1-4.7,4.7-4.7ZM114.8,247.3c1.5,0,2.6-1.1,2.6-2.7s-1.1-2.7-2.6-2.7-2.6,1.1-2.6,2.7,1.1,2.7,2.6,2.7ZM112.5,259.7l14.1-19.4h2.3l-14,19.4h-2.4ZM126.7,250.5c2.6,0,4.7,2.1,4.7,4.7s-2.2,4.7-4.7,4.7-4.7-2.1-4.7-4.7,2.1-4.7,4.7-4.7ZM126.7,257.8c1.5,0,2.6-1.1,2.6-2.7s-1.1-2.7-2.6-2.7-2.6,1.1-2.6,2.7,1.1,2.7,2.6,2.7Z"/>
  </g>
  <g class="st14">
    <path d="M71,296.3c.2,2.5,2.1,4.3,4.6,4.3s4.5-1.7,4.5-4.3-2-4.3-4.5-4.3-2.9.6-3.8,1.6l-2.5-1,2.5-9.7h10v2.3h-8.4l-1.6,6.2c1-1.1,2.6-1.6,4.2-1.6,3.8,0,6.6,2.5,6.6,6.4s-2.8,6.5-7,6.5-6.8-2.7-7-5.8l2.4-.7Z"/>
    <path d="M87.8,298.7c1,0,1.9.8,1.9,1.9s-.8,1.9-1.9,1.9-1.9-.8-1.9-1.9.8-1.9,1.9-1.9Z"/>
    <path d="M94.2,299.8c-1.3-2-1.8-4.5-1.8-7.2s.5-5.2,1.8-7.2c1.2-1.8,3.1-3,5.8-3s4.5,1.2,5.8,3c1.3,1.9,1.8,4.5,1.8,7.2s-.5,5.2-1.8,7.2c-1.2,1.8-3.1,3-5.8,3s-4.5-1.2-5.8-3ZM103.2,299.1c1.3-1.4,1.8-3.6,1.8-6.5s-.5-5.2-1.8-6.5c-.8-.8-1.8-1.4-3.3-1.4s-2.5.5-3.3,1.4c-1.3,1.4-1.8,3.6-1.8,6.5s.5,5.2,1.8,6.5c.8.8,1.8,1.4,3.3,1.4s2.5-.5,3.3-1.4Z"/>
    <path d="M114.8,282.6c2.6,0,4.7,2.1,4.7,4.7s-2.2,4.7-4.7,4.7-4.7-2.1-4.7-4.7,2.1-4.7,4.7-4.7ZM114.8,289.9c1.5,0,2.6-1.1,2.6-2.7s-1.1-2.7-2.6-2.7-2.6,1.1-2.6,2.7,1.1,2.7,2.6,2.7ZM112.5,302.3l14.1-19.4h2.3l-14,19.4h-2.4ZM126.7,293.1c2.6,0,4.7,2.1,4.7,4.7s-2.2,4.7-4.7,4.7-4.7-2.1-4.7-4.7,2.1-4.7,4.7-4.7ZM126.7,300.4c1.5,0,2.6-1.1,2.6-2.7s-1.1-2.7-2.6-2.7-2.6,1.1-2.6,2.7,1.1,2.7,2.6,2.7Z"/>
  </g>
  <g class="st14">
    <path d="M67.8,342l8.6-12h3.5v12.6h3.4v2.3h-3.4v4.5h-2.5v-4.5h-9.6v-2.9ZM77.3,332.4l-7.3,10.2h7.3v-10.2Z"/>
    <path d="M87.8,345.9c1,0,1.9.8,1.9,1.9s-.8,1.9-1.9,1.9-1.9-.8-1.9-1.9.8-1.9,1.9-1.9Z"/>
    <path d="M94.2,346.9c-1.3-2-1.8-4.5-1.8-7.2s.5-5.2,1.8-7.2c1.2-1.8,3.1-3,5.8-3s4.5,1.2,5.8,3c1.3,1.9,1.8,4.5,1.8,7.2s-.5,5.2-1.8,7.2c-1.2,1.8-3.1,3-5.8,3s-4.5-1.2-5.8-3ZM103.2,346.3c1.3-1.4,1.8-3.6,1.8-6.5s-.5-5.2-1.8-6.5c-.8-.8-1.8-1.4-3.3-1.4s-2.5.5-3.3,1.4c-1.3,1.4-1.8,3.6-1.8,6.5s.5,5.2,1.8,6.5c.8.8,1.8,1.4,3.3,1.4s2.5-.5,3.3-1.4Z"/>
    <path d="M114.8,329.7c2.6,0,4.7,2.1,4.7,4.7s-2.2,4.7-4.7,4.7-4.7-2.1-4.7-4.7,2.1-4.7,4.7-4.7ZM114.8,337c1.5,0,2.6-1.1,2.6-2.7s-1.1-2.7-2.6-2.7-2.6,1.1-2.6,2.7,1.1,2.7,2.6,2.7ZM112.5,349.4l14.1-19.4h2.3l-14,19.4h-2.4ZM126.7,340.2c2.6,0,4.7,2.1,4.7,4.7s-2.2,4.7-4.7,4.7-4.7-2.1-4.7-4.7,2.1-4.7,4.7-4.7ZM126.7,347.6c1.5,0,2.6-1.1,2.6-2.7s-1.1-2.7-2.6-2.7-2.6,1.1-2.6,2.7,1.1,2.7,2.6,2.7Z"/>
  </g>
  <g class="st14">
    <path d="M73.1,392l6-5.7h-9.8v-2.3h13.1v2.2l-5.9,5.6c.2,0,.4,0,.6,0,2.8,0,5.8,2,5.8,5.9s-2.6,6.2-7,6.2-7-2.8-7.2-6.1l2.5-.6c.1,2.7,2.2,4.4,4.7,4.4s4.5-1.7,4.5-4-2.1-3.9-4.3-3.9-1.2,0-1.8.3l-1.2-2.1Z"/>
    <path d="M87.8,399.8c1,0,1.9.8,1.9,1.9s-.8,1.9-1.9,1.9-1.9-.8-1.9-1.9.8-1.9,1.9-1.9Z"/>
    <path d="M94.2,400.9c-1.3-2-1.8-4.5-1.8-7.2s.5-5.2,1.8-7.2c1.2-1.8,3.1-3,5.8-3s4.5,1.2,5.8,3c1.3,1.9,1.8,4.5,1.8,7.2s-.5,5.2-1.8,7.2c-1.2,1.8-3.1,3-5.8,3s-4.5-1.2-5.8-3ZM103.2,400.2c1.3-1.4,1.8-3.6,1.8-6.5s-.5-5.2-1.8-6.5c-.8-.8-1.8-1.4-3.3-1.4s-2.5.5-3.3,1.4c-1.3,1.4-1.8,3.6-1.8,6.5s.5,5.2,1.8,6.5c.8.8,1.8,1.4,3.3,1.4s2.5-.5,3.3-1.4Z"/>
    <path d="M114.8,383.7c2.6,0,4.7,2.1,4.7,4.7s-2.2,4.7-4.7,4.7-4.7-2.1-4.7-4.7,2.1-4.7,4.7-4.7ZM114.8,391c1.5,0,2.6-1.1,2.6-2.7s-1.1-2.7-2.6-2.7-2.6,1.1-2.6,2.7,1.1,2.7,2.6,2.7ZM112.5,403.4l14.1-19.4h2.3l-14,19.4h-2.4ZM126.7,394.2c2.6,0,4.7,2.1,4.7,4.7s-2.2,4.7-4.7,4.7-4.7-2.1-4.7-4.7,2.1-4.7,4.7-4.7ZM126.7,401.6c1.5,0,2.6-1.1,2.6-2.7s-1.1-2.7-2.6-2.7-2.6,1.1-2.6,2.7,1.1,2.7,2.6,2.7Z"/>
  </g>
  <g class="st14">
    <path d="M69.4,443.8c0-.3,0-.6,0-.9,0-3.3,2.4-6.2,6.6-6.2s6.4,2.7,6.4,5.9-1.4,4.6-3.7,6l-4,2.5c-1.2.8-2.2,1.8-2.5,3.2h10.3v2.3h-13.4c0-3,1.3-5.4,4.4-7.4l3.5-2.2c1.9-1.2,2.8-2.6,2.8-4.3s-1.4-3.7-4-3.7-4.1,1.8-4.1,4.2,0,.7,0,.9l-2.5-.3Z"/>
    <path d="M87.8,453c1,0,1.9.8,1.9,1.9s-.8,1.9-1.9,1.9-1.9-.8-1.9-1.9.8-1.9,1.9-1.9Z"/>
    <path d="M94.2,454c-1.3-2-1.8-4.5-1.8-7.2s.5-5.2,1.8-7.2c1.2-1.8,3.1-3,5.8-3s4.5,1.2,5.8,3c1.3,1.9,1.8,4.5,1.8,7.2s-.5,5.2-1.8,7.2c-1.2,1.8-3.1,3-5.8,3s-4.5-1.2-5.8-3ZM103.2,453.4c1.3-1.4,1.8-3.6,1.8-6.5s-.5-5.2-1.8-6.5c-.8-.8-1.8-1.4-3.3-1.4s-2.5.5-3.3,1.4c-1.3,1.4-1.8,3.6-1.8,6.5s.5,5.2,1.8,6.5c.8.8,1.8,1.4,3.3,1.4s2.5-.5,3.3-1.4Z"/>
    <path d="M114.8,436.8c2.6,0,4.7,2.1,4.7,4.7s-2.2,4.7-4.7,4.7-4.7-2.1-4.7-4.7,2.1-4.7,4.7-4.7ZM114.8,444.2c1.5,0,2.6-1.1,2.6-2.7s-1.1-2.7-2.6-2.7-2.6,1.1-2.6,2.7,1.1,2.7,2.6,2.7ZM112.5,456.6l14.1-19.4h2.3l-14,19.4h-2.4ZM126.7,447.4c2.6,0,4.7,2.1,4.7,4.7s-2.2,4.7-4.7,4.7-4.7-2.1-4.7-4.7,2.1-4.7,4.7-4.7ZM126.7,454.7c1.5,0,2.6-1.1,2.6-2.7s-1.1-2.7-2.6-2.7-2.6,1.1-2.6,2.7,1.1,2.7,2.6,2.7Z"/>
  </g>
  <g class="st14">
    <path d="M79.4,504.6v-14.2h-4.8v-1.4c2.7-.1,4.5-1.7,5-3.8h2.2v19.4h-2.5Z"/>
    <path d="M87.8,501c1,0,1.9.8,1.9,1.9s-.8,1.9-1.9,1.9-1.9-.8-1.9-1.9.8-1.9,1.9-1.9Z"/>
    <path d="M94.2,502c-1.3-2-1.8-4.5-1.8-7.2s.5-5.2,1.8-7.2c1.2-1.8,3.1-3,5.8-3s4.5,1.2,5.8,3c1.3,1.9,1.8,4.5,1.8,7.2s-.5,5.2-1.8,7.2c-1.2,1.8-3.1,3-5.8,3s-4.5-1.2-5.8-3ZM103.2,501.4c1.3-1.3,1.8-3.6,1.8-6.5s-.5-5.2-1.8-6.5c-.8-.8-1.8-1.4-3.3-1.4s-2.5.5-3.3,1.4c-1.3,1.3-1.8,3.6-1.8,6.5s.5,5.2,1.8,6.5c.8.8,1.8,1.4,3.3,1.4s2.5-.5,3.3-1.4Z"/>
    <path d="M114.8,484.9c2.6,0,4.7,2.1,4.7,4.7s-2.2,4.7-4.7,4.7-4.7-2.1-4.7-4.7,2.1-4.7,4.7-4.7ZM114.8,492.2c1.5,0,2.6-1.1,2.6-2.7s-1.1-2.7-2.6-2.7-2.6,1.1-2.6,2.7,1.1,2.7,2.6,2.7ZM112.5,504.6l14.1-19.4h2.3l-14,19.4h-2.4ZM126.7,495.4c2.6,0,4.7,2.1,4.7,4.7s-2.2,4.7-4.7,4.7-4.7-2.1-4.7-4.7,2.1-4.7,4.7-4.7ZM126.7,502.7c1.5,0,2.6-1.1,2.6-2.7s-1.1-2.7-2.6-2.7-2.6,1.1-2.6,2.7,1.1,2.7,2.6,2.7Z"/>
  </g>
  <g class="st14">
    <path d="M69.8,552.6c-1.3-2-1.8-4.5-1.8-7.2s.5-5.2,1.8-7.2c1.2-1.8,3.1-3,5.8-3s4.5,1.2,5.8,3c1.3,1.9,1.8,4.5,1.8,7.2s-.5,5.2-1.8,7.2c-1.2,1.8-3.1,3-5.8,3s-4.5-1.2-5.8-3ZM78.8,552c1.3-1.3,1.8-3.6,1.8-6.5s-.5-5.2-1.8-6.5c-.8-.8-1.8-1.4-3.3-1.4s-2.5.5-3.3,1.4c-1.3,1.3-1.8,3.6-1.8,6.5s.5,5.2,1.8,6.5c.8.8,1.8,1.4,3.3,1.4s2.5-.5,3.3-1.4Z"/>
    <path d="M87.8,551.6c1,0,1.9.8,1.9,1.9s-.8,1.9-1.9,1.9-1.9-.8-1.9-1.9.8-1.9,1.9-1.9Z"/>
    <path d="M94.2,552.6c-1.3-2-1.8-4.5-1.8-7.2s.5-5.2,1.8-7.2c1.2-1.8,3.1-3,5.8-3s4.5,1.2,5.8,3c1.3,1.9,1.8,4.5,1.8,7.2s-.5,5.2-1.8,7.2c-1.2,1.8-3.1,3-5.8,3s-4.5-1.2-5.8-3ZM103.2,552c1.3-1.3,1.8-3.6,1.8-6.5s-.5-5.2-1.8-6.5c-.8-.8-1.8-1.4-3.3-1.4s-2.5.5-3.3,1.4c-1.3,1.3-1.8,3.6-1.8,6.5s.5,5.2,1.8,6.5c.8.8,1.8,1.4,3.3,1.4s2.5-.5,3.3-1.4Z"/>
    <path d="M114.8,535.4c2.6,0,4.7,2.1,4.7,4.7s-2.2,4.7-4.7,4.7-4.7-2.1-4.7-4.7,2.1-4.7,4.7-4.7ZM114.8,542.7c1.5,0,2.6-1.1,2.6-2.7s-1.1-2.7-2.6-2.7-2.6,1.1-2.6,2.7,1.1,2.7,2.6,2.7ZM112.5,555.1l14.1-19.4h2.3l-14,19.4h-2.4ZM126.7,545.9c2.6,0,4.7,2.1,4.7,4.7s-2.2,4.7-4.7,4.7-4.7-2.1-4.7-4.7,2.1-4.7,4.7-4.7ZM126.7,553.3c1.5,0,2.6-1.1,2.6-2.7s-1.1-2.7-2.6-2.7-2.6,1.1-2.6,2.7,1.1,2.7,2.6,2.7Z"/>
  </g>
  <g class="st14">
    <path d="M64.9,598.7v-2.1h8v2.1h-8Z"/>
    <path d="M79.4,606.2v-14.2h-4.8v-1.4c2.7-.1,4.5-1.7,5-3.8h2.2v19.4h-2.5Z"/>
    <path d="M87.8,602.6c1,0,1.9.8,1.9,1.9s-.8,1.9-1.9,1.9-1.9-.8-1.9-1.9.8-1.9,1.9-1.9Z"/>
    <path d="M94.2,603.7c-1.3-2-1.8-4.5-1.8-7.2s.5-5.2,1.8-7.2c1.2-1.8,3.1-3,5.8-3s4.5,1.2,5.8,3c1.3,1.9,1.8,4.5,1.8,7.2s-.5,5.2-1.8,7.2c-1.2,1.8-3.1,3-5.8,3s-4.5-1.2-5.8-3ZM103.2,603c1.3-1.3,1.8-3.6,1.8-6.5s-.5-5.2-1.8-6.5c-.8-.8-1.8-1.4-3.3-1.4s-2.5.5-3.3,1.4c-1.3,1.3-1.8,3.6-1.8,6.5s.5,5.2,1.8,6.5c.8.8,1.8,1.4,3.3,1.4s2.5-.5,3.3-1.4Z"/>
    <path d="M114.8,586.5c2.6,0,4.7,2.1,4.7,4.7s-2.2,4.7-4.7,4.7-4.7-2.1-4.7-4.7,2.1-4.7,4.7-4.7ZM114.8,593.8c1.5,0,2.6-1.1,2.6-2.7s-1.1-2.7-2.6-2.7-2.6,1.1-2.6,2.7,1.1,2.7,2.6,2.7ZM112.5,606.2l14.1-19.4h2.3l-14,19.4h-2.4ZM126.7,597c2.6,0,4.7,2.1,4.7,4.7s-2.2,4.7-4.7,4.7-4.7-2.1-4.7-4.7,2.1-4.7,4.7-4.7ZM126.7,604.4c1.5,0,2.6-1.1,2.6-2.7s-1.1-2.7-2.6-2.7-2.6,1.1-2.6,2.7,1.1,2.7,2.6,2.7Z"/>
  </g>
  <g class="st14">
    <path d="M58.5,648.7v-2.1h8v2.1h-8Z"/>
    <path d="M69.4,643.5c0-.3,0-.6,0-.9,0-3.3,2.4-6.2,6.6-6.2s6.4,2.7,6.4,5.9-1.4,4.6-3.7,6l-4,2.5c-1.2.8-2.2,1.8-2.5,3.2h10.3v2.3h-13.4c0-3,1.3-5.4,4.4-7.4l3.5-2.2c1.9-1.2,2.8-2.6,2.8-4.3s-1.4-3.7-4-3.7-4.1,1.8-4.1,4.2,0,.7,0,.9l-2.5-.3Z"/>
    <path d="M87.8,652.7c1,0,1.9.8,1.9,1.9s-.8,1.9-1.9,1.9-1.9-.8-1.9-1.9.8-1.9,1.9-1.9Z"/>
    <path d="M94.2,653.7c-1.3-2-1.8-4.5-1.8-7.2s.5-5.2,1.8-7.2c1.2-1.8,3.1-3,5.8-3s4.5,1.2,5.8,3c1.3,1.9,1.8,4.5,1.8,7.2s-.5,5.2-1.8,7.2c-1.2,1.8-3.1,3-5.8,3s-4.5-1.2-5.8-3ZM103.2,653.1c1.3-1.3,1.8-3.6,1.8-6.5s-.5-5.2-1.8-6.5c-.8-.8-1.8-1.4-3.3-1.4s-2.5.5-3.3,1.4c-1.3,1.3-1.8,3.6-1.8,6.5s.5,5.2,1.8,6.5c.8.8,1.8,1.4,3.3,1.4s2.5-.5,3.3-1.4Z"/>
    <path d="M114.8,636.5c2.6,0,4.7,2.1,4.7,4.7s-2.2,4.7-4.7,4.7-4.7-2.1-4.7-4.7,2.1-4.7,4.7-4.7ZM114.8,643.9c1.5,0,2.6-1.1,2.6-2.7s-1.1-2.7-2.6-2.7-2.6,1.1-2.6,2.7,1.1,2.7,2.6,2.7ZM112.5,656.3l14.1-19.4h2.3l-14,19.4h-2.4ZM126.7,647.1c2.6,0,4.7,2.1,4.7,4.7s-2.2,4.7-4.7,4.7-4.7-2.1-4.7-4.7,2.1-4.7,4.7-4.7ZM126.7,654.4c1.5,0,2.6-1.1,2.6-2.7s-1.1-2.7-2.6-2.7-2.6,1.1-2.6,2.7,1.1,2.7,2.6,2.7Z"/>
  </g>
  <g>
    <path d="M125.1,680.5c0-.3,0-.6,0-.9,0-3.3,2.4-6.2,6.6-6.2s6.4,2.7,6.4,5.9-1.4,4.6-3.7,6l-4,2.5c-1.2.8-2.2,1.8-2.5,3.2h10.3v2.3h-13.4c0-3,1.3-5.4,4.4-7.4l3.5-2.2c1.9-1.2,2.8-2.6,2.8-4.3s-1.4-3.7-4-3.7-4.1,1.8-4.1,4.2,0,.7,0,.9l-2.5-.3Z"/>
    <path d="M143.2,690.7c-1.3-2-1.8-4.5-1.8-7.2s.5-5.2,1.8-7.2c1.2-1.8,3.1-3,5.8-3s4.5,1.2,5.8,3c1.3,2,1.8,4.5,1.8,7.2s-.5,5.2-1.8,7.2c-1.2,1.8-3.1,3-5.8,3s-4.5-1.2-5.8-3ZM152.3,690.1c1.3-1.4,1.8-3.6,1.8-6.5s-.5-5.2-1.8-6.5c-.8-.8-1.8-1.4-3.3-1.4s-2.5.5-3.3,1.4c-1.3,1.4-1.8,3.6-1.8,6.5s.5,5.2,1.8,6.5c.8.8,1.8,1.4,3.3,1.4s2.5-.5,3.3-1.4Z"/>
    <path d="M161.6,690.7c-1.3-2-1.8-4.5-1.8-7.2s.5-5.2,1.8-7.2c1.2-1.8,3.1-3,5.8-3s4.5,1.2,5.8,3c1.3,2,1.8,4.5,1.8,7.2s-.5,5.2-1.8,7.2c-1.2,1.8-3.1,3-5.8,3s-4.5-1.2-5.8-3ZM170.6,690.1c1.3-1.4,1.8-3.6,1.8-6.5s-.5-5.2-1.8-6.5c-.8-.8-1.8-1.4-3.3-1.4s-2.5.5-3.3,1.4c-1.3,1.4-1.8,3.6-1.8,6.5s.5,5.2,1.8,6.5c.8.8,1.8,1.4,3.3,1.4s2.5-.5,3.3-1.4Z"/>
    <path d="M178.1,688.2c0-2.4,1.7-4.2,3.8-4.9-1.9-.6-3.3-2.4-3.3-4.6s2.7-5.3,6.4-5.3,6.5,2.2,6.5,5.3-1.5,4-3.4,4.6c2.2.7,3.8,2.5,3.8,4.9s-2.5,5.5-6.9,5.5-6.9-2.5-6.9-5.5ZM189.5,688c0-2-1.6-3.6-4.4-3.6s-4.4,1.6-4.4,3.6,1.6,3.6,4.4,3.6,4.4-1.6,4.4-3.6ZM189,678.9c0-1.9-1.6-3.4-4-3.4s-4,1.4-4,3.4,1.7,3.4,4,3.4,4-1.4,4-3.4Z"/>
  </g>
  <g>
    <path d="M218.4,680.5c0-.3,0-.6,0-.9,0-3.3,2.4-6.2,6.6-6.2s6.4,2.7,6.4,5.9-1.4,4.6-3.7,6l-4,2.5c-1.2.8-2.2,1.8-2.5,3.2h10.3v2.3h-13.4c0-3,1.3-5.4,4.4-7.4l3.5-2.2c1.9-1.2,2.8-2.6,2.8-4.3s-1.4-3.7-4-3.7-4.1,1.8-4.1,4.2,0,.7,0,.9l-2.5-.3Z"/>
    <path d="M236.6,690.7c-1.3-2-1.8-4.5-1.8-7.2s.5-5.2,1.8-7.2c1.2-1.8,3.1-3,5.8-3s4.5,1.2,5.8,3c1.3,2,1.8,4.5,1.8,7.2s-.5,5.2-1.8,7.2c-1.2,1.8-3.1,3-5.8,3s-4.5-1.2-5.8-3ZM245.6,690.1c1.3-1.4,1.8-3.6,1.8-6.5s-.5-5.2-1.8-6.5c-.8-.8-1.8-1.4-3.3-1.4s-2.5.5-3.3,1.4c-1.3,1.4-1.8,3.6-1.8,6.5s.5,5.2,1.8,6.5c.8.8,1.8,1.4,3.3,1.4s2.5-.5,3.3-1.4Z"/>
    <path d="M257,693.3v-14.2h-4.8v-1.4c2.7-.1,4.5-1.7,5-3.8h2.2v19.4h-2.5Z"/>
    <path d="M265.2,690.7c-1.3-2-1.8-4.5-1.8-7.2s.5-5.2,1.8-7.2c1.2-1.8,3.1-3,5.8-3s4.5,1.2,5.8,3c1.3,2,1.8,4.5,1.8,7.2s-.5,5.2-1.8,7.2c-1.2,1.8-3.1,3-5.8,3s-4.5-1.2-5.8-3ZM274.2,690.1c1.3-1.4,1.8-3.6,1.8-6.5s-.5-5.2-1.8-6.5c-.8-.8-1.8-1.4-3.3-1.4s-2.5.5-3.3,1.4c-1.3,1.4-1.8,3.6-1.8,6.5s.5,5.2,1.8,6.5c.8.8,1.8,1.4,3.3,1.4s2.5-.5,3.3-1.4Z"/>
  </g>
  <g>
    <path d="M302.3,680.5c0-.3,0-.6,0-.9,0-3.3,2.4-6.2,6.6-6.2s6.4,2.7,6.4,5.9-1.4,4.6-3.7,6l-4,2.5c-1.2.8-2.2,1.8-2.5,3.2h10.3v2.3h-13.4c0-3,1.3-5.4,4.4-7.4l3.5-2.2c1.9-1.2,2.8-2.6,2.8-4.3s-1.4-3.7-4-3.7-4.1,1.8-4.1,4.2,0,.7,0,.9l-2.5-.3Z"/>
    <path d="M320.5,690.7c-1.3-2-1.8-4.5-1.8-7.2s.5-5.2,1.8-7.2c1.2-1.8,3.1-3,5.8-3s4.5,1.2,5.8,3c1.3,2,1.8,4.5,1.8,7.2s-.5,5.2-1.8,7.2c-1.2,1.8-3.1,3-5.8,3s-4.5-1.2-5.8-3ZM329.5,690.1c1.3-1.4,1.8-3.6,1.8-6.5s-.5-5.2-1.8-6.5c-.8-.8-1.8-1.4-3.3-1.4s-2.5.5-3.3,1.4c-1.3,1.4-1.8,3.6-1.8,6.5s.5,5.2,1.8,6.5c.8.8,1.8,1.4,3.3,1.4s2.5-.5,3.3-1.4Z"/>
    <path d="M340.9,693.3v-14.2h-4.8v-1.4c2.7-.1,4.5-1.7,5-3.8h2.2v19.4h-2.5Z"/>
    <path d="M347.4,680.5c0-.3,0-.6,0-.9,0-3.3,2.4-6.2,6.6-6.2s6.4,2.7,6.4,5.9-1.4,4.6-3.7,6l-4,2.5c-1.2.8-2.2,1.8-2.5,3.2h10.3v2.3h-13.4c0-3,1.3-5.4,4.4-7.4l3.5-2.2c1.9-1.2,2.8-2.6,2.8-4.3s-1.4-3.7-4-3.7-4.1,1.8-4.1,4.2,0,.7,0,.9l-2.5-.3Z"/>
  </g>
  <g>
    <path d="M389.8,680.5c0-.3,0-.6,0-.9,0-3.3,2.4-6.2,6.6-6.2s6.4,2.7,6.4,5.9-1.4,4.6-3.7,6l-4,2.5c-1.2.8-2.2,1.8-2.5,3.2h10.3v2.3h-13.4c0-3,1.3-5.4,4.4-7.4l3.5-2.2c1.9-1.2,2.8-2.6,2.8-4.3s-1.4-3.7-4-3.7-4.1,1.8-4.1,4.2,0,.7,0,.9l-2.5-.3Z"/>
    <path d="M407.9,690.7c-1.3-2-1.8-4.5-1.8-7.2s.5-5.2,1.8-7.2c1.2-1.8,3.1-3,5.8-3s4.5,1.2,5.8,3c1.3,2,1.8,4.5,1.8,7.2s-.5,5.2-1.8,7.2c-1.2,1.8-3.1,3-5.8,3s-4.5-1.2-5.8-3ZM416.9,690.1c1.3-1.4,1.8-3.6,1.8-6.5s-.5-5.2-1.8-6.5c-.8-.8-1.8-1.4-3.3-1.4s-2.5.5-3.3,1.4c-1.3,1.4-1.8,3.6-1.8,6.5s.5,5.2,1.8,6.5c.8.8,1.8,1.4,3.3,1.4s2.5-.5,3.3-1.4Z"/>
    <path d="M428.4,693.3v-14.2h-4.8v-1.4c2.7-.1,4.5-1.7,5-3.8h2.2v19.4h-2.5Z"/>
    <path d="M434,685.9l8.6-12h3.4v12.6h3.4v2.3h-3.4v4.5h-2.5v-4.5h-9.6v-2.9ZM443.6,676.3l-7.3,10.2h7.3v-10.2Z"/>
  </g>
  <g>
    <path d="M477.2,680.5c0-.3,0-.6,0-.9,0-3.3,2.4-6.2,6.6-6.2s6.4,2.7,6.4,5.9-1.4,4.6-3.7,6l-4,2.5c-1.2.8-2.2,1.8-2.5,3.2h10.3v2.3h-13.4c0-3,1.3-5.4,4.4-7.4l3.5-2.2c1.9-1.2,2.8-2.6,2.8-4.3s-1.4-3.7-4-3.7-4.1,1.8-4.1,4.2,0,.7,0,.9l-2.5-.3Z"/>
    <path d="M495.3,690.7c-1.3-2-1.8-4.5-1.8-7.2s.5-5.2,1.8-7.2c1.2-1.8,3.1-3,5.8-3s4.5,1.2,5.8,3c1.3,2,1.8,4.5,1.8,7.2s-.5,5.2-1.8,7.2c-1.2,1.8-3.1,3-5.8,3s-4.5-1.2-5.8-3ZM504.3,690.1c1.3-1.4,1.8-3.6,1.8-6.5s-.5-5.2-1.8-6.5c-.8-.8-1.8-1.4-3.3-1.4s-2.5.5-3.3,1.4c-1.3,1.4-1.8,3.6-1.8,6.5s.5,5.2,1.8,6.5c.8.8,1.8,1.4,3.3,1.4s2.5-.5,3.3-1.4Z"/>
    <path d="M515.8,693.3v-14.2h-4.8v-1.4c2.7-.1,4.5-1.7,5-3.8h2.2v19.4h-2.5Z"/>
    <path d="M535.3,676.6c-.8-.5-2-.9-3.6-.9-4.5,0-7,3.5-7.2,7.9.7-1.6,2.7-3.1,5.4-3.1s6.6,2.5,6.6,6.6-3.3,6.6-7.1,6.6-7.5-2.8-7.5-9,4.4-11.2,9.8-11.2,3.3.5,4.2,1.1l-.8,2ZM529.6,691.5c2.5,0,4.5-1.7,4.5-4.4s-2.1-4.5-4.5-4.5-4.5,1.7-4.5,4.5,2.2,4.4,4.5,4.4Z"/>
  </g>
  <g>
    <path d="M564.6,680.5c0-.3,0-.6,0-.9,0-3.3,2.4-6.2,6.6-6.2s6.4,2.7,6.4,5.9-1.4,4.6-3.7,6l-4,2.5c-1.2.8-2.2,1.8-2.5,3.2h10.3v2.3h-13.4c0-3,1.3-5.4,4.4-7.4l3.5-2.2c1.9-1.2,2.8-2.6,2.8-4.3s-1.4-3.7-4-3.7-4.1,1.8-4.1,4.2,0,.7,0,.9l-2.5-.3Z"/>
    <path d="M582.7,690.7c-1.3-2-1.8-4.5-1.8-7.2s.5-5.2,1.8-7.2c1.2-1.8,3.1-3,5.8-3s4.5,1.2,5.8,3c1.3,2,1.8,4.5,1.8,7.2s-.5,5.2-1.8,7.2c-1.2,1.8-3.1,3-5.8,3s-4.5-1.2-5.8-3ZM591.8,690.1c1.3-1.4,1.8-3.6,1.8-6.5s-.5-5.2-1.8-6.5c-.8-.8-1.8-1.4-3.3-1.4s-2.5.5-3.3,1.4c-1.3,1.4-1.8,3.6-1.8,6.5s.5,5.2,1.8,6.5c.8.8,1.8,1.4,3.3,1.4s2.5-.5,3.3-1.4Z"/>
    <path d="M603.2,693.3v-14.2h-4.8v-1.4c2.7-.1,4.5-1.7,5-3.8h2.2v19.4h-2.5Z"/>
    <path d="M609.5,688.2c0-2.4,1.7-4.2,3.8-4.9-1.9-.6-3.3-2.4-3.3-4.6s2.7-5.3,6.4-5.3,6.5,2.2,6.5,5.3-1.5,4-3.4,4.6c2.2.7,3.8,2.5,3.8,4.9s-2.5,5.5-6.9,5.5-6.9-2.5-6.9-5.5ZM620.9,688c0-2-1.6-3.6-4.4-3.6s-4.4,1.6-4.4,3.6,1.6,3.6,4.4,3.6,4.4-1.6,4.4-3.6ZM620.4,678.9c0-1.9-1.6-3.4-4-3.4s-4,1.4-4,3.4,1.7,3.4,4,3.4,4-1.4,4-3.4Z"/>
  </g>
  <g>
    <path d="M652,680.5c0-.3,0-.6,0-.9,0-3.3,2.4-6.2,6.6-6.2s6.4,2.7,6.4,5.9-1.4,4.6-3.7,6l-4,2.5c-1.2.8-2.2,1.8-2.5,3.2h10.3v2.3h-13.4c0-3,1.3-5.4,4.4-7.4l3.5-2.2c1.9-1.2,2.8-2.6,2.8-4.3s-1.4-3.7-4-3.7-4.1,1.8-4.1,4.2,0,.7,0,.9l-2.5-.3Z"/>
    <path d="M670.1,690.7c-1.3-2-1.8-4.5-1.8-7.2s.5-5.2,1.8-7.2c1.2-1.8,3.1-3,5.8-3s4.5,1.2,5.8,3c1.3,2,1.8,4.5,1.8,7.2s-.5,5.2-1.8,7.2c-1.2,1.8-3.1,3-5.8,3s-4.5-1.2-5.8-3ZM679.2,690.1c1.3-1.4,1.8-3.6,1.8-6.5s-.5-5.2-1.8-6.5c-.8-.8-1.8-1.4-3.3-1.4s-2.5.5-3.3,1.4c-1.3,1.4-1.8,3.6-1.8,6.5s.5,5.2,1.8,6.5c.8.8,1.8,1.4,3.3,1.4s2.5-.5,3.3-1.4Z"/>
    <path d="M686.8,680.5c0-.3,0-.6,0-.9,0-3.3,2.4-6.2,6.6-6.2s6.4,2.7,6.4,5.9-1.4,4.6-3.7,6l-4,2.5c-1.2.8-2.2,1.8-2.5,3.2h10.3v2.3h-13.4c0-3,1.3-5.4,4.4-7.4l3.5-2.2c1.9-1.2,2.8-2.6,2.8-4.3s-1.4-3.7-4-3.7-4.1,1.8-4.1,4.2,0,.7,0,.9l-2.5-.3Z"/>
    <path d="M704.9,690.7c-1.3-2-1.8-4.5-1.8-7.2s.5-5.2,1.8-7.2c1.2-1.8,3.1-3,5.8-3s4.5,1.2,5.8,3c1.3,2,1.8,4.5,1.8,7.2s-.5,5.2-1.8,7.2c-1.2,1.8-3.1,3-5.8,3s-4.5-1.2-5.8-3ZM714,690.1c1.3-1.4,1.8-3.6,1.8-6.5s-.5-5.2-1.8-6.5c-.8-.8-1.8-1.4-3.3-1.4s-2.5.5-3.3,1.4c-1.3,1.4-1.8,3.6-1.8,6.5s.5,5.2,1.8,6.5c.8.8,1.8,1.4,3.3,1.4s2.5-.5,3.3-1.4Z"/>
  </g>
  <g>
    <path d="M739.4,680.5c0-.3,0-.6,0-.9,0-3.3,2.4-6.2,6.6-6.2s6.4,2.7,6.4,5.9-1.4,4.6-3.7,6l-4,2.5c-1.2.8-2.2,1.8-2.5,3.2h10.3v2.3h-13.4c0-3,1.3-5.4,4.4-7.4l3.5-2.2c1.9-1.2,2.8-2.6,2.8-4.3s-1.4-3.7-4-3.7-4.1,1.8-4.1,4.2,0,.7,0,.9l-2.5-.3Z"/>
    <path d="M757.6,690.7c-1.3-2-1.8-4.5-1.8-7.2s.5-5.2,1.8-7.2c1.2-1.8,3.1-3,5.8-3s4.5,1.2,5.8,3c1.3,2,1.8,4.5,1.8,7.2s-.5,5.2-1.8,7.2c-1.2,1.8-3.1,3-5.8,3s-4.5-1.2-5.8-3ZM766.6,690.1c1.3-1.4,1.8-3.6,1.8-6.5s-.5-5.2-1.8-6.5c-.8-.8-1.8-1.4-3.3-1.4s-2.5.5-3.3,1.4c-1.3,1.4-1.8,3.6-1.8,6.5s.5,5.2,1.8,6.5c.8.8,1.8,1.4,3.3,1.4s2.5-.5,3.3-1.4Z"/>
    <path d="M774.2,680.5c0-.3,0-.6,0-.9,0-3.3,2.4-6.2,6.6-6.2s6.4,2.7,6.4,5.9-1.4,4.6-3.7,6l-4,2.5c-1.2.8-2.2,1.8-2.5,3.2h10.3v2.3h-13.4c0-3,1.3-5.4,4.4-7.4l3.5-2.2c1.9-1.2,2.8-2.6,2.8-4.3s-1.4-3.7-4-3.7-4.1,1.8-4.1,4.2,0,.7,0,.9l-2.5-.3Z"/>
    <path d="M790.7,680.5c0-.3,0-.6,0-.9,0-3.3,2.4-6.2,6.6-6.2s6.4,2.7,6.4,5.9-1.4,4.6-3.7,6l-4,2.5c-1.2.8-2.2,1.8-2.5,3.2h10.3v2.3h-13.4c0-3,1.3-5.4,4.4-7.4l3.5-2.2c1.9-1.2,2.8-2.6,2.8-4.3s-1.4-3.7-4-3.7-4.1,1.8-4.1,4.2,0,.7,0,.9l-2.5-.3Z"/>
  </g>
  <g>
    <path d="M826.9,680.5c0-.3,0-.6,0-.9,0-3.3,2.4-6.2,6.6-6.2s6.4,2.7,6.4,5.9-1.4,4.6-3.7,6l-4,2.5c-1.2.8-2.2,1.8-2.5,3.2h10.3v2.3h-13.4c0-3,1.3-5.4,4.4-7.4l3.5-2.2c1.9-1.2,2.8-2.6,2.8-4.3s-1.4-3.7-4-3.7-4.1,1.8-4.1,4.2,0,.7,0,.9l-2.5-.3Z"/>
    <path d="M845,690.7c-1.3-2-1.8-4.5-1.8-7.2s.5-5.2,1.8-7.2c1.2-1.8,3.1-3,5.8-3s4.5,1.2,5.8,3c1.3,2,1.8,4.5,1.8,7.2s-.5,5.2-1.8,7.2c-1.2,1.8-3.1,3-5.8,3s-4.5-1.2-5.8-3ZM854,690.1c1.3-1.4,1.8-3.6,1.8-6.5s-.5-5.2-1.8-6.5c-.8-.8-1.8-1.4-3.3-1.4s-2.5.5-3.3,1.4c-1.3,1.4-1.8,3.6-1.8,6.5s.5,5.2,1.8,6.5c.8.8,1.8,1.4,3.3,1.4s2.5-.5,3.3-1.4Z"/>
    <path d="M861.7,680.5c0-.3,0-.6,0-.9,0-3.3,2.4-6.2,6.6-6.2s6.4,2.7,6.4,5.9-1.4,4.6-3.7,6l-4,2.5c-1.2.8-2.2,1.8-2.5,3.2h10.3v2.3h-13.4c0-3,1.3-5.4,4.4-7.4l3.5-2.2c1.9-1.2,2.8-2.6,2.8-4.3s-1.4-3.7-4-3.7-4.1,1.8-4.1,4.2,0,.7,0,.9l-2.5-.3Z"/>
    <path d="M877.3,685.9l8.6-12h3.5v12.6h3.4v2.3h-3.4v4.5h-2.5v-4.5h-9.6v-2.9ZM886.8,676.3l-7.3,10.2h7.3v-10.2Z"/>
  </g>
  <g>
    <path d="M914.3,680.5c0-.3,0-.6,0-.9,0-3.3,2.4-6.2,6.6-6.2s6.4,2.7,6.4,5.9-1.4,4.6-3.7,6l-4,2.5c-1.2.8-2.2,1.8-2.5,3.2h10.3v2.3h-13.4c0-3,1.3-5.4,4.4-7.4l3.5-2.2c1.9-1.2,2.8-2.6,2.8-4.3s-1.4-3.7-4-3.7-4.1,1.8-4.1,4.2,0,.7,0,.9l-2.5-.3Z"/>
    <path d="M932.4,690.7c-1.3-2-1.8-4.5-1.8-7.2s.5-5.2,1.8-7.2c1.2-1.8,3.1-3,5.8-3s4.5,1.2,5.8,3c1.3,2,1.8,4.5,1.8,7.2s-.5,5.2-1.8,7.2c-1.2,1.8-3.1,3-5.8,3s-4.5-1.2-5.8-3ZM941.4,690.1c1.3-1.4,1.8-3.6,1.8-6.5s-.5-5.2-1.8-6.5c-.8-.8-1.8-1.4-3.3-1.4s-2.5.5-3.3,1.4c-1.3,1.4-1.8,3.6-1.8,6.5s.5,5.2,1.8,6.5c.8.8,1.8,1.4,3.3,1.4s2.5-.5,3.3-1.4Z"/>
    <path d="M949.1,680.5c0-.3,0-.6,0-.9,0-3.3,2.4-6.2,6.6-6.2s6.4,2.7,6.4,5.9-1.4,4.6-3.7,6l-4,2.5c-1.2.8-2.2,1.8-2.5,3.2h10.3v2.3h-13.4c0-3,1.3-5.4,4.4-7.4l3.5-2.2c1.9-1.2,2.8-2.6,2.8-4.3s-1.4-3.7-4-3.7-4.1,1.8-4.1,4.2,0,.7,0,.9l-2.5-.3Z"/>
    <path d="M978.6,676.6c-.8-.5-2-.9-3.6-.9-4.5,0-7,3.5-7.2,7.9.7-1.6,2.7-3.1,5.4-3.1s6.6,2.5,6.6,6.6-3.3,6.6-7.1,6.6-7.5-2.8-7.5-9,4.4-11.2,9.8-11.2,3.3.5,4.2,1.1l-.8,2ZM972.8,691.5c2.5,0,4.5-1.7,4.5-4.4s-2.1-4.5-4.5-4.5-4.5,1.7-4.5,4.5,2.2,4.4,4.5,4.4Z"/>
  </g>
  <g>
    <path d="M162.3,811.5c0-7.1,5.2-11,10.5-11s8.2,2.7,9.3,6.8l-2.3.8c-.8-3.3-3.3-5.2-7-5.2s-8,3-8,8.7,3.9,8.8,8,8.8,6.2-2.3,7.1-5.3l2.2.8c-1.1,4-4.5,6.8-9.3,6.8s-10.5-4-10.5-11.1Z"/>
    <path d="M200,822.2v-9.7h-11.4v9.7h-2.5v-21.3h2.5v9.3h11.4v-9.3h2.5v21.3h-2.5Z"/>
    <path d="M208.4,822.2v-21.3h12.8v2.3h-10.3v7.5h9.3v2.3h-9.3v9.2h-2.5Z"/>
  </g>
  <g>
    <path d="M344.2,815v-14.1h2.5v14c0,3.4,1.8,5.4,5,5.4s5-2,5-5.4v-14h2.5v14.1c0,4.9-3.2,7.6-7.5,7.6s-7.5-2.7-7.5-7.6Z"/>
    <path d="M375.7,806.6c-.3-1.8-1.7-3.8-4.8-3.8-2.5,0-4.4,1.6-4.4,3.8s1.1,2.9,3.1,3.4l3.1.7c3.4.8,5.5,2.9,5.5,5.9s-2.8,6.1-7.2,6.1-7.4-3.2-7.8-6.3l2.4-.8c.2,2.5,2.1,4.8,5.4,4.8s4.7-1.6,4.7-3.7-1.2-3.1-3.5-3.6l-3.1-.7c-2.9-.7-5.1-2.6-5.1-5.7s3.1-6.2,6.9-6.2,6.5,2.8,7.1,5.2l-2.2.8Z"/>
    <path d="M382.6,822.2v-21.3h7c5.4,0,10.1,3.7,10.1,10.7s-4.8,10.6-10.2,10.6h-7ZM389.6,820c4.1,0,7.6-2.8,7.6-8.4s-3.4-8.5-7.6-8.5h-4.5v16.8h4.5Z"/>
  </g>
  <g>
    <path d="M528,822.2v-21.3h12.8v2.3h-10.2v7.2h9.3v2.3h-9.3v7.2h10.2v2.3h-12.8Z"/>
    <path d="M545.1,815v-14.1h2.5v14c0,3.4,1.8,5.4,5,5.4s5-2,5-5.4v-14h2.5v14.1c0,4.9-3.2,7.6-7.5,7.6s-7.5-2.7-7.5-7.6Z"/>
    <path d="M572,813.3h-3.7v8.9h-2.5v-21.3h7.7c3.9,0,6.4,2.8,6.4,6.2s-2,5.5-5.2,6l5.2,9.1h-2.9l-5-8.9ZM573.1,811c2.6,0,4.3-1.5,4.3-3.9s-1.7-4-4.3-4h-4.8v7.9h4.8Z"/>
  </g>
  <g>
    <path d="M708.2,814.5l2.5-.6v1.9c0,3,1.6,4.5,3.9,4.5s3.8-1.6,3.8-4.3v-15.1h2.5v14.9c0,3.8-2.3,6.8-6.3,6.8s-6.4-2.6-6.4-6.7v-1.3Z"/>
    <path d="M729.1,813.4v8.8h-2.5v-21.3h7.4c3.9,0,6.5,2.7,6.5,6.2s-2.6,6.2-6.5,6.2h-4.9ZM733.6,811.1c2.7,0,4.4-1.6,4.4-3.9s-1.7-4-4.4-4h-4.5v8h4.5Z"/>
    <path d="M741.7,800.9h2.9l5.8,9.9,5.8-9.9h2.9l-7.5,12.2v9.1h-2.5v-9.1l-7.5-12.2Z"/>
  </g>
  <g>
    <path d="M899.6,822.2l-.2-3.5c-.9,1.7-3.2,3.9-7.2,3.9s-10.2-3.9-10.2-11.1,5.2-11,10.4-11,8.1,2.6,9.4,6.4l-2.3,1c-1-3.2-3.6-5.1-7.1-5.1s-7.9,2.9-7.9,8.7,3.8,8.8,7.7,8.8,6.9-3.7,7-6.1h-7.6v-2.3h10v10.3h-2Z"/>
    <path d="M913.2,800.9c4,0,6.4,2.4,6.4,5.7s-1.3,4-3.2,4.6c2.4.6,3.9,2.8,3.9,5.2s-2.6,5.8-6.5,5.8h-7.2v-21.3h6.6ZM913.2,810.4c2.3,0,3.9-1.5,3.9-3.6s-1.6-3.6-4.2-3.6h-3.8v7.2h4.1ZM913.4,820c2.6,0,4.3-1.4,4.3-3.7s-1.5-3.7-4.1-3.7h-4.6v7.4h4.3Z"/>
    <path d="M927.4,813.4v8.8h-2.5v-21.3h7.4c3.9,0,6.5,2.7,6.5,6.2s-2.6,6.2-6.5,6.2h-4.9ZM931.9,811.1c2.7,0,4.4-1.6,4.4-3.9s-1.7-4-4.4-4h-4.5v8h4.5Z"/>
  </g>
</svg>