<svg width="411" height="400" viewBox="0 0 411 400" fill="none" xmlns="http://www.w3.org/2000/svg">
<path d="M0 12C0 5.37257 5.37258 0 12 0H399C405.627 0 411 5.37258 411 12V388C411 394.627 405.627 400 399 400H12C5.37259 400 0 394.627 0 388V12Z" fill="#F6F8FA"/>
<g clip-path="url(#clip0_9501_6406)">
<path d="M272.811 240.281C269.383 240.281 266.086 239.886 262.658 239.094C255.406 237.249 249.077 233.557 243.803 228.283C241.957 226.437 240.507 224.459 238.925 222.349C236.815 219.58 234.573 216.811 231.805 214.57C229.036 212.065 225.871 210.219 222.443 208.9C219.542 207.713 216.641 206.922 213.609 205.999C209.258 204.681 204.907 203.362 200.819 201.121C197.655 199.407 194.886 197.297 192.776 194.396C191.062 191.891 190.007 189.254 189.612 186.221C188.952 181.738 189.612 177.387 191.721 173.3C193.435 169.74 196.072 166.971 199.237 164.861C202.006 163.015 205.17 161.697 208.467 161.038C211.763 160.246 215.191 160.115 218.619 160.51C224.553 161.038 230.09 162.752 235.233 165.784C236.551 166.575 237.738 167.367 238.925 168.289C239.188 168.553 239.188 168.685 238.925 168.817C236.551 171.981 234.31 175.146 232.068 178.31C231.805 178.574 231.673 178.442 231.541 178.31C229.827 177.124 227.981 175.937 226.135 175.146C222.311 173.432 218.224 172.641 214.004 173.168C211.631 173.432 209.39 173.959 207.28 175.278C205.566 176.333 204.115 177.783 203.456 179.629C202.27 182.661 202.929 186.353 206.357 188.727C208.203 189.913 210.181 190.836 212.158 191.627C215.455 192.814 218.751 193.737 222.047 194.66C227.981 196.374 233.651 198.879 238.529 202.703C241.034 204.681 243.408 207.054 245.649 209.428C247.891 211.801 250 214.438 252.242 216.943C254.879 219.712 257.648 222.217 260.944 224.063C263.317 225.514 265.823 226.437 268.592 226.964C271.229 227.491 273.866 227.491 276.503 227.228C278.744 226.964 280.854 226.305 282.832 225.118C285.073 223.8 286.524 221.822 286.919 219.185C287.315 216.548 286.392 214.174 284.414 212.46C282.963 211.142 281.249 210.219 279.403 209.428C275.975 207.845 272.547 206.395 269.119 204.813C265.954 203.494 262.79 202.044 259.757 200.198C256.988 198.484 254.483 196.506 252.505 193.869C250.264 190.968 249.077 187.804 248.945 184.112C248.682 178.178 250.528 173.036 254.483 168.553C257.12 165.652 260.417 163.543 264.109 162.092C267.932 160.642 272.02 160.115 276.107 160.246C279.272 160.378 282.436 160.906 285.469 161.697C289.688 162.884 293.644 164.729 297.204 167.367C297.599 167.63 297.863 167.894 298.258 168.158C298.522 168.421 298.522 168.553 298.39 168.817C296.676 171.19 294.962 173.432 293.248 175.805C292.721 176.596 292.061 177.387 291.534 178.178C291.27 178.442 291.27 178.442 290.875 178.31C288.765 176.86 286.655 175.541 284.282 174.618C280.722 173.168 277.162 172.772 273.338 173.168C271.229 173.432 269.119 173.827 267.141 174.882C265.032 175.937 263.317 177.519 262.658 179.893C261.603 183.057 262.526 186.221 265.559 188.331C267.273 189.518 269.119 190.441 270.965 191.232C274.393 192.682 277.689 194.133 281.118 195.451C284.282 196.77 287.315 198.22 290.084 200.066C292.721 201.78 295.226 203.89 297.072 206.527C299.445 209.691 300.632 213.251 300.764 217.207C300.895 221.162 300.104 224.854 298.258 228.283C296.281 232.106 293.248 234.875 289.424 236.853C287.051 238.172 284.414 238.963 281.777 239.622C278.744 240.017 275.843 240.281 272.811 240.281Z" fill="#01A3E0"/>
<path d="M110.5 200.462C110.5 194.792 111.291 189.65 113.269 184.771C115.906 177.915 120.125 172.245 126.059 167.894C129.619 165.257 133.442 163.279 137.662 161.961C142.408 160.51 147.155 159.983 152.034 160.246C154.934 160.378 157.835 160.774 160.604 161.433C165.351 162.488 169.702 164.466 173.789 167.103C175.108 167.894 176.295 168.817 177.481 169.872C177.877 169.872 177.877 170.004 177.745 170.267C175.503 173.3 173.394 176.464 171.152 179.629C170.889 179.893 170.757 180.156 170.493 180.552C170.361 180.816 170.229 180.816 170.098 180.552C168.383 179.233 166.669 177.915 164.823 176.86C162.054 175.278 159.022 174.355 155.857 173.959C152.957 173.564 149.924 173.432 147.023 173.695C142.013 174.223 137.398 175.937 133.442 179.233C130.146 182.002 127.641 185.299 126.059 189.386C124.345 193.605 123.817 197.825 124.213 202.308C124.476 205.736 125.136 209.164 126.454 212.328C128.959 218.13 132.915 222.349 138.848 224.854C142.013 226.173 145.309 226.832 148.737 226.964C150.979 227.096 153.352 226.964 155.594 226.568C159.022 226.041 162.054 224.854 165.087 223.14C167.329 221.822 169.57 220.371 171.943 219.053C173.921 217.866 176.031 216.811 178.272 216.152C179.591 215.757 181.041 215.493 182.492 215.361C184.469 215.229 186.315 215.361 188.161 215.757C189.875 216.152 191.59 216.811 193.172 217.471C195.677 218.657 197.787 220.108 200.028 221.558C202.533 223.272 205.17 224.723 208.071 225.777C210.444 226.7 212.818 227.228 215.455 227.228C219.542 227.096 223.234 225.777 226.399 223.272C226.926 222.877 226.794 222.877 227.19 223.404C229.431 226.305 231.673 229.337 234.046 232.238C234.31 232.502 234.31 232.634 233.914 232.897C231.145 235.271 228.113 237.117 224.685 238.435C220.861 239.886 216.773 240.545 212.686 240.413C209.522 240.281 206.489 239.49 203.456 238.172C199.896 236.721 196.732 234.612 193.567 232.502C191.853 231.315 190.007 230.129 188.161 229.337C184.997 228.019 181.832 228.019 178.668 229.601C176.69 230.524 174.976 231.711 173.13 232.897C169.702 235.139 166.142 236.985 162.318 238.172C159.681 239.095 156.912 239.622 154.143 239.886C151.374 240.149 148.605 240.149 145.837 240.017C142.672 239.754 139.508 239.095 136.343 238.172C130.014 236.062 124.608 232.634 120.125 227.623C116.829 223.8 114.324 219.58 112.741 214.702C111.555 211.142 110.764 207.45 110.5 203.626C110.5 202.439 110.5 201.253 110.5 200.462Z" fill="#01A3E0"/>
</g>
<defs>
<clipPath id="clip0_9501_6406">
<rect width="190" height="80.5621" fill="white" transform="translate(110.5 159.719)"/>
</clipPath>
</defs>
</svg>
